<?xml version="1.0" encoding="UTF-8"?><svg id="a" xmlns="http://www.w3.org/2000/svg" width="12" height="10" viewBox="0 0 12 10"><polygon points="3 6 3 7 4 7 4 8 5 8 5 9 7 9 7 8 8 8 8 7 9 7 9 6 10 6 10 5 8 5 8 1 4 1 4 5 2 5 2 6 3 6" fill="#fff"/><rect x="5" y="9" width="2" height="1"/><rect x="8" y="7" width="1" height="1"/><rect x="3" y="7" width="1" height="1"/><rect x="4" y="8" width="1" height="1"/><rect x="7" y="8" width="1" height="1"/><rect x="2" y="6" width="1" height="1"/><polygon points="1 5 1 6 2 6 2 5 4 5 4 4 4 1 8 1 8 4 8 5 10 5 10 6 11 6 11 5 12 5 12 4 9 4 9 1 9 0 3 0 3 1 3 4 0 4 0 5 1 5"/><rect x="9" y="6" width="1" height="1"/></svg>