<?xml version="1.0" encoding="UTF-8"?><svg id="a" xmlns="http://www.w3.org/2000/svg" width="12" height="10" viewBox="0 0 12 10"><polygon points="9 4 9 3 8 3 8 2 7 2 7 1 5 1 5 2 4 2 4 3 3 3 3 4 2 4 2 5 4 5 4 9 8 9 8 5 10 5 10 4 9 4" fill="#fff"/><rect x="5" width="2" height="1"/><rect x="3" y="2" width="1" height="1"/><rect x="8" y="2" width="1" height="1"/><rect x="7" y="1" width="1" height="1"/><rect x="4" y="1" width="1" height="1"/><rect x="9" y="3" width="1" height="1"/><polygon points="11 5 11 4 10 4 10 5 8 5 8 6 8 9 4 9 4 6 4 5 2 5 2 4 1 4 1 5 0 5 0 6 3 6 3 9 3 10 9 10 9 9 9 6 12 6 12 5 11 5"/><rect x="2" y="3" width="1" height="1"/></svg>