<?xml version="1.0" encoding="UTF-8"?><svg id="a" xmlns="http://www.w3.org/2000/svg" width="16" height="16" viewBox="0 0 16 16"><path d="M11.5,6v-1h-1v-1h-5v1h-1v1h-1v5h1v1h1v1h5v-1h1v-1h1v-5h-1ZM9.5,11v-1h-1v-1h-1v-4h1v4h1v1h1v1h-1Z" fill="#fff"/><polygon points="10.5 2 9.5 2 9.5 1 6.5 1 6.5 2 5.5 2 5.5 3 10.5 3 10.5 2" fill="#fff"/><polygon points="10.5 14 5.5 14 5.5 15 4.5 15 4.5 16 11.5 16 11.5 15 10.5 15 10.5 14" fill="#fff"/><rect x="6.5" y="0" width="3" height="1"/><rect x="2.5" y="6" width="1" height="5"/><rect x="11.5" y="5" width="1" height="1"/><rect x="3.5" y="5" width="1" height="1"/><polygon points="5.5 4 10.5 4 10.5 5 11.5 5 11.5 2 10.5 2 10.5 3 5.5 3 5.5 2 4.5 2 4.5 5 5.5 5 5.5 4"/><rect x="9.5" y="1" width="1" height="1"/><rect x="5.5" y="1" width="1" height="1"/><rect x="10.5" y="12" width="1" height="1"/><rect x="11.5" y="11" width="1" height="1"/><rect x="9.5" y="10" width="1" height="1"/><rect x="8.5" y="9" width="1" height="1"/><rect x="4.5" y="12" width="1" height="1"/><rect x="3.5" y="11" width="1" height="1"/><rect x="7.5" y="5" width="1" height="4"/><rect x="12.5" y="6" width="1" height="5"/><rect x="5.5" y="13" width="5" height="1"/><rect x="11.5" y="15" width="1" height="1"/><rect x="3.5" y="15" width="1" height="1"/><rect x="4.5" y="14" width="1" height="1"/><rect x="10.5" y="14" width="1" height="1"/></svg>