<?xml version="1.0" encoding="UTF-8"?>
<svg id="Layer_1" xmlns="http://www.w3.org/2000/svg" version="1.1" viewBox="0 0 64 64">
  <!-- Generator: Adobe Illustrator 29.4.0, SVG Export Plug-In . SVG Version: 2.1.0 Build 152)  -->
  <defs>
    <style>
      .st0, .st1 {
        fill-opacity: .85;
      }

      .st2, .st1 {
        fill: #fff;
      }

      .st3 {
        fill-opacity: 0;
      }
    </style>
  </defs>
  <g>
    <rect class="st3" x="50.86" y="-61.49" width="25.47" height="44.85"/>
    <path class="st0" d="M50.86-22.11c0,3.6,1.85,5.47,5.46,5.47h14.31c3.59,0,5.46-1.86,5.46-5.47v-33.92c0-3.6-1.88-5.47-5.46-5.47h-14.31c-3.62,0-5.46,1.86-5.46,5.47V-22.11ZM52.19-22.16v-33.81c0-2.92,1.3-4.19,4.23-4.19h14.12c2.93,0,4.23,1.27,4.23,4.19V-22.16c0,2.92-1.3,4.21-4.23,4.21h-14.12c-2.93,0-4.23-1.29-4.23-4.21Z"/>
    <path class="st0" d="M56.67-21.72h2.03c.5,0,.85-.32.85-.8v-2.09c0-.47-.35-.8-.85-.8h-2.03c-.47,0-.8.32-.8.8v2.09c0,.47.32.8.8.8ZM62.39-21.72h2.03c.5,0,.85-.32.85-.8v-2.09c0-.47-.35-.8-.85-.8h-2.03c-.47,0-.8.32-.8.8v2.09c0,.47.32.8.8.8ZM68.11-21.72h2.03c.5,0,.85-.32.85-.8v-2.09c0-.47-.35-.8-.85-.8h-2.03c-.47,0-.8.32-.8.8v2.09c0,.47.32.8.8.8ZM56.67-40.29h2.03c.5,0,.85-.32.85-.8v-2.09c0-.47-.35-.8-.85-.8h-2.03c-.47,0-.8.32-.8.8v2.09c0,.47.32.8.8.8ZM62.39-40.29h2.03c.5,0,.85-.32.85-.8v-2.09c0-.47-.35-.8-.85-.8h-2.03c-.47,0-.8.32-.8.8v2.09c0,.47.32.8.8.8ZM56.67-46.18h2.03c.5,0,.85-.32.85-.8v-2.09c0-.47-.35-.8-.85-.8h-2.03c-.47,0-.8.32-.8.8v2.09c0,.47.32.8.8.8ZM62.39-46.18h2.03c.5,0,.85-.32.85-.8v-2.09c0-.47-.35-.8-.85-.8h-2.03c-.47,0-.8.32-.8.8v2.09c0,.47.32.8.8.8ZM68.11-46.18h2.03c.5,0,.85-.32.85-.8v-2.09c0-.47-.35-.8-.85-.8h-2.03c-.47,0-.8.32-.8.8v2.09c0,.47.32.8.8.8ZM56.67-52.07h2.03c.5,0,.85-.32.85-.77v-2.09c0-.47-.35-.8-.85-.8h-2.03c-.47,0-.8.32-.8.8v2.09c0,.44.32.77.8.77ZM62.39-52.07h2.03c.5,0,.85-.32.85-.77v-2.09c0-.47-.35-.8-.85-.8h-2.03c-.47,0-.8.32-.8.8v2.09c0,.44.32.77.8.77ZM68.11-52.07h2.03c.5,0,.85-.32.85-.77v-2.09c0-.47-.35-.8-.85-.8h-2.03c-.47,0-.8.32-.8.8v2.09c0,.44.32.77.8.77Z"/>
  </g>
  <g>
    <rect class="st2" x="14.99" y="1" width="34" height="62" rx="4.94" ry="4.94"/>
    <g>
      <rect class="st3" x="13.99" width="36.01" height="64"/>
      <path class="st0" d="M13.99,56.2c0,5.14,2.64,7.8,7.79,7.8h20.42c5.12,0,7.8-2.66,7.8-7.8V7.8c0-5.14-2.68-7.8-7.8-7.8h-20.42c-5.16,0-7.79,2.66-7.79,7.8v48.4ZM15.89,56.12V7.87c0-4.17,1.85-5.97,6.03-5.97h20.15c4.18,0,6.03,1.81,6.03,5.97v48.25c0,4.17-1.85,6.01-6.03,6.01h-20.15c-4.17,0-6.03-1.85-6.03-6.01Z"/>
      <path class="st0" d="M22.28,56.75h2.9c.71,0,1.22-.46,1.22-1.13v-2.99c0-.67-.5-1.13-1.22-1.13h-2.9c-.67,0-1.13.46-1.13,1.13v2.99c0,.67.46,1.13,1.13,1.13ZM30.45,56.75h2.9c.71,0,1.22-.46,1.22-1.13v-2.99c0-.67-.5-1.13-1.22-1.13h-2.9c-.67,0-1.13.46-1.13,1.13v2.99c0,.67.46,1.13,1.13,1.13ZM38.62,56.75h2.9c.71,0,1.22-.46,1.22-1.13v-2.99c0-.67-.5-1.13-1.22-1.13h-2.9c-.67,0-1.13.46-1.13,1.13v2.99c0,.67.46,1.13,1.13,1.13ZM22.28,30.25h2.9c.71,0,1.22-.46,1.22-1.13v-2.98c0-.67-.5-1.14-1.22-1.14h-2.9c-.67,0-1.13.46-1.13,1.14v2.98c0,.67.46,1.13,1.13,1.13ZM30.45,30.25h2.9c.71,0,1.22-.46,1.22-1.13v-2.98c0-.67-.5-1.14-1.22-1.14h-2.9c-.67,0-1.13.46-1.13,1.14v2.98c0,.67.46,1.13,1.13,1.13ZM22.28,21.84h2.9c.71,0,1.22-.46,1.22-1.13v-2.98c0-.67-.5-1.13-1.22-1.13h-2.9c-.67,0-1.13.46-1.13,1.13v2.98c0,.67.46,1.13,1.13,1.13ZM30.45,21.84h2.9c.71,0,1.22-.46,1.22-1.13v-2.98c0-.67-.5-1.13-1.22-1.13h-2.9c-.67,0-1.13.46-1.13,1.13v2.98c0,.67.46,1.13,1.13,1.13ZM38.62,21.84h2.9c.71,0,1.22-.46,1.22-1.13v-2.98c0-.67-.5-1.13-1.22-1.13h-2.9c-.67,0-1.13.46-1.13,1.13v2.98c0,.67.46,1.13,1.13,1.13ZM22.28,13.44h2.9c.71,0,1.22-.46,1.22-1.1v-2.98c0-.67-.5-1.13-1.22-1.13h-2.9c-.67,0-1.13.46-1.13,1.13v2.98c0,.63.46,1.1,1.13,1.1ZM30.45,13.44h2.9c.71,0,1.22-.46,1.22-1.1v-2.98c0-.67-.5-1.13-1.22-1.13h-2.9c-.67,0-1.13.46-1.13,1.13v2.98c0,.63.46,1.1,1.13,1.1ZM38.62,13.44h2.9c.71,0,1.22-.46,1.22-1.1v-2.98c0-.67-.5-1.13-1.22-1.13h-2.9c-.67,0-1.13.46-1.13,1.13v2.98c0,.63.46,1.1,1.13,1.1Z"/>
    </g>
  </g>
  <rect class="st3" x="-52.94" y="15.18" width="36.01" height="64"/>
  <path class="st0" d="M107.06,54.38c0,5.14,2.64,7.8,7.79,7.8h20.42c5.12,0,7.8-2.66,7.8-7.8V5.98c0-5.14-2.68-7.8-7.8-7.8h-20.42c-5.16,0-7.79,2.66-7.79,7.8v48.4Z"/>
  <path class="st0" d="M-44.65,71.93h2.9c.71,0,1.22-.46,1.22-1.13v-2.99c0-.67-.5-1.13-1.22-1.13h-2.9c-.67,0-1.13.46-1.13,1.13v2.99c0,.67.46,1.13,1.13,1.13ZM-36.48,71.93h2.9c.71,0,1.22-.46,1.22-1.13v-2.99c0-.67-.5-1.13-1.22-1.13h-2.9c-.67,0-1.13.46-1.13,1.13v2.99c0,.67.46,1.13,1.13,1.13ZM-28.31,71.93h2.9c.71,0,1.22-.46,1.22-1.13v-2.99c0-.67-.5-1.13-1.22-1.13h-2.9c-.67,0-1.13.46-1.13,1.13v2.99c0,.67.46,1.13,1.13,1.13ZM-44.65,45.43h2.9c.71,0,1.22-.46,1.22-1.13v-2.98c0-.67-.5-1.14-1.22-1.14h-2.9c-.67,0-1.13.46-1.13,1.14v2.98c0,.67.46,1.13,1.13,1.13ZM-36.48,45.43h2.9c.71,0,1.22-.46,1.22-1.13v-2.98c0-.67-.5-1.14-1.22-1.14h-2.9c-.67,0-1.13.46-1.13,1.14v2.98c0,.67.46,1.13,1.13,1.13ZM-44.65,37.03h2.9c.71,0,1.22-.46,1.22-1.13v-2.98c0-.67-.5-1.13-1.22-1.13h-2.9c-.67,0-1.13.46-1.13,1.13v2.98c0,.67.46,1.13,1.13,1.13ZM-36.48,37.03h2.9c.71,0,1.22-.46,1.22-1.13v-2.98c0-.67-.5-1.13-1.22-1.13h-2.9c-.67,0-1.13.46-1.13,1.13v2.98c0,.67.46,1.13,1.13,1.13ZM-28.31,37.03h2.9c.71,0,1.22-.46,1.22-1.13v-2.98c0-.67-.5-1.13-1.22-1.13h-2.9c-.67,0-1.13.46-1.13,1.13v2.98c0,.67.46,1.13,1.13,1.13ZM-44.65,28.62h2.9c.71,0,1.22-.46,1.22-1.1v-2.98c0-.67-.5-1.13-1.22-1.13h-2.9c-.67,0-1.13.46-1.13,1.13v2.98c0,.63.46,1.1,1.13,1.1ZM-36.48,28.62h2.9c.71,0,1.22-.46,1.22-1.1v-2.98c0-.67-.5-1.13-1.22-1.13h-2.9c-.67,0-1.13.46-1.13,1.13v2.98c0,.63.46,1.1,1.13,1.1ZM-28.31,28.62h2.9c.71,0,1.22-.46,1.22-1.1v-2.98c0-.67-.5-1.13-1.22-1.13h-2.9c-.67,0-1.13.46-1.13,1.13v2.98c0,.63.46,1.1,1.13,1.1Z"/>
  <path class="st1" d="M-85.14,147.5v-48.25c0-4.17,1.85-5.97,6.03-5.97h20.15c4.18,0,6.03,1.81,6.03,5.97v48.25c0,4.17-1.85,6.01-6.03,6.01h-20.15c-4.17,0-6.03-1.85-6.03-6.01Z"/>
</svg>