<?xml version="1.0" encoding="UTF-8"?>
<svg id="Layer_5" xmlns="http://www.w3.org/2000/svg" version="1.1" viewBox="0 0 32 32">
  <!-- Generator: Adobe Illustrator 29.4.0, SVG Export Plug-In . SVG Version: 2.1.0 Build 152)  -->
  <defs>
    <style>
      .st0 {
        fill: #fff;
      }
    </style>
  </defs>
  <g>
    <path d="M31,13v-4h-1v-1h-1v-2h-1v-1h-1v-1h-1v-1h-2v-1h-1v-1h-4V0h-6v1h-4v1h-1v1h-2v1h-1v1h-1v1h-1v2h-1v1h-1v4H0v6h1v4h1v1h1v2h1v1h1v1h1v1h2v1h1v1h4v1h6v-1h4v-1h1v-1h2v-1h1v-1h1v-1h1v-2h1v-1h1v-4h1v-6h-1ZM5,10h1v-2h1v-1h1v-1h2v-1h5v1h2v1h1v1h1v2h1v5h-1v2h-1v1h-1v1h-2v1h-5v-1h-2v-1h-1v-1h-1v-2h-1v-5Z"/>
    <path d="M10,16h4v-1h1v-2h-1v-2h1v-2h-1v-1h-4v1h-1v2h1v2h-1v2h1v1ZM11,9h2v2h-2v-2ZM11,13h2v2h-2v-2Z"/>
  </g>
  <g>
    <rect class="st0" x="11" y="9" width="2" height="2"/>
    <rect class="st0" x="11" y="13" width="2" height="2"/>
    <path class="st0" d="M19,10v-2h-1v-1h-1v-1h-2v-1h-5v1h-2v1h-1v1h-1v2h-1v5h1v2h1v1h1v1h2v1h5v-1h2v-1.1h1v-.9h1v-2h1v-5h-1ZM10,16v-1h-1v-2h1v-2h-1v-2h1v-1h4v1h1v2h-1v2h1v2h-1v1h-4Z"/>
  </g>
</svg>