<?xml version="1.0" encoding="UTF-8"?>
<svg xmlns="http://www.w3.org/2000/svg" version="1.1" viewBox="0 0 32 32">
  <!-- Generator: Adobe Illustrator 29.4.0, SVG Export Plug-In . SVG Version: 2.1.0 Build 152)  -->
  <defs>
    <style>
      .st0 {
        fill: #fff;
      }
    </style>
  </defs>
  <g id="Layer_1">
    <rect x="31" y="2" width="1" height="29"/>
    <rect x="1" width="30" height="30"/>
    <rect width="1" height="31"/>
    <rect x="30" y="1" width="1" height="30"/>
    <rect x="1" y="30" width="29" height="1"/>
    <rect x="2" y="31" width="30" height="1"/>
  </g>
  <g id="Bluesky">
    <path class="st0" d="M9.8,7.6c2.5,1.9,5.2,5.7,6.2,7.8,1-2.1,3.7-5.9,6.2-7.8,1.8-1.4,4.8-2.4,4.8.9s-.4,5.6-.6,6.5c-.8,2.8-3.6,3.5-6.2,3.1,4.4.8,5.6,3.3,3.1,5.8-4.6,4.8-6.7-1.2-7.2-2.7,0-.3-.1-.4-.1-.3,0-.1,0,0-.1.3-.5,1.5-2.6,7.5-7.2,2.7-2.4-2.5-1.3-5,3.1-5.8-2.5.4-5.4-.3-6.2-3.1-.2-.8-.6-5.8-.6-6.5,0-3.4,2.9-2.3,4.8-.9h0Z"/>
  </g>
</svg>