<?xml version="1.0" encoding="UTF-8"?><svg id="a" xmlns="http://www.w3.org/2000/svg" viewBox="0 0 32 32"><polygon points="22 7 22 1 5 1 5 31 22 31 28 31 28 7 22 7" fill="#fff"/><polygon points="25 6 26 6 27 6 27 5 26 5 26 4 25 4 25 3 24 3 24 2 23 2 23 6 24 6 25 6" fill="#fff"/><rect x="19" y="3" width="1" height="1"/><rect x="7" y="17" width="1" height="1"/><rect x="23" y="29" width="1" height="1"/><rect x="7" y="21" width="1" height="1"/><rect x="21" y="29" width="1" height="1"/><rect x="7" y="19" width="1" height="1"/><rect x="10.98" y="29" width="1" height="1"/><rect x="19" y="29" width="1" height="1"/><rect x="17" y="29" width="1" height="1"/><rect x="14.99" y="29" width="1" height="1"/><rect x="12.98" y="29" width="1" height="1"/><rect x="7" y="23" width="1" height="1"/><rect x="25" y="9" width="1" height="1"/><rect x="25" y="13" width="1" height="1"/><rect x="25" y="11" width="1" height="1"/><rect x="25" y="15" width="1" height="1"/><rect x="25" y="19" width="1" height="1"/><rect x="25" y="17" width="1" height="1"/><rect x="25" y="23" width="1" height="1"/><rect x="25" y="21" width="1" height="1"/><rect x="25" y="25" width="1" height="1"/><rect x="25" y="29" width="1" height="1"/><rect x="25" y="27" width="1" height="1"/><rect x="7" y="27" width="1" height="1"/><rect x="7" y="25" width="1" height="1"/><rect x="7" y="29" width="1" height="1"/><rect x="8.99" y="29" width="1" height="1"/><polygon points="26 4 26 3 25 3 25 4 26 4 26 5 27 5 27 4 26 4"/><rect x="24" y="2" width="1" height="1"/><path d="M28,6v-1h-1v1h-4V2h1v-1h-1V0H4v32h25V6h-1ZM5,31V1h17v6h1s5,0,5,0v24H5Z"/><polygon points="18 5 18 4 18 3 16 3 16 2 6 2 6 3 7 3 7 15 6 15 6 16 15 16 15 15 9 15 9 3 14 3 14 4 16 4 16 5 16 6 17 6 17 12 17 13 16 13 16 14 15 14 15 15 17 15 17 14 18 14 18 12 19 12 19 6 19 5 18 5"/></svg>