<?xml version="1.0" encoding="UTF-8"?><svg id="b" xmlns="http://www.w3.org/2000/svg" viewBox="0 0 32 32"><polygon points="10 1 4 1 4 25 10 25 10 31 27 31 27 1 10 1" fill="#fff"/><polygon points="7 26 6 26 5 26 5 27 6 27 6 28 7 28 7 29 8 29 8 30 9 30 9 26 8 26 7 26" fill="#fff"/><rect x="18" y="3" width="1" height="1"/><rect x="6" y="28" width="1" height="1"/><path d="M27,0H3v26h1v1h1v-1h4v4h-1v-1h-1v1h1v1h1v1h19V0h-1ZM10,31v-1h.98v-1h-.98v-4h-6V1h23v30H10Z"/><rect x="5" y="27" width="1" height="1"/><rect x="6" y="17" width="1" height="1"/><rect x="24" y="5" width="1" height="1"/><rect x="22" y="29" width="1" height="1"/><rect x="6" y="21" width="1" height="1"/><rect x="20" y="29" width="1" height="1"/><rect x="20" y="3" width="1" height="1"/><rect x="6" y="19" width="1" height="1"/><rect x="18" y="29" width="1" height="1"/><rect x="16" y="29" width="1" height="1"/><rect x="13.99" y="29" width="1" height="1"/><rect x="11.98" y="29" width="1" height="1"/><rect x="6" y="23" width="1" height="1"/><rect x="22" y="3" width="1" height="1"/><rect x="24" y="3" width="1" height="1"/><rect x="24" y="9" width="1" height="1"/><rect x="24" y="7" width="1" height="1"/><rect x="24" y="13" width="1" height="1"/><rect x="24" y="11" width="1" height="1"/><rect x="24" y="15" width="1" height="1"/><rect x="24" y="19" width="1" height="1"/><rect x="24" y="17" width="1" height="1"/><rect x="24" y="23" width="1" height="1"/><rect x="24" y="21" width="1" height="1"/><rect x="24" y="25" width="1" height="1"/><rect x="24" y="29" width="1" height="1"/><rect x="24" y="27" width="1" height="1"/><polygon points="18 6 18 5 17 5 17 4 17 3 15 3 15 2 5 2 5 3 6 3 6 15 5 15 5 16 14 16 14 15 8 15 8 3 13 3 13 4 15 4 15 5 15 6 16 6 16 12 16 13 15 13 15 14 14 14 14 15 16 15 16 14 17 14 17 12 18 12 18 6"/></svg>