<?xml version="1.0" encoding="UTF-8"?><svg xmlns="http://www.w3.org/2000/svg" viewBox="0 0 64 64"><g id="a"><rect x="13.61" y="6.5" width="41" height="54" transform="translate(3.07 -2.86) rotate(5.03)" fill="#fff"/><rect x="19.02" y="5.61" width="41" height="1" transform="translate(.69 -3.44) rotate(5.03)"/><rect x="14.2" y="60.39" width="41" height="1" transform="translate(5.48 -2.81) rotate(5.03)"/><rect x="57.53" y="7.34" width="1" height="56" transform="translate(3.33 -4.96) rotate(5.03)"/><rect x="15.69" y="3.66" width="1" height="56" transform="translate(2.84 -1.3) rotate(5.03)"/><rect x="51.57" y="22.77" width="1" height="1" transform="translate(2.24 -4.48) rotate(5.03)"/><rect x="51.3" y="25.76" width="1" height="1" transform="translate(2.5 -4.44) rotate(5.03)"/><rect x="50.86" y="30.74" width="1" height="1" transform="translate(2.94 -4.39) rotate(5.03)"/><rect x="50.6" y="33.73" width="1" height="1" transform="translate(3.2 -4.35) rotate(5.03)"/><rect x="6.61" y="3.5" width="41" height="54" transform="translate(1.95 -1.63) rotate(3.57)" fill="#fff"/><rect x="11.32" y="2.55" width="41" height="1" transform="translate(.25 -1.98) rotate(3.57)"/><rect x="7.9" y="57.45" width="41" height="1" transform="translate(3.66 -1.66) rotate(3.57)"/><rect x="50.57" y="3.81" width="1" height="56" transform="translate(2.08 -3.12) rotate(3.57)"/><rect x="8.65" y="1.19" width="1" height="56" transform="translate(1.84 -.51) rotate(3.57)"/><rect x="4" y="1" width="41" height="54" fill="#fff"/><rect x="4" y="0" width="41" height="1"/><rect x="4" y="55" width="41" height="1"/><rect x="45" width="1" height="56"/><rect x="3" y="0" width="1" height="56"/><rect x="20" y="5" width="1" height="1"/><rect x="22" y="5" width="1" height="1"/><rect x="24" y="5" width="1" height="1"/><rect x="26" y="5" width="1" height="1"/><rect x="28" y="5" width="1" height="1"/><rect x="30" y="5" width="1" height="1"/><rect x="20" y="8" width="1" height="1"/><rect x="22" y="8" width="1" height="1"/><rect x="24" y="8" width="1" height="1"/><rect x="26" y="8" width="1" height="1"/><rect x="28" y="8" width="1" height="1"/><rect x="30" y="8" width="1" height="1"/><rect x="10" y="16" width="1" height="1"/><rect x="12" y="16" width="1" height="1"/><rect x="14" y="16" width="1" height="1"/><rect x="16" y="16" width="1" height="1"/><rect x="18" y="16" width="1" height="1"/><rect x="20" y="16" width="1" height="1"/><rect x="22" y="16" width="1" height="1"/><rect x="24" y="16" width="1" height="1"/><rect x="26" y="16" width="1" height="1"/><rect x="28" y="16" width="1" height="1"/><rect x="30" y="16" width="1" height="1"/><rect x="32" y="16" width="1" height="1"/><rect x="34" y="16" width="1" height="1"/><rect x="36" y="16" width="1" height="1"/><rect x="38" y="16" width="1" height="1"/><rect x="10" y="19" width="1" height="1"/><rect x="12" y="19" width="1" height="1"/><rect x="14" y="19" width="1" height="1"/><rect x="16" y="19" width="1" height="1"/><rect x="18" y="19" width="1" height="1"/><rect x="20" y="19" width="1" height="1"/><rect x="22" y="19" width="1" height="1"/><rect x="24" y="19" width="1" height="1"/><rect x="26" y="19" width="1" height="1"/><rect x="28" y="19" width="1" height="1"/><rect x="30" y="19" width="1" height="1"/><rect x="32" y="19" width="1" height="1"/><rect x="34" y="19" width="1" height="1"/><rect x="36" y="19" width="1" height="1"/><rect x="38" y="19" width="1" height="1"/><rect x="10" y="24" width="1" height="1"/><rect x="12" y="24" width="1" height="1"/><rect x="14" y="24" width="1" height="1"/><rect x="16" y="24" width="1" height="1"/><rect x="18" y="24" width="1" height="1"/><rect x="20" y="24" width="1" height="1"/><rect x="22" y="24" width="1" height="1"/><rect x="24" y="24" width="1" height="1"/><rect x="10" y="27" width="1" height="1"/><rect x="12" y="27" width="1" height="1"/><rect x="14" y="27" width="1" height="1"/><rect x="16" y="27" width="1" height="1"/><rect x="18" y="27" width="1" height="1"/><rect x="20" y="27" width="1" height="1"/><rect x="22" y="27" width="1" height="1"/><rect x="24" y="27" width="1" height="1"/><rect x="10" y="30" width="1" height="1"/><rect x="12" y="30" width="1" height="1"/><rect x="14" y="30" width="1" height="1"/><rect x="16" y="30" width="1" height="1"/><rect x="18" y="30" width="1" height="1"/><rect x="20" y="30" width="1" height="1"/><rect x="22" y="30" width="1" height="1"/><rect x="24" y="30" width="1" height="1"/><rect x="26" y="24" width="1" height="1"/><rect x="28" y="24" width="1" height="1"/><rect x="30" y="24" width="1" height="1"/><rect x="32" y="24" width="1" height="1"/><rect x="34" y="24" width="1" height="1"/><rect x="36" y="24" width="1" height="1"/><rect x="38" y="24" width="1" height="1"/><rect x="26" y="27" width="1" height="1"/><rect x="28" y="27" width="1" height="1"/><rect x="30" y="27" width="1" height="1"/><rect x="32" y="27" width="1" height="1"/><rect x="34" y="27" width="1" height="1"/><rect x="36" y="27" width="1" height="1"/><rect x="38" y="27" width="1" height="1"/><rect x="26" y="30" width="1" height="1"/><rect x="28" y="30" width="1" height="1"/><rect x="30" y="30" width="1" height="1"/><rect x="32" y="30" width="1" height="1"/><rect x="34" y="30" width="1" height="1"/><rect x="36" y="30" width="1" height="1"/><rect x="38" y="30" width="1" height="1"/><rect x="10" y="35" width="1" height="1"/><rect x="12" y="35" width="1" height="1"/><rect x="14" y="35" width="1" height="1"/><rect x="16" y="35" width="1" height="1"/><rect x="18" y="35" width="1" height="1"/><rect x="20" y="35" width="1" height="1"/><rect x="22" y="35" width="1" height="1"/><rect x="24" y="35" width="1" height="1"/><rect x="10" y="38" width="1" height="1"/><rect x="12" y="38" width="1" height="1"/><rect x="14" y="38" width="1" height="1"/><rect x="16" y="38" width="1" height="1"/><rect x="18" y="38" width="1" height="1"/><rect x="20" y="38" width="1" height="1"/><rect x="22" y="38" width="1" height="1"/><rect x="24" y="38" width="1" height="1"/><rect x="26" y="35" width="1" height="1"/><rect x="28" y="35" width="1" height="1"/><rect x="30" y="35" width="1" height="1"/><rect x="32" y="35" width="1" height="1"/><rect x="34" y="35" width="1" height="1"/><rect x="36" y="35" width="1" height="1"/><rect x="38" y="35" width="1" height="1"/><rect x="26" y="38" width="1" height="1"/><rect x="28" y="38" width="1" height="1"/><rect x="30" y="38" width="1" height="1"/><rect x="32" y="38" width="1" height="1"/><rect x="34" y="38" width="1" height="1"/><rect x="36" y="38" width="1" height="1"/><rect x="38" y="38" width="1" height="1"/><rect x="10" y="45" width="1" height="1"/><rect x="12" y="45" width="1" height="1"/><rect x="14" y="45" width="1" height="1"/><rect x="16" y="45" width="1" height="1"/><rect x="11.67" y="8.96" width="1.56" height=".78"/><rect x="11.67" y="2.74" width="1.56" height=".78"/><rect x="7.78" y="2.74" width="1.56" height=".78"/><rect x="7.78" y="8.96" width="1.56" height=".78"/><rect x="13.22" y="3.51" width=".78" height="1.56"/><rect x="7" y="3.51" width=".78" height="1.56"/><rect x="7" y="7.4" width=".78" height="1.56"/><rect x="13.22" y="7.4" width=".78" height="1.56"/><path d="M13.22,5.85v-.78h-1.56v-1.56h-.78v1.56h-.78v-1.56h-.78v1.56h-1.56v.78h1.56v.78h-1.56v.78h1.56v1.56h.78v-1.56h.78v1.56h.78v-1.56h1.56v-.78h-1.56v-.78h1.56ZM10.89,6.63h-.78v-.78h.78v.78Z"/></g><g id="b"><polygon points="58.31 10.78 58.31 10.2 57.73 10.2 33.29 10.2 32.71 10.2 32.71 10.78 32.13 10.78 32.13 11.36 32.13 24.16 32.71 24.16 32.71 24.16 32.13 24.16 32.13 24.75 32.71 24.75 32.71 25.33 33.29 25.33 57.73 25.33 58.31 25.33 58.31 24.75 58.89 24.75 58.89 24.16 58.89 11.36 58.89 10.78 58.31 10.78" fill="#fff"/><rect x="32.71" y="9.62" width="25.6" height=".58"/><rect x="32.13" y="24.75" width=".58" height=".58"/><rect x="32.13" y="10.2" width=".58" height=".58"/><rect x="46.68" y="19.51" width=".58" height=".58"/><rect x="47.84" y="19.51" width=".58" height=".58"/><rect x="49" y="19.51" width=".58" height=".58"/><rect x="50.17" y="19.51" width=".58" height=".58"/><rect x="51.33" y="19.51" width=".58" height=".58"/><rect x="52.49" y="19.51" width=".58" height=".58"/><rect x="53.66" y="19.51" width=".58" height=".58"/><rect x="54.82" y="19.51" width=".58" height=".58"/><rect x="46.68" y="21.25" width=".58" height=".58"/><rect x="47.84" y="21.25" width=".58" height=".58"/><rect x="49" y="21.25" width=".58" height=".58"/><rect x="50.17" y="21.25" width=".58" height=".58"/><rect x="51.33" y="21.25" width=".58" height=".58"/><rect x="52.49" y="21.25" width=".58" height=".58"/><rect x="53.66" y="21.25" width=".58" height=".58"/><rect x="54.82" y="21.25" width=".58" height=".58"/><rect x="46.68" y="23" width=".58" height=".58"/><rect x="47.84" y="23" width=".58" height=".58"/><rect x="49" y="23" width=".58" height=".58"/><rect x="50.17" y="23" width=".58" height=".58"/><rect x="51.33" y="23" width=".58" height=".58"/><rect x="52.49" y="23" width=".58" height=".58"/><rect x="53.66" y="23" width=".58" height=".58"/><rect x="54.82" y="23" width=".58" height=".58"/><rect x="32.71" y="25.33" width="25.6" height=".58"/><rect x="58.89" y="10.78" width=".58" height="13.96"/><rect x="31.55" y="10.78" width=".58" height="13.96"/><rect x="58.31" y="10.2" width=".58" height=".58"/><rect x="58.31" y="24.75" width=".58" height=".58"/><rect x="38.82" y="16.6" width="1.16" height=".58"/><rect x="38.82" y="11.95" width="1.16" height=".58"/><rect x="35.91" y="11.95" width="1.16" height=".58"/><rect x="35.91" y="16.6" width="1.16" height=".58"/><rect x="39.99" y="12.53" width=".58" height="1.16"/><rect x="35.33" y="12.53" width=".58" height="1.16"/><rect x="35.33" y="15.44" width=".58" height="1.16"/><rect x="39.99" y="15.44" width=".58" height="1.16"/><path d="M39.99,14.27v-.58h-1.16v-1.16h-.58v1.16h-.58v-1.16h-.58v1.16h-1.16v.58h1.16v.58h-1.16v.58h1.16v1.16h.58v-1.16h.58v1.16h.58v-1.16h1.16v-.58h-1.16v-.58h1.16ZM38.24,14.86h-.58v-.58h.58v.58Z"/><polygon points="57.7 7.37 57.65 6.79 57.07 6.84 32.73 8.97 32.15 9.02 32.2 9.6 31.62 9.65 31.67 10.23 32.79 22.98 33.36 22.93 33.36 22.93 32.79 22.98 32.84 23.56 33.42 23.51 33.47 24.09 34.05 24.04 58.39 21.91 58.97 21.86 58.92 21.28 59.5 21.23 59.44 20.65 58.33 7.9 58.28 7.32 57.7 7.37" fill="#fff"/><rect x="32.07" y="7.32" width="25.6" height=".58" transform="translate(-.49 3.94) rotate(-5)"/><rect x="32.86" y="23.53" width=".58" height=".58" transform="translate(-1.95 2.98) rotate(-5)"/><rect x="31.59" y="9.04" width=".58" height=".58" transform="translate(-.69 2.81) rotate(-5)"/><rect x="46.89" y="17.05" width=".58" height=".58" transform="translate(-1.33 4.18) rotate(-5)"/><rect x="48.05" y="16.95" width=".58" height=".58" transform="translate(-1.32 4.28) rotate(-5)"/><rect x="49.21" y="16.84" width=".58" height=".58" transform="translate(-1.31 4.38) rotate(-5)"/><rect x="50.37" y="16.74" width=".58" height=".58" transform="translate(-1.29 4.48) rotate(-5)"/><rect x="51.53" y="16.64" width=".58" height=".58" transform="translate(-1.28 4.58) rotate(-5)"/><rect x="52.69" y="16.54" width=".58" height=".58" transform="translate(-1.27 4.68) rotate(-5)"/><rect x="53.85" y="16.44" width=".58" height=".58" transform="translate(-1.25 4.78) rotate(-5)"/><rect x="55.01" y="16.34" width=".58" height=".58" transform="translate(-1.24 4.88) rotate(-5)"/><rect x="47.04" y="18.79" width=".58" height=".58" transform="translate(-1.48 4.2) rotate(-5)"/><rect x="48.2" y="18.68" width=".58" height=".58" transform="translate(-1.47 4.3) rotate(-5)"/><rect x="49.36" y="18.58" width=".58" height=".58" transform="translate(-1.46 4.4) rotate(-5)"/><rect x="50.52" y="18.48" width=".58" height=".58" transform="translate(-1.44 4.5) rotate(-5)"/><rect x="51.68" y="18.38" width=".58" height=".58" transform="translate(-1.43 4.6) rotate(-5)"/><rect x="52.84" y="18.28" width=".58" height=".58" transform="translate(-1.42 4.7) rotate(-5)"/><rect x="54" y="18.18" width=".58" height=".58" transform="translate(-1.4 4.8) rotate(-5)"/><rect x="55.16" y="18.08" width=".58" height=".58" transform="translate(-1.39 4.9) rotate(-5)"/><rect x="47.2" y="20.52" width=".58" height=".58" transform="translate(-1.63 4.22) rotate(-5)"/><rect x="48.36" y="20.42" width=".58" height=".58" transform="translate(-1.62 4.32) rotate(-5)"/><rect x="49.52" y="20.32" width=".58" height=".58" transform="translate(-1.61 4.42) rotate(-5)"/><rect x="50.67" y="20.22" width=".58" height=".58" transform="translate(-1.59 4.52) rotate(-5)"/><rect x="51.83" y="20.12" width=".58" height=".58" transform="translate(-1.58 4.62) rotate(-5)"/><rect x="52.99" y="20.02" width=".58" height=".58" transform="translate(-1.57 4.72) rotate(-5)"/><rect x="54.15" y="19.92" width=".58" height=".58" transform="translate(-1.55 4.82) rotate(-5)"/><rect x="55.31" y="19.82" width=".58" height=".58" transform="translate(-1.54 4.92) rotate(-5)"/><rect x="33.44" y="22.97" width="25.6" height=".58" transform="translate(-1.85 4.12) rotate(-5)"/><rect x="58.89" y="7.26" width=".58" height="13.96" transform="translate(-1.02 5.21) rotate(-5)"/><rect x="31.65" y="9.65" width=".58" height="13.96" transform="translate(-1.33 2.85) rotate(-5)"/><rect x="57.67" y="6.76" width=".58" height=".58" transform="translate(-.39 5.08) rotate(-5)"/><rect x="58.94" y="21.25" width=".58" height=".58" transform="translate(-1.65 5.24) rotate(-5)"/><rect x="38.81" y="14.81" width="1.16" height=".58" transform="translate(-1.17 3.49) rotate(-5)"/><rect x="38.41" y="10.17" width="1.16" height=".58" transform="translate(-.76 3.44) rotate(-5)"/><rect x="35.51" y="10.43" width="1.16" height=".58" transform="translate(-.8 3.19) rotate(-5)"/><rect x="35.92" y="15.06" width="1.16" height=".58" transform="translate(-1.2 3.24) rotate(-5)"/><rect x="39.64" y="10.68" width=".58" height="1.16" transform="translate(-.83 3.52) rotate(-5)"/><rect x="35.01" y="11.08" width=".58" height="1.16" transform="translate(-.88 3.12) rotate(-5)"/><rect x="35.26" y="13.98" width=".58" height="1.16" transform="translate(-1.13 3.15) rotate(-5)"/><rect x="39.9" y="13.57" width=".58" height="1.16" transform="translate(-1.08 3.56) rotate(-5)"/><path d="M39.75,12.44l-.05-.58-1.16.1-.1-1.16-.58.05.1,1.16-.58.05-.1-1.16-.58.05.1,1.16-1.16.1.05.58,1.16-.1.05.58-1.16.1.05.58,1.16-.1.1,1.16.58-.05-.1-1.16.58-.05.1,1.16.58-.05-.1-1.16,1.16-.1-.05-.58-1.16.1-.05-.58,1.16-.1ZM38.06,13.17l-.58.05-.05-.58.58-.05.05.58Z"/><polygon points="55.93 3.4 55.82 2.83 55.25 2.93 31.23 7.38 30.65 7.49 30.76 8.06 30.19 8.17 30.29 8.74 32.62 21.32 33.2 21.22 33.2 21.22 32.62 21.32 32.73 21.89 33.3 21.79 33.41 22.36 33.98 22.25 58.01 17.8 58.58 17.7 58.47 17.13 59.04 17.02 58.94 16.45 56.61 3.86 56.5 3.29 55.93 3.4" fill="#fff"/><rect x="30.39" y="4.58" width="25.6" height=".58" transform="translate(-.16 7.95) rotate(-10.49)"/><rect x="32.78" y="21.84" width=".58" height=".58" transform="translate(-3.48 6.39) rotate(-10.49)"/><rect x="30.13" y="7.54" width=".58" height=".58" transform="translate(-.92 5.67) rotate(-10.49)"/><rect x="46.13" y="14.04" width=".58" height=".58" transform="translate(-1.83 8.69) rotate(-10.49)"/><rect x="47.27" y="13.83" width=".58" height=".58" transform="translate(-1.78 8.9) rotate(-10.49)"/><rect x="48.41" y="13.62" width=".58" height=".58" transform="translate(-1.72 9.1) rotate(-10.49)"/><rect x="49.56" y="13.4" width=".58" height=".58" transform="translate(-1.66 9.31) rotate(-10.49)"/><rect x="50.7" y="13.19" width=".58" height=".58" transform="translate(-1.6 9.51) rotate(-10.49)"/><rect x="51.85" y="12.98" width=".58" height=".58" transform="translate(-1.55 9.72) rotate(-10.49)"/><rect x="52.99" y="12.77" width=".58" height=".58" transform="translate(-1.49 9.92) rotate(-10.49)"/><rect x="54.13" y="12.56" width=".58" height=".58" transform="translate(-1.43 10.13) rotate(-10.49)"/><rect x="46.44" y="15.76" width=".58" height=".58" transform="translate(-2.14 8.78) rotate(-10.49)"/><rect x="47.59" y="15.54" width=".58" height=".58" transform="translate(-2.08 8.99) rotate(-10.49)"/><rect x="48.73" y="15.33" width=".58" height=".58" transform="translate(-2.03 9.19) rotate(-10.49)"/><rect x="49.88" y="15.12" width=".58" height=".58" transform="translate(-1.97 9.39) rotate(-10.49)"/><rect x="51.02" y="14.91" width=".58" height=".58" transform="translate(-1.91 9.6) rotate(-10.49)"/><rect x="52.16" y="14.7" width=".58" height=".58" transform="translate(-1.85 9.8) rotate(-10.49)"/><rect x="53.31" y="14.48" width=".58" height=".58" transform="translate(-1.79 10.01) rotate(-10.49)"/><rect x="54.45" y="14.27" width=".58" height=".58" transform="translate(-1.74 10.21) rotate(-10.49)"/><rect x="46.76" y="17.47" width=".58" height=".58" transform="translate(-2.45 8.87) rotate(-10.49)"/><rect x="47.91" y="17.26" width=".58" height=".58" transform="translate(-2.39 9.07) rotate(-10.49)"/><rect x="49.05" y="17.05" width=".58" height=".58" transform="translate(-2.33 9.28) rotate(-10.49)"/><rect x="50.19" y="16.84" width=".58" height=".58" transform="translate(-2.28 9.48) rotate(-10.49)"/><rect x="51.34" y="16.62" width=".58" height=".58" transform="translate(-2.22 9.69) rotate(-10.49)"/><rect x="52.48" y="16.41" width=".58" height=".58" transform="translate(-2.16 9.89) rotate(-10.49)"/><rect x="53.63" y="16.2" width=".58" height=".58" transform="translate(-2.1 10.1) rotate(-10.49)"/><rect x="54.77" y="15.99" width=".58" height=".58" transform="translate(-2.04 10.3) rotate(-10.49)"/><rect x="33.25" y="20.02" width="25.6" height=".58" transform="translate(-2.93 8.73) rotate(-10.49)"/><rect x="57.77" y="3.12" width=".58" height="13.96" transform="translate(-.87 10.74) rotate(-10.49)"/><rect x="30.88" y="8.1" width=".58" height="13.96" transform="translate(-2.23 5.93) rotate(-10.49)"/><rect x="55.87" y="2.77" width=".58" height=".58" transform="translate(.38 10.28) rotate(-10.49)"/><rect x="58.52" y="17.07" width=".58" height=".58" transform="translate(-2.18 11) rotate(-10.49)"/><rect x="37.87" y="12.56" width="1.16" height=".58" transform="translate(-1.7 7.22) rotate(-10.49)"/><rect x="37.02" y="7.98" width="1.16" height=".58" transform="translate(-.88 6.99) rotate(-10.49)"/><rect x="34.16" y="8.51" width="1.16" height=".58" transform="translate(-1.02 6.48) rotate(-10.49)"/><rect x="35.01" y="13.09" width="1.16" height=".58" transform="translate(-1.84 6.71) rotate(-10.49)"/><rect x="38.33" y="8.39" width=".58" height="1.16" transform="translate(-.99 7.18) rotate(-10.49)"/><rect x="33.75" y="9.24" width=".58" height="1.16" transform="translate(-1.22 6.36) rotate(-10.49)"/><rect x="34.28" y="12.1" width=".58" height="1.16" transform="translate(-1.73 6.51) rotate(-10.49)"/><rect x="38.86" y="11.25" width=".58" height="1.16" transform="translate(-1.5 7.33) rotate(-10.49)"/><path d="M38.55,10.17l-.11-.57-1.14.21-.21-1.14-.57.11.21,1.14-.57.11-.21-1.14-.57.11.21,1.14-1.14.21.11.57,1.14-.21.11.57-1.14.21.11.57,1.14-.21.21,1.14.57-.11-.21-1.14.57-.11.21,1.14.57-.11-.21-1.14,1.14-.21-.11-.57-1.14.21-.11-.57,1.14-.21ZM36.94,11.06l-.57.11-.11-.57.57-.11.11.57Z"/></g><g id="c"><rect x="-.04" y="46.91" width="28.56" height=".65" transform="translate(-33 61.47) rotate(-90)"/><rect x="30.79" y="61.51" width=".65" height=".65" transform="translate(-30.73 92.95) rotate(-90)"/><rect x="14.56" y="61.51" width=".65" height=".65" transform="translate(-46.95 76.73) rotate(-90)"/><rect x="17.48" y="46.91" width="28.56" height=".65" transform="translate(-15.47 79) rotate(-90)"/><polygon points="15.21 32.96 14.56 32.96 14.56 33.6 14.56 60.87 14.56 61.51 15.21 61.51 15.21 62.16 15.86 62.16 30.14 62.16 30.14 61.51 30.14 61.51 30.14 62.16 30.79 62.16 30.79 61.51 31.44 61.51 31.44 60.87 31.44 33.6 31.44 32.96 30.79 32.96 30.79 32.31 30.14 32.31 15.86 32.31 15.21 32.31 15.21 32.96" fill="#fff"/><rect x="22.68" y="24.19" width=".65" height="15.58" transform="translate(-8.98 54.98) rotate(-90)"/><rect x="22.68" y="54.7" width=".65" height="15.58" transform="translate(-39.49 85.49) rotate(-90)"/><rect x="14.56" y="32.31" width=".65" height=".65" transform="translate(-17.74 47.52) rotate(-90)"/><rect x="30.79" y="32.31" width=".65" height=".65" transform="translate(-1.52 63.74) rotate(-90)"/><rect x="23.67" y="37.11" width=".89" height=".44"/><rect x="23.67" y="33.55" width=".89" height=".44"/><rect x="21.44" y="33.55" width=".89" height=".44"/><rect x="21.44" y="37.11" width=".89" height=".44"/><rect x="24.56" y="34" width=".44" height=".89"/><rect x="21" y="34" width=".44" height=".89"/><rect x="21" y="36.22" width=".44" height=".89"/><rect x="24.56" y="36.22" width=".44" height=".89"/><path d="M24.56,35.33v-.44h-.89v-.89h-.44v.89h-.44v-.89h-.44v.89h-.89v.44h.89v.44h-.89v.44h.89v.89h.44v-.89h.44v.89h.44v-.89h.89v-.44h-.89v-.44h.89ZM23.22,35.77h-.44v-.44h.44v.44Z"/><rect x="22.75" y="57.76" width=".5" height="6" transform="translate(-37.76 83.76) rotate(-90)"/><rect x="27.25" y="41.66" width=".5" height=".5" transform="translate(-14.41 69.41) rotate(-90)"/><rect x="18.25" y="41.66" width=".5" height=".5" transform="translate(-23.41 60.41) rotate(-90)"/><rect x="23.25" y="41.66" width=".5" height=".5" transform="translate(-18.41 65.41) rotate(-90)"/><rect x="19.25" y="41.66" width=".5" height=".5" transform="translate(-22.41 61.41) rotate(-90)"/><rect x="24.25" y="41.66" width=".5" height=".5" transform="translate(-17.41 66.41) rotate(-90)"/><rect x="20.25" y="41.66" width=".5" height=".5" transform="translate(-21.41 62.41) rotate(-90)"/><rect x="25.25" y="41.66" width=".5" height=".5" transform="translate(-16.41 67.41) rotate(-90)"/><rect x="22.25" y="41.66" width=".5" height=".5" transform="translate(-19.41 64.41) rotate(-90)"/><rect x="26.25" y="41.66" width=".5" height=".5" transform="translate(-15.41 68.41) rotate(-90)"/><rect x="18.25" y="43.39" width=".5" height=".5" transform="translate(-25.14 62.14) rotate(-90)"/><rect x="23.25" y="43.39" width=".5" height=".5" transform="translate(-20.14 67.14) rotate(-90)"/><rect x="19.25" y="43.39" width=".5" height=".5" transform="translate(-24.14 63.14) rotate(-90)"/><rect x="24.25" y="43.39" width=".5" height=".5" transform="translate(-19.14 68.14) rotate(-90)"/><rect x="20.25" y="43.39" width=".5" height=".5" transform="translate(-23.14 64.14) rotate(-90)"/><rect x="25.25" y="43.39" width=".5" height=".5" transform="translate(-18.14 69.14) rotate(-90)"/><rect x="18.25" y="39.96" width=".5" height=".5" transform="translate(-21.71 58.71) rotate(-90)"/><rect x="23.25" y="39.96" width=".5" height=".5" transform="translate(-16.71 63.71) rotate(-90)"/><rect x="19.25" y="39.96" width=".5" height=".5" transform="translate(-20.71 59.71) rotate(-90)"/><rect x="24.25" y="39.96" width=".5" height=".5" transform="translate(-15.71 64.71) rotate(-90)"/><rect x="20.25" y="39.96" width=".5" height=".5" transform="translate(-19.71 60.71) rotate(-90)"/><rect x="25.25" y="39.96" width=".5" height=".5" transform="translate(-14.71 65.71) rotate(-90)"/><rect x="21.25" y="39.96" width=".5" height=".5" transform="translate(-18.71 61.71) rotate(-90)"/><rect x="22.25" y="39.96" width=".5" height=".5" transform="translate(-17.71 62.71) rotate(-90)"/><rect x="26.25" y="39.96" width=".5" height=".5" transform="translate(-13.71 66.71) rotate(-90)"/><rect x="27.25" y="39.96" width=".5" height=".5" transform="translate(-12.71 67.71) rotate(-90)"/><rect x="21.25" y="41.66" width=".5" height=".5" transform="translate(-20.41 63.41) rotate(-90)"/><rect x="21.25" y="43.39" width=".5" height=".5" transform="translate(-22.14 65.14) rotate(-90)"/><rect x="22.25" y="43.39" width=".5" height=".5" transform="translate(-21.14 66.14) rotate(-90)"/><rect x="26.25" y="43.39" width=".5" height=".5" transform="translate(-17.14 70.14) rotate(-90)"/><rect x="27.25" y="43.39" width=".5" height=".5" transform="translate(-16.14 71.14) rotate(-90)"/></g></svg>