<?xml version="1.0" encoding="UTF-8"?>
<svg id="Layer_4" xmlns="http://www.w3.org/2000/svg" version="1.1" viewBox="0 0 52.4 40.7">
  <!-- Generator: Adobe Illustrator 29.4.0, SVG Export Plug-In . SVG Version: 2.1.0 Build 152)  -->
  <defs>
    <style>
      .st0 {
        fill: #fff;
      }
    </style>
  </defs>
  <g>
    <polygon class="st0" points="49.3 14.7 49.3 13.7 48.3 13.7 6.3 13.7 5.3 13.7 5.3 14.7 4.3 14.7 4.3 15.7 4.3 37.7 5.3 37.7 5.3 37.7 4.3 37.7 4.3 38.7 5.3 38.7 5.3 39.7 6.3 39.7 48.3 39.7 49.3 39.7 49.3 38.7 50.3 38.7 50.3 37.7 50.3 15.7 50.3 14.7 49.3 14.7"/>
    <rect x="5.3" y="12.7" width="44" height="1"/>
    <rect x="4.3" y="38.7" width="1" height="1"/>
    <rect x="4.3" y="13.7" width="1" height="1"/>
    <g>
      <g>
        <rect x="29.3" y="29.7" width="1" height="1"/>
        <rect x="31.3" y="29.7" width="1" height="1"/>
        <rect x="33.3" y="29.7" width="1" height="1"/>
        <rect x="35.3" y="29.7" width="1" height="1"/>
        <rect x="37.3" y="29.7" width="1" height="1"/>
        <rect x="39.3" y="29.7" width="1" height="1"/>
        <rect x="41.3" y="29.7" width="1" height="1"/>
        <rect x="43.3" y="29.7" width="1" height="1"/>
      </g>
      <g>
        <rect x="29.3" y="32.7" width="1" height="1"/>
        <rect x="31.3" y="32.7" width="1" height="1"/>
        <rect x="33.3" y="32.7" width="1" height="1"/>
        <rect x="35.3" y="32.7" width="1" height="1"/>
        <rect x="37.3" y="32.7" width="1" height="1"/>
        <rect x="39.3" y="32.7" width="1" height="1"/>
        <rect x="41.3" y="32.7" width="1" height="1"/>
        <rect x="43.3" y="32.7" width="1" height="1"/>
      </g>
      <g>
        <rect x="29.3" y="35.7" width="1" height="1"/>
        <rect x="31.3" y="35.7" width="1" height="1"/>
        <rect x="33.3" y="35.7" width="1" height="1"/>
        <rect x="35.3" y="35.7" width="1" height="1"/>
        <rect x="37.3" y="35.7" width="1" height="1"/>
        <rect x="39.3" y="35.7" width="1" height="1"/>
        <rect x="41.3" y="35.7" width="1" height="1"/>
        <rect x="43.3" y="35.7" width="1" height="1"/>
      </g>
    </g>
    <rect x="5.3" y="39.7" width="44" height="1"/>
    <rect x="50.3" y="14.7" width="1" height="24"/>
    <rect x="3.3" y="14.7" width="1" height="24"/>
    <rect x="49.3" y="13.7" width="1" height="1"/>
    <rect x="49.3" y="38.7" width="1" height="1"/>
    <g>
      <rect x="15.8" y="24.7" width="2" height="1"/>
      <rect x="15.8" y="16.7" width="2" height="1"/>
      <rect x="10.8" y="16.7" width="2" height="1"/>
      <rect x="10.8" y="24.7" width="2" height="1"/>
      <rect x="17.8" y="17.7" width="1" height="2"/>
      <rect x="9.8" y="17.7" width="1" height="2"/>
      <rect x="9.8" y="22.7" width="1" height="2"/>
      <rect x="17.8" y="22.7" width="1" height="2"/>
      <path d="M17.8,20.7v-1h-2v-2h-1v2h-1v-2h-1v2h-2v1h2v1h-2v1h2v2h1v-2h1v2h1v-2h2v-1h-2v-1h2ZM14.8,21.7h-1v-1h1v1Z"/>
    </g>
  </g>
  <g>
    <polygon class="st0" points="48.3 8.8 48.2 7.8 47.2 7.9 5.3 11.5 4.4 11.6 4.4 12.6 3.4 12.7 3.5 13.7 5.4 35.6 6.4 35.5 6.4 35.5 5.4 35.6 5.5 36.6 6.5 36.5 6.6 37.5 7.6 37.4 49.5 33.8 50.5 33.7 50.4 32.7 51.4 32.6 51.3 31.6 49.4 9.7 49.3 8.7 48.3 8.8"/>
    <rect x="4.2" y="8.7" width="44" height="1" transform="translate(-.7 2.3) rotate(-5)"/>
    <rect x="5.6" y="36.6" width="1" height="1" transform="translate(-3.2 .7) rotate(-5)"/>
    <rect x="3.4" y="11.7" width="1" height="1" transform="translate(-1 .4) rotate(-5)"/>
    <g>
      <g>
        <rect x="29.7" y="25.4" width="1" height="1" transform="translate(-2.1 2.7) rotate(-5)"/>
        <rect x="31.7" y="25.3" width="1" height="1" transform="translate(-2.1 2.9) rotate(-5)"/>
        <rect x="33.7" y="25.1" width="1" height="1" transform="translate(-2.1 3.1) rotate(-5)"/>
        <rect x="35.7" y="24.9" width="1" height="1" transform="translate(-2.1 3.2) rotate(-5)"/>
        <rect x="37.7" y="24.7" width="1" height="1" transform="translate(-2.1 3.4) rotate(-5)"/>
        <rect x="39.7" y="24.6" width="1" height="1" transform="translate(-2 3.6) rotate(-5)"/>
        <rect x="41.7" y="24.4" width="1" height="1" transform="translate(-2 3.8) rotate(-5)"/>
        <rect x="43.6" y="24.2" width="1" height="1" transform="translate(-2 3.9) rotate(-5)"/>
      </g>
      <g>
        <rect x="30" y="28.4" width="1" height="1" transform="translate(-2.4 2.8) rotate(-5)"/>
        <rect x="32" y="28.2" width="1" height="1" transform="translate(-2.4 2.9) rotate(-5)"/>
        <rect x="33.9" y="28.1" width="1" height="1" transform="translate(-2.4 3.1) rotate(-5)"/>
        <rect x="35.9" y="27.9" width="1" height="1" transform="translate(-2.3 3.3) rotate(-5)"/>
        <rect x="37.9" y="27.7" width="1" height="1" transform="translate(-2.3 3.5) rotate(-5)"/>
        <rect x="39.9" y="27.5" width="1" height="1" transform="translate(-2.3 3.6) rotate(-5)"/>
        <rect x="41.9" y="27.4" width="1" height="1" transform="translate(-2.3 3.8) rotate(-5)"/>
        <rect x="43.9" y="27.2" width="1" height="1" transform="translate(-2.2 4) rotate(-5)"/>
      </g>
      <g>
        <rect x="30.2" y="31.4" width="1" height="1" transform="translate(-2.7 2.8) rotate(-5)"/>
        <rect x="32.2" y="31.2" width="1" height="1" transform="translate(-2.6 3) rotate(-5)"/>
        <rect x="34.2" y="31.1" width="1" height="1" transform="translate(-2.6 3.1) rotate(-5)"/>
        <rect x="36.2" y="30.9" width="1" height="1" transform="translate(-2.6 3.3) rotate(-5)"/>
        <rect x="38.2" y="30.7" width="1" height="1" transform="translate(-2.6 3.5) rotate(-5)"/>
        <rect x="40.2" y="30.5" width="1" height="1" transform="translate(-2.6 3.7) rotate(-5)"/>
        <rect x="42.2" y="30.4" width="1" height="1" transform="translate(-2.5 3.8) rotate(-5)"/>
        <rect x="44.2" y="30.2" width="1" height="1" transform="translate(-2.5 4) rotate(-5)"/>
      </g>
    </g>
    <rect x="6.6" y="35.6" width="44" height="1" transform="translate(-3 2.6) rotate(-5)"/>
    <rect x="50.3" y="8.6" width="1" height="24" transform="translate(-1.6 4.5) rotate(-5)"/>
    <rect x="3.5" y="12.7" width="1" height="24" transform="translate(-2.1 .4) rotate(-5)"/>
    <rect x="48.2" y="7.7" width="1" height="1" transform="translate(-.5 4.3) rotate(-5)"/>
    <rect x="50.4" y="32.7" width="1" height="1" transform="translate(-2.7 4.6) rotate(-5)"/>
    <g>
      <rect x="15.8" y="21.6" width="2" height="1" transform="translate(-1.9 1.5) rotate(-5)"/>
      <rect x="15.1" y="13.6" width="2" height="1" transform="translate(-1.2 1.5) rotate(-5)"/>
      <rect x="10.1" y="14" width="2" height="1" transform="translate(-1.2 1) rotate(-5)"/>
      <rect x="10.8" y="22" width="2" height="1" transform="translate(-1.9 1.1) rotate(-5)"/>
      <rect x="17.2" y="14.5" width="1" height="2" transform="translate(-1.3 1.6) rotate(-5)"/>
      <rect x="9.3" y="15.2" width="1" height="2" transform="translate(-1.4 .9) rotate(-5)"/>
      <rect x="9.7" y="20.2" width="1" height="2" transform="translate(-1.8 1) rotate(-5)"/>
      <rect x="17.7" y="19.5" width="1" height="2" transform="translate(-1.7 1.7) rotate(-5)"/>
      <path d="M17.4,17.5v-1c0,0-2.1.2-2.1.2l-.2-2h-1c0,0,.2,2.1.2,2.1h-1c0,0-.2-1.9-.2-1.9h-1c0,0,.2,2.1.2,2.1l-2,.2v1c0,0,2.1-.2,2.1-.2v1c0,0-1.9.2-1.9.2v1c0,0,2.1-.2,2.1-.2l.2,2h1c0,0-.2-2.1-.2-2.1h1c0,0,.2,1.9.2,1.9h1c0,0-.2-2.1-.2-2.1l2-.2v-1c0,0-2.1.2-2.1.2v-1c0,0,1.9-.2,1.9-.2ZM14.5,18.8h-1c0,0,0-.9,0-.9h1c0,0,0,.9,0,.9Z"/>
    </g>
  </g>
  <g>
    <polygon class="st0" points="45.2 2 45 1 44.1 1.2 2.8 8.8 1.8 9 2 10 1 10.2 1.2 11.1 5.2 32.8 6.2 32.6 6.2 32.6 5.2 32.8 5.4 33.8 6.3 33.6 6.5 34.6 7.5 34.4 48.8 26.7 49.8 26.5 49.6 25.6 50.6 25.4 50.4 24.4 46.4 2.8 46.2 1.8 45.2 2"/>
    <rect x="1.3" y="4" width="44" height="1" transform="translate(-.4 4.3) rotate(-10.5)"/>
    <rect x="5.4" y="33.7" width="1" height="1" transform="translate(-6.1 1.7) rotate(-10.5)"/>
    <rect x=".9" y="9.1" width="1" height="1" transform="translate(-1.7 .4) rotate(-10.5)"/>
    <g>
      <g>
        <rect x="28.4" y="20.3" width="1" height="1" transform="translate(-3.3 5.6) rotate(-10.5)"/>
        <rect x="30.3" y="19.9" width="1" height="1" transform="translate(-3.2 6) rotate(-10.5)"/>
        <rect x="32.3" y="19.5" width="1" height="1" transform="translate(-3.1 6.3) rotate(-10.5)"/>
        <rect x="34.3" y="19.2" width="1" height="1" transform="translate(-3 6.7) rotate(-10.5)"/>
        <rect x="36.2" y="18.8" width="1" height="1" transform="translate(-2.9 7) rotate(-10.5)"/>
        <rect x="38.2" y="18.4" width="1" height="1" transform="translate(-2.8 7.4) rotate(-10.5)"/>
        <rect x="40.2" y="18.1" width="1" height="1" transform="translate(-2.7 7.7) rotate(-10.5)"/>
        <rect x="42.1" y="17.7" width="1" height="1" transform="translate(-2.6 8.1) rotate(-10.5)"/>
      </g>
      <g>
        <rect x="28.9" y="23.2" width="1" height="1" transform="translate(-3.8 5.8) rotate(-10.5)"/>
        <rect x="30.9" y="22.8" width="1" height="1" transform="translate(-3.7 6.1) rotate(-10.5)"/>
        <rect x="32.9" y="22.5" width="1" height="1" transform="translate(-3.6 6.5) rotate(-10.5)"/>
        <rect x="34.8" y="22.1" width="1" height="1" transform="translate(-3.5 6.8) rotate(-10.5)"/>
        <rect x="36.8" y="21.8" width="1" height="1" transform="translate(-3.4 7.2) rotate(-10.5)"/>
        <rect x="38.8" y="21.4" width="1" height="1" transform="translate(-3.3 7.5) rotate(-10.5)"/>
        <rect x="40.7" y="21" width="1" height="1" transform="translate(-3.2 7.9) rotate(-10.5)"/>
        <rect x="42.7" y="20.7" width="1" height="1" transform="translate(-3.1 8.2) rotate(-10.5)"/>
      </g>
      <g>
        <rect x="29.5" y="26.2" width="1" height="1" transform="translate(-4.4 5.9) rotate(-10.5)"/>
        <rect x="31.4" y="25.8" width="1" height="1" transform="translate(-4.3 6.3) rotate(-10.5)"/>
        <rect x="33.4" y="25.4" width="1" height="1" transform="translate(-4.2 6.6) rotate(-10.5)"/>
        <rect x="35.4" y="25.1" width="1" height="1" transform="translate(-4.1 7) rotate(-10.5)"/>
        <rect x="37.3" y="24.7" width="1" height="1" transform="translate(-4 7.3) rotate(-10.5)"/>
        <rect x="39.3" y="24.3" width="1" height="1" transform="translate(-3.9 7.7) rotate(-10.5)"/>
        <rect x="41.3" y="24" width="1" height="1" transform="translate(-3.8 8) rotate(-10.5)"/>
        <rect x="43.2" y="23.6" width="1" height="1" transform="translate(-3.7 8.4) rotate(-10.5)"/>
      </g>
    </g>
    <rect x="6.2" y="30.5" width="44" height="1" transform="translate(-5.2 5.7) rotate(-10.5)"/>
    <rect x="48.4" y="1.5" width="1" height="24" transform="translate(-1.6 9.1) rotate(-10.5)"/>
    <rect x="2.2" y="10.1" width="1" height="24" transform="translate(-4 .9) rotate(-10.5)"/>
    <rect x="45.1" y=".9" width="1" height="1" transform="translate(.5 8.3) rotate(-10.5)"/>
    <rect x="49.7" y="25.5" width="1" height="1" transform="translate(-3.9 9.6) rotate(-10.5)"/>
    <g>
      <rect x="14.2" y="17.7" width="2" height="1" transform="translate(-3.1 3.1) rotate(-10.5)"/>
      <rect x="12.7" y="9.8" width="2" height="1" transform="translate(-1.7 2.7) rotate(-10.5)"/>
      <rect x="7.8" y="10.8" width="2" height="1" transform="translate(-1.9 1.8) rotate(-10.5)"/>
      <rect x="9.3" y="18.6" width="2" height="1" transform="translate(-3.3 2.2) rotate(-10.5)"/>
      <rect x="15" y="10.5" width="1" height="2" transform="translate(-1.8 3) rotate(-10.5)"/>
      <rect x="7.1" y="12" width="1" height="2" transform="translate(-2.2 1.6) rotate(-10.5)"/>
      <rect x="8" y="16.9" width="1" height="2" transform="translate(-3.1 1.9) rotate(-10.5)"/>
      <rect x="15.9" y="15.5" width="1" height="2" transform="translate(-2.7 3.3) rotate(-10.5)"/>
      <path d="M15.4,13.6l-.2-1-2,.4-.4-2-1,.2.4,2-1,.2-.4-2-1,.2.4,2-2,.4.2,1,2-.4.2,1-2,.4.2,1,2-.4.4,2,1-.2-.4-2,1-.2.4,2,1-.2-.4-2,2-.4-.2-1-2,.4-.2-1,2-.4ZM12.6,15.1l-1,.2-.2-1,1-.2.2,1Z"/>
    </g>
  </g>
</svg>