<?xml version="1.0" encoding="UTF-8"?><svg id="a" xmlns="http://www.w3.org/2000/svg" width="16" height="16" viewBox="0 0 16 16"><rect x="3.5" y="1" width="9" height="14" fill="#fff"/><path d="M11.5,4v-2h-7v3h7v-1ZM5.5,4v-1h5v1h-5Z"/><rect x="10.5" y="6" width="1" height="2"/><rect x="8.5" y="6" width="1" height="2"/><rect x="6.5" y="6" width="1" height="2"/><path d="M12.5,0H2.5v16h11V0h-1ZM12.5,15H3.5V1h9v14Z"/><rect x="4.5" y="6" width="1" height="2"/><rect x="10.5" y="12" width="1" height="2"/><rect x="8.5" y="12" width="1" height="2"/><rect x="6.5" y="12" width="1" height="2"/><rect x="4.5" y="12" width="1" height="2"/><rect x="10.5" y="9" width="1" height="2"/><rect x="8.5" y="9" width="1" height="2"/><rect x="6.5" y="9" width="1" height="2"/><rect x="4.5" y="9" width="1" height="2"/></svg>