<?xml version="1.0" encoding="UTF-8"?><svg id="a" xmlns="http://www.w3.org/2000/svg" width="16" height="15" viewBox="0 0 16 15"><rect x="4" y="2" width="1" height="1" fill="#fff"/><rect x="6" y="1" width="5" height="3" fill="#fff"/><rect x="8" y="8" width="5" height="3" fill="#fff"/><rect x="12" y="2" width="1" height="1" fill="#fff"/><rect x="6" y="9" width="1" height="1" fill="#fff"/><rect x="14" y="9" width="1" height="1" fill="#fff"/><rect y="3" width="1" height="5"/><rect x="2" y="10" width="1" height="5"/><path d="M3,4h2v1h7v-1h2V1h-2V0h-7v1h-2v1H1v1h2v1ZM13,2v1h-1v-1h1ZM11,1v3h-5V1h5ZM4,2h1v1h-1v-1Z"/><path d="M14,8v-1h-7v1h-2v1h-2v1h2v1h2v1h7v-1h2v-3h-2ZM6,10v-1h1v1h-1ZM8,11v-3h5v3h-5ZM15,10h-1v-1h1v1Z"/></svg>