<?xml version="1.0" encoding="UTF-8"?><svg id="a" xmlns="http://www.w3.org/2000/svg" width="16" height="16" viewBox="0 0 16 16"><rect x="2" y="2.5" width="4" height="1" fill="#fff"/><rect x="1" y="4.5" width="14" height="9" fill="#fff"/><rect x="3" y="7.5" width="1" height="1"/><rect x="6" y="7.5" width="1" height="1"/><rect x="2" y="1.5" width="4" height="1"/><rect x="9" y="7.5" width="1" height="1"/><rect x="12" y="7.5" width="1" height="1"/><rect x="1" y="2.5" width="1" height="1"/><rect x="6" y="2.5" width="1" height="1"/><rect y="4.5" width="1" height="10"/><rect y="3.5" width="15" height="1"/><rect x="1" y="13.5" width="15" height="1"/><rect x="15" y="4.5" width="1" height="9"/><rect x="3" y="10.5" width="4" height="1"/><rect x="7" y="11.5" width="1" height="1"/><rect x="9" y="10.5" width="4" height="1"/><rect x="8" y="9.5" width="1" height="3"/></svg>