<?xml version="1.0" encoding="UTF-8"?>
<svg xmlns="http://www.w3.org/2000/svg" xmlns:xlink="http://www.w3.org/1999/xlink" version="1.1" viewBox="0 0 412 412">
  <!-- Generator: Adobe Illustrator 29.4.0, SVG Export Plug-In . SVG Version: 2.1.0 Build 152)  -->
  <defs>
    <style>
      .st0 {
        font-family: MostraNuova-Bold, 'Mostra Nuova';
        font-size: 50px;
        font-weight: 700;
      }

      .st0, .st1 {
        fill: #231f20;
      }

      .st1 {
        fill-rule: evenodd;
      }
    </style>
    <path id="path" d="M393.5,206c0,103.6-83.9,187.5-187.5,187.5S18.5,309.6,18.5,206,102.4,18.5,206,18.5s187.5,83.9,187.5,187.5Z"/>
    <path id="path1" d="M393.5,206c0,103.6-83.9,187.5-187.5,187.5S18.5,309.6,18.5,206,102.4,18.5,206,18.5s187.5,83.9,187.5,187.5Z"/>
  </defs>
  <g id="Designs">
    <text>
      <textPath startOffset="24540%" xlink:href="#path"><tspan class="st0"><tspan x="0" y="0">DESIGNS</tspan></tspan>
      </textPath></text>
  </g>
  <g id="Dan_Morgan">
    <text>
      <textPath startOffset="9121%" xlink:href="#path1"><tspan class="st0"><tspan x="0" y="0">DAN MORGAN</tspan></tspan>
      </textPath></text>
  </g>
  <g id="Fox">
    <path class="st1" d="M263.4,209.8c-.5,0-1,0-1.5,0-14.4,0-26.7,6.8-35.7,17.7-10.1,12.2-15.1,28.1-16.4,43.7,7.5-8.3,15.9-16,24.7-22.9,7.8-6.2,16.1-12,24.9-16.7l-7.7-1.5s0,0,0,0c-.8-.2-1.5-.6-2-1.3-1.1-1.5-.7-3.6.8-4.6,3.4-2.4,7.8-4.5,11.6-6.2,2.7-1.2,5.5-2.4,8.4-3.5l-6.9-4.6ZM178.6,181.8l21.4-14.3-40.3-26.9,18.9,41.2ZM150.8,200.4l22.2-14.8-18.7-40.8-3.5,55.6ZM148.6,209.8l-6.9,4.6c2.8,1.1,5.6,2.3,8.4,3.5,3.8,1.7,8.2,3.8,11.6,6.2,1.5,1.1,1.8,3.1.8,4.6-.5.7-1.2,1.1-2,1.3,0,0,0,0,0,0l-7.7,1.5c8.7,4.8,17.1,10.6,24.9,16.7,8.8,6.9,17.1,14.6,24.7,22.9-1.4-15.6-6.4-31.5-16.4-43.7-9-10.9-21.4-17.7-35.7-17.7s-1,0-1.5,0ZM206,253.8c2.9-11,7.8-21.7,15.1-30.5,8.6-10.4,19.9-17.6,33.2-19.6l-48.3-32.2-48.3,32.2c13.3,2,24.7,9.2,33.2,19.6,7.3,8.8,12.2,19.5,15.1,30.5ZM252.3,140.6l-40.3,26.9,21.4,14.3,18.9-41.2ZM261.2,200.4l-3.5-55.6-18.7,40.8,22.2,14.8ZM150.2,225.3c-.9-.5-1.9-.9-2.9-1.3-4.5-2-9.3-4-14-5.5-1.8-.5-2.7-2.4-2.2-4.2.2-.8.8-1.5,1.5-1.9l11.2-7.5,4.7-73.9c.1-1.8,1.7-3.2,3.5-3.1.6,0,1.3.3,1.8.6l52.2,34.9,52.2-34.9c.5-.4,1.1-.6,1.8-.7,1.8-.1,3.4,1.3,3.5,3.1l4.7,73.9,11.3,7.6c1.5,1,1.9,3.1.9,4.6-.4.6-1,1.1-1.7,1.3,0,0,0,0,0,0-4.7,1.5-9.5,3.4-14,5.5-1,.4-1.9.9-2.9,1.3l8.4,1.7c1.8.4,3,2.1,2.6,3.9-.2,1.1-1,2-2,2.5-11.4,4.9-22.6,12.5-32.2,20.2-10.8,8.5-21.2,18.4-29.8,29-.6.9-1.6,1.4-2.7,1.4s-2.1-.5-2.7-1.4c-8.7-10.6-19.1-20.5-29.9-29-9.7-7.7-20.9-15.3-32.2-20.2-1.1-.4-1.8-1.3-2.1-2.5-.4-1.8.8-3.6,2.6-3.9l8.4-1.7Z"/>
  </g>
</svg>