<?xml version="1.0" encoding="UTF-8"?><svg id="a" xmlns="http://www.w3.org/2000/svg" width="177" height="1" viewBox="0 0 177 1"><rect width="1" height="1"/><rect x="2" width="1" height="1"/><rect x="4" width="1" height="1"/><rect x="6" width="1" height="1"/><rect x="8" width="1" height="1"/><rect x="10" width="1" height="1"/><rect x="12" width="1" height="1"/><rect x="14" width="1" height="1"/><rect x="16" width="1" height="1"/><rect x="18" width="1" height="1"/><rect x="20" width="1" height="1"/><rect x="22" width="1" height="1"/><rect x="24" width="1" height="1"/><rect x="26" width="1" height="1"/><rect x="28" width="1" height="1"/><rect x="30" width="1" height="1"/><rect x="32" width="1" height="1"/><rect x="34" width="1" height="1"/><rect x="36" width="1" height="1"/><rect x="38" width="1" height="1"/><rect x="40" width="1" height="1"/><rect x="42" width="1" height="1"/><rect x="44" width="1" height="1"/><rect x="46" width="1" height="1"/><rect x="48" width="1" height="1"/><rect x="50" width="1" height="1"/><rect x="52" width="1" height="1"/><rect x="54" width="1" height="1"/><rect x="56" width="1" height="1"/><rect x="58" width="1" height="1"/><rect x="60" width="1" height="1"/><rect x="62" width="1" height="1"/><rect x="64" width="1" height="1"/><rect x="66" width="1" height="1"/><rect x="68" width="1" height="1"/><rect x="70" width="1" height="1"/><rect x="72" width="1" height="1"/><rect x="74" width="1" height="1"/><rect x="76" width="1" height="1"/><rect x="78" width="1" height="1"/><rect x="80" width="1" height="1"/><rect x="82" width="1" height="1"/><rect x="84" width="1" height="1"/><rect x="86" width="1" height="1"/><rect x="88" width="1" height="1"/><rect x="90" width="1" height="1"/><rect x="92" width="1" height="1"/><rect x="94" width="1" height="1"/><rect x="96" width="1" height="1"/><rect x="98" width="1" height="1"/><rect x="100" width="1" height="1"/><rect x="102" width="1" height="1"/><rect x="104" width="1" height="1"/><rect x="106" width="1" height="1"/><rect x="108" width="1" height="1"/><rect x="110" width="1" height="1"/><rect x="112" width="1" height="1"/><rect x="114" width="1" height="1"/><rect x="116" width="1" height="1"/><rect x="118" width="1" height="1"/><rect x="120" width="1" height="1"/><rect x="122" width="1" height="1"/><rect x="124" width="1" height="1"/><rect x="126" width="1" height="1"/><rect x="128" width="1" height="1"/><rect x="130" width="1" height="1"/><rect x="132" width="1" height="1"/><rect x="134" width="1" height="1"/><rect x="136" width="1" height="1"/><rect x="138" width="1" height="1"/><rect x="140" width="1" height="1"/><rect x="142" width="1" height="1"/><rect x="144" width="1" height="1"/><rect x="146" width="1" height="1"/><rect x="148" width="1" height="1"/><rect x="150" width="1" height="1"/><rect x="152" width="1" height="1"/><rect x="154" width="1" height="1"/><rect x="156" width="1" height="1"/><rect x="158" width="1" height="1"/><rect x="160" width="1" height="1"/><rect x="162" width="1" height="1"/><rect x="164" width="1" height="1"/><rect x="166" width="1" height="1"/><rect x="168" width="1" height="1"/><rect x="170" width="1" height="1"/><rect x="172" width="1" height="1"/><rect x="174" width="1" height="1"/><rect x="176" width="1" height="1"/><rect x="1" width="1" height="1" fill="#fff"/><rect x="3" width="1" height="1" fill="#fff"/><rect x="5" width="1" height="1" fill="#fff"/><rect x="7" width="1" height="1" fill="#fff"/><rect x="9" width="1" height="1" fill="#fff"/><rect x="11" width="1" height="1" fill="#fff"/><rect x="13" width="1" height="1" fill="#fff"/><rect x="15" width="1" height="1" fill="#fff"/><rect x="17" width="1" height="1" fill="#fff"/><rect x="19" width="1" height="1" fill="#fff"/><rect x="21" width="1" height="1" fill="#fff"/><rect x="23" width="1" height="1" fill="#fff"/><rect x="25" width="1" height="1" fill="#fff"/><rect x="27" width="1" height="1" fill="#fff"/><rect x="29" width="1" height="1" fill="#fff"/><rect x="31" width="1" height="1" fill="#fff"/><rect x="33" width="1" height="1" fill="#fff"/><rect x="35" width="1" height="1" fill="#fff"/><rect x="37" width="1" height="1" fill="#fff"/><rect x="39" width="1" height="1" fill="#fff"/><rect x="41" width="1" height="1" fill="#fff"/><rect x="43" width="1" height="1" fill="#fff"/><rect x="45" width="1" height="1" fill="#fff"/><rect x="47" width="1" height="1" fill="#fff"/><rect x="49" width="1" height="1" fill="#fff"/><rect x="51" width="1" height="1" fill="#fff"/><rect x="53" width="1" height="1" fill="#fff"/><rect x="55" width="1" height="1" fill="#fff"/><rect x="57" width="1" height="1" fill="#fff"/><rect x="59" width="1" height="1" fill="#fff"/><rect x="61" width="1" height="1" fill="#fff"/><rect x="63" width="1" height="1" fill="#fff"/><rect x="65" width="1" height="1" fill="#fff"/><rect x="67" width="1" height="1" fill="#fff"/><rect x="69" width="1" height="1" fill="#fff"/><rect x="71" width="1" height="1" fill="#fff"/><rect x="73" width="1" height="1" fill="#fff"/><rect x="75" width="1" height="1" fill="#fff"/><rect x="77" width="1" height="1" fill="#fff"/><rect x="79" width="1" height="1" fill="#fff"/><rect x="81" width="1" height="1" fill="#fff"/><rect x="83" width="1" height="1" fill="#fff"/><rect x="85" width="1" height="1" fill="#fff"/><rect x="87" width="1" height="1" fill="#fff"/><rect x="89" width="1" height="1" fill="#fff"/><rect x="91" width="1" height="1" fill="#fff"/><rect x="93" width="1" height="1" fill="#fff"/><rect x="95" width="1" height="1" fill="#fff"/><rect x="97" width="1" height="1" fill="#fff"/><rect x="99" width="1" height="1" fill="#fff"/><rect x="101" width="1" height="1" fill="#fff"/><rect x="103" width="1" height="1" fill="#fff"/><rect x="105" width="1" height="1" fill="#fff"/><rect x="107" width="1" height="1" fill="#fff"/><rect x="109" width="1" height="1" fill="#fff"/><rect x="111" width="1" height="1" fill="#fff"/><rect x="113" width="1" height="1" fill="#fff"/><rect x="115" width="1" height="1" fill="#fff"/><rect x="117" width="1" height="1" fill="#fff"/><rect x="119" width="1" height="1" fill="#fff"/><rect x="121" width="1" height="1" fill="#fff"/><rect x="123" width="1" height="1" fill="#fff"/><rect x="125" width="1" height="1" fill="#fff"/><rect x="127" width="1" height="1" fill="#fff"/><rect x="129" width="1" height="1" fill="#fff"/><rect x="131" width="1" height="1" fill="#fff"/><rect x="133" width="1" height="1" fill="#fff"/><rect x="135" width="1" height="1" fill="#fff"/><rect x="137" width="1" height="1" fill="#fff"/><rect x="139" width="1" height="1" fill="#fff"/><rect x="141" width="1" height="1" fill="#fff"/><rect x="143" width="1" height="1" fill="#fff"/><rect x="145" width="1" height="1" fill="#fff"/><rect x="147" width="1" height="1" fill="#fff"/><rect x="149" width="1" height="1" fill="#fff"/><rect x="151" width="1" height="1" fill="#fff"/><rect x="153" width="1" height="1" fill="#fff"/><rect x="155" width="1" height="1" fill="#fff"/><rect x="157" width="1" height="1" fill="#fff"/><rect x="159" width="1" height="1" fill="#fff"/><rect x="161" width="1" height="1" fill="#fff"/><rect x="163" width="1" height="1" fill="#fff"/><rect x="165" width="1" height="1" fill="#fff"/><rect x="167" width="1" height="1" fill="#fff"/><rect x="169" width="1" height="1" fill="#fff"/><rect x="171" width="1" height="1" fill="#fff"/><rect x="173" width="1" height="1" fill="#fff"/><rect x="175" width="1" height="1" fill="#fff"/></svg>