<?xml version="1.0" encoding="UTF-8"?><svg id="a" xmlns="http://www.w3.org/2000/svg" width="177" height="17" viewBox="0 0 177 17"><rect y="8.5" width="1" height="1"/><rect x="2" y="8.5" width="1" height="1"/><rect x="4" y="8.5" width="1" height="1"/><rect x="6" y="8.5" width="1" height="1"/><rect x="8" y="8.5" width="1" height="1"/><rect x="10" y="8.5" width="1" height="1"/><rect x="12" y="8.5" width="1" height="1"/><rect x="14" y="8.5" width="1" height="1"/><rect x="16" y="8.5" width="1" height="1"/><rect x="18" y="8.5" width="1" height="1"/><rect x="20" y="8.5" width="1" height="1"/><rect x="22" y="8.5" width="1" height="1"/><rect x="24" y="8.5" width="1" height="1"/><rect x="26" y="8.5" width="1" height="1"/><rect x="28" y="8.5" width="1" height="1"/><rect x="30" y="8.5" width="1" height="1"/><rect x="32" y="8.5" width="1" height="1"/><rect x="34" y="8.5" width="1" height="1"/><rect x="36" y="8.5" width="1" height="1"/><rect x="38" y="8.5" width="1" height="1"/><rect x="40" y="8.5" width="1" height="1"/><rect x="42" y="8.5" width="1" height="1"/><rect x="44" y="8.5" width="1" height="1"/><rect x="46" y="8.5" width="1" height="1"/><rect x="48" y="8.5" width="1" height="1"/><rect x="50" y="8.5" width="1" height="1"/><rect x="52" y="8.5" width="1" height="1"/><rect x="54" y="8.5" width="1" height="1"/><rect x="56" y="8.5" width="1" height="1"/><rect x="58" y="8.5" width="1" height="1"/><rect x="60" y="8.5" width="1" height="1"/><rect x="62" y="8.5" width="1" height="1"/><rect x="64" y="8.5" width="1" height="1"/><rect x="66" y="8.5" width="1" height="1"/><rect x="68" y="8.5" width="1" height="1"/><rect x="70" y="8.5" width="1" height="1"/><rect x="72" y="8.5" width="1" height="1"/><rect x="74" y="8.5" width="1" height="1"/><rect x="76" y="8.5" width="1" height="1"/><rect x="78" y="8.5" width="1" height="1"/><rect x="80" y="8.5" width="1" height="1"/><rect x="82" y="8.5" width="1" height="1"/><rect x="84" y="8.5" width="1" height="1"/><rect x="86" y="8.5" width="1" height="1"/><rect x="88" y="8.5" width="1" height="1"/><rect x="90" y="8.5" width="1" height="1"/><rect x="92" y="8.5" width="1" height="1"/><rect x="94" y="8.5" width="1" height="1"/><rect x="96" y="8.5" width="1" height="1"/><rect x="98" y="8.5" width="1" height="1"/><rect x="100" y="8.5" width="1" height="1"/><rect x="102" y="8.5" width="1" height="1"/><rect x="104" y="8.5" width="1" height="1"/><rect x="106" y="8.5" width="1" height="1"/><rect x="108" y="8.5" width="1" height="1"/><rect x="110" y="8.5" width="1" height="1"/><rect x="112" y="8.5" width="1" height="1"/><rect x="114" y="8.5" width="1" height="1"/><rect x="116" y="8.5" width="1" height="1"/><rect x="118" y="8.5" width="1" height="1"/><rect x="120" y="8.5" width="1" height="1"/><rect x="122" y="8.5" width="1" height="1"/><rect x="124" y="8.5" width="1" height="1"/><rect x="126" y="8.5" width="1" height="1"/><rect x="128" y="8.5" width="1" height="1"/><rect x="130" y="8.5" width="1" height="1"/><rect x="132" y="8.5" width="1" height="1"/><rect x="134" y="8.5" width="1" height="1"/><rect x="136" y="8.5" width="1" height="1"/><rect x="138" y="8.5" width="1" height="1"/><rect x="140" y="8.5" width="1" height="1"/><rect x="142" y="8.5" width="1" height="1"/><rect x="144" y="8.5" width="1" height="1"/><rect x="146" y="8.5" width="1" height="1"/><rect x="148" y="8.5" width="1" height="1"/><rect x="150" y="8.5" width="1" height="1"/><rect x="152" y="8.5" width="1" height="1"/><rect x="154" y="8.5" width="1" height="1"/><rect x="156" y="8.5" width="1" height="1"/><rect x="158" y="8.5" width="1" height="1"/><rect x="160" y="8.5" width="1" height="1"/><rect x="162" y="8.5" width="1" height="1"/><rect x="164" y="8.5" width="1" height="1"/><rect x="166" y="8.5" width="1" height="1"/><rect x="168" y="8.5" width="1" height="1"/><rect x="170" y="8.5" width="1" height="1"/><rect x="172" y="8.5" width="1" height="1"/><rect x="174" y="8.5" width="1" height="1"/><rect x="176" y="8.5" width="1" height="1"/><rect x="1" y="8.5" width="1" height="1" fill="#fff"/><rect x="3" y="8.5" width="1" height="1" fill="#fff"/><rect x="5" y="8.5" width="1" height="1" fill="#fff"/><rect x="7" y="8.5" width="1" height="1" fill="#fff"/><rect x="9" y="8.5" width="1" height="1" fill="#fff"/><rect x="11" y="8.5" width="1" height="1" fill="#fff"/><rect x="13" y="8.5" width="1" height="1" fill="#fff"/><rect x="15" y="8.5" width="1" height="1" fill="#fff"/><rect x="17" y="8.5" width="1" height="1" fill="#fff"/><rect x="19" y="8.5" width="1" height="1" fill="#fff"/><rect x="21" y="8.5" width="1" height="1" fill="#fff"/><rect x="23" y="8.5" width="1" height="1" fill="#fff"/><rect x="25" y="8.5" width="1" height="1" fill="#fff"/><rect x="27" y="8.5" width="1" height="1" fill="#fff"/><rect x="29" y="8.5" width="1" height="1" fill="#fff"/><rect x="31" y="8.5" width="1" height="1" fill="#fff"/><rect x="33" y="8.5" width="1" height="1" fill="#fff"/><rect x="35" y="8.5" width="1" height="1" fill="#fff"/><rect x="37" y="8.5" width="1" height="1" fill="#fff"/><rect x="39" y="8.5" width="1" height="1" fill="#fff"/><rect x="41" y="8.5" width="1" height="1" fill="#fff"/><rect x="43" y="8.5" width="1" height="1" fill="#fff"/><rect x="45" y="8.5" width="1" height="1" fill="#fff"/><rect x="47" y="8.5" width="1" height="1" fill="#fff"/><rect x="49" y="8.5" width="1" height="1" fill="#fff"/><rect x="51" y="8.5" width="1" height="1" fill="#fff"/><rect x="53" y="8.5" width="1" height="1" fill="#fff"/><rect x="55" y="8.5" width="1" height="1" fill="#fff"/><rect x="57" y="8.5" width="1" height="1" fill="#fff"/><rect x="59" y="8.5" width="1" height="1" fill="#fff"/><rect x="61" y="8.5" width="1" height="1" fill="#fff"/><rect x="63" y="8.5" width="1" height="1" fill="#fff"/><rect x="65" y="8.5" width="1" height="1" fill="#fff"/><rect x="67" y="8.5" width="1" height="1" fill="#fff"/><rect x="69" y="8.5" width="1" height="1" fill="#fff"/><rect x="71" y="8.5" width="1" height="1" fill="#fff"/><rect x="73" y="8.5" width="1" height="1" fill="#fff"/><rect x="75" y="8.5" width="1" height="1" fill="#fff"/><rect x="77" y="8.5" width="1" height="1" fill="#fff"/><rect x="79" y="8.5" width="1" height="1" fill="#fff"/><rect x="81" y="8.5" width="1" height="1" fill="#fff"/><rect x="83" y="8.5" width="1" height="1" fill="#fff"/><rect x="85" y="8.5" width="1" height="1" fill="#fff"/><rect x="87" y="8.5" width="1" height="1" fill="#fff"/><rect x="89" y="8.5" width="1" height="1" fill="#fff"/><rect x="91" y="8.5" width="1" height="1" fill="#fff"/><rect x="93" y="8.5" width="1" height="1" fill="#fff"/><rect x="95" y="8.5" width="1" height="1" fill="#fff"/><rect x="97" y="8.5" width="1" height="1" fill="#fff"/><rect x="99" y="8.5" width="1" height="1" fill="#fff"/><rect x="101" y="8.5" width="1" height="1" fill="#fff"/><rect x="103" y="8.5" width="1" height="1" fill="#fff"/><rect x="105" y="8.5" width="1" height="1" fill="#fff"/><rect x="107" y="8.5" width="1" height="1" fill="#fff"/><rect x="109" y="8.5" width="1" height="1" fill="#fff"/><rect x="111" y="8.5" width="1" height="1" fill="#fff"/><rect x="113" y="8.5" width="1" height="1" fill="#fff"/><rect x="115" y="8.5" width="1" height="1" fill="#fff"/><rect x="117" y="8.5" width="1" height="1" fill="#fff"/><rect x="119" y="8.5" width="1" height="1" fill="#fff"/><rect x="121" y="8.5" width="1" height="1" fill="#fff"/><rect x="123" y="8.5" width="1" height="1" fill="#fff"/><rect x="125" y="8.5" width="1" height="1" fill="#fff"/><rect x="127" y="8.5" width="1" height="1" fill="#fff"/><rect x="129" y="8.5" width="1" height="1" fill="#fff"/><rect x="131" y="8.5" width="1" height="1" fill="#fff"/><rect x="133" y="8.5" width="1" height="1" fill="#fff"/><rect x="135" y="8.5" width="1" height="1" fill="#fff"/><rect x="137" y="8.5" width="1" height="1" fill="#fff"/><rect x="139" y="8.5" width="1" height="1" fill="#fff"/><rect x="141" y="8.5" width="1" height="1" fill="#fff"/><rect x="143" y="8.5" width="1" height="1" fill="#fff"/><rect x="145" y="8.5" width="1" height="1" fill="#fff"/><rect x="147" y="8.5" width="1" height="1" fill="#fff"/><rect x="149" y="8.5" width="1" height="1" fill="#fff"/><rect x="151" y="8.5" width="1" height="1" fill="#fff"/><rect x="153" y="8.5" width="1" height="1" fill="#fff"/><rect x="155" y="8.5" width="1" height="1" fill="#fff"/><rect x="157" y="8.5" width="1" height="1" fill="#fff"/><rect x="159" y="8.5" width="1" height="1" fill="#fff"/><rect x="161" y="8.5" width="1" height="1" fill="#fff"/><rect x="163" y="8.5" width="1" height="1" fill="#fff"/><rect x="165" y="8.5" width="1" height="1" fill="#fff"/><rect x="167" y="8.5" width="1" height="1" fill="#fff"/><rect x="169" y="8.5" width="1" height="1" fill="#fff"/><rect x="171" y="8.5" width="1" height="1" fill="#fff"/><rect x="173" y="8.5" width="1" height="1" fill="#fff"/><rect x="175" y="8.5" width="1" height="1" fill="#fff"/></svg>