<?xml version="1.0" encoding="UTF-8"?>
<svg id="Layer_1" xmlns="http://www.w3.org/2000/svg" width="22" height="20" version="1.1" viewBox="0 0 22 20">
  <!-- Generator: Adobe Illustrator 29.4.0, SVG Export Plug-In . SVG Version: 2.1.0 Build 152)  -->
  <defs>
    <style>
      .st0 {
        fill: #fff;
      }
    </style>
  </defs>
  <rect class="st0" width="22" height="20"/>
  <g>
    <rect x="7" y="7" width="1" height="1"/>
    <rect x="9" y="5" width="1" height="1"/>
    <rect x="10" y="4" width="1" height="1"/>
    <rect x="8" y="6" width="1" height="1"/>
    <rect x="6" y="8" width="1" height="1"/>
    <rect x="5" y="9" width="1" height="1"/>
    <rect x="13" y="8" width="1" height="1"/>
    <rect x="15" y="6" width="1" height="1"/>
    <rect x="14" y="7" width="1" height="1"/>
    <rect x="12" y="9" width="1" height="1"/>
    <rect x="11" y="10" width="1" height="1"/>
    <path d="M18,5v-2h-7v1h6v1h-1v1h1v1h-1v1h-1v1h-1v1h-1v1h-1v1h-1v-1h-6v-1h-1v1h-1v4h8v-1h1v-1h1v-1h1v-1h1v-1h1v-1h1v-1h1v-1h1v-2h-1ZM10,14h-6v-2h6v2Z"/>
  </g>
</svg>