<?xml version="1.0" encoding="UTF-8"?>
<svg id="Layer_1" xmlns="http://www.w3.org/2000/svg" width="22" height="20" version="1.1" viewBox="0 0 22 20">
  <!-- Generator: Adobe Illustrator 29.4.0, SVG Export Plug-In . SVG Version: 2.1.0 Build 152)  -->
  <defs>
    <style>
      .st0 {
        fill: #fff;
      }
    </style>
  </defs>
  <rect class="st0" width="22" height="20"/>
  <g>
    <path d="M2.5,3.5v13h17V3.5H2.5ZM18.5,15.5H3.5V4.5h15v11Z"/>
    <rect x="10.5" y="6.5" width="1" height="1"/>
    <rect x="8.5" y="6.5" width="1" height="1"/>
    <rect x="4.5" y="6.5" width="1" height="1"/>
    <rect x="6.5" y="6.5" width="1" height="1"/>
    <rect x="16.5" y="6.5" width="1" height="1"/>
    <rect x="14.5" y="6.5" width="1" height="1"/>
    <rect x="12.5" y="6.5" width="1" height="1"/>
    <rect x="10.5" y="9.5" width="1" height="1"/>
    <rect x="8.5" y="9.5" width="1" height="1"/>
    <rect x="4.5" y="9.5" width="1" height="1"/>
    <rect x="6.5" y="9.5" width="1" height="1"/>
    <rect x="16.5" y="9.5" width="1" height="1"/>
    <rect x="14.5" y="9.5" width="1" height="1"/>
    <rect x="12.5" y="9.5" width="1" height="1"/>
    <rect x="10.5" y="12.5" width="1" height="1"/>
    <rect x="8.5" y="12.5" width="1" height="1"/>
    <rect x="4.5" y="12.5" width="1" height="1"/>
    <rect x="6.5" y="12.5" width="1" height="1"/>
    <rect x="16.5" y="12.5" width="1" height="1"/>
    <rect x="14.5" y="12.5" width="1" height="1"/>
    <rect x="12.5" y="12.5" width="1" height="1"/>
  </g>
</svg>