<?xml version="1.0" encoding="UTF-8"?>
<svg id="Layer_1" xmlns="http://www.w3.org/2000/svg" width="22" height="20" version="1.1" viewBox="0 0 22 20">
  <!-- Generator: Adobe Illustrator 29.4.0, SVG Export Plug-In . SVG Version: 2.1.0 Build 152)  -->
  <defs>
    <style>
      .st0 {
        fill: #fff;
      }
    </style>
  </defs>
  <rect class="st0" width="22" height="20"/>
  <g>
    <rect x="9.5" y="2" width="2" height="1"/>
    <rect x="4.5" y="8" width="2" height="1"/>
    <rect x="6.5" y="9" width="1" height="1"/>
    <rect x="3.5" y="9" width="1" height="1"/>
    <polygon points="15.5 9 15.5 10 15.5 12 16.5 12 16.5 10 17.5 10 17.5 9 15.5 9"/>
    <polygon points="12.5 8 12.5 3 11.5 3 11.5 11 12.5 11 12.5 9 13.5 9 13.5 11 14.5 11 14.5 9 15.5 9 15.5 8 12.5 8"/>
    <rect x="17.5" y="10" width="1" height="5"/>
    <polygon points="8.5 10 7.5 10 7.5 11 8.5 11 8.5 13 9.5 13 9.5 3 8.5 3 8.5 10"/>
    <rect x="16.5" y="15" width="1" height="3"/>
    <rect x="4.5" y="10" width="1" height="1"/>
    <rect x="5.5" y="11" width="1" height="2"/>
    <rect x="6.5" y="13" width="1" height="1"/>
    <rect x="7.5" y="14" width="1" height="2"/>
    <rect x="8.5" y="16" width="1" height="2"/>
  </g>
</svg>