<?xml version="1.0" encoding="UTF-8"?><svg id="c" xmlns="http://www.w3.org/2000/svg" viewBox="0 0 64 64"><polygon points="52 16 52 9 18 9 18 63 52 63 59 63 59 16 52 16" fill="#fff"/><polygon points="56 12 55 12 55 11 54 11 54 10 53 10 53 11 53 12 53 13 56 13 56 12" fill="#fff"/><polygon points="58 14 57 14 57 13.01 53 13.01 53 14 53 14.01 53 15 58 15 58 14" fill="#fff"/><rect x="18" y="63" width="41" height="1"/><rect x="17" y="8" width="1" height="56"/><rect x="28" y="58" width="1" height="1"/><rect x="30" y="58" width="1" height="1"/><rect x="32" y="58" width="1" height="1"/><rect x="34" y="58" width="1" height="1"/><rect x="28" y="60" width="1" height="1"/><rect x="30" y="60" width="1" height="1"/><rect x="32" y="60" width="1" height="1"/><rect x="34" y="60" width="1" height="1"/><rect x="36" y="60" width="1" height="1"/><rect x="38" y="60" width="1" height="1"/><rect x="21" y="55" width="1" height="1"/><rect x="20" y="56" width="1" height="1"/><rect x="21" y="57" width="1" height="1"/><rect x="22" y="56" width="1" height="1"/><rect x="21" y="58" width="1" height="1"/><rect x="20" y="59" width="1" height="1"/><rect x="21" y="60" width="1" height="1"/><rect x="22" y="59" width="1" height="1"/><rect x="24" y="55" width="1" height="1"/><rect x="23" y="56" width="1" height="1"/><rect x="24" y="57" width="1" height="1"/><rect x="25" y="56" width="1" height="1"/><rect x="24" y="58" width="1" height="1"/><rect x="23" y="59" width="1" height="1"/><rect x="24" y="60" width="1" height="1"/><rect x="25" y="59" width="1" height="1"/><rect x="59" y="15" width="1" height="49"/><rect x="58" y="14" width="1" height="1"/><rect x="57" y="13" width="1" height="1"/><rect x="56" y="12" width="1" height="1"/><rect x="52" y="15" width="7" height="1"/><polygon points="48 8 48 1 14 1 14 55 48 55 55 55 55 8 48 8" fill="#fff"/><polygon points="52 4 51 4 51 3 50 3 50 2 49 2 49 3 49 4 49 5 52 5 52 4" fill="#fff"/><polygon points="54 6 53 6 53 5.01 49 5.01 49 6 49 6.01 49 7 54 7 54 6" fill="#fff"/><rect x="51" y="11" width="1" height="1"/><rect x="51" y="17" width="1" height="1"/><rect x="51" y="23" width="1" height="1"/><rect x="51" y="29" width="1" height="1"/><rect x="51" y="35" width="1" height="1"/><rect x="51" y="41" width="1" height="1"/><rect x="51" y="47" width="1" height="1"/><rect x="14" y="55" width="41" height="1"/><rect x="13" y="0" width="1" height="56"/><path d="M46.91,36.01h0v-1h-7v.99h0v7h3v2h7v-7h-3v-1.99ZM48.91,38.99v5h-5v-5h5ZM42.91,37.99v4h-2v-5.99h5v1.99h-3Z"/><rect x="14" y="0" width="35" height="1"/><rect x="55" y="7" width="1" height="49"/><rect x="54" y="6" width="1" height="1"/><rect x="53" y="5" width="1" height="1"/><rect x="52" y="4" width="1" height="1"/><rect x="51" y="3" width="1" height="1"/><rect x="50" y="2" width="1" height="1"/><rect x="49" y="1" width="1" height="1"/><rect x="48" y="1" width="1" height="6"/><rect x="48" y="7" width="7" height="1"/><polygon points="39 11 39 4 5 4 5 58 39 58 46 58 46 11 39 11" fill="#fff"/><polygon points="43 7 42 7 42 6 41 6 41 5 40 5 40 6 40 7 40 8 43 8 43 7" fill="#fff"/><polygon points="45 9 44 9 44 8.01 40 8.01 40 9 40 9.01 40 10 45 10 45 9" fill="#fff"/><rect x="30" y="14" width="1" height="1"/><rect x="36" y="14" width="1" height="1"/><rect x="42" y="14" width="1" height="1"/><rect x="30" y="20" width="1" height="1"/><rect x="36" y="20" width="1" height="1"/><rect x="42" y="20" width="1" height="1"/><rect x="30" y="26" width="1" height="1"/><rect x="36" y="26" width="1" height="1"/><rect x="42" y="26" width="1" height="1"/><rect x="24" y="32" width="1" height="1"/><rect x="30" y="32" width="1" height="1"/><rect x="36" y="32" width="1" height="1"/><rect x="42" y="32" width="1" height="1"/><rect x="24" y="38" width="1" height="1"/><rect x="42" y="38" width="1" height="1"/><rect x="18" y="44" width="1" height="1"/><rect x="24" y="44" width="1" height="1"/><rect x="42" y="44" width="1" height="1"/><rect x="18" y="50" width="1" height="1"/><rect x="24" y="50" width="1" height="1"/><rect x="30" y="50" width="1" height="1"/><rect x="36" y="50" width="1" height="1"/><rect x="42" y="50" width="1" height="1"/><rect x="12" y="32" width="1" height="1"/><rect x="12" y="38" width="1" height="1"/><rect x="12" y="44" width="1" height="1"/><rect x="5" y="58" width="41" height="1"/><rect x="4" y="3" width="1" height="56"/><rect x="15" y="53" width="1" height="1"/><rect x="17" y="53" width="1" height="1"/><rect x="19" y="53" width="1" height="1"/><rect x="21" y="53" width="1" height="1"/><rect x="15" y="55" width="1" height="1"/><rect x="17" y="55" width="1" height="1"/><rect x="19" y="55" width="1" height="1"/><rect x="21" y="55" width="1" height="1"/><rect x="23" y="55" width="1" height="1"/><rect x="25" y="55" width="1" height="1"/><path d="M37.91,39.01h0v-1h-7v.99h0v7h3v2h7v-7h-3v-1.99ZM39.91,41.99v5h-5v-5h5ZM33.91,40.99v4h-2v-5.99h5v1.99h-3Z"/><polygon points="14.5 10.5 14.5 9.5 9.5 9.5 9.5 10.5 10.5 10.5 14.5 10.5" fill="#fff"/><rect x="14.5" y="9.5" width="1" height="1" fill="#fff"/><polygon points="20.5 10.5 22.5 10.5 24.5 10.5 24.5 9.5 15.5 9.5 15.5 10.5 20.5 10.5" fill="#fff"/><polygon points="10.5 21.5 10.5 10.5 9.5 10.5 9.5 22.5 10.5 22.5 10.5 21.5" fill="#fff"/><polygon points="14.5 9.5 14.5 8.5 8.5 8.5 8.5 9.5 9.5 9.5 14.5 9.5" fill="#150011"/><rect x="14.5" y="8.5" width="1" height="1" fill="#150011"/><polygon points="24.5 9.5 25.5 9.5 25.5 8.5 15.5 8.5 15.5 9.5 24.5 9.5" fill="#150011"/><rect x="8.5" y="24.5" width="1" height="1" fill="#150011"/><rect x="9.5" y="24.5" width="1" height="1" fill="#150011"/><rect x="10.5" y="24.5" width="4" height="1" fill="#150011"/><rect x="14.5" y="24.5" width="1" height="1" fill="#150011"/><polygon points="25.5 24.5 24.5 24.5 15.5 24.5 15.5 25.5 25.5 25.5 25.5 24.5" fill="#150011"/><polygon points="9.5 22.5 9.5 10.5 9.5 9.5 8.5 9.5 8.5 24.5 9.5 24.5 9.5 22.5" fill="#150011"/><rect x="24.5" y="9.5" width="1" height="1" fill="#150011"/><polygon points="24.5 21.5 24.5 22.5 24.5 24.5 25.5 24.5 25.5 10.5 24.5 10.5 24.5 21.5" fill="#150011"/><rect x="20.5" y="10.5" width="2" height="1" fill="#150011"/><polygon points="19.5 11.5 19.5 13.5 20.5 13.5 22.5 13.5 23.5 13.5 23.5 11.5 22.5 11.5 20.5 11.5 19.5 11.5" fill="#150011"/><rect x="20.5" y="13.5" width="2" height="1" fill="#150011"/><rect x="9.5" y="22.5" width="1" height="2" fill="#150011"/><rect x="10.5" y="22.5" width="4" height="2" fill="#150011"/><rect x="14.5" y="22.5" width="1" height="2" fill="#150011"/><polygon points="24.5 22.5 23.5 22.5 21.5 22.5 15.5 22.5 15.5 24.5 24.5 24.5 24.5 22.5" fill="#150011"/><polygon points="11.5 21.5 10.5 21.5 10.5 22.5 14.5 22.5 14.5 21.5 11.5 21.5" fill="#150011"/><rect x="14.5" y="21.5" width="1" height="1" fill="#150011"/><polygon points="20.5 21.5 15.5 21.5 15.5 22.5 21.5 22.5 21.5 21.5 20.5 21.5" fill="#150011"/><polygon points="12.5 20.5 11.5 20.5 11.5 21.5 14.5 21.5 14.5 20.5 12.5 20.5" fill="#150011"/><rect x="14.5" y="20.5" width="1" height="1" fill="#150011"/><polygon points="15.5 21.5 20.5 21.5 20.5 20.5 19.5 20.5 15.5 20.5 15.5 21.5" fill="#150011"/><polygon points="14.5 19.5 13.5 19.5 13.5 19.5 12.5 19.5 12.5 20.5 14.5 20.5 14.5 19.5" fill="#150011"/><rect x="14.5" y="19.5" width="1" height="1" fill="#150011"/><polygon points="15.5 19.5 15.5 20.5 19.5 20.5 19.5 19.5 18.5 19.5 18.5 19.5 15.5 19.5" fill="#150011"/><rect x="13.5" y="18.5" width="1" height="1" fill="#150011"/><rect x="14.5" y="18.5" width="1" height="1" fill="#150011"/><rect x="15.5" y="18.5" width="3" height="1" fill="#150011"/><rect x="14.5" y="17.5" width="1" height="1" fill="#150011"/><polygon points="15.5 18.5 17.5 18.5 17.5 17.5 16.5 17.5 15.5 17.5 15.5 18.5" fill="#150011"/><rect x="14.5" y="16.5" width="1" height="1" fill="#150011"/><rect x="15.5" y="16.5" width="1" height="1" fill="#150011"/><rect x="23.5" y="21.5" width="1" height="1" fill="#150011"/><rect x="8" y="50" width="1" height="1"/><rect x="7" y="51" width="1" height="1"/><rect x="8" y="52" width="1" height="1"/><rect x="9" y="51" width="1" height="1"/><rect x="8" y="53" width="1" height="1"/><rect x="7" y="54" width="1" height="1"/><rect x="8" y="55" width="1" height="1"/><rect x="9" y="54" width="1" height="1"/><rect x="11" y="50" width="1" height="1"/><rect x="10" y="51" width="1" height="1"/><rect x="11" y="52" width="1" height="1"/><rect x="12" y="51" width="1" height="1"/><rect x="11" y="53" width="1" height="1"/><rect x="10" y="54" width="1" height="1"/><rect x="11" y="55" width="1" height="1"/><rect x="12" y="54" width="1" height="1"/><rect x="13.33" y="33.5" width="1" height="3"/><rect x="19.33" y="33.5" width="1" height="3"/><rect x="15.33" y="31.5" width="3" height="1"/><rect x="15.33" y="37.5" width="3" height="1"/><rect x="18.33" y="32.5" width="1" height="1"/><rect x="14.33" y="32.5" width="1" height="1"/><rect x="14.33" y="36.5" width="1" height="1"/><rect x="18.33" y="36.5" width="1" height="1"/><rect x="5" y="3" width="35" height="1"/><rect x="46" y="10" width="1" height="49"/><rect x="45" y="9" width="1" height="1"/><rect x="44" y="8" width="1" height="1"/><rect x="43" y="7" width="1" height="1"/><rect x="42" y="6" width="1" height="1"/><rect x="41" y="5" width="1" height="1"/><rect x="40" y="4" width="1" height="1"/><rect x="39" y="4" width="1" height="6"/><rect x="39" y="10" width="7" height="1"/></svg>