<?xml version="1.0" encoding="UTF-8"?>
<svg id="Layer_4" xmlns="http://www.w3.org/2000/svg" version="1.1" viewBox="0 0 56 64">
  <!-- Generator: Adobe Illustrator 29.4.0, SVG Export Plug-In . SVG Version: 2.1.0 Build 152)  -->
  <defs>
    <style>
      .st0 {
        fill: #150011;
      }

      .st1 {
        fill: #fff;
      }
    </style>
  </defs>
  <g>
    <g>
      <polygon class="st1" points="48 16 48 9 14 9 14 63 48 63 55 63 55 16 48 16"/>
      <polygon class="st1" points="52 12 51 12 51 11 50 11 50 10 49 10 49 11 49 12 49 13 52 13 52 12"/>
      <polygon class="st1" points="54 14 53 14 53 13 49 13 49 14 49 14 49 15 54 15 54 14"/>
    </g>
    <rect x="39" y="19" width="1" height="1"/>
    <rect x="45" y="19" width="1" height="1"/>
    <rect x="51" y="19" width="1" height="1"/>
    <rect x="39" y="25" width="1" height="1"/>
    <rect x="45" y="25" width="1" height="1"/>
    <rect x="51" y="25" width="1" height="1"/>
    <rect x="39" y="31" width="1" height="1"/>
    <rect x="45" y="31" width="1" height="1"/>
    <rect x="51" y="31" width="1" height="1"/>
    <rect x="33" y="37" width="1" height="1"/>
    <rect x="39" y="37" width="1" height="1"/>
    <rect x="45" y="37" width="1" height="1"/>
    <rect x="51" y="37" width="1" height="1"/>
    <rect x="33" y="43" width="1" height="1"/>
    <rect x="51" y="43" width="1" height="1"/>
    <rect x="27" y="49" width="1" height="1"/>
    <rect x="33" y="49" width="1" height="1"/>
    <rect x="51" y="49" width="1" height="1"/>
    <rect x="27" y="55" width="1" height="1"/>
    <rect x="33" y="55" width="1" height="1"/>
    <rect x="39" y="55" width="1" height="1"/>
    <rect x="45" y="55" width="1" height="1"/>
    <rect x="51" y="55" width="1" height="1"/>
    <rect x="21" y="37" width="1" height="1"/>
    <rect x="21" y="43" width="1" height="1"/>
    <rect x="21" y="49" width="1" height="1"/>
    <rect x="14" y="63" width="41" height="1"/>
    <rect x="13" y="8" width="1" height="56"/>
    <rect x="24" y="58" width="1" height="1"/>
    <rect x="26" y="58" width="1" height="1"/>
    <rect x="28" y="58" width="1" height="1"/>
    <rect x="30" y="58" width="1" height="1"/>
    <rect x="24" y="60" width="1" height="1"/>
    <rect x="26" y="60" width="1" height="1"/>
    <rect x="28" y="60" width="1" height="1"/>
    <rect x="30" y="60" width="1" height="1"/>
    <rect x="32" y="60" width="1" height="1"/>
    <rect x="34" y="60" width="1" height="1"/>
    <path d="M46.9,44h0v-1h-7v1h0v7h3v2h7v-7h-3v-2ZM48.9,47v5h-5v-5h5ZM42.9,46v4h-2v-6h5v2h-3Z"/>
    <g>
      <polygon class="st1" points="23.5 15.5 23.5 14.5 18.5 14.5 18.5 15.5 19.5 15.5 23.5 15.5"/>
      <rect class="st1" x="23.5" y="14.5" width="1" height="1"/>
      <polygon class="st1" points="29.5 15.5 31.5 15.5 33.5 15.5 33.5 14.5 24.5 14.5 24.5 15.5 29.5 15.5"/>
      <polygon class="st1" points="19.5 26.5 19.5 15.5 18.5 15.5 18.5 27.5 19.5 27.5 19.5 26.5"/>
      <polygon class="st1" points="20.5 25.5 21.5 25.5 21.5 24.5 22.5 24.5 22.5 23.5 23.5 23.5 23.5 23.5 23.5 22.5 23.5 21.5 23.5 15.5 19.5 15.5 19.5 26.5 20.5 26.5 20.5 25.5"/>
      <rect class="st1" x="23.5" y="15.5" width="1" height="6"/>
      <polygon class="st1" points="23.5 23.5 24.5 23.5 24.5 23.5 23.5 23.5"/>
      <polygon class="st1" points="31.5 16.5 32.5 16.5 32.5 18.5 31.5 18.5 31.5 19.5 29.5 19.5 29.5 18.5 28.5 18.5 28.5 16.5 29.5 16.5 29.5 15.5 24.5 15.5 24.5 21.5 25.5 21.5 25.5 22.5 26.5 22.5 26.5 23.5 24.5 23.5 24.5 23.5 27.5 23.5 27.5 24.5 28.5 24.5 28.5 25.5 29.5 25.5 29.5 26.5 30.5 26.5 30.5 27.5 32.5 27.5 32.5 26.5 33.5 26.5 33.5 15.5 31.5 15.5 31.5 16.5"/>
      <polygon class="st0" points="23.5 14.5 23.5 13.5 17.5 13.5 17.5 14.5 18.5 14.5 23.5 14.5"/>
      <rect class="st0" x="23.5" y="13.5" width="1" height="1"/>
      <polygon class="st0" points="33.5 14.5 34.5 14.5 34.5 13.5 24.5 13.5 24.5 14.5 33.5 14.5"/>
      <rect class="st0" x="17.5" y="29.5" width="1" height="1"/>
      <rect class="st0" x="18.5" y="29.5" width="1" height="1"/>
      <rect class="st0" x="19.5" y="29.5" width="4" height="1"/>
      <rect class="st0" x="23.5" y="29.5" width="1" height="1"/>
      <polygon class="st0" points="34.5 29.5 33.5 29.5 24.5 29.5 24.5 30.5 34.5 30.5 34.5 29.5"/>
      <polygon class="st0" points="18.5 27.5 18.5 15.5 18.5 14.5 17.5 14.5 17.5 29.5 18.5 29.5 18.5 27.5"/>
      <rect class="st0" x="33.5" y="14.5" width="1" height="1"/>
      <polygon class="st0" points="33.5 26.5 33.5 27.5 33.5 29.5 34.5 29.5 34.5 15.5 33.5 15.5 33.5 26.5"/>
      <rect class="st0" x="29.5" y="15.5" width="2" height="1"/>
      <polygon class="st0" points="28.5 16.5 28.5 18.5 29.5 18.5 31.5 18.5 32.5 18.5 32.5 16.5 31.5 16.5 29.5 16.5 28.5 16.5"/>
      <rect class="st0" x="29.5" y="18.5" width="2" height="1"/>
      <rect class="st0" x="18.5" y="27.5" width="1" height="2"/>
      <rect class="st0" x="19.5" y="27.5" width="4" height="2"/>
      <rect class="st0" x="23.5" y="27.5" width="1" height="2"/>
      <polygon class="st0" points="33.5 27.5 32.5 27.5 30.5 27.5 24.5 27.5 24.5 29.5 33.5 29.5 33.5 27.5"/>
      <polygon class="st0" points="20.5 26.5 19.5 26.5 19.5 27.5 23.5 27.5 23.5 26.5 20.5 26.5"/>
      <rect class="st0" x="23.5" y="26.5" width="1" height="1"/>
      <polygon class="st0" points="29.5 26.5 24.5 26.5 24.5 27.5 30.5 27.5 30.5 26.5 29.5 26.5"/>
      <polygon class="st0" points="21.5 25.5 20.5 25.5 20.5 26.5 23.5 26.5 23.5 25.5 21.5 25.5"/>
      <rect class="st0" x="23.5" y="25.5" width="1" height="1"/>
      <polygon class="st0" points="24.5 26.5 29.5 26.5 29.5 25.5 28.5 25.5 24.5 25.5 24.5 26.5"/>
      <polygon class="st0" points="23.5 24.5 22.5 24.5 22.5 24.5 21.5 24.5 21.5 25.5 23.5 25.5 23.5 24.5"/>
      <rect class="st0" x="23.5" y="24.5" width="1" height="1"/>
      <polygon class="st0" points="24.5 24.5 24.5 25.5 28.5 25.5 28.5 24.5 27.5 24.5 27.5 24.5 24.5 24.5"/>
      <rect class="st0" x="22.5" y="23.5" width="1" height="1"/>
      <rect class="st0" x="23.5" y="23.5" width="1" height="1"/>
      <rect class="st0" x="24.5" y="23.5" width="3" height="1"/>
      <polygon class="st0" points="22.5 24.5 23.5 24.5 23.5 24.5 22.5 24.5"/>
      <polygon class="st0" points="23.5 24.5 24.5 24.5 24.5 24.5 23.5 24.5"/>
      <polygon class="st0" points="24.5 24.5 27.5 24.5 27.5 24.5 24.5 24.5"/>
      <rect class="st0" x="23.5" y="22.5" width="1" height="1"/>
      <polygon class="st0" points="24.5 23.5 26.5 23.5 26.5 22.5 25.5 22.5 24.5 22.5 24.5 23.5"/>
      <rect class="st0" x="23.5" y="21.5" width="1" height="1"/>
      <rect class="st0" x="24.5" y="21.5" width="1" height="1"/>
      <rect class="st0" x="32.5" y="26.5" width="1" height="1"/>
    </g>
    <g>
      <g>
        <rect x="17" y="55" width="1" height="1"/>
        <rect x="16" y="56" width="1" height="1"/>
        <rect x="17" y="57" width="1" height="1"/>
        <rect x="18" y="56" width="1" height="1"/>
      </g>
      <g>
        <rect x="17" y="58" width="1" height="1"/>
        <rect x="16" y="59" width="1" height="1"/>
        <rect x="17" y="60" width="1" height="1"/>
        <rect x="18" y="59" width="1" height="1"/>
      </g>
      <g>
        <rect x="20" y="55" width="1" height="1"/>
        <rect x="19" y="56" width="1" height="1"/>
        <rect x="20" y="57" width="1" height="1"/>
        <rect x="21" y="56" width="1" height="1"/>
      </g>
      <g>
        <rect x="20" y="58" width="1" height="1"/>
        <rect x="19" y="59" width="1" height="1"/>
        <rect x="20" y="60" width="1" height="1"/>
        <rect x="21" y="59" width="1" height="1"/>
      </g>
    </g>
    <g>
      <rect x="22.3" y="38.5" width="1" height="3"/>
      <rect x="28.3" y="38.5" width="1" height="3"/>
      <rect x="24.3" y="36.5" width="3" height="1"/>
      <rect x="24.3" y="42.5" width="3" height="1"/>
      <rect x="27.3" y="37.5" width="1" height="1"/>
      <rect x="23.3" y="37.5" width="1" height="1"/>
      <rect x="23.3" y="41.5" width="1" height="1"/>
      <rect x="27.3" y="41.5" width="1" height="1"/>
    </g>
    <g>
      <rect x="14" y="8" width="35" height="1"/>
      <rect x="55" y="15" width="1" height="49"/>
      <rect x="54" y="14" width="1" height="1"/>
      <rect x="53" y="13" width="1" height="1"/>
      <rect x="52" y="12" width="1" height="1"/>
      <rect x="51" y="11" width="1" height="1"/>
      <rect x="50" y="10" width="1" height="1"/>
      <rect x="49" y="9" width="1" height="1"/>
      <rect x="48" y="9" width="1" height="6"/>
      <rect x="48" y="15" width="7" height="1"/>
    </g>
  </g>
  <g>
    <g>
      <polygon class="st1" points="44 8 44 1 10 1 10 55 44 55 51 55 51 8 44 8"/>
      <polygon class="st1" points="48 4 47 4 47 3 46 3 46 2 45 2 45 3 45 4 45 5 48 5 48 4"/>
      <polygon class="st1" points="50 6 49 6 49 5 45 5 45 6 45 6 45 7 50 7 50 6"/>
    </g>
    <rect x="35" y="11" width="1" height="1"/>
    <rect x="41" y="11" width="1" height="1"/>
    <rect x="47" y="11" width="1" height="1"/>
    <rect x="35" y="17" width="1" height="1"/>
    <rect x="41" y="17" width="1" height="1"/>
    <rect x="47" y="17" width="1" height="1"/>
    <rect x="35" y="23" width="1" height="1"/>
    <rect x="41" y="23" width="1" height="1"/>
    <rect x="47" y="23" width="1" height="1"/>
    <rect x="29" y="29" width="1" height="1"/>
    <rect x="35" y="29" width="1" height="1"/>
    <rect x="41" y="29" width="1" height="1"/>
    <rect x="47" y="29" width="1" height="1"/>
    <rect x="29" y="35" width="1" height="1"/>
    <rect x="47" y="35" width="1" height="1"/>
    <rect x="23" y="41" width="1" height="1"/>
    <rect x="29" y="41" width="1" height="1"/>
    <rect x="47" y="41" width="1" height="1"/>
    <rect x="23" y="47" width="1" height="1"/>
    <rect x="29" y="47" width="1" height="1"/>
    <rect x="35" y="47" width="1" height="1"/>
    <rect x="41" y="47" width="1" height="1"/>
    <rect x="47" y="47" width="1" height="1"/>
    <rect x="17" y="29" width="1" height="1"/>
    <rect x="17" y="35" width="1" height="1"/>
    <rect x="17" y="41" width="1" height="1"/>
    <rect x="10" y="55" width="41" height="1"/>
    <rect x="9" y="0" width="1" height="56"/>
    <rect x="20" y="50" width="1" height="1"/>
    <rect x="22" y="50" width="1" height="1"/>
    <rect x="24" y="50" width="1" height="1"/>
    <rect x="26" y="50" width="1" height="1"/>
    <rect x="20" y="52" width="1" height="1"/>
    <rect x="22" y="52" width="1" height="1"/>
    <rect x="24" y="52" width="1" height="1"/>
    <rect x="26" y="52" width="1" height="1"/>
    <rect x="28" y="52" width="1" height="1"/>
    <rect x="30" y="52" width="1" height="1"/>
    <path d="M42.9,36h0v-1h-7v1h0v7h3v2h7v-7h-3v-2ZM44.9,39v5h-5v-5h5ZM38.9,38v4h-2v-6h5v2h-3Z"/>
    <g>
      <polygon class="st1" points="19.5 7.5 19.5 6.5 14.5 6.5 14.5 7.5 15.5 7.5 19.5 7.5"/>
      <rect class="st1" x="19.5" y="6.5" width="1" height="1"/>
      <polygon class="st1" points="25.5 7.5 27.5 7.5 29.5 7.5 29.5 6.5 20.5 6.5 20.5 7.5 25.5 7.5"/>
      <polygon class="st1" points="15.5 18.5 15.5 7.5 14.5 7.5 14.5 19.5 15.5 19.5 15.5 18.5"/>
      <polygon class="st1" points="16.5 17.5 17.5 17.5 17.5 16.5 18.5 16.5 18.5 15.5 19.5 15.5 19.5 15.5 19.5 14.5 19.5 13.5 19.5 7.5 15.5 7.5 15.5 18.5 16.5 18.5 16.5 17.5"/>
      <rect class="st1" x="19.5" y="7.5" width="1" height="6"/>
      <polygon class="st1" points="19.5 15.5 20.5 15.5 20.5 15.5 19.5 15.5"/>
      <polygon class="st1" points="27.5 8.5 28.5 8.5 28.5 10.5 27.5 10.5 27.5 11.5 25.5 11.5 25.5 10.5 24.5 10.5 24.5 8.5 25.5 8.5 25.5 7.5 20.5 7.5 20.5 13.5 21.5 13.5 21.5 14.5 22.5 14.5 22.5 15.5 20.5 15.5 20.5 15.5 23.5 15.5 23.5 16.5 24.5 16.5 24.5 17.5 25.5 17.5 25.5 18.5 26.5 18.5 26.5 19.5 28.5 19.5 28.5 18.5 29.5 18.5 29.5 7.5 27.5 7.5 27.5 8.5"/>
      <polygon class="st0" points="19.5 6.5 19.5 5.5 13.5 5.5 13.5 6.5 14.5 6.5 19.5 6.5"/>
      <rect class="st0" x="19.5" y="5.5" width="1" height="1"/>
      <polygon class="st0" points="29.5 6.5 30.5 6.5 30.5 5.5 20.5 5.5 20.5 6.5 29.5 6.5"/>
      <rect class="st0" x="13.5" y="21.5" width="1" height="1"/>
      <rect class="st0" x="14.5" y="21.5" width="1" height="1"/>
      <rect class="st0" x="15.5" y="21.5" width="4" height="1"/>
      <rect class="st0" x="19.5" y="21.5" width="1" height="1"/>
      <polygon class="st0" points="30.5 21.5 29.5 21.5 20.5 21.5 20.5 22.5 30.5 22.5 30.5 21.5"/>
      <polygon class="st0" points="14.5 19.5 14.5 7.5 14.5 6.5 13.5 6.5 13.5 21.5 14.5 21.5 14.5 19.5"/>
      <rect class="st0" x="29.5" y="6.5" width="1" height="1"/>
      <polygon class="st0" points="29.5 18.5 29.5 19.5 29.5 21.5 30.5 21.5 30.5 7.5 29.5 7.5 29.5 18.5"/>
      <rect class="st0" x="25.5" y="7.5" width="2" height="1"/>
      <polygon class="st0" points="24.5 8.5 24.5 10.5 25.5 10.5 27.5 10.5 28.5 10.5 28.5 8.5 27.5 8.5 25.5 8.5 24.5 8.5"/>
      <rect class="st0" x="25.5" y="10.5" width="2" height="1"/>
      <rect class="st0" x="14.5" y="19.5" width="1" height="2"/>
      <rect class="st0" x="15.5" y="19.5" width="4" height="2"/>
      <rect class="st0" x="19.5" y="19.5" width="1" height="2"/>
      <polygon class="st0" points="29.5 19.5 28.5 19.5 26.5 19.5 20.5 19.5 20.5 21.5 29.5 21.5 29.5 19.5"/>
      <polygon class="st0" points="16.5 18.5 15.5 18.5 15.5 19.5 19.5 19.5 19.5 18.5 16.5 18.5"/>
      <rect class="st0" x="19.5" y="18.5" width="1" height="1"/>
      <polygon class="st0" points="25.5 18.5 20.5 18.5 20.5 19.5 26.5 19.5 26.5 18.5 25.5 18.5"/>
      <polygon class="st0" points="17.5 17.5 16.5 17.5 16.5 18.5 19.5 18.5 19.5 17.5 17.5 17.5"/>
      <rect class="st0" x="19.5" y="17.5" width="1" height="1"/>
      <polygon class="st0" points="20.5 18.5 25.5 18.5 25.5 17.5 24.5 17.5 20.5 17.5 20.5 18.5"/>
      <polygon class="st0" points="19.5 16.5 18.5 16.5 18.5 16.5 17.5 16.5 17.5 17.5 19.5 17.5 19.5 16.5"/>
      <rect class="st0" x="19.5" y="16.5" width="1" height="1"/>
      <polygon class="st0" points="20.5 16.5 20.5 17.5 24.5 17.5 24.5 16.5 23.5 16.5 23.5 16.5 20.5 16.5"/>
      <rect class="st0" x="18.5" y="15.5" width="1" height="1"/>
      <rect class="st0" x="19.5" y="15.5" width="1" height="1"/>
      <rect class="st0" x="20.5" y="15.5" width="3" height="1"/>
      <polygon class="st0" points="18.5 16.5 19.5 16.5 19.5 16.5 18.5 16.5"/>
      <polygon class="st0" points="19.5 16.5 20.5 16.5 20.5 16.5 19.5 16.5"/>
      <polygon class="st0" points="20.5 16.5 23.5 16.5 23.5 16.5 20.5 16.5"/>
      <rect class="st0" x="19.5" y="14.5" width="1" height="1"/>
      <polygon class="st0" points="20.5 15.5 22.5 15.5 22.5 14.5 21.5 14.5 20.5 14.5 20.5 15.5"/>
      <rect class="st0" x="19.5" y="13.5" width="1" height="1"/>
      <rect class="st0" x="20.5" y="13.5" width="1" height="1"/>
      <rect class="st0" x="28.5" y="18.5" width="1" height="1"/>
    </g>
    <g>
      <g>
        <rect x="13" y="47" width="1" height="1"/>
        <rect x="12" y="48" width="1" height="1"/>
        <rect x="13" y="49" width="1" height="1"/>
        <rect x="14" y="48" width="1" height="1"/>
      </g>
      <g>
        <rect x="13" y="50" width="1" height="1"/>
        <rect x="12" y="51" width="1" height="1"/>
        <rect x="13" y="52" width="1" height="1"/>
        <rect x="14" y="51" width="1" height="1"/>
      </g>
      <g>
        <rect x="16" y="47" width="1" height="1"/>
        <rect x="15" y="48" width="1" height="1"/>
        <rect x="16" y="49" width="1" height="1"/>
        <rect x="17" y="48" width="1" height="1"/>
      </g>
      <g>
        <rect x="16" y="50" width="1" height="1"/>
        <rect x="15" y="51" width="1" height="1"/>
        <rect x="16" y="52" width="1" height="1"/>
        <rect x="17" y="51" width="1" height="1"/>
      </g>
    </g>
    <g>
      <rect x="18.3" y="30.5" width="1" height="3"/>
      <rect x="24.3" y="30.5" width="1" height="3"/>
      <rect x="20.3" y="28.5" width="3" height="1"/>
      <rect x="20.3" y="34.5" width="3" height="1"/>
      <rect x="23.3" y="29.5" width="1" height="1"/>
      <rect x="19.3" y="29.5" width="1" height="1"/>
      <rect x="19.3" y="33.5" width="1" height="1"/>
      <rect x="23.3" y="33.5" width="1" height="1"/>
    </g>
    <g>
      <rect x="10" y="0" width="35" height="1"/>
      <rect x="51" y="7" width="1" height="49"/>
      <rect x="50" y="6" width="1" height="1"/>
      <rect x="49" y="5" width="1" height="1"/>
      <rect x="48" y="4" width="1" height="1"/>
      <rect x="47" y="3" width="1" height="1"/>
      <rect x="46" y="2" width="1" height="1"/>
      <rect x="45" y="1" width="1" height="1"/>
      <rect x="44" y="1" width="1" height="6"/>
      <rect x="44" y="7" width="7" height="1"/>
    </g>
  </g>
  <g>
    <g>
      <polygon class="st1" points="35 11 35 4 1 4 1 58 35 58 42 58 42 11 35 11"/>
      <polygon class="st1" points="39 7 38 7 38 6 37 6 37 5 36 5 36 6 36 7 36 8 39 8 39 7"/>
      <polygon class="st1" points="41 9 40 9 40 8 36 8 36 9 36 9 36 10 41 10 41 9"/>
    </g>
    <rect x="26" y="14" width="1" height="1"/>
    <rect x="32" y="14" width="1" height="1"/>
    <rect x="38" y="14" width="1" height="1"/>
    <rect x="26" y="20" width="1" height="1"/>
    <rect x="32" y="20" width="1" height="1"/>
    <rect x="38" y="20" width="1" height="1"/>
    <rect x="26" y="26" width="1" height="1"/>
    <rect x="32" y="26" width="1" height="1"/>
    <rect x="38" y="26" width="1" height="1"/>
    <rect x="20" y="32" width="1" height="1"/>
    <rect x="26" y="32" width="1" height="1"/>
    <rect x="32" y="32" width="1" height="1"/>
    <rect x="38" y="32" width="1" height="1"/>
    <rect x="20" y="38" width="1" height="1"/>
    <rect x="38" y="38" width="1" height="1"/>
    <rect x="14" y="44" width="1" height="1"/>
    <rect x="20" y="44" width="1" height="1"/>
    <rect x="38" y="44" width="1" height="1"/>
    <rect x="14" y="50" width="1" height="1"/>
    <rect x="20" y="50" width="1" height="1"/>
    <rect x="26" y="50" width="1" height="1"/>
    <rect x="32" y="50" width="1" height="1"/>
    <rect x="38" y="50" width="1" height="1"/>
    <rect x="8" y="32" width="1" height="1"/>
    <rect x="8" y="38" width="1" height="1"/>
    <rect x="8" y="44" width="1" height="1"/>
    <rect x="1" y="58" width="41" height="1"/>
    <rect y="3" width="1" height="56"/>
    <rect x="11" y="53" width="1" height="1"/>
    <rect x="13" y="53" width="1" height="1"/>
    <rect x="15" y="53" width="1" height="1"/>
    <rect x="17" y="53" width="1" height="1"/>
    <rect x="11" y="55" width="1" height="1"/>
    <rect x="13" y="55" width="1" height="1"/>
    <rect x="15" y="55" width="1" height="1"/>
    <rect x="17" y="55" width="1" height="1"/>
    <rect x="19" y="55" width="1" height="1"/>
    <rect x="21" y="55" width="1" height="1"/>
    <path d="M33.9,39h0v-1h-7v1h0v7h3v2h7v-7h-3v-2ZM35.9,42v5h-5v-5h5ZM29.9,41v4h-2v-6h5v2h-3Z"/>
    <g>
      <polygon class="st1" points="10.5 10.5 10.5 9.5 5.5 9.5 5.5 10.5 6.5 10.5 10.5 10.5"/>
      <rect class="st1" x="10.5" y="9.5" width="1" height="1"/>
      <polygon class="st1" points="16.5 10.5 18.5 10.5 20.5 10.5 20.5 9.5 11.5 9.5 11.5 10.5 16.5 10.5"/>
      <polygon class="st1" points="6.5 21.5 6.5 10.5 5.5 10.5 5.5 22.5 6.5 22.5 6.5 21.5"/>
      <polygon class="st1" points="7.5 20.5 8.5 20.5 8.5 19.5 9.5 19.5 9.5 18.5 10.5 18.5 10.5 18.5 10.5 17.5 10.5 16.5 10.5 10.5 6.5 10.5 6.5 21.5 7.5 21.5 7.5 20.5"/>
      <rect class="st1" x="10.5" y="10.5" width="1" height="6"/>
      <polygon class="st1" points="10.5 18.5 11.5 18.5 11.5 18.5 10.5 18.5"/>
      <polygon class="st1" points="18.5 11.5 19.5 11.5 19.5 13.5 18.5 13.5 18.5 14.5 16.5 14.5 16.5 13.5 15.5 13.5 15.5 11.5 16.5 11.5 16.5 10.5 11.5 10.5 11.5 16.5 12.5 16.5 12.5 17.5 13.5 17.5 13.5 18.5 11.5 18.5 11.5 18.5 14.5 18.5 14.5 19.5 15.5 19.5 15.5 20.5 16.5 20.5 16.5 21.5 17.5 21.5 17.5 22.5 19.5 22.5 19.5 21.5 20.5 21.5 20.5 10.5 18.5 10.5 18.5 11.5"/>
      <polygon class="st0" points="10.5 9.5 10.5 8.5 4.5 8.5 4.5 9.5 5.5 9.5 10.5 9.5"/>
      <rect class="st0" x="10.5" y="8.5" width="1" height="1"/>
      <polygon class="st0" points="20.5 9.5 21.5 9.5 21.5 8.5 11.5 8.5 11.5 9.5 20.5 9.5"/>
      <rect class="st0" x="4.5" y="24.5" width="1" height="1"/>
      <rect class="st0" x="5.5" y="24.5" width="1" height="1"/>
      <rect class="st0" x="6.5" y="24.5" width="4" height="1"/>
      <rect class="st0" x="10.5" y="24.5" width="1" height="1"/>
      <polygon class="st0" points="21.5 24.5 20.5 24.5 11.5 24.5 11.5 25.5 21.5 25.5 21.5 24.5"/>
      <polygon class="st0" points="5.5 22.5 5.5 10.5 5.5 9.5 4.5 9.5 4.5 24.5 5.5 24.5 5.5 22.5"/>
      <rect class="st0" x="20.5" y="9.5" width="1" height="1"/>
      <polygon class="st0" points="20.5 21.5 20.5 22.5 20.5 24.5 21.5 24.5 21.5 10.5 20.5 10.5 20.5 21.5"/>
      <rect class="st0" x="16.5" y="10.5" width="2" height="1"/>
      <polygon class="st0" points="15.5 11.5 15.5 13.5 16.5 13.5 18.5 13.5 19.5 13.5 19.5 11.5 18.5 11.5 16.5 11.5 15.5 11.5"/>
      <rect class="st0" x="16.5" y="13.5" width="2" height="1"/>
      <rect class="st0" x="5.5" y="22.5" width="1" height="2"/>
      <rect class="st0" x="6.5" y="22.5" width="4" height="2"/>
      <rect class="st0" x="10.5" y="22.5" width="1" height="2"/>
      <polygon class="st0" points="20.5 22.5 19.5 22.5 17.5 22.5 11.5 22.5 11.5 24.5 20.5 24.5 20.5 22.5"/>
      <polygon class="st0" points="7.5 21.5 6.5 21.5 6.5 22.5 10.5 22.5 10.5 21.5 7.5 21.5"/>
      <rect class="st0" x="10.5" y="21.5" width="1" height="1"/>
      <polygon class="st0" points="16.5 21.5 11.5 21.5 11.5 22.5 17.5 22.5 17.5 21.5 16.5 21.5"/>
      <polygon class="st0" points="8.5 20.5 7.5 20.5 7.5 21.5 10.5 21.5 10.5 20.5 8.5 20.5"/>
      <rect class="st0" x="10.5" y="20.5" width="1" height="1"/>
      <polygon class="st0" points="11.5 21.5 16.5 21.5 16.5 20.5 15.5 20.5 11.5 20.5 11.5 21.5"/>
      <polygon class="st0" points="10.5 19.5 9.5 19.5 9.5 19.5 8.5 19.5 8.5 20.5 10.5 20.5 10.5 19.5"/>
      <rect class="st0" x="10.5" y="19.5" width="1" height="1"/>
      <polygon class="st0" points="11.5 19.5 11.5 20.5 15.5 20.5 15.5 19.5 14.5 19.5 14.5 19.5 11.5 19.5"/>
      <rect class="st0" x="9.5" y="18.5" width="1" height="1"/>
      <rect class="st0" x="10.5" y="18.5" width="1" height="1"/>
      <rect class="st0" x="11.5" y="18.5" width="3" height="1"/>
      <polygon class="st0" points="9.5 19.5 10.5 19.5 10.5 19.5 9.5 19.5"/>
      <polygon class="st0" points="10.5 19.5 11.5 19.5 11.5 19.5 10.5 19.5"/>
      <polygon class="st0" points="11.5 19.5 14.5 19.5 14.5 19.5 11.5 19.5"/>
      <rect class="st0" x="10.5" y="17.5" width="1" height="1"/>
      <polygon class="st0" points="11.5 18.5 13.5 18.5 13.5 17.5 12.5 17.5 11.5 17.5 11.5 18.5"/>
      <rect class="st0" x="10.5" y="16.5" width="1" height="1"/>
      <rect class="st0" x="11.5" y="16.5" width="1" height="1"/>
      <rect class="st0" x="19.5" y="21.5" width="1" height="1"/>
    </g>
    <g>
      <g>
        <rect x="4" y="50" width="1" height="1"/>
        <rect x="3" y="51" width="1" height="1"/>
        <rect x="4" y="52" width="1" height="1"/>
        <rect x="5" y="51" width="1" height="1"/>
      </g>
      <g>
        <rect x="4" y="53" width="1" height="1"/>
        <rect x="3" y="54" width="1" height="1"/>
        <rect x="4" y="55" width="1" height="1"/>
        <rect x="5" y="54" width="1" height="1"/>
      </g>
      <g>
        <rect x="7" y="50" width="1" height="1"/>
        <rect x="6" y="51" width="1" height="1"/>
        <rect x="7" y="52" width="1" height="1"/>
        <rect x="8" y="51" width="1" height="1"/>
      </g>
      <g>
        <rect x="7" y="53" width="1" height="1"/>
        <rect x="6" y="54" width="1" height="1"/>
        <rect x="7" y="55" width="1" height="1"/>
        <rect x="8" y="54" width="1" height="1"/>
      </g>
    </g>
    <g>
      <rect x="9.3" y="33.5" width="1" height="3"/>
      <rect x="15.3" y="33.5" width="1" height="3"/>
      <rect x="11.3" y="31.5" width="3" height="1"/>
      <rect x="11.3" y="37.5" width="3" height="1"/>
      <rect x="14.3" y="32.5" width="1" height="1"/>
      <rect x="10.3" y="32.5" width="1" height="1"/>
      <rect x="10.3" y="36.5" width="1" height="1"/>
      <rect x="14.3" y="36.5" width="1" height="1"/>
    </g>
    <g>
      <rect x="1" y="3" width="35" height="1"/>
      <rect x="42" y="10" width="1" height="49"/>
      <rect x="41" y="9" width="1" height="1"/>
      <rect x="40" y="8" width="1" height="1"/>
      <rect x="39" y="7" width="1" height="1"/>
      <rect x="38" y="6" width="1" height="1"/>
      <rect x="37" y="5" width="1" height="1"/>
      <rect x="36" y="4" width="1" height="1"/>
      <rect x="35" y="4" width="1" height="6"/>
      <rect x="35" y="10" width="7" height="1"/>
    </g>
  </g>
</svg>