<?xml version="1.0" encoding="UTF-8"?>
<svg id="Layer_1" xmlns="http://www.w3.org/2000/svg" width="22" height="20" version="1.1" viewBox="0 0 22 20">
  <!-- Generator: Adobe Illustrator 29.4.0, SVG Export Plug-In . SVG Version: 2.1.0 Build 152)  -->
  <defs>
    <style>
      .st0 {
        fill: #fff;
      }
    </style>
  </defs>
  <rect class="st0" width="22" height="20"/>
  <g>
    <rect x="3" y="7" width="1" height="4"/>
    <g>
      <rect x="18" y="7" width="1" height="4"/>
      <rect x="8" y="15" width="5" height="1"/>
      <rect x="5" y="5" width="3" height="1"/>
      <rect x="16" y="12" width="1" height="1"/>
      <rect x="17" y="11" width="1" height="1"/>
      <rect x="8" y="6" width="2" height="1"/>
      <rect x="14" y="5" width="3" height="1"/>
      <rect x="13" y="14" width="2" height="1"/>
      <rect x="6" y="14" width="2" height="1"/>
      <rect x="10" y="7" width="3" height="1"/>
      <rect x="4" y="6" width="1" height="1"/>
      <rect x="5.1" y="13" width="1" height="1"/>
      <rect x="13" y="6" width="1" height="1"/>
      <rect x="17" y="6" width="1" height="1"/>
      <rect x="15" y="13" width="1" height="1"/>
      <rect x="4" y="11" width="1" height="2"/>
    </g>
  </g>
</svg>