<?xml version="1.0" encoding="UTF-8"?>
<svg id="Layer_1" xmlns="http://www.w3.org/2000/svg" width="100" height="100" version="1.1" viewBox="0 0 100 100">
  <!-- Generator: Adobe Illustrator 29.4.0, SVG Export Plug-In . SVG Version: 2.1.0 Build 152)  -->
  <defs>
    <style>
      .st0 {
        fill: #231f20;
        fill-rule: evenodd;
      }
    </style>
  </defs>
  <path class="st0" d="M64,50.9h-.4c-3.5,0-6.5,1.7-8.7,4.3-2.5,3-3.7,6.9-4,10.7,1.8-2,3.9-3.9,6-5.6,1.9-1.5,3.9-2.9,6.1-4.1l-1.9-.4h0c-.2,0-.4-.1-.5-.3-.3-.4-.2-.9.2-1.1.8-.6,1.9-1.1,2.8-1.5.7-.3,1.3-.6,2.1-.9l-1.7-1.1ZM43.3,44.1l5.2-3.5-9.8-6.6,4.6,10.1ZM36.5,48.6l5.4-3.6-4.6-10-.9,13.6ZM36,50.9l-1.7,1.1c.7.3,1.4.6,2.1.9.9.4,2,.9,2.8,1.5.4.3.4.8.2,1.1-.1.2-.3.3-.5.3h0l-1.9.4c2.1,1.2,4.2,2.6,6.1,4.1,2.2,1.7,4.2,3.6,6,5.6-.3-3.8-1.6-7.7-4-10.7-2.2-2.7-5.2-4.3-8.7-4.3-.1,0-.3,0-.4,0ZM50,61.7c.7-2.7,1.9-5.3,3.7-7.5,2.1-2.5,4.9-4.3,8.1-4.8l-11.8-7.9-11.8,7.9c3.2.5,6,2.2,8.1,4.8,1.8,2.2,3,4.8,3.7,7.5ZM61.3,34l-9.8,6.6,5.2,3.5,4.6-10.1ZM63.5,48.6l-.9-13.6-4.6,9.9,5.4,3.6ZM36.4,54.7c-.2-.1-.5-.2-.7-.3-1.1-.5-2.3-1-3.4-1.3-.4-.1-.7-.6-.5-1,0-.2.2-.4.4-.5l2.7-1.8,1.1-18.1c0-.4.4-.8.9-.8.1,0,.3,0,.4.1l12.8,8.5,12.8-8.5c.1,0,.3-.1.4-.2.4,0,.8.3.9.8l1.1,18.1,2.8,1.9c.4.2.5.8.2,1.1,0,.1-.2.3-.4.3h0c-1.1.4-2.3.8-3.4,1.3-.2,0-.5.2-.7.3l2.1.4c.4,0,.7.5.6,1,0,.3-.2.5-.5.6-2.8,1.2-5.5,3.1-7.9,4.9-2.6,2.1-5.2,4.5-7.3,7.1-.1.2-.4.3-.7.3s-.5-.1-.7-.3c-2.1-2.6-4.7-5-7.3-7.1-2.4-1.9-5.1-3.7-7.9-4.9-.3,0-.4-.3-.5-.6,0-.4.2-.9.6-1l2.1-.4Z"/>
  <g>
    <path d="M10.5,36.6l-7.7-3.2.8-2c.9-2.1,3.3-3.1,5.5-2.2,2.1.9,3.1,3.3,2.2,5.5l-.8,2ZM9.6,34.4l.2-.4c.5-1.3,0-2.8-1.3-3.3s-2.8,0-3.3,1.4l-.2.4,4.6,1.9Z"/>
    <path d="M14.9,27.4l-4.8-7.9,8.9,2.6-1.1,1.4-.7-.2-1.6,2,.4.6-1.1,1.4ZM14.9,24.2l1-1.3-2.2-.7,1.2,2Z"/>
    <path d="M26.6,15.8l-5.3-1.1,2.4,3.1-1.3,1-5.3-6.8,5.4,1.1-2.4-3.1,1.3-1,5.3,6.8Z"/>
    <path d="M38.1,10l-1.8-8.4,3.8,2.9,2.2-4.2,1.8,8.4-1.6.3-.8-3.8-1,1.9-1.7-1.3.8,3.8-1.7.3Z"/>
    <path d="M49.5,4c.2-2.4,2.3-4.2,4.7-4,2.4.2,4.2,2.3,4,4.7s-2.3,4.2-4.7,4c-2.4-.2-4.2-2.3-4-4.7ZM56.6,4.6c.1-1.5-1-2.8-2.4-2.9s-2.8,1-2.9,2.4c-.1,1.5,1,2.8,2.4,2.9,1.5.1,2.8-1,2.9-2.4Z"/>
    <path d="M62.8,10.3l3-7.8,2,.8c1.6.6,2.4,2.4,1.8,4-.4,1.1-1.4,1.8-2.5,2l1.1,3.2-2.1-.8-1-2.7-.8,2-1.6-.6ZM65.7,7.3l.4.2c.7.3,1.6,0,1.9-.8s0-1.6-.8-1.9l-.4-.2-1,2.7Z"/>
    <path d="M77.9,13.6l3.4,2.6c-1.4,1.9-4.2,2.3-6.1.8-1.9-1.5-2.3-4.2-.8-6.1,1.5-1.9,4.2-2.3,6.1-.8.9.7,1.5,1.7,1.7,2.9l-1.6.2c0-.7-.5-1.4-1-1.8-1.2-.9-2.9-.7-3.8.5-.9,1.2-.7,2.9.5,3.8.7.6,1.6.7,2.4.4l-1.8-1.3,1-1.2Z"/>
    <path d="M81.3,22.3l8.9-2.5-4.9,7.8-1.1-1.4.4-.6-1.5-2-.7.2-1.1-1.4ZM84.3,23.1l1,1.3,1.2-2-2.2.6Z"/>
    <path d="M89.3,36.6l2.5-4.9-3.6,1.5-.6-1.5,7.9-3.3-2.5,4.9,3.6-1.5.6,1.5-8,3.3Z"/>
  </g>
  <g>
    <path d="M15.7,86.5l5.4-6.4,1.6,1.4c1.8,1.5,2,4.1.5,5.9-1.5,1.8-4.1,2-5.9.5l-1.6-1.4ZM18.1,86.3l.3.3c1.1.9,2.7.8,3.5-.3.9-1.1.8-2.7-.3-3.6l-.3-.3-3.2,3.9Z"/>
    <path d="M26.8,94.4l3.6-7.6,4,1.9-.7,1.5-2.5-1.2-.7,1.5,2.5,1.2-.7,1.5-2.5-1.2-.7,1.6,2.5,1.2-.7,1.5-4-1.9Z"/>
    <path d="M37.4,98.5l.4-1.6c0,0,.2,0,.3.1.6.1,1.3-.3,1.4-.9,0-.5,0-.9-.2-1.4-.2-.6-.4-1.2-.3-1.9.3-1.5,1.6-2.3,3.2-2h0s-.4,1.6-.4,1.6h0c-.5-.1-1.1.2-1.2.8,0,.3,0,.7.2,1.1.2.6.5,1.2.3,2.1-.4,1.7-1.7,2.5-3.4,2.2,0,0-.2,0-.3,0Z"/>
    <path d="M47.6,100l.3-8.4h1.7s-.3,8.4-.3,8.4h-1.7Z"/>
    <path d="M60,94.7l4.3-.9c.5,2.3-1,4.7-3.3,5.2s-4.7-1-5.2-3.3c-.5-2.3,1-4.7,3.3-5.2,1.1-.2,2.3,0,3.3.6l-.9,1.4c-.6-.4-1.3-.5-2-.4-1.5.3-2.4,1.8-2.1,3.2s1.8,2.4,3.2,2.1c.9-.2,1.6-.8,1.9-1.6l-2.2.5-.3-1.5Z"/>
    <path d="M76.5,92.8l-5.1-1.9,1.9,3.4-1.5.8-4.1-7.6,5.1,1.9-1.9-3.4,1.5-.8,4.1,7.5Z"/>
    <path d="M82.3,88.3l-1.1-1.2c0,0,.2,0,.3-.2.5-.4.5-1.2,0-1.7-.3-.4-.8-.5-1.3-.6-.6-.1-1.2-.3-1.7-.9-1-1.1-1-2.7.2-3.7h0s1.1,1.2,1.1,1.2h0c-.4.4-.4,1.1,0,1.5.2.2.6.3,1.1.4.6.1,1.3.3,1.9,1,1.1,1.3,1.1,2.9-.2,4,0,0-.1.2-.2.2Z"/>
  </g>
</svg>