<?xml version="1.0" encoding="UTF-8"?>
<svg id="Layer_3" xmlns="http://www.w3.org/2000/svg" version="1.1" viewBox="0 0 32 16">
  <!-- Generator: Adobe Illustrator 29.4.0, SVG Export Plug-In . SVG Version: 2.1.0 Build 152)  -->
  <path d="M26,2v13s1,0,1,0h2v1s3,0,3,0V1s-3,0-3,0v1h-2s-1,0-1,0ZM27,3h2v11h-2V3Z"/>
  <rect x="25" y="3" width="1" height="1" transform="translate(51 7) rotate(-180)"/>
  <rect x="25" y="13" width="1" height="1" transform="translate(51 27) rotate(-180)"/>
  <rect x="23" y="2" width="2" height="1" transform="translate(48 5) rotate(-180)"/>
  <rect x="21" y="1" width="2" height="1" transform="translate(44 3) rotate(-180)"/>
  <rect x="22" y="14" width="3" height="1" transform="translate(47 29) rotate(-180)"/>
  <rect x="16" y="15" width="6" height="1" transform="translate(38 31) rotate(-180)"/>
  <rect x="10" y="0" width="11" height="1" transform="translate(31 1) rotate(-180)"/>
  <rect x="17" y="5" width="1" height="1" transform="translate(35 11) rotate(-180)"/>
  <rect x="12" y="2" width="1" height="1" transform="translate(25 5) rotate(-180)"/>
  <rect x="13" y="6" width="4" height="1" transform="translate(30 13) rotate(-180)"/>
  <rect x="16" y="7" width="1" height="2" transform="translate(33 16) rotate(-180)"/>
  <rect x="17" y="9" width="1" height="2" transform="translate(35 20) rotate(-180)"/>
  <rect x="18" y="11" width="1" height="2" transform="translate(37 24) rotate(-180)"/>
  <rect x="14" y="9" width="2" height="1" transform="translate(30 19) rotate(-180)"/>
  <rect x="15" y="11" width="2" height="1" transform="translate(32 23) rotate(-180)"/>
  <rect x="16" y="13" width="2" height="1" transform="translate(34 27) rotate(-180)"/>
  <rect x="10" y="3" width="2" height="1" transform="translate(22 7) rotate(-180)"/>
  <rect x="5" y="1" width="5" height="1" transform="translate(15 3) rotate(-180)"/>
  <rect x="1" y="5" width="6" height="1" transform="translate(8 11) rotate(-180)"/>
  <rect x="1" y="2" width="4" height="1" transform="translate(6 5) rotate(-180)"/>
  <rect x="7" y="4" width="3" height="1" transform="translate(17 9) rotate(-180)"/>
  <rect x="8" y="7" width="5" height="1" transform="translate(21 15) rotate(-180)"/>
  <rect x="9" y="10" width="5" height="1" transform="translate(23 21) rotate(-180)"/>
  <rect x="11" y="12" width="4" height="1" transform="translate(26 25) rotate(-180)"/>
  <rect x="12" y="14" width="4" height="1" transform="translate(28 29) rotate(-180)"/>
  <rect x="7" y="5" width="1" height="2" transform="translate(15 12) rotate(-180)"/>
  <rect x="8" y="8" width="1" height="2" transform="translate(17 18) rotate(-180)"/>
  <rect x="10" y="11" width="1" height="1" transform="translate(21 23) rotate(-180)"/>
  <rect x="11" y="13" width="1" height="1" transform="translate(23 27) rotate(-180)"/>
  <rect x="0" y="3" width="1" height="2" transform="translate(1 8) rotate(-180)"/>
</svg>