<?xml version="1.0" encoding="UTF-8"?>
<svg xmlns="http://www.w3.org/2000/svg" version="1.1" viewBox="0 0 32 32">
  <!-- Generator: Adobe Illustrator 29.4.0, SVG Export Plug-In . SVG Version: 2.1.0 Build 152)  -->
  <defs>
    <style>
      .st0 {
        fill: #fff;
      }
    </style>
  </defs>
  <g id="Boot">
    <rect x="9" width="1" height="1"/>
    <rect x="22" y="3" width="1" height="1"/>
    <rect x="22" y="5" width="1" height="6"/>
    <rect x="23" y="4" width="1" height="1"/>
    <rect x="21" y="7" width="1" height="11"/>
    <rect x="19" y="18" width="1" height="1"/>
    <rect x="9" y="1" width="6" height="1"/>
    <rect x="9" y="2" width="9" height="1"/>
    <rect x="5" y="7" width="14" height="8"/>
    <rect x="9" y="3" width="11" height="4"/>
    <rect x="20" y="4" width="2" height="2"/>
    <rect x="20" y="6" width="1" height="2"/>
    <rect x="24" y="28" width="5" height="3"/>
    <rect x="20" y="9" width="1" height="1"/>
    <rect x="19" y="12" width="1" height="1"/>
    <rect x="20" y="11" width="1" height="1"/>
    <rect x="20" y="13" width="1" height="1"/>
    <rect x="19" y="14" width="1" height="1"/>
    <rect x="7" y="5" width="2" height="2"/>
    <rect x="8" y="4" width="1" height="1"/>
    <rect x="6" y="6" width="1" height="1"/>
    <rect x="6" y="15" width="13" height="2"/>
    <rect x="19" y="8" width="1" height="1"/>
    <rect x="19" y="10" width="1" height="1"/>
    <rect x="20" y="15" width="1" height="1"/>
    <rect x="19" y="16" width="1" height="1"/>
    <rect x="20" y="17" width="1" height="1"/>
    <rect x="22" y="17" width="1" height="2"/>
    <rect x="24" y="21" width="1" height="1"/>
    <rect x="22" y="19" width="2" height="2"/>
    <rect x="11" y="18" width="8" height="3"/>
    <rect x="8" y="17" width="11" height="1"/>
    <rect x="12" y="21" width="11" height="1"/>
    <rect x="8" y="17" width="11" height="1"/>
    <rect x="16" y="24" width="10" height="1"/>
    <rect x="13" y="22" width="11" height="2"/>
    <rect x="21" y="19" width="1" height="1"/>
    <rect x="24" y="22" width="2" height="1"/>
    <rect x="25" y="23" width="3" height="1"/>
    <rect x="27" y="24" width="2" height="2"/>
    <rect x="28" y="26" width="2" height="2"/>
    <rect x="21" y="27" width="7" height="1"/>
    <rect x="20" y="25" width="7" height="2"/>
    <rect x="24" y="31" width="3" height="1"/>
    <rect x="21" y="30" width="3" height="1"/>
    <rect x="17" y="25" width="3" height="1"/>
    <rect x="22" y="28" width="2" height="1"/>
    <rect x="19" y="29" width="4" height="1"/>
    <rect x="18" y="28" width="3" height="1"/>
    <rect x="16" y="27" width="4" height="1"/>
    <rect x="15" y="26" width="3" height="1"/>
    <rect x="14" y="25" width="2" height="1"/>
    <rect x="13" y="24" width="2" height="1"/>
    <rect x="20" y="18" width="1" height="3"/>
    <rect x="19" y="20" width="1" height="1"/>
    <rect x="6" y="19" width="4" height="2"/>
    <rect x="4" y="18" width="3" height="1"/>
    <rect x="10" y="20" width="1" height="1"/>
    <rect x="10" y="18" width="1" height="1"/>
    <rect x="2" y="15" width="3" height="2"/>
    <rect x="1" y="13" width="3" height="2"/>
    <rect x="3" y="10" width="2" height="2"/>
    <rect x="4" y="9" width="1" height="1"/>
    <rect x="4" y="12" width="1" height="1"/>
    <rect x="2" y="12" width="1" height="1"/>
    <rect x="3" y="17" width="3" height="1"/>
    <rect x="5" y="19" width="1" height="1"/>
    <rect x="7" y="17" width="1" height="1"/>
    <rect class="st0" x="8" y="19" width="1" height="1"/>
    <rect x="8" y="18" width="3" height="1"/>
    <rect x="10" y="19" width="1" height="1"/>
    <rect x="19" y="26" width="1" height="1"/>
  </g>
  <g id="Laces_and_Soles">
    <rect class="st0" x="7" y="18" width="1" height="1"/>
    <rect class="st0" x="3" y="12" width="1" height="1"/>
    <rect class="st0" x="4" y="13" width="1" height="2"/>
    <rect class="st0" x="5" y="15" width="1" height="2"/>
    <rect class="st0" x="6" y="17" width="1" height="1"/>
    <rect class="st0" x="15" y="24" width="1" height="1"/>
    <rect class="st0" x="16" y="25" width="1" height="1"/>
    <rect class="st0" x="18" y="26" width="1" height="1"/>
    <rect class="st0" x="20" y="27" width="1" height="1"/>
    <rect class="st0" x="21" y="28" width="1" height="1"/>
    <rect class="st0" x="23" y="29" width="1" height="1"/>
    <rect class="st0" x="20" y="8" width="1" height="1"/>
    <rect class="st0" x="19" y="13" width="1" height="1"/>
    <rect class="st0" x="19" y="15" width="1" height="1"/>
    <rect class="st0" x="20" y="16" width="1" height="1"/>
    <rect class="st0" x="19" y="17" width="1" height="1"/>
    <rect class="st0" x="19" y="19" width="1" height="1"/>
    <rect class="st0" x="21" y="20" width="1" height="1"/>
    <rect class="st0" x="21" y="18" width="1" height="1"/>
    <rect class="st0" x="27" y="26" width="1" height="1"/>
    <rect class="st0" x="26" y="24" width="1" height="1"/>
    <rect class="st0" x="24" y="23" width="1" height="1"/>
    <rect class="st0" x="23" y="21" width="1" height="1"/>
    <rect class="st0" x="20" y="10" width="1" height="1"/>
    <rect class="st0" x="19" y="7" width="1" height="1"/>
    <rect class="st0" x="19" y="9" width="1" height="1"/>
    <rect class="st0" x="19" y="11" width="1" height="1"/>
    <rect class="st0" x="20" y="12" width="1" height="1"/>
    <rect class="st0" x="20" y="14" width="1" height="1"/>
    <rect class="st0" x="22" y="4" width="1" height="1"/>
    <rect class="st0" x="21" y="6" width="1" height="1"/>
  </g>
  <g id="Layer_6">
    <rect class="st0" x="12" y="3" width="1" height="1"/>
    <rect class="st0" x="10" y="3" width="1" height="1"/>
    <rect class="st0" x="14" y="3" width="1" height="1"/>
  </g>
</svg>