<?xml version="1.0" encoding="UTF-8"?>
<svg xmlns="http://www.w3.org/2000/svg" version="1.1" viewBox="0 0 32 32">
  <!-- Generator: Adobe Illustrator 29.4.0, SVG Export Plug-In . SVG Version: 2.1.0 Build 152)  -->
  <defs>
    <style>
      .st0 {
        fill: #fff;
      }
    </style>
  </defs>
  <g id="Layer_1">
    <rect x="31" y="2" width="1" height="29"/>
    <rect x="1" width="30" height="30"/>
    <rect width="1" height="31"/>
    <rect x="30" y="1" width="1" height="30"/>
    <rect x="1" y="30" width="29" height="1"/>
    <rect x="2" y="31" width="30" height="1"/>
  </g>
  <g id="Instagram">
    <g>
      <path class="st0" d="M20.6,5h-9.3c-3.5,0-6.4,2.8-6.4,6.4v9.3c0,3.5,2.8,6.4,6.4,6.4h9.3c3.5,0,6.4-2.8,6.4-6.4v-9.3c0-3.5-2.8-6.4-6.4-6.4M25,20.8c0,2.3-1.9,4.2-4.2,4.2h-9.5c-2.3,0-4.2-1.9-4.2-4.2v-9.5c0-2.3,1.9-4.2,4.2-4.2h9.5c2.3,0,4.2,1.9,4.2,4.2v9.5Z"/>
      <path class="st0" d="M16,10.3c-3.2,0-5.7,2.6-5.7,5.7s2.6,5.7,5.7,5.7,5.7-2.6,5.7-5.7-2.6-5.7-5.7-5.7M16,19.8c-2,0-3.7-1.7-3.7-3.7s1.7-3.7,3.7-3.7,3.7,1.7,3.7,3.7-1.7,3.7-3.7,3.7"/>
      <path class="st0" d="M21.9,8.8c-.7,0-1.3.6-1.3,1.3s.6,1.3,1.3,1.3,1.3-.6,1.3-1.3-.6-1.3-1.3-1.3"/>
    </g>
  </g>
</svg>