<?xml version="1.0" encoding="UTF-8"?><svg id="a" xmlns="http://www.w3.org/2000/svg" width="16" height="16" viewBox="0 0 16 16"><polygon points="14 2 14 1 2 1 2 2 1 2 1 14 2 14 2 15 14 15 14 14 15 14 15 2 14 2" fill="#fff"/><rect x="13" y="13" width="1" height="1"/><rect x="2" y="2" width="1" height="1"/><rect x="2" y="13" width="1" height="1"/><rect x="13" y="2" width="1" height="1"/><polygon points="10 6 9 6 9 7 10 7 10 8 9 8 9 7 8 7 8 8 7 8 7 9 10 9 10 11 11 11 11 5 10 5 10 6"/><rect x="6" y="9" width="1" height="1"/><rect x="5" y="10" width="1" height="1"/><rect x="12" y="4" width="1" height="8"/><rect x="3" y="4" width="1" height="8"/><path d="M15,1V0H1v1H0v14h1v1h14v-1h1V1h-1ZM15,14h-1v1H2v-1h-1V2h1v-1h12v1h1v12Z"/><rect x="4" y="3" width="8" height="1"/><rect x="4" y="12" width="8" height="1"/></svg>