<?xml version="1.0" encoding="UTF-8"?>
<svg id="Layer_1" xmlns="http://www.w3.org/2000/svg" width="22" height="20" version="1.1" viewBox="0 0 22 20">
  <!-- Generator: Adobe Illustrator 29.4.0, SVG Export Plug-In . SVG Version: 2.1.0 Build 152)  -->
  <defs>
    <style>
      .st0 {
        fill: #fff;
      }
    </style>
  </defs>
  <rect class="st0" width="22" height="20"/>
  <g>
    <rect x="16" y="4" width="2" height="1"/>
    <polygon points="6 12 5 12 5 13 4 13 4 14 6 14 6 16 7 16 7 14 7 13 6 13 6 12"/>
    <rect x="18" y="5" width="1" height="3"/>
    <rect x="3" y="7" width="1" height="3"/>
    <rect x="9" y="3" width="7" height="1"/>
    <rect x="5" y="16" width="1" height="1"/>
    <rect x="6" y="4" width="3" height="1"/>
    <rect x="4" y="6" width="1" height="1"/>
    <rect x="5" y="5" width="1" height="1"/>
    <rect x="16" y="8" width="2" height="1"/>
    <rect x="13" y="9" width="3" height="1"/>
    <rect x="10" y="10" width="3" height="1"/>
    <polygon points="7 12 7 13 8 13 8 12 10 12 10 11 7 11 7 12"/>
    <polygon points="5 12 5 11 7 11 7 10 4 10 4 11 3 11 3 12 3 13 4 13 4 12 5 12"/>
  </g>
</svg>