<?xml version="1.0" encoding="UTF-8"?>
<svg id="Layer_4" xmlns="http://www.w3.org/2000/svg" version="1.1" viewBox="0 0 58.3 64">
  <!-- Generator: Adobe Illustrator 29.4.0, SVG Export Plug-In . SVG Version: 2.1.0 Build 152)  -->
  <defs>
    <style>
      .st0 {
        fill: #fff;
      }
    </style>
  </defs>
  <g>
    <rect class="st0" x="13.6" y="6.5" width="41" height="54" transform="translate(3.1 -2.9) rotate(5)"/>
    <rect x="16" y="5.6" width="41" height="1" transform="translate(.7 -3.2) rotate(5)"/>
    <rect x="11.2" y="60.4" width="41" height="1" transform="translate(5.5 -2.5) rotate(5)"/>
    <rect x="54.5" y="7.3" width="1" height="56" transform="translate(3.3 -4.7) rotate(5)"/>
    <rect x="12.7" y="3.7" width="1" height="56" transform="translate(2.8 -1) rotate(5)"/>
    <rect x="31.6" y="10.2" width="1" height="1" transform="translate(1.1 -2.8) rotate(5)"/>
    <rect x="33.6" y="10.4" width="1" height="1" transform="translate(1.1 -2.9) rotate(5)"/>
    <rect x="35.6" y="10.6" width="1" height="1" transform="translate(1.1 -3.1) rotate(5)"/>
    <rect x="37.6" y="10.8" width="1" height="1" transform="translate(1.1 -3.3) rotate(5)"/>
    <rect x="39.6" y="10.9" width="1" height="1" transform="translate(1.2 -3.5) rotate(5)"/>
    <rect x="41.6" y="11.1" width="1" height="1" transform="translate(1.2 -3.6) rotate(5)"/>
    <rect x="31.3" y="13.2" width="1" height="1" transform="translate(1.3 -2.7) rotate(5)"/>
    <rect x="33.3" y="13.4" width="1" height="1" transform="translate(1.4 -2.9) rotate(5)"/>
    <rect x="35.3" y="13.6" width="1" height="1" transform="translate(1.4 -3.1) rotate(5)"/>
    <rect x="37.3" y="13.8" width="1" height="1" transform="translate(1.4 -3.3) rotate(5)"/>
    <rect x="39.3" y="13.9" width="1" height="1" transform="translate(1.4 -3.4) rotate(5)"/>
    <rect x="41.3" y="14.1" width="1" height="1" transform="translate(1.4 -3.6) rotate(5)"/>
    <g>
      <g>
        <g>
          <rect x="20.7" y="20.3" width="1" height="1" transform="translate(1.9 -1.8) rotate(5)"/>
          <rect x="22.7" y="20.5" width="1" height="1" transform="translate(1.9 -2) rotate(5)"/>
          <rect x="24.7" y="20.7" width="1" height="1" transform="translate(2 -2.1) rotate(5)"/>
          <rect x="26.7" y="20.8" width="1" height="1" transform="translate(2 -2.3) rotate(5)"/>
          <rect x="28.6" y="21" width="1" height="1" transform="translate(2 -2.5) rotate(5)"/>
          <rect x="30.6" y="21.2" width="1" height="1" transform="translate(2 -2.6) rotate(5)"/>
          <rect x="32.6" y="21.4" width="1" height="1" transform="translate(2 -2.8) rotate(5)"/>
          <rect x="34.6" y="21.5" width="1" height="1" transform="translate(2.1 -3) rotate(5)"/>
        </g>
        <rect x="36.6" y="21.7" width="1" height="1" transform="translate(2.1 -3.2) rotate(5)"/>
        <rect x="38.6" y="21.9" width="1" height="1" transform="translate(2.1 -3.3) rotate(5)"/>
        <rect x="40.6" y="22.1" width="1" height="1" transform="translate(2.1 -3.5) rotate(5)"/>
        <rect x="42.6" y="22.2" width="1" height="1" transform="translate(2.2 -3.7) rotate(5)"/>
        <rect x="44.6" y="22.4" width="1" height="1" transform="translate(2.2 -3.9) rotate(5)"/>
        <rect x="46.6" y="22.6" width="1" height="1" transform="translate(2.2 -4) rotate(5)"/>
        <rect x="48.6" y="22.8" width="1" height="1" transform="translate(2.2 -4.2) rotate(5)"/>
      </g>
      <g>
        <g>
          <rect x="20.4" y="23.3" width="1" height="1" transform="translate(2.2 -1.7) rotate(5)"/>
          <rect x="22.4" y="23.5" width="1" height="1" transform="translate(2.2 -1.9) rotate(5)"/>
          <rect x="24.4" y="23.7" width="1" height="1" transform="translate(2.2 -2.1) rotate(5)"/>
          <rect x="26.4" y="23.8" width="1" height="1" transform="translate(2.2 -2.3) rotate(5)"/>
          <rect x="28.4" y="24" width="1" height="1" transform="translate(2.3 -2.4) rotate(5)"/>
          <rect x="30.4" y="24.2" width="1" height="1" transform="translate(2.3 -2.6) rotate(5)"/>
          <rect x="32.4" y="24.4" width="1" height="1" transform="translate(2.3 -2.8) rotate(5)"/>
          <rect x="34.4" y="24.5" width="1" height="1" transform="translate(2.3 -3) rotate(5)"/>
        </g>
        <rect x="36.3" y="24.7" width="1" height="1" transform="translate(2.4 -3.1) rotate(5)"/>
        <rect x="38.3" y="24.9" width="1" height="1" transform="translate(2.4 -3.3) rotate(5)"/>
        <rect x="40.3" y="25.1" width="1" height="1" transform="translate(2.4 -3.5) rotate(5)"/>
        <rect x="42.3" y="25.2" width="1" height="1" transform="translate(2.4 -3.7) rotate(5)"/>
        <rect x="44.3" y="25.4" width="1" height="1" transform="translate(2.4 -3.8) rotate(5)"/>
        <rect x="46.3" y="25.6" width="1" height="1" transform="translate(2.5 -4) rotate(5)"/>
        <rect x="48.3" y="25.8" width="1" height="1" transform="translate(2.5 -4.2) rotate(5)"/>
      </g>
    </g>
    <g>
      <g>
        <rect x="19.7" y="8.2" width="1" height="1" transform="translate(9.8 28.1) rotate(-85)"/>
        <rect x="18.7" y="9.1" width="1" height="1" transform="translate(7.9 27.8) rotate(-85)"/>
        <rect x="19.6" y="10.2" width="1" height="1" transform="translate(7.7 29.7) rotate(-85)"/>
        <rect x="20.6" y="9.3" width="1" height="1" transform="translate(9.6 30) rotate(-85)"/>
      </g>
      <g>
        <rect x="19.5" y="11.2" width="1" height="1" transform="translate(6.6 30.5) rotate(-85)"/>
        <rect x="18.4" y="12.1" width="1" height="1" transform="translate(4.7 30.3) rotate(-85)"/>
        <rect x="19.3" y="13.2" width="1" height="1" transform="translate(4.4 32.2) rotate(-85)"/>
        <rect x="20.4" y="12.3" width="1" height="1" transform="translate(6.3 32.4) rotate(-85)"/>
      </g>
      <g>
        <rect x="22.7" y="8.5" width="1" height="1" transform="translate(12.3 31.3) rotate(-85)"/>
        <rect x="21.6" y="9.4" width="1" height="1" transform="translate(10.4 31) rotate(-85)"/>
        <rect x="22.5" y="10.4" width="1" height="1" transform="translate(10.1 32.9) rotate(-85)"/>
        <rect x="23.6" y="9.5" width="1" height="1" transform="translate(12 33.2) rotate(-85)"/>
      </g>
      <g>
        <rect x="22.5" y="11.4" width="1" height="1" transform="translate(9.1 33.8) rotate(-85)"/>
        <rect x="21.4" y="12.3" width="1" height="1" transform="translate(7.2 33.5) rotate(-85)"/>
        <rect x="22.3" y="13.4" width="1" height="1" transform="translate(6.9 35.4) rotate(-85)"/>
        <rect x="23.4" y="12.5" width="1" height="1" transform="translate(8.8 35.7) rotate(-85)"/>
      </g>
    </g>
    <g>
      <g>
        <g>
          <rect x="20" y="28.3" width="1" height="1" transform="translate(2.6 -1.7) rotate(5)"/>
          <rect x="22" y="28.5" width="1" height="1" transform="translate(2.6 -1.9) rotate(5)"/>
          <rect x="24" y="28.6" width="1" height="1" transform="translate(2.7 -2) rotate(5)"/>
          <rect x="25.9" y="28.8" width="1" height="1" transform="translate(2.7 -2.2) rotate(5)"/>
          <rect x="27.9" y="29" width="1" height="1" transform="translate(2.7 -2.4) rotate(5)"/>
          <rect x="29.9" y="29.2" width="1" height="1" transform="translate(2.7 -2.6) rotate(5)"/>
          <rect x="31.9" y="29.3" width="1" height="1" transform="translate(2.7 -2.7) rotate(5)"/>
          <rect x="33.9" y="29.5" width="1" height="1" transform="translate(2.8 -2.9) rotate(5)"/>
        </g>
        <g>
          <rect x="19.7" y="31.3" width="1" height="1" transform="translate(2.9 -1.7) rotate(5)"/>
          <rect x="21.7" y="31.4" width="1" height="1" transform="translate(2.9 -1.8) rotate(5)"/>
          <rect x="23.7" y="31.6" width="1" height="1" transform="translate(2.9 -2) rotate(5)"/>
          <rect x="25.7" y="31.8" width="1" height="1" transform="translate(2.9 -2.2) rotate(5)"/>
          <rect x="27.7" y="32" width="1" height="1" transform="translate(3 -2.3) rotate(5)"/>
          <rect x="29.7" y="32.2" width="1" height="1" transform="translate(3 -2.5) rotate(5)"/>
          <rect x="31.7" y="32.3" width="1" height="1" transform="translate(3 -2.7) rotate(5)"/>
          <rect x="33.7" y="32.5" width="1" height="1" transform="translate(3 -2.9) rotate(5)"/>
        </g>
        <g>
          <rect x="19.4" y="34.3" width="1" height="1" transform="translate(3.1 -1.6) rotate(5)"/>
          <rect x="21.4" y="34.4" width="1" height="1" transform="translate(3.2 -1.8) rotate(5)"/>
          <rect x="23.4" y="34.6" width="1" height="1" transform="translate(3.2 -2) rotate(5)"/>
          <rect x="25.4" y="34.8" width="1" height="1" transform="translate(3.2 -2.1) rotate(5)"/>
          <rect x="27.4" y="35" width="1" height="1" transform="translate(3.2 -2.3) rotate(5)"/>
          <rect x="29.4" y="35.1" width="1" height="1" transform="translate(3.2 -2.5) rotate(5)"/>
          <rect x="31.4" y="35.3" width="1" height="1" transform="translate(3.3 -2.7) rotate(5)"/>
          <rect x="33.4" y="35.5" width="1" height="1" transform="translate(3.3 -2.8) rotate(5)"/>
        </g>
      </g>
      <rect x="35.9" y="29.7" width="1" height="1" transform="translate(2.8 -3.1) rotate(5)"/>
      <rect x="37.9" y="29.9" width="1" height="1" transform="translate(2.8 -3.3) rotate(5)"/>
      <rect x="39.9" y="30" width="1" height="1" transform="translate(2.8 -3.4) rotate(5)"/>
      <rect x="41.9" y="30.2" width="1" height="1" transform="translate(2.9 -3.6) rotate(5)"/>
      <rect x="43.9" y="30.4" width="1" height="1" transform="translate(2.9 -3.8) rotate(5)"/>
      <rect x="45.9" y="30.6" width="1" height="1" transform="translate(2.9 -3.9) rotate(5)"/>
      <rect x="47.9" y="30.7" width="1" height="1" transform="translate(2.9 -4.1) rotate(5)"/>
      <rect x="35.6" y="32.7" width="1" height="1" transform="translate(3.1 -3) rotate(5)"/>
      <rect x="37.6" y="32.9" width="1" height="1" transform="translate(3.1 -3.2) rotate(5)"/>
      <rect x="39.6" y="33" width="1" height="1" transform="translate(3.1 -3.4) rotate(5)"/>
      <rect x="41.6" y="33.2" width="1" height="1" transform="translate(3.1 -3.6) rotate(5)"/>
      <rect x="43.6" y="33.4" width="1" height="1" transform="translate(3.1 -3.7) rotate(5)"/>
      <rect x="45.6" y="33.6" width="1" height="1" transform="translate(3.2 -3.9) rotate(5)"/>
      <rect x="47.6" y="33.7" width="1" height="1" transform="translate(3.2 -4.1) rotate(5)"/>
      <rect x="35.4" y="35.7" width="1" height="1" transform="translate(3.3 -3) rotate(5)"/>
      <rect x="37.4" y="35.8" width="1" height="1" transform="translate(3.3 -3.2) rotate(5)"/>
      <rect x="39.4" y="36" width="1" height="1" transform="translate(3.4 -3.4) rotate(5)"/>
      <rect x="41.4" y="36.2" width="1" height="1" transform="translate(3.4 -3.5) rotate(5)"/>
      <rect x="43.4" y="36.4" width="1" height="1" transform="translate(3.4 -3.7) rotate(5)"/>
      <rect x="45.3" y="36.5" width="1" height="1" transform="translate(3.4 -3.9) rotate(5)"/>
      <rect x="47.3" y="36.7" width="1" height="1" transform="translate(3.5 -4.1) rotate(5)"/>
    </g>
    <g>
      <g>
        <rect x="19" y="39.2" width="1" height="1" transform="translate(3.6 -1.6) rotate(5)"/>
        <rect x="21" y="39.4" width="1" height="1" transform="translate(3.6 -1.7) rotate(5)"/>
        <rect x="23" y="39.6" width="1" height="1" transform="translate(3.6 -1.9) rotate(5)"/>
        <rect x="25" y="39.8" width="1" height="1" transform="translate(3.6 -2.1) rotate(5)"/>
        <rect x="27" y="39.9" width="1" height="1" transform="translate(3.7 -2.3) rotate(5)"/>
        <rect x="29" y="40.1" width="1" height="1" transform="translate(3.7 -2.4) rotate(5)"/>
        <rect x="31" y="40.3" width="1" height="1" transform="translate(3.7 -2.6) rotate(5)"/>
        <rect x="33" y="40.5" width="1" height="1" transform="translate(3.7 -2.8) rotate(5)"/>
      </g>
      <g>
        <rect x="18.7" y="42.2" width="1" height="1" transform="translate(3.8 -1.5) rotate(5)"/>
        <rect x="20.7" y="42.4" width="1" height="1" transform="translate(3.8 -1.7) rotate(5)"/>
        <rect x="22.7" y="42.6" width="1" height="1" transform="translate(3.9 -1.9) rotate(5)"/>
        <rect x="24.7" y="42.8" width="1" height="1" transform="translate(3.9 -2) rotate(5)"/>
        <rect x="26.7" y="42.9" width="1" height="1" transform="translate(3.9 -2.2) rotate(5)"/>
        <rect x="28.7" y="43.1" width="1" height="1" transform="translate(3.9 -2.4) rotate(5)"/>
        <rect x="30.7" y="43.3" width="1" height="1" transform="translate(4 -2.6) rotate(5)"/>
        <rect x="32.7" y="43.5" width="1" height="1" transform="translate(4 -2.7) rotate(5)"/>
      </g>
      <rect x="34.9" y="40.6" width="1" height="1" transform="translate(3.7 -3) rotate(5)"/>
      <rect x="36.9" y="40.8" width="1" height="1" transform="translate(3.8 -3.1) rotate(5)"/>
      <rect x="38.9" y="41" width="1" height="1" transform="translate(3.8 -3.3) rotate(5)"/>
      <rect x="40.9" y="41.2" width="1" height="1" transform="translate(3.8 -3.5) rotate(5)"/>
      <rect x="42.9" y="41.3" width="1" height="1" transform="translate(3.8 -3.6) rotate(5)"/>
      <rect x="44.9" y="41.5" width="1" height="1" transform="translate(3.9 -3.8) rotate(5)"/>
      <rect x="46.9" y="41.7" width="1" height="1" transform="translate(3.9 -4) rotate(5)"/>
      <rect x="34.7" y="43.6" width="1" height="1" transform="translate(4 -2.9) rotate(5)"/>
      <rect x="36.7" y="43.8" width="1" height="1" transform="translate(4 -3.1) rotate(5)"/>
      <rect x="38.7" y="44" width="1" height="1" transform="translate(4.1 -3.3) rotate(5)"/>
      <rect x="40.7" y="44.2" width="1" height="1" transform="translate(4.1 -3.4) rotate(5)"/>
      <rect x="42.7" y="44.3" width="1" height="1" transform="translate(4.1 -3.6) rotate(5)"/>
      <rect x="44.6" y="44.5" width="1" height="1" transform="translate(4.1 -3.8) rotate(5)"/>
      <rect x="46.6" y="44.7" width="1" height="1" transform="translate(4.1 -4) rotate(5)"/>
    </g>
    <rect x="18.1" y="49.2" width="1" height="1" transform="translate(4.4 -1.4) rotate(5)"/>
    <rect x="20.1" y="49.4" width="1" height="1" transform="translate(4.5 -1.6) rotate(5)"/>
    <rect x="22.1" y="49.6" width="1" height="1" transform="translate(4.5 -1.8) rotate(5)"/>
    <rect x="24.1" y="49.7" width="1" height="1" transform="translate(4.5 -2) rotate(5)"/>
  </g>
  <g>
    <rect class="st0" x="6.6" y="3.5" width="41" height="54" transform="translate(2 -1.6) rotate(3.6)"/>
    <rect x="8.3" y="2.6" width="41" height="1" transform="translate(.2 -1.8) rotate(3.6)"/>
    <rect x="4.9" y="57.4" width="41" height="1" transform="translate(3.7 -1.5) rotate(3.6)"/>
    <rect x="47.6" y="3.8" width="1" height="56" transform="translate(2.1 -2.9) rotate(3.6)"/>
    <rect x="5.7" y="1.2" width="1" height="56" transform="translate(1.8 -.3) rotate(3.6)"/>
    <rect x="24" y="7.3" width="1" height="1" transform="translate(.5 -1.5) rotate(3.6)"/>
    <rect x="26" y="7.4" width="1" height="1" transform="translate(.5 -1.6) rotate(3.6)"/>
    <rect x="28" y="7.5" width="1" height="1" transform="translate(.6 -1.8) rotate(3.6)"/>
    <rect x="30" y="7.7" width="1" height="1" transform="translate(.6 -1.9) rotate(3.6)"/>
    <rect x="32" y="7.8" width="1" height="1" transform="translate(.6 -2) rotate(3.6)"/>
    <rect x="34" y="7.9" width="1" height="1" transform="translate(.6 -2.1) rotate(3.6)"/>
    <rect x="23.8" y="10.3" width="1" height="1" transform="translate(.7 -1.5) rotate(3.6)"/>
    <rect x="25.8" y="10.4" width="1" height="1" transform="translate(.7 -1.6) rotate(3.6)"/>
    <rect x="27.8" y="10.5" width="1" height="1" transform="translate(.7 -1.7) rotate(3.6)"/>
    <rect x="29.8" y="10.7" width="1" height="1" transform="translate(.8 -1.9) rotate(3.6)"/>
    <rect x="31.8" y="10.8" width="1" height="1" transform="translate(.8 -2) rotate(3.6)"/>
    <rect x="33.8" y="10.9" width="1" height="1" transform="translate(.8 -2.1) rotate(3.6)"/>
    <g>
      <g>
        <g>
          <rect x="13.4" y="17.7" width="1" height="1" transform="translate(1.2 -.8) rotate(3.6)"/>
          <rect x="15.4" y="17.8" width="1" height="1" transform="translate(1.2 -1) rotate(3.6)"/>
          <rect x="17.3" y="17.9" width="1" height="1" transform="translate(1.2 -1.1) rotate(3.6)"/>
          <rect x="19.3" y="18" width="1" height="1" transform="translate(1.2 -1.2) rotate(3.6)"/>
          <rect x="21.3" y="18.1" width="1" height="1" transform="translate(1.2 -1.3) rotate(3.6)"/>
          <rect x="23.3" y="18.3" width="1" height="1" transform="translate(1.2 -1.4) rotate(3.6)"/>
          <rect x="25.3" y="18.4" width="1" height="1" transform="translate(1.2 -1.6) rotate(3.6)"/>
          <rect x="27.3" y="18.5" width="1" height="1" transform="translate(1.2 -1.7) rotate(3.6)"/>
        </g>
        <rect x="29.3" y="18.6" width="1" height="1" transform="translate(1.3 -1.8) rotate(3.6)"/>
        <rect x="31.3" y="18.8" width="1" height="1" transform="translate(1.3 -1.9) rotate(3.6)"/>
        <rect x="33.3" y="18.9" width="1" height="1" transform="translate(1.3 -2.1) rotate(3.6)"/>
        <rect x="35.3" y="19" width="1" height="1" transform="translate(1.3 -2.2) rotate(3.6)"/>
        <rect x="37.3" y="19.1" width="1" height="1" transform="translate(1.3 -2.3) rotate(3.6)"/>
        <rect x="39.3" y="19.3" width="1" height="1" transform="translate(1.3 -2.4) rotate(3.6)"/>
        <rect x="41.3" y="19.4" width="1" height="1" transform="translate(1.3 -2.6) rotate(3.6)"/>
      </g>
      <g>
        <g>
          <rect x="13.2" y="20.6" width="1" height="1" transform="translate(1.3 -.8) rotate(3.6)"/>
          <rect x="15.2" y="20.8" width="1" height="1" transform="translate(1.4 -.9) rotate(3.6)"/>
          <rect x="17.2" y="20.9" width="1" height="1" transform="translate(1.4 -1.1) rotate(3.6)"/>
          <rect x="19.2" y="21" width="1" height="1" transform="translate(1.4 -1.2) rotate(3.6)"/>
          <rect x="21.2" y="21.1" width="1" height="1" transform="translate(1.4 -1.3) rotate(3.6)"/>
          <rect x="23.1" y="21.3" width="1" height="1" transform="translate(1.4 -1.4) rotate(3.6)"/>
          <rect x="25.1" y="21.4" width="1" height="1" transform="translate(1.4 -1.6) rotate(3.6)"/>
          <rect x="27.1" y="21.5" width="1" height="1" transform="translate(1.4 -1.7) rotate(3.6)"/>
        </g>
        <rect x="29.1" y="21.6" width="1" height="1" transform="translate(1.4 -1.8) rotate(3.6)"/>
        <rect x="31.1" y="21.8" width="1" height="1" transform="translate(1.4 -1.9) rotate(3.6)"/>
        <rect x="33.1" y="21.9" width="1" height="1" transform="translate(1.5 -2.1) rotate(3.6)"/>
        <rect x="35.1" y="22" width="1" height="1" transform="translate(1.5 -2.2) rotate(3.6)"/>
        <rect x="37.1" y="22.1" width="1" height="1" transform="translate(1.5 -2.3) rotate(3.6)"/>
        <rect x="39.1" y="22.3" width="1" height="1" transform="translate(1.5 -2.4) rotate(3.6)"/>
        <rect x="41.1" y="22.4" width="1" height="1" transform="translate(1.5 -2.5) rotate(3.6)"/>
      </g>
    </g>
    <g>
      <g>
        <rect x="12.1" y="5.5" width="1" height="1" transform="translate(5.8 18.3) rotate(-86.4)"/>
        <rect x="11" y="6.5" width="1" height="1" transform="translate(3.9 18.1) rotate(-86.4)"/>
        <rect x="12" y="7.5" width="1" height="1" transform="translate(3.7 20) rotate(-86.4)"/>
        <rect x="13" y="6.6" width="1" height="1" transform="translate(5.6 20.2) rotate(-86.4)"/>
      </g>
      <g>
        <rect x="11.9" y="8.5" width="1" height="1" transform="translate(2.6 20.9) rotate(-86.4)"/>
        <rect x="10.9" y="9.5" width="1" height="1" transform="translate(.7 20.7) rotate(-86.4)"/>
        <rect x="11.8" y="10.5" width="1" height="1" transform="translate(.5 22.6) rotate(-86.4)"/>
        <rect x="12.9" y="9.6" width="1" height="1" transform="translate(2.4 22.8) rotate(-86.4)"/>
      </g>
      <g>
        <rect x="15.1" y="5.7" width="1" height="1" transform="translate(8.4 21.4) rotate(-86.4)"/>
        <rect x="14" y="6.7" width="1" height="1" transform="translate(6.5 21.2) rotate(-86.4)"/>
        <rect x="15" y="7.7" width="1" height="1" transform="translate(6.3 23.2) rotate(-86.4)"/>
        <rect x="16" y="6.8" width="1" height="1" transform="translate(8.2 23.3) rotate(-86.4)"/>
      </g>
      <g>
        <rect x="14.9" y="8.7" width="1" height="1" transform="translate(5.2 24) rotate(-86.4)"/>
        <rect x="13.9" y="9.7" width="1" height="1" transform="translate(3.3 23.9) rotate(-86.4)"/>
        <rect x="14.8" y="10.7" width="1" height="1" transform="translate(3.1 25.8) rotate(-86.4)"/>
        <rect x="15.8" y="9.8" width="1" height="1" transform="translate(5.1 26) rotate(-86.4)"/>
      </g>
    </g>
    <g>
      <g>
        <g>
          <rect x="12.9" y="25.6" width="1" height="1" transform="translate(1.7 -.8) rotate(3.6)"/>
          <rect x="14.9" y="25.8" width="1" height="1" transform="translate(1.7 -.9) rotate(3.6)"/>
          <rect x="16.8" y="25.9" width="1" height="1" transform="translate(1.7 -1) rotate(3.6)"/>
          <rect x="18.8" y="26" width="1" height="1" transform="translate(1.7 -1.2) rotate(3.6)"/>
          <rect x="20.8" y="26.1" width="1" height="1" transform="translate(1.7 -1.3) rotate(3.6)"/>
          <rect x="22.8" y="26.3" width="1" height="1" transform="translate(1.7 -1.4) rotate(3.6)"/>
          <rect x="24.8" y="26.4" width="1" height="1" transform="translate(1.7 -1.5) rotate(3.6)"/>
          <rect x="26.8" y="26.5" width="1" height="1" transform="translate(1.7 -1.6) rotate(3.6)"/>
        </g>
        <g>
          <rect x="12.7" y="28.6" width="1" height="1" transform="translate(1.8 -.8) rotate(3.6)"/>
          <rect x="14.7" y="28.8" width="1" height="1" transform="translate(1.9 -.9) rotate(3.6)"/>
          <rect x="16.7" y="28.9" width="1" height="1" transform="translate(1.9 -1) rotate(3.6)"/>
          <rect x="18.7" y="29" width="1" height="1" transform="translate(1.9 -1.1) rotate(3.6)"/>
          <rect x="20.7" y="29.1" width="1" height="1" transform="translate(1.9 -1.3) rotate(3.6)"/>
          <rect x="22.7" y="29.3" width="1" height="1" transform="translate(1.9 -1.4) rotate(3.6)"/>
          <rect x="24.6" y="29.4" width="1" height="1" transform="translate(1.9 -1.5) rotate(3.6)"/>
          <rect x="26.6" y="29.5" width="1" height="1" transform="translate(1.9 -1.6) rotate(3.6)"/>
        </g>
        <g>
          <rect x="12.5" y="31.6" width="1" height="1" transform="translate(2 -.7) rotate(3.6)"/>
          <rect x="14.5" y="31.7" width="1" height="1" transform="translate(2 -.9) rotate(3.6)"/>
          <rect x="16.5" y="31.9" width="1" height="1" transform="translate(2 -1) rotate(3.6)"/>
          <rect x="18.5" y="32" width="1" height="1" transform="translate(2.1 -1.1) rotate(3.6)"/>
          <rect x="20.5" y="32.1" width="1" height="1" transform="translate(2.1 -1.2) rotate(3.6)"/>
          <rect x="22.5" y="32.2" width="1" height="1" transform="translate(2.1 -1.4) rotate(3.6)"/>
          <rect x="24.5" y="32.4" width="1" height="1" transform="translate(2.1 -1.5) rotate(3.6)"/>
          <rect x="26.5" y="32.5" width="1" height="1" transform="translate(2.1 -1.6) rotate(3.6)"/>
        </g>
      </g>
      <rect x="28.8" y="26.6" width="1" height="1" transform="translate(1.7 -1.8) rotate(3.6)"/>
      <rect x="30.8" y="26.8" width="1" height="1" transform="translate(1.8 -1.9) rotate(3.6)"/>
      <rect x="32.8" y="26.9" width="1" height="1" transform="translate(1.8 -2) rotate(3.6)"/>
      <rect x="34.8" y="27" width="1" height="1" transform="translate(1.8 -2.1) rotate(3.6)"/>
      <rect x="36.8" y="27.1" width="1" height="1" transform="translate(1.8 -2.3) rotate(3.6)"/>
      <rect x="38.8" y="27.3" width="1" height="1" transform="translate(1.8 -2.4) rotate(3.6)"/>
      <rect x="40.8" y="27.4" width="1" height="1" transform="translate(1.8 -2.5) rotate(3.6)"/>
      <rect x="28.6" y="29.6" width="1" height="1" transform="translate(1.9 -1.8) rotate(3.6)"/>
      <rect x="30.6" y="29.8" width="1" height="1" transform="translate(1.9 -1.9) rotate(3.6)"/>
      <rect x="32.6" y="29.9" width="1" height="1" transform="translate(2 -2) rotate(3.6)"/>
      <rect x="34.6" y="30" width="1" height="1" transform="translate(2 -2.1) rotate(3.6)"/>
      <rect x="36.6" y="30.1" width="1" height="1" transform="translate(2 -2.3) rotate(3.6)"/>
      <rect x="38.6" y="30.2" width="1" height="1" transform="translate(2 -2.4) rotate(3.6)"/>
      <rect x="40.6" y="30.4" width="1" height="1" transform="translate(2 -2.5) rotate(3.6)"/>
      <rect x="28.5" y="32.6" width="1" height="1" transform="translate(2.1 -1.7) rotate(3.6)"/>
      <rect x="30.4" y="32.7" width="1" height="1" transform="translate(2.1 -1.9) rotate(3.6)"/>
      <rect x="32.4" y="32.9" width="1" height="1" transform="translate(2.1 -2) rotate(3.6)"/>
      <rect x="34.4" y="33" width="1" height="1" transform="translate(2.2 -2.1) rotate(3.6)"/>
      <rect x="36.4" y="33.1" width="1" height="1" transform="translate(2.2 -2.2) rotate(3.6)"/>
      <rect x="38.4" y="33.2" width="1" height="1" transform="translate(2.2 -2.4) rotate(3.6)"/>
      <rect x="40.4" y="33.4" width="1" height="1" transform="translate(2.2 -2.5) rotate(3.6)"/>
    </g>
    <g>
      <g>
        <rect x="12.2" y="36.6" width="1" height="1" transform="translate(2.3 -.7) rotate(3.6)"/>
        <rect x="14.2" y="36.7" width="1" height="1" transform="translate(2.3 -.8) rotate(3.6)"/>
        <rect x="16.2" y="36.9" width="1" height="1" transform="translate(2.4 -1) rotate(3.6)"/>
        <rect x="18.2" y="37" width="1" height="1" transform="translate(2.4 -1.1) rotate(3.6)"/>
        <rect x="20.2" y="37.1" width="1" height="1" transform="translate(2.4 -1.2) rotate(3.6)"/>
        <rect x="22.2" y="37.2" width="1" height="1" transform="translate(2.4 -1.3) rotate(3.6)"/>
        <rect x="24.1" y="37.4" width="1" height="1" transform="translate(2.4 -1.5) rotate(3.6)"/>
        <rect x="26.1" y="37.5" width="1" height="1" transform="translate(2.4 -1.6) rotate(3.6)"/>
      </g>
      <g>
        <rect x="12" y="39.6" width="1" height="1" transform="translate(2.5 -.7) rotate(3.6)"/>
        <rect x="14" y="39.7" width="1" height="1" transform="translate(2.5 -.8) rotate(3.6)"/>
        <rect x="16" y="39.9" width="1" height="1" transform="translate(2.5 -.9) rotate(3.6)"/>
        <rect x="18" y="40" width="1" height="1" transform="translate(2.6 -1.1) rotate(3.6)"/>
        <rect x="20" y="40.1" width="1" height="1" transform="translate(2.6 -1.2) rotate(3.6)"/>
        <rect x="22" y="40.2" width="1" height="1" transform="translate(2.6 -1.3) rotate(3.6)"/>
        <rect x="24" y="40.4" width="1" height="1" transform="translate(2.6 -1.4) rotate(3.6)"/>
        <rect x="26" y="40.5" width="1" height="1" transform="translate(2.6 -1.6) rotate(3.6)"/>
      </g>
      <rect x="28.1" y="37.6" width="1" height="1" transform="translate(2.4 -1.7) rotate(3.6)"/>
      <rect x="30.1" y="37.7" width="1" height="1" transform="translate(2.4 -1.8) rotate(3.6)"/>
      <rect x="32.1" y="37.9" width="1" height="1" transform="translate(2.5 -2) rotate(3.6)"/>
      <rect x="34.1" y="38" width="1" height="1" transform="translate(2.5 -2.1) rotate(3.6)"/>
      <rect x="36.1" y="38.1" width="1" height="1" transform="translate(2.5 -2.2) rotate(3.6)"/>
      <rect x="38.1" y="38.2" width="1" height="1" transform="translate(2.5 -2.3) rotate(3.6)"/>
      <rect x="40.1" y="38.4" width="1" height="1" transform="translate(2.5 -2.5) rotate(3.6)"/>
      <rect x="28" y="40.6" width="1" height="1" transform="translate(2.6 -1.7) rotate(3.6)"/>
      <rect x="30" y="40.7" width="1" height="1" transform="translate(2.6 -1.8) rotate(3.6)"/>
      <rect x="31.9" y="40.9" width="1" height="1" transform="translate(2.6 -1.9) rotate(3.6)"/>
      <rect x="33.9" y="41" width="1" height="1" transform="translate(2.7 -2.1) rotate(3.6)"/>
      <rect x="35.9" y="41.1" width="1" height="1" transform="translate(2.7 -2.2) rotate(3.6)"/>
      <rect x="37.9" y="41.2" width="1" height="1" transform="translate(2.7 -2.3) rotate(3.6)"/>
      <rect x="39.9" y="41.4" width="1" height="1" transform="translate(2.7 -2.4) rotate(3.6)"/>
    </g>
    <rect x="11.5" y="46.6" width="1" height="1" transform="translate(3 -.7) rotate(3.6)"/>
    <rect x="13.5" y="46.7" width="1" height="1" transform="translate(3 -.8) rotate(3.6)"/>
    <rect x="15.5" y="46.8" width="1" height="1" transform="translate(3 -.9) rotate(3.6)"/>
    <rect x="17.5" y="47" width="1" height="1" transform="translate(3 -1) rotate(3.6)"/>
  </g>
  <g>
    <rect class="st0" x="1" y="1" width="41" height="54"/>
    <rect x="1" y="0" width="41" height="1"/>
    <rect x="1" y="55" width="41" height="1"/>
    <rect x="42" width="1" height="56"/>
    <rect y="0" width="1" height="56"/>
    <rect x="17" y="5" width="1" height="1"/>
    <rect x="19" y="5" width="1" height="1"/>
    <rect x="21" y="5" width="1" height="1"/>
    <rect x="23" y="5" width="1" height="1"/>
    <rect x="25" y="5" width="1" height="1"/>
    <rect x="27" y="5" width="1" height="1"/>
    <rect x="17" y="8" width="1" height="1"/>
    <rect x="19" y="8" width="1" height="1"/>
    <rect x="21" y="8" width="1" height="1"/>
    <rect x="23" y="8" width="1" height="1"/>
    <rect x="25" y="8" width="1" height="1"/>
    <rect x="27" y="8" width="1" height="1"/>
    <g>
      <g>
        <g>
          <rect x="7" y="16" width="1" height="1"/>
          <rect x="9" y="16" width="1" height="1"/>
          <rect x="11" y="16" width="1" height="1"/>
          <rect x="13" y="16" width="1" height="1"/>
          <rect x="15" y="16" width="1" height="1"/>
          <rect x="17" y="16" width="1" height="1"/>
          <rect x="19" y="16" width="1" height="1"/>
          <rect x="21" y="16" width="1" height="1"/>
        </g>
        <rect x="23" y="16" width="1" height="1"/>
        <rect x="25" y="16" width="1" height="1"/>
        <rect x="27" y="16" width="1" height="1"/>
        <rect x="29" y="16" width="1" height="1"/>
        <rect x="31" y="16" width="1" height="1"/>
        <rect x="33" y="16" width="1" height="1"/>
        <rect x="35" y="16" width="1" height="1"/>
      </g>
      <g>
        <g>
          <rect x="7" y="19" width="1" height="1"/>
          <rect x="9" y="19" width="1" height="1"/>
          <rect x="11" y="19" width="1" height="1"/>
          <rect x="13" y="19" width="1" height="1"/>
          <rect x="15" y="19" width="1" height="1"/>
          <rect x="17" y="19" width="1" height="1"/>
          <rect x="19" y="19" width="1" height="1"/>
          <rect x="21" y="19" width="1" height="1"/>
        </g>
        <rect x="23" y="19" width="1" height="1"/>
        <rect x="25" y="19" width="1" height="1"/>
        <rect x="27" y="19" width="1" height="1"/>
        <rect x="29" y="19" width="1" height="1"/>
        <rect x="31" y="19" width="1" height="1"/>
        <rect x="33" y="19" width="1" height="1"/>
        <rect x="35" y="19" width="1" height="1"/>
      </g>
    </g>
    <g>
      <g>
        <rect x="5" y="4" width="1" height="1"/>
        <rect x="4" y="5" width="1" height="1"/>
        <rect x="5" y="6" width="1" height="1"/>
        <rect x="6" y="5" width="1" height="1"/>
      </g>
      <g>
        <rect x="5" y="7" width="1" height="1"/>
        <rect x="4" y="8" width="1" height="1"/>
        <rect x="5" y="9" width="1" height="1"/>
        <rect x="6" y="8" width="1" height="1"/>
      </g>
      <g>
        <rect x="8" y="4" width="1" height="1"/>
        <rect x="7" y="5" width="1" height="1"/>
        <rect x="8" y="6" width="1" height="1"/>
        <rect x="9" y="5" width="1" height="1"/>
      </g>
      <g>
        <rect x="8" y="7" width="1" height="1"/>
        <rect x="7" y="8" width="1" height="1"/>
        <rect x="8" y="9" width="1" height="1"/>
        <rect x="9" y="8" width="1" height="1"/>
      </g>
    </g>
    <g>
      <g>
        <g>
          <rect x="7" y="24" width="1" height="1"/>
          <rect x="9" y="24" width="1" height="1"/>
          <rect x="11" y="24" width="1" height="1"/>
          <rect x="13" y="24" width="1" height="1"/>
          <rect x="15" y="24" width="1" height="1"/>
          <rect x="17" y="24" width="1" height="1"/>
          <rect x="19" y="24" width="1" height="1"/>
          <rect x="21" y="24" width="1" height="1"/>
        </g>
        <g>
          <rect x="7" y="27" width="1" height="1"/>
          <rect x="9" y="27" width="1" height="1"/>
          <rect x="11" y="27" width="1" height="1"/>
          <rect x="13" y="27" width="1" height="1"/>
          <rect x="15" y="27" width="1" height="1"/>
          <rect x="17" y="27" width="1" height="1"/>
          <rect x="19" y="27" width="1" height="1"/>
          <rect x="21" y="27" width="1" height="1"/>
        </g>
        <g>
          <rect x="7" y="30" width="1" height="1"/>
          <rect x="9" y="30" width="1" height="1"/>
          <rect x="11" y="30" width="1" height="1"/>
          <rect x="13" y="30" width="1" height="1"/>
          <rect x="15" y="30" width="1" height="1"/>
          <rect x="17" y="30" width="1" height="1"/>
          <rect x="19" y="30" width="1" height="1"/>
          <rect x="21" y="30" width="1" height="1"/>
        </g>
      </g>
      <rect x="23" y="24" width="1" height="1"/>
      <rect x="25" y="24" width="1" height="1"/>
      <rect x="27" y="24" width="1" height="1"/>
      <rect x="29" y="24" width="1" height="1"/>
      <rect x="31" y="24" width="1" height="1"/>
      <rect x="33" y="24" width="1" height="1"/>
      <rect x="35" y="24" width="1" height="1"/>
      <rect x="23" y="27" width="1" height="1"/>
      <rect x="25" y="27" width="1" height="1"/>
      <rect x="27" y="27" width="1" height="1"/>
      <rect x="29" y="27" width="1" height="1"/>
      <rect x="31" y="27" width="1" height="1"/>
      <rect x="33" y="27" width="1" height="1"/>
      <rect x="35" y="27" width="1" height="1"/>
      <rect x="23" y="30" width="1" height="1"/>
      <rect x="25" y="30" width="1" height="1"/>
      <rect x="27" y="30" width="1" height="1"/>
      <rect x="29" y="30" width="1" height="1"/>
      <rect x="31" y="30" width="1" height="1"/>
      <rect x="33" y="30" width="1" height="1"/>
      <rect x="35" y="30" width="1" height="1"/>
    </g>
    <g>
      <g>
        <rect x="7" y="35" width="1" height="1"/>
        <rect x="9" y="35" width="1" height="1"/>
        <rect x="11" y="35" width="1" height="1"/>
        <rect x="13" y="35" width="1" height="1"/>
        <rect x="15" y="35" width="1" height="1"/>
        <rect x="17" y="35" width="1" height="1"/>
        <rect x="19" y="35" width="1" height="1"/>
        <rect x="21" y="35" width="1" height="1"/>
      </g>
      <g>
        <rect x="7" y="38" width="1" height="1"/>
        <rect x="9" y="38" width="1" height="1"/>
        <rect x="11" y="38" width="1" height="1"/>
        <rect x="13" y="38" width="1" height="1"/>
        <rect x="15" y="38" width="1" height="1"/>
        <rect x="17" y="38" width="1" height="1"/>
        <rect x="19" y="38" width="1" height="1"/>
        <rect x="21" y="38" width="1" height="1"/>
      </g>
      <rect x="23" y="35" width="1" height="1"/>
      <rect x="25" y="35" width="1" height="1"/>
      <rect x="27" y="35" width="1" height="1"/>
      <rect x="29" y="35" width="1" height="1"/>
      <rect x="31" y="35" width="1" height="1"/>
      <rect x="33" y="35" width="1" height="1"/>
      <rect x="35" y="35" width="1" height="1"/>
      <rect x="23" y="38" width="1" height="1"/>
      <rect x="25" y="38" width="1" height="1"/>
      <rect x="27" y="38" width="1" height="1"/>
      <rect x="29" y="38" width="1" height="1"/>
      <rect x="31" y="38" width="1" height="1"/>
      <rect x="33" y="38" width="1" height="1"/>
      <rect x="35" y="38" width="1" height="1"/>
    </g>
    <rect x="7" y="45" width="1" height="1"/>
    <rect x="9" y="45" width="1" height="1"/>
    <rect x="11" y="45" width="1" height="1"/>
    <rect x="13" y="45" width="1" height="1"/>
  </g>
</svg>