<?xml version="1.0" encoding="UTF-8"?>
<svg id="Layer_1" xmlns="http://www.w3.org/2000/svg" version="1.1" viewBox="0 0 50 64">
  <!-- Generator: Adobe Illustrator 29.4.0, SVG Export Plug-In . SVG Version: 2.1.0 Build 152)  -->
  <defs>
    <style>
      .st0 {
        fill: none;
        stroke: #000;
        stroke-linecap: round;
        stroke-miterlimit: 10;
        stroke-width: .2px;
      }

      .st1 {
        fill: #fff;
      }
    </style>
  </defs>
  <g>
    <rect class="st1" x=".1" y=".1" width="49.5" height="63.8"/>
    <path d="M49.5.2v63.5H.2V.2h49.3M49.8,0H0v64h49.8V0h0Z"/>
  </g>
  <g>
    <path d="M6.4,5.8s0,0,0,0c0,0,0,0,0,0,0,0,0,0,0,0,0,0,0,0,0,0,0,0,0,0,0,0,0,0,0,0,0,0,0,0,0,0,0,0,0,0,0,0,0,0,0,0,0,0,0,0,0,0,0,0,0,0,0,0,0,0,0,0,0,.2,0,.3,0,.5,0,0,0,0,.1,0,0,0,.1,0,.2,0,0-.2,0-.4,0-.6,0,0,0,0,0,0,0,0,0,0,0,0Z"/>
    <path d="M7.2,3.7h0c0,0,0,0,0,0,.4.4.6.9.7,1.4h0s0,0,0,0c0,0,0,0,0,0,0,0,0,0,0,.1,0,.1,0,.2,0,.3,0,0,0,0,0,0h0c0,.1,0,.1,0,.1,0,.2,0,.5,0,.7,0,0,0,0,0,0,0,.1,0,.3-.1.4,0,0,0,0,0,0h0s0,0,0,0h0c0,.2-.2.4-.3.5,0,.2-.2.3-.3.5,0,0,.1.2.2.2.1-.2.3-.3.4-.5,0-.2.2-.4.3-.8,0,0,0-.2,0-.3,0-.2,0-.4,0-.6h0s0,0,0,0c0,0,0,0,0,0,0,0,0,0,0,0,0,0,0-.1,0-.2,0,0,0-.1,0-.2-.1-.7-.5-1.4-1.1-2.1h-.1c0-.1-.1,0-.1,0-.6.6-.9,1.3-1,2,0,0,0,0,0,0,0,0,0,0,0,0,0,0,0,0,0,0,0,0,0,0,0,0,0,0,0,0,0,0,0,0,0,0,0,0,0,0,0,0,0,0,0,0,0,0,0,0,0,0,0,0,0,0,0,0,0,0,0,0,0,0,0,0,0,0,0,0,0,0,0,0,0,0,0,0,0,0,.1-.5.4-.9.7-1.4Z"/>
    <path d="M4.9,9.2c-.2,0-.4,0-.7,0h0s0,0,0,0c.2-.5.5-1,.8-1.3h0s0,0,0,0c0,0,.1-.1.2-.2,0,0,.2-.1.2-.2,0,0,0,0,0,0h0c0,0,0,0,0,0,.2-.1.4-.2.7-.3h0c.1,0,.3,0,.4-.1h0c.2,0,.4,0,.6,0s0,0,0,0c.2,0,.4,0,.6,0,0-.1,0-.2,0-.3-.2,0-.4,0-.6,0,0,0,0,0,0,0-.2,0-.5,0-.9.1-.3,0-.5.2-.8.3,0,0,0,0-.1,0,0,0-.1,0-.2,0,0,0-.1,0-.2.1-.6.5-1,1.1-1.3,2v.2c0,0,.1,0,.1,0,.3,0,.7.1,1,.1.4,0,.8,0,1.2-.2-.1,0-.2-.1-.3-.2-.3,0-.6.1-.9.1Z"/>
    <path d="M7.2,8.7s0,0,0,0c0,0-.1-.1-.2-.2-.2.1-.3.3-.5.4.1,0,.2.1.4.2.1,0,.3-.2.4-.3Z"/>
    <path d="M8.5,6.7c0,.1,0,.2,0,.3.2,0,.4.2.6.3,0-.1,0-.3,0-.4-.2,0-.3-.1-.4-.2Z"/>
    <path d="M9.6,7.7c.3.3.6.7.8,1.3h0c0,0,0,0,0,0-.2,0-.5,0-.7,0-.5,0-1-.1-1.5-.4h0s0,0,0,0c-.2-.1-.4-.3-.6-.4,0,0,0,0,0,0-.1-.1-.2-.2-.3-.3,0,0,0,0,0,0h0c-.1-.2-.2-.3-.3-.5,0-.2-.2-.3-.2-.5-.1,0-.2,0-.3,0,0,.2.2.4.3.6.2.3.6.9,1.2,1.3,0,0,0,0,0,0,0,0,0,0,0,0,0,0,0,0,0,0,0,0,0,0,0,0,0,0,0,0,0,0,0,0,0,0,0,0,.5.3,1,.4,1.6.4s.7,0,1-.1h.2s0-.2,0-.2c-.3-.9-.7-1.5-1.2-1.9,0,.1,0,.3,0,.4Z"/>
    <path d="M6,6h0s0,0,0,0c0,0,0,0,.1,0,.1,0,.2-.2.4-.2h0s0,0,0,0c.2-.1.5-.2.7-.2s.5,0,.7.2c0,0,0,0,0,0,0,0,0,0,0,0,0,0,0,0,0,0,0,0,0,0,0,0,0,0,0,0,0,0,0,0,0,0,0,0,0,0,0,0,0,0,0,0,0,0,0,0,0,0,0,0,0,0,0,0,0,0,0,0,0,0,0,0,0,0,0,0,0,0,0,0,0,0,0,0,0,0-.2,0-.4-.1-.7-.1s-.5,0-.7.1c-.1,0-.3.1-.4.2,0,0,0,0,0,0-.5.4-.9.9-1,1.6,0,0,0,0,0,0,0,0,0,0,0,0,0,0,0,0,0,0,0,0,0,0,0,0,0,0,0,0,0,0,0,0,0,0,0,0,0,0,0,0,0,0,0,0,0,0,0,0,0-.3.2-.6.5-.8Z"/>
    <path d="M6.5,5.6h0s0,0,0,0h0Z"/>
    <path d="M6.1,5.9s0,0-.1,0h0s0,0,0,0c0,0,0,0,0,0,0,0,0,0,.1,0Z"/>
    <path d="M8,5.5s0,0,0,0c0,0,0,0,0,0Z"/>
    <path d="M8,5.6s0,0,0,0c0,0,0,0,0,0,0,0,0,0,0,0Z"/>
    <path d="M8,5.5s0,0,0,0c0,0,0,0,0,0Z"/>
    <path d="M8,5.3s0,0,0,0c0,0,0,0,0,0Z"/>
    <path d="M8,5.4s0,0,0,0c0,0,0,0,0,0Z"/>
    <path d="M8,5.3s0,0,0,0c0,0,0,0,0,0Z"/>
    <path d="M6.1,5.4s0,0,0,0c0,0,0,0,0,0Z"/>
    <path d="M8,5.2s0,0,0,0c0,0,0,0,0,0,0,0,0,0,0,0Z"/>
    <path d="M5.2,7s0,0,0,0c0,0,0,0,0,0Z"/>
    <path d="M5.4,6.8s0,0,0,0c0,0,0,0,0,0Z"/>
    <path d="M5.3,6.9s0,0,0,0c0,0,0,0,0,0Z"/>
    <path d="M8.2,9.3c-.3.1-.6.2-.9.2s-.6,0-.9-.2c0,0,0,0,0,0,0,0,0,0,0,0,0,0,0,0,0,0-.1,0-.2-.1-.3-.2,0,0,0,0,0,0,0,0,0,0,0,0,0,0,0,0,0,0-.2-.2-.3-.3-.4-.5-.1-.2-.2-.4-.2-.6,0,0,0,0,0,0,0,0,0,0,0,0,0,0,0,0,0,0,0,0,0,0,0,0,0,0,0,0,0,0,0,0,0,0,0,0,0,0,0,0,0,0,0,0,0,0,0,0,0,0,0,0,0,0,0,0,0,0,0,0,0,.3.1.5.2.7.1.2.3.4.5.6,0,0,0,0,0,0,0,0,0,0,0,0,0,0,0,0,0,0,0,0,0,0,0,0,.1,0,.2.1.3.2,0,0,0,0,0,0,0,0,0,0,0,0,0,0,0,0,0,0,.3,0,.6,0,.9,0,0,0,0,0,0,0,0,0,0,0,0,0,0,0,0,0,0,0,0,0,0,0,0,0,0,0,0,0,0,0,0,0,0,0,0,0,0,0,0,0,0,0,0,0,0,0,0,0,0,0,0,0,0,0,0,0,0,0,0,0,0,0,0,0,0,0,0,0,0,0,0,0,0,0,0,0,0,0Z"/>
    <polygon points="5.4 7.5 5.4 7.5 5.4 7.5 5.4 7.5"/>
    <path d="M5.1,7.7s0,0,0,0c0,0,0,0,0,0,0,0,0,0,0,0Z"/>
    <path d="M9.5,7.4c0,0,0,.2,0,.2,0,0,0,0,0,0,0,0,0,0,0,0,0,0,0,0,0,0,0,.2-.1.4-.2.6-.1.2-.3.4-.4.5-.1,0-.2,0-.3-.1,0,0,0,0,0,0,.2-.2.4-.3.5-.6.1-.2.2-.5.2-.7,0,0,0,0,0,0,0,0,0,0,0,0,0,0,0,0,0,0,0,0,0,0,0-.1,0,0,0-.2,0-.3,0,0,0,0,0,0,0,0,0,0,0,0,0,0,0,0,0,0,0-.3-.2-.6-.5-.8,0,0,0,0,0,0,0,0,0,0,0,0,0,0,0,0,0,0,0,0,0,0,0,0h0s0,0,0,0c0,0,0,0,0,0,0,0,0,0,0,0,0,0,0,0,0,0,0,0,0,0,0,0,0,0,0,0,0,0,0,0,0,0,0,0,0,0,0,0,0,0,.5.4.8.9.9,1.5,0,0,0,0,0,0,0,0,0,0,0,0,0,0,0,0,0,0,0,0,0,.1,0,.2Z"/>
    <path d="M8.6,5.8s0,0,0,0c0,0,0,0,0,0,0,0,0,0,0,0Z"/>
  </g>
  <line class="st0" x1="7.1" y1="17.1" x2="42.7" y2="17.1"/>
  <line class="st0" x1="7.1" y1="14.2" x2="42.7" y2="14.2"/>
  <line class="st0" x1="7.1" y1="22.8" x2="42.7" y2="22.8"/>
  <line class="st0" x1="7.1" y1="19.9" x2="42.7" y2="19.9"/>
  <line class="st0" x1="7.1" y1="31.3" x2="42.7" y2="31.3"/>
  <line class="st0" x1="7.1" y1="28.4" x2="42.7" y2="28.4"/>
  <line class="st0" x1="7.1" y1="37" x2="42.7" y2="37"/>
  <line class="st0" x1="7.1" y1="34.1" x2="42.7" y2="34.1"/>
  <line class="st0" x1="7.1" y1="45.5" x2="42.7" y2="45.5"/>
  <line class="st0" x1="7.1" y1="42.7" x2="42.7" y2="42.7"/>
  <line class="st0" x1="7.1" y1="51.2" x2="42.7" y2="51.2"/>
  <line class="st0" x1="7.1" y1="48.4" x2="42.7" y2="48.4"/>
  <line class="st0" x1="7.1" y1="58.3" x2="14.2" y2="58.3"/>
  <line class="st0" x1="18.5" y1="7.1" x2="27" y2="7.1"/>
  <line class="st0" x1="18.5" y1="4.3" x2="32.7" y2="4.3"/>
  <line class="st0" x1="18.5" y1="10" x2="28.4" y2="10"/>
</svg>