<?xml version="1.0" encoding="UTF-8"?>
<svg id="Layer_1" xmlns="http://www.w3.org/2000/svg" width="22" height="20" version="1.1" viewBox="0 0 22 20">
  <!-- Generator: Adobe Illustrator 29.4.0, SVG Export Plug-In . SVG Version: 2.1.0 Build 152)  -->
  <defs>
    <style>
      .st0 {
        fill: #fff;
      }
    </style>
  </defs>
  <rect class="st0" width="22" height="20"/>
  <g>
    <rect x="7" y="7" width="2" height="1" transform="translate(16 15) rotate(-180)"/>
    <rect x="3" y="5" width="2" height="1" transform="translate(8 11) rotate(-180)"/>
    <rect x="5" y="6" width="2" height="1" transform="translate(12 13) rotate(-180)"/>
    <rect x="13" y="10" width="2" height="1" transform="translate(28 21) rotate(-180)"/>
    <rect x="9" y="8" width="2" height="1" transform="translate(20 17) rotate(-180)"/>
    <rect x="11" y="9" width="2" height="1" transform="translate(24 19) rotate(-180)"/>
    <rect x="17" y="12" width="2" height="1" transform="translate(36 25) rotate(-180)"/>
    <rect x="15" y="11" width="2" height="1" transform="translate(32 23) rotate(-180)"/>
  </g>
</svg>