<?xml version="1.0" encoding="UTF-8"?>
<svg id="Layer_1" xmlns="http://www.w3.org/2000/svg" version="1.1" viewBox="0 0 32 32">
  <!-- Generator: Adobe Illustrator 29.4.0, SVG Export Plug-In . SVG Version: 2.1.0 Build 152)  -->
  <defs>
    <style>
      .st0 {
        fill: #fff;
      }
    </style>
  </defs>
  <g id="Layer_11" data-name="Layer_1">
    <rect x="31" y="2" width="1" height="29"/>
    <rect x="1" width="30" height="1"/>
    <rect width="1" height="31"/>
    <rect x="30" y="1" width="1" height="30"/>
    <rect x="1" y="30" width="29" height="1"/>
    <rect x="2" y="31" width="30" height="1"/>
  </g>
  <rect class="st0" x="1" y="1" width="29" height="29"/>
  <g>
    <path d="M5.4,12.3h4.6v14.7h-4.6v-14.7ZM7.6,5c1.5,0,2.6,1.2,2.6,2.6s-1.2,2.6-2.6,2.6-2.6-1.2-2.6-2.6,1.2-2.6,2.6-2.6"/>
    <path d="M12.8,12.3h4.4v2h0c.6-1.2,2.1-2.4,4.3-2.4,4.6,0,5.5,3,5.5,7v8h-4.6v-7.1c0-1.7,0-3.9-2.4-3.9s-2.7,1.9-2.7,3.8v7.3h-4.6v-14.7Z"/>
  </g>
</svg>