<?xml version="1.0" encoding="UTF-8"?><svg id="a" xmlns="http://www.w3.org/2000/svg" viewBox="0 0 32 32"><polygon points="31 18 31 17 32 17 32 16 31 16 31 15 30 15 30 14 29 14 29 13 28 13 28 12 27 12 27 11 26 11 26 10 25 10 25 9 24 9 24 8 23 8 23 7 22 7 22 6 21 6 21 5 20 5 20 4 19 4 19 3 18 3 18 2 17 2 17 1 16 1 16 0 15 0 15 1 14 1 14 2 13 2 13 3 12 3 12 4 11 4 11 5 10 5 10 6 9 6 9 7 8 7 8 8 7 8 7 9 6 9 6 10 5 10 5 11 4 11 4 12 3 12 3 13 2 13 2 14 1 14 1 15 0 15 0 16 1 16 1 17 2 17 2 18 3 18 3 19 4 19 4 20 5 20 5 21 6 21 6 22 7 22 7 23 8 23 8 24 9 24 9 25 10 25 10 26 11 26 11 27 12 27 12 28 13 28 13 29 14 29 14 30 15 30 15 31 16 31 16 32 17 32 17 31 18 31 18 30 19 30 19 29 20 29 20 28 21 28 21 27 22 27 22 26 23 26 23 25 27 25 27 24 19 24 19 23 17 23 17 22 16 22 16 21 15 21 15 20 15 19 17 19 17 20 18 20 18 21 20 21 20 20 25 20 25 19 21 19 21 18 20 18 20 19 18 19 18 18 16 18 16 17 17 17 17 16 18 16 18 15 24 15 24 16 25 16 25 17 26 17 26 18 27 18 27 19 28 19 28 20 29 20 29 25 27 25 27 26 29 26 29 27 32 27 32 19 30 19 30 18 31 18"/><rect x="18" y="17" width="2" height="1"/><rect x="11" y="8" width="1" height="1" fill="#fff"/><rect x="9" y="10" width="1" height="1" fill="#fff"/><rect x="10" y="9" width="1" height="1" fill="#fff"/><rect x="12" y="7" width="1" height="1" fill="#fff"/><rect x="13" y="6" width="1" height="1" fill="#fff"/><polygon points="8 12.01 9 12.01 9 11.01 8 11.01 8 12 7 12 7 13 8 13 8 12.01" fill="#fff"/><rect x="5" y="14" width="1" height="1" fill="#fff"/><rect x="6" y="13" width="1" height="1" fill="#fff"/><rect x="12" y="10" width="1" height="1" fill="#fff"/><rect x="13" y="9" width="1" height="1" fill="#fff"/><rect x="15" y="7" width="1" height="1" fill="#fff"/><rect x="14" y="8" width="1" height="1" fill="#fff"/><rect x="10" y="12" width="1" height="1" fill="#fff"/><rect x="8" y="14" width="1" height="1" fill="#fff"/><rect x="9" y="13" width="1" height="1" fill="#fff"/><rect x="11" y="11" width="1" height="1" fill="#fff"/><rect x="7" y="15" width="1" height="1" fill="#fff"/><rect x="15" y="25" width="1" height="1" fill="#fff"/><rect x="10" y="15" width="1" height="1" fill="#fff"/><rect x="16" y="24" width="1" height="1" fill="#fff"/><rect x="14" y="11.01" width="1" height="1" fill="#fff"/><polygon points="12 14 11 14 11 15 12 15 12 14.01 13 14.01 13 13.01 12 13.01 12 14" fill="#fff"/><rect x="13" y="12.01" width="1" height="1" fill="#fff"/><rect x="13" y="15" width="1" height="1" fill="#fff"/><rect x="11" y="17" width="1" height="1" fill="#fff"/><rect x="12" y="16" width="1" height="1" fill="#fff"/><rect x="10" y="18" width="1" height="1" fill="#fff"/><rect x="15" y="13" width="1" height="1" fill="#fff"/><rect x="17" y="11" width="1" height="1" fill="#fff"/><rect x="18" y="10" width="1" height="1" fill="#fff"/><rect x="14" y="14" width="1" height="1" fill="#fff"/><rect x="16" y="12" width="1" height="1" fill="#fff"/><rect x="14" y="26" width="1" height="1" fill="#fff"/><rect x="11" y="20" width="1" height="1" fill="#fff"/><rect x="12" y="19" width="1" height="1" fill="#fff"/><rect x="13" y="18" width="1" height="1" fill="#fff"/><rect x="19" y="12" width="1" height="1" fill="#fff"/><rect x="20" y="11" width="1" height="1" fill="#fff"/><rect x="18" y="13" width="1" height="1" fill="#fff"/><rect x="4" y="15" width="1" height="1" fill="#fff"/><rect x="14" y="23" width="1" height="1" fill="#fff"/><rect x="15" y="22" width="1" height="1" fill="#fff"/><rect x="18" y="18" width="2" height="1" fill="#fff"/><polygon points="28 20 28 19 27 19 27 18 26 18 26 17 25 17 25 16 24 16 24 15 18 15 18 16 17 16 17 17 16 17 16 18 18 18 18 17 20 17 20 18 21 18 21 19 25 19 25 20 20 20 20 21 18 21 18 20 17 20 17 19 15 19 15 20 15 21 16 21 16 22 17 22 17 23 19 23 19 24 27 24 27 25 29 25 29 24 29 23 29 22 29 21 29 20 28 20" fill="#fff"/></svg>