<?xml version="1.0" encoding="UTF-8"?><svg id="b" xmlns="http://www.w3.org/2000/svg" viewBox="0 0 32 32"><polygon points="22 7 22 1 5 1 5 31 22 31 28 31 28 7 22 7" fill="#fff"/><polygon points="25 6 26 6 27 6 27 5 26 5 26 4 25 4 25 3 24 3 24 2 23 2 23 6 24 6 25 6" fill="#fff"/><rect x="7" y="4" width="1" height="1"/><polygon points="26 4 26 3 25 3 25 4 26 4 26 5 27 5 27 4 26 4"/><rect x="24" y="2" width="1" height="1"/><path d="M28,6v-1h-1v1h-4V2h1v-1h-1V0H4v32h25V6h-1ZM5,31V1h17v6h1s5,0,5,0v24H5Z"/><rect x="13" y="4" width="1" height="1"/><rect x="7" y="16" width="1" height="1"/><rect x="7" y="10" width="1" height="1"/><rect x="25" y="10" width="1" height="1"/><rect x="19" y="4" width="1" height="1"/><rect x="25" y="22" width="1" height="1"/><rect x="7" y="22" width="1" height="1"/><rect x="19" y="22" width="1" height="1"/><rect x="25" y="16" width="1" height="1"/><rect x="13" y="16" width="1" height="1"/><rect x="25" y="28" width="1" height="1"/><rect x="19" y="28" width="1" height="1"/><rect x="7" y="28" width="1" height="1"/><rect x="12" y="22" width="3" height="1"/><polygon points="14.99 28 12 28 12 29 15 29 15 28 15.99 28 15.99 27 14.99 27 14.99 28"/><rect x="15" y="23" width="1" height="1"/><rect x="11" y="23" width="1" height="1"/><path d="M20,8v-1h-7v7h3v3h7v-7h-3v-2ZM22,11v5h-5v-5h5ZM16,10v3h-2v-5h5v2h-3Z"/><polygon points="10 27 10.98 27 10.98 28 11.98 28 11.98 27 11 27 11 24 10 24 10 27"/><rect x="16" y="24" width="1" height="3"/></svg>