<?xml version="1.0" encoding="UTF-8"?><svg id="a" xmlns="http://www.w3.org/2000/svg" viewBox="0 0 32 32"><polygon points="22 7 22 1 5 1 5 31 22 31 28 31 28 7 22 7" fill="#fff"/><polygon points="25 6 26 6 27 6 27 5 26 5 26 4 25 4 25 3 24 3 24 2 23 2 23 6 24 6 25 6" fill="#fff"/><rect x="7" y="4" width="1" height="1"/><polygon points="26 4 26 3 25 3 25 4 26 4 26 5 27 5 27 4 26 4"/><rect x="24" y="2" width="1" height="1"/><path d="M28,6v-1h-1v1h-4V2h1v-1h-1V0H4v32h25V6h-1ZM5,31V1h17v6h1s5,0,5,0v24H5Z"/><rect x="13" y="4" width="1" height="1"/><rect x="7" y="16" width="1" height="1"/><rect x="7" y="10" width="1" height="1"/><rect x="25" y="10" width="1" height="1"/><rect x="19" y="4" width="1" height="1"/><rect x="25" y="22" width="1" height="1"/><rect x="7" y="22" width="1" height="1"/><rect x="19" y="22" width="1" height="1"/><rect x="25" y="16" width="1" height="1"/><rect x="13" y="16" width="1" height="1"/><rect x="11" y="27" width="1" height="1"/><rect x="25" y="28" width="1" height="1"/><rect x="19" y="28" width="1" height="1"/><rect x="7" y="28" width="1" height="1"/><rect x="15" y="27" width="1" height="1"/><rect x="15" y="23" width="1" height="1"/><rect x="11" y="23" width="1" height="1"/><path d="M20,8v-1h-7v7h3v3h7v-7h-3v-2ZM22,11v1h-1v1h1v1h-1v1h1v1h-1v-1h-1v1h-1v-1h-1v1h-1v-1h1v-1h-1v-1h1v-1h-1v-1h1v1h1v-1h1v1h1v-1h1ZM16,10v3h-2v-5h5v2h-3Z"/><polygon points="16 25 15 25 15 26 16 26 16 27 17 27 17 24 16 24 16 25"/><polygon points="13 24 14 24 14 23 15 23 15 22 12 22 12 23 13 23 13 24"/><rect x="12" y="24" width="1" height="1"/><rect x="14" y="24" width="1" height="1"/><rect x="13" y="25" width="1" height="1"/><rect x="12" y="26" width="1" height="1"/><rect x="14" y="26" width="1" height="1"/><polygon points="12 26 12 25 11 25 11 24 10 24 10 27 11 27 11 26 12 26"/><polygon points="14 27 13 27 13 28 12 28 12 29 15 29 15 28 14 28 14 27"/><rect x="19" y="12" width="1" height="1"/><rect x="20" y="13" width="1" height="1"/><rect x="19" y="14" width="1" height="1"/><rect x="18" y="13" width="1" height="1"/></svg>