<?xml version="1.0" encoding="UTF-8"?><svg id="a" xmlns="http://www.w3.org/2000/svg" viewBox="0 0 364 204"><rect x="1" y="21" width="360" height="159" fill="#fff"/><rect x="27" y="69" width="7" height="1"/><rect x="34" y="68" width="7" height="1"/><rect x="41" y="67" width="7" height="1"/><rect x="48" y="66" width="7" height="1"/><rect x="6" y="72" width="7" height="1"/><rect x="13" y="71" width="7" height="1"/><rect x="20" y="70" width="7" height="1"/><polygon points="87 73 87 72 83 72 83 71 79 71 79 70 75 70 75 69 71 69 71 68 67 68 67 67 63 67 63 66 59 66 59 65 55 65 55 66 56 66 56 67 55 67 55 68 54 68 54 69 53 69 53 70 52 70 52 71 51 71 51 72 50 72 50 73 50 74 51 74 51 75 52 75 52 76 53 76 53 77 54 77 54 78 55 78 55 79 56 79 56 80 57 80 57 81 57 82 56 82 56 83 55 83 55 84 54 84 54 85 53 85 53 86 52 86 52 87 51 87 51 88 50 88 50 89 50 90 51 90 51 91 52 91 52 92 53 92 53 93 54 93 54 94 55 94 55 95 56 95 56 96 57 96 57 97 66 97 66 98 66 99 68 99 68 100 69 100 69 101 70 101 70 102 71 102 71 103 72 103 72 104 73 104 73 105 91 105 91 104 93 104 93 103 95 103 95 102 97 102 97 101 99 101 99 100 101 100 101 99 103 99 103 98 105 98 105 97 105 96 104 96 104 95 103 95 103 94 102 94 102 93 101 93 101 92 100 92 100 91 99 91 99 90 98 90 98 89 81 89 81 88 81 87 81 86 81 85 81 84 81 83 81 82 81 81 82 81 82 80 83 80 83 79 84 79 84 78 85 78 85 77 86 77 86 76 87 76 87 75 88 75 88 74 91 74 91 73 87 73"/><rect x="91" y="74" width="4" height="1"/><rect x="95" y="75" width="4" height="1"/><rect x="99" y="76" width="4" height="1"/><rect x="103" y="77" width="4" height="1"/><rect x="107" y="78" width="4" height="1"/><rect x="111" y="79" width="4" height="1"/><rect x="115" y="80" width="4" height="1"/><rect x="148" y="74" width="4" height="1"/><polygon points="144 76 140 76 140 77 136 77 136 78 132 78 132 79 128 79 128 80 124 80 124 81 119 81 119 82 123 82 123 83 124 83 124 84 125 84 125 85 126 85 126 86 127 86 127 87 128 87 128 88 129 88 129 90 129 91 129 92 129 93 129 94 129 95 129 96 129 97 146 97 146 96 147 96 147 95 148 95 148 94 149 94 149 93 150 93 150 92 151 92 151 91 152 91 152 90 153 90 153 88 153 87 152 87 152 86 152 85 151 85 151 84 150 84 150 83 150 82 149 82 149 81 149 80 148 80 148 79 148 78 147 78 147 77 146 77 146 76 148 76 148 75 144 75 144 76"/><rect x="156" y="72" width="4" height="1"/><rect x="152" y="73" width="4" height="1"/><rect x="164" y="70" width="4" height="1"/><rect x="160" y="71" width="4" height="1"/><rect x="172" y="68" width="4" height="1"/><rect x="168" y="69" width="4" height="1"/><rect x="176" y="67" width="4" height="1"/><polygon points="232 81 232 80 229 80 229 79 226 79 226 78 223 78 223 77 220 77 220 76 217 76 217 75 214 75 214 74 211 74 211 73 208 73 208 72 205 72 205 71 202 71 202 70 199 70 199 69 196 69 196 68 193 68 193 67 190 67 190 66 187 66 187 65 184 65 184 66 180 66 180 67 183 67 183 68 182 68 182 69 181 69 181 70 180 70 180 71 179 71 179 72 178 72 178 73 177 73 177 74 176 74 176 75 175 75 175 76 174 76 174 77 173 77 173 78 172 78 172 79 171 79 171 80 170 80 170 81 169 81 169 82 168 82 168 83 167 83 167 84 166 84 166 85 165 85 165 86 164 86 164 87 163 87 163 88 162 88 162 89 162 90 163 90 163 91 164 91 164 92 165 92 165 93 166 93 166 94 167 94 167 95 168 95 168 96 169 96 169 97 169 98 168 98 168 100 167 100 167 102 166 102 166 104 165 104 165 105 165 106 164 106 164 107 164 108 163 108 163 109 163 110 162 110 162 111 162 112 161 112 161 114 160 114 160 115 159 115 159 116 158 116 158 117 157 117 157 118 156 118 156 119 155 119 155 120 154 120 154 121 154 122 154 123 155 123 155 124 155 125 156 125 156 126 156 127 157 127 157 128 157 129 158 129 158 130 158 131 159 131 159 132 159 133 160 133 160 134 160 135 161 135 161 136 160 136 160 135 159 135 159 134 158 134 158 133 157 133 157 132 156 132 156 131 155 131 155 132 155 133 156 133 156 134 156 135 157 135 157 136 157 137 158 137 158 139 159 139 159 141 160 141 160 143 161 143 161 145 162 145 162 147 163 147 163 149 164 149 164 151 165 151 165 153 166 153 166 155 167 155 167 157 168 157 168 159 169 159 169 161 185 161 185 159 184 159 184 157 183 157 183 155 182 155 182 153 181 153 181 151 180 151 180 149 179 149 179 147 178 147 178 145 169 145 169 143 169 141 169 139 169 137 186 137 186 136 187 136 187 135 188 135 188 134 189 134 189 133 190 133 190 132 191 132 191 131 192 131 192 130 193 130 193 129 194 129 194 128 195 128 195 127 196 127 196 126 197 126 197 125 198 125 198 124 199 124 199 123 200 123 200 122 201 122 201 121 202 121 202 122 203 122 203 123 205 123 205 125 208 125 208 126 209 126 209 127 211 127 211 128 212 128 212 129 214 129 214 130 215 130 215 131 217 131 217 132 218 132 218 133 220 133 220 134 221 134 221 135 223 135 223 136 224 136 224 137 225 137 225 136 225 135 225 134 225 133 225 132 225 131 225 130 225 129 225 128 225 127 225 126 225 125 225 123 225 122 225 121 234 121 234 120 235 120 235 119 236 119 236 118 237 118 237 117 238 117 238 116 239 116 239 115 240 115 240 114 241 114 241 112 240 112 240 111 239 111 239 110 238 110 238 109 237 109 237 108 236 108 236 107 235 107 235 106 234 106 234 105 217 105 217 104 217 102 217 100 217 98 217 97 218 97 218 96 219 96 219 95 220 95 220 94 221 94 221 93 222 93 222 92 223 92 223 91 224 91 224 90 225 90 225 89 226 89 226 88 227 88 227 87 228 87 228 86 229 86 229 85 230 85 230 84 231 84 231 83 232 83 232 82 235 82 235 81 232 81"/><rect x="154" y="130" width="1" height="1"/><rect x="235" y="82" width="3" height="1"/><rect x="238" y="83" width="3" height="1"/><rect x="241" y="84" width="3" height="1"/><rect x="244" y="85" width="3" height="1"/><rect x="247" y="86" width="3" height="1"/><rect x="250" y="87" width="3" height="1"/><rect x="253" y="88" width="3" height="1"/><polygon points="281 78 279 78 279 79 277 79 277 80 275 80 275 81 273 81 273 82 271 82 271 83 269 83 269 84 267 84 267 85 265 85 265 86 263 86 263 87 261 87 261 88 259 88 259 89 256 89 256 90 259 90 259 91 259 92 260 92 260 93 261 93 261 94 262 94 262 96 263 96 263 97 264 97 264 99 265 99 265 100 266 100 266 101 267 101 267 103 268 103 268 104 269 104 269 106 270 106 270 107 271 107 271 108 272 108 272 110 273 110 273 111 274 111 274 113 275 113 275 114 276 114 276 115 277 115 277 116 277 117 280 117 280 116 285 116 285 115 289 115 289 114 294 114 294 113 295 113 295 111 296 111 296 110 296 108 297 108 297 107 297 106 297 104 298 104 298 103 298 101 298 100 299 100 299 99 299 97 300 97 300 96 300 94 300 93 301 93 301 92 301 91 296 91 296 90 286 90 286 89 283 89 283 88 284 88 284 87 285 87 285 86 286 86 286 85 288 85 288 84 289 84 289 83 290 83 290 82 291 82 291 81 290 81 290 80 287 80 287 79 285 79 285 78 283 78 283 77 281 77 281 78"/><rect x="283" y="76" width="2" height="1"/><rect x="285" y="75" width="2" height="1"/><rect x="287" y="74" width="2" height="1"/><rect x="291" y="75" width="2" height="1"/><rect x="289" y="73" width="1" height="1"/><rect x="290" y="74" width="1" height="1"/><rect x="294" y="77" width="2" height="1"/><rect x="293" y="76" width="1" height="1"/><rect x="297" y="79" width="2" height="1"/><rect x="296" y="78" width="1" height="1"/><rect x="300" y="81" width="2" height="1"/><rect x="299" y="80" width="1" height="1"/><rect x="303" y="83" width="2" height="1"/><rect x="302" y="82" width="1" height="1"/><rect x="306" y="85" width="2" height="1"/><rect x="305" y="84" width="1" height="1"/><rect x="309" y="87" width="2" height="1"/><rect x="308" y="86" width="1" height="1"/><rect x="312" y="89" width="3" height="1"/><rect x="311" y="88" width="1" height="1"/><rect x="315" y="88" width="2" height="1"/><rect x="317" y="87" width="2" height="1"/><rect x="319" y="86" width="2" height="1"/><rect x="321" y="85" width="2" height="1"/><rect x="323" y="84" width="2" height="1"/><rect x="325" y="83" width="2" height="1"/><rect x="327" y="82" width="2" height="1"/><rect x="329" y="81" width="2" height="1"/><rect x="331" y="80" width="2" height="1"/><rect x="333" y="79" width="2" height="1"/><rect x="335" y="78" width="2" height="1"/><path d="M363,2h-1V0H0v202h2v2h362V2h-1ZM334,176v-1h-2v-1h-2v-1h-2v-1h-2v-1h-2v-1h-2v-1h-3v-1h-5v-1h-5v-1h-5v-1h-5v-1h-5v-1h-5v-1h-5v-1h-3v1h-3v1h-3v1h-3v1h-3v1h-3v1h-3v1h-3v1h-4v-1h-3v-1h-3v-1h-3v-1h-3v-1h-3v-1h-3v-1h-3v-1h-2v1h-1v1h-2v1h-2v1h-1v1h-2v1h-1v1h-2v1h-2v1h-1v1h-14v-1h-24v-1h-13v-1h-2v-1h-1v-1h-3v-1h-2v-1h-2v-1h-2v-1h-2v-1h-1v1h-1v1h-1v1h-1v1h-1v1h-1v1h-1v1h-1v1h-1v1h-1v1h-1v1h-1v1h-1v1h-1v1h-1v1h-1v1h-2v-1h-2v-1h-2v-1h-2v-1h-2v-1h-2v-1h-2v-1h-2v-1h-1v1h-2v1h-2v1h-2v1h-2v1h-2v1h-2v1h-2v1h-2v-1h-1v-1h-1v-1h-1v-1h-1v-1h-1v-1h-1v-1h-1v-1h-1v-1h-1v-1h-1v-1h-1v-1h-1v-1h-1v-1h-1v-1h-1v-1h-1v-1h-1v-1h-1v-1h-1v-1h-1v-1h-1v-1h-1v-1h-1v-1h-1v1h-2v1h-2v1h-2v1h-2v1h-2v1h-2v1h-2v1h-2v-1h-1v-1h-1v-1h-1v-1h-1v-1h-1v-1h-1v-1h-1v-1h-1v-1h-1v-1h-1v-1h-1v-1h-1v-1h-1v-1h-1v-1h-1v-1h-9v-1h-1v-1h-1v-1h-1v-1h-1v-1h-1v-1h-1v-1h-1v-1h-1v-1h-1v-1h-1v-1h-1v-1h-1v-1h-1v-1h-1v-1h-1v-1h-2v-1h-3v-1h-3v-1h-3v-1h-3v-1h-3v-1h-3v-1h-3v-1H1v-47h5v-1H1v-23h216v-1H1v-1h215v-2H1v-2h215v-2H1v-1h215v-2h1v-3h1v-2H1v-1h218v-1h1v-1h1v-1h1v-1h1v-1h1v-1h1v-1H1v-1h227v-1h2v-1h3v-1h4v-1h10v1h4v1h3v1h2v1h105v1h-102v1h1v1h1v1h1v1h1v1h1v1h1v1h96v1h-95v2h1v3h1v2h93v1h-93v2h93v2h-93v2h93v1h-94v1h94v16h-2v1h-2v1h-2v1h-2v1h-2v1h-2v1h-2v1h-2v1h-2v1h-2v1h-2v1h-2v1h1v1h1v2h1v2h1v2h1v2h1v2h1v2h1v2h1v2h1v3h-1v2h-1v2h-1v2h-1v2h-1v2h-1v2h-1v2h-1v1h1v2h1v2h1v2h1v2h1v2h1v2h1v2h1v2h14v33h-1v1h-2v1h-1v1h-2v1h-1v1h-2v1h-1v1h-2v1h-1v1h-2v1h-1v1h-2v1h-1v1h-2v1h-1v1h-3v-1h-2Z"/><polygon points="136 119 135 119 135 118 134 118 134 117 133 117 133 116 132 116 132 115 131 115 131 114 130 114 130 113 105 113 105 114 103 114 103 115 101 115 101 116 99 116 99 117 97 117 97 118 95 118 95 119 93 119 93 120 91 120 91 121 90 121 90 122 92 122 92 123 94 123 94 124 96 124 96 125 98 125 98 126 100 126 100 127 102 127 102 128 104 128 104 129 108 129 108 128 112 128 112 127 116 127 116 126 120 126 120 125 124 125 124 124 129 124 129 123 132 123 132 122 136 122 136 121 137 121 137 120 136 120 136 119"/><polygon points="47 9 46 9 46 10 45 10 45 11 44 11 44 12 43 12 42 12 42 11 41 11 41 10 40 10 40 9 39 9 39 8 38 8 38 17 39 17 39 12 40 12 40 13 41 13 41 14 42 14 42 15 43 15 43 14 44 14 44 13 45 13 45 12 46 12 46 17 47 17 48 17 48 8 47 8 47 9" fill="#fff"/><polygon points="20 11 22 11 22 17 24 17 24 11 23 11 23 10 20 10 20 8 18 8 18 17 20 17 20 11" fill="#fff"/><polygon points="32 15 31 15 31 16 28 16 28 11 30 11 30 13 28 13 28 14 32 14 32 13 32 13 32 11 31 11 31 10 27 10 27 11 26 11 26 16 27 16 27 17 31 17 31 16 32 16 32 15" fill="#fff"/><polygon points="13 17 15 17 15 9 17 9 17 8 11 8 11 9 13 9 13 17" fill="#fff"/><rect x="50" y="11" width="1" height="1" fill="#fff"/><path d="M55,10h-4v1h3v1h-3v1h-1v3h1v1h5v-6h-1v-1ZM54,16h-2v-3h2v3Z" fill="#fff"/><polygon points="71 11 73 11 73 17 75 17 75 11 74 11 74 10 69 10 69 11 69 17 71 17 71 11" fill="#fff"/><rect x="65" y="10" width="2" height="7" fill="#fff"/><rect x="65" y="8" width="2" height="1" fill="#fff"/><polygon points="81 17 81 16 80 16 80 11 81 11 81 10 80 10 80 8 78 8 78 10 77 10 77 11 78 11 78 16 79 16 79 17 81 17" fill="#fff"/><polygon points="95 17 95 16 96 16 96 14 95 14 95 13 94 13 94 12 93 12 93 11 95 11 95 10 92 10 92 11 91 11 91 13 92 13 92 14 93 14 93 15 94 15 94 16 92 16 92 17 95 17" fill="#fff"/><rect x="91" y="15" width="1" height="1" fill="#fff"/><rect x="95" y="11" width="1" height="1" fill="#fff"/><polygon points="60 11 62 11 62 10 59 10 59 11 58 11 58 16 59 16 59 17 62 17 62 16 60 16 60 11" fill="#fff"/><rect x="62" y="11" width="1" height="1" fill="#fff"/><rect x="62" y="15" width="1" height="1" fill="#fff"/><path d="M88,17v-1h1v-5h-1v-1h-4v1h-1v5h1v1h4ZM85,11h2v5h-2v-5Z" fill="#fff"/><polygon points="103 10 100 10 100 8 98 8 98 17 100 17 100 11 102 11 102 17 104 17 104 11 103 11 103 10" fill="#fff"/><polygon points="108 12 108 9 109 9 109 8 106 8 106 9 107 9 107 12 108 12" fill="#fff"/><polygon points="114 12 115 12 115 8 114 8 114 9 113 9 113 10 114 10 114 12" fill="#fff"/><polygon points="111 9 111 8 110 8 110 12 111 12 111 10 112 10 112 9 111 9" fill="#fff"/><rect x="112" y="10" width="1" height="1" fill="#fff"/><rect x="128" y="10" width="2" height="7" fill="#fff"/><rect x="128" y="8" width="2" height="1" fill="#fff"/><polygon points="121 8 121 17 123 17 123 13 125 13 125 12 123 12 123 9 126 9 126 8 123 8 121 8" fill="#fff"/><path d="M141,17h5v-9h-2v2h-3v1h-1v5h1v1ZM142,11h2v5h-2v-5Z" fill="#fff"/><polygon points="136 17 138 17 138 11 137 11 137 10 132 10 132 11 132 17 134 17 134 11 136 11 136 17" fill="#fff"/><path d="M150,14h4v-3h-1v-1h-4v1h-1v5h1v1h4v-1h-3v-2ZM152,11v2h-2v-2h2Z" fill="#fff"/><rect x="159" y="10" width="2" height="1" fill="#fff"/><polygon points="159 11 158 11 158 10 156 10 156 17 158 17 158 12 159 12 159 11" fill="#fff"/><rect x="153" y="15" width="1" height="1" fill="#fff"/><rect x="14" y="191" width="1" height="2" fill="#fff"/><rect x="12" y="191" width="1" height="2" fill="#fff"/><rect x="15" y="188" width="1" height="3" fill="#fff"/><rect x="11" y="188" width="1" height="3" fill="#fff"/><rect x="18" y="194" width="2" height="1" fill="#fff"/><polygon points="20 192 18 192 18 191 17 191 17 194 18 194 18 193 21 193 21 192 21 191 20 191 20 192" fill="#fff"/><rect x="18" y="190" width="2" height="1" fill="#fff"/><rect x="30" y="193" width="1" height="1" fill="#fff"/><polygon points="23 190 22 190 22 195 23 195 23 192 24 192 24 191 23 191 23 190" fill="#fff"/><rect x="28" y="192" width="2" height="1" fill="#fff"/><rect x="27" y="191" width="1" height="1" fill="#fff"/><rect x="36" y="190" width="2" height="1" fill="#fff"/><rect x="33" y="188" width="1" height="1" fill="#fff"/><polygon points="32 190 32 191 33 191 33 195 34 195 34 190 33 190 32 190" fill="#fff"/><rect x="13" y="193" width="1" height="2" fill="#fff"/><rect x="27" y="194" width="3" height="1" fill="#fff"/><rect x="28" y="190" width="3" height="1" fill="#fff"/><rect x="24" y="190" width="2" height="1" fill="#fff"/><rect x="35" y="191" width="1" height="3" fill="#fff"/><rect x="36" y="194" width="2" height="1" fill="#fff"/><rect x="38" y="191" width="1" height="3" fill="#fff"/><polygon points="40 190 40 191 40 195 41 195 41 191 43 191 43 190 40 190" fill="#fff"/><rect x="43" y="191" width="1" height="4" fill="#fff"/><polygon points="50 189 49 189 49 190 50 190 50 195 51 195 51 188 50 188 50 189" fill="#fff"/><polygon points="64 191 66 191 66 194 64 194 64 195 66 195 66 196 67 196 67 191 67 190 64 190 64 191" fill="#fff"/><polygon points="59 189 58 189 58 190 59 190 59 195 60 195 60 188 59 188 59 189" fill="#fff"/><rect x="55" y="194" width="1" height="1" fill="#fff"/><rect x="63" y="191" width="1" height="3" fill="#fff"/><rect x="64" y="196" width="2" height="1" fill="#fff"/><rect x="72" y="193" width="1" height="1" fill="#fff"/><rect x="77" y="188" width="1" height="1" fill="#fff"/><rect x="72" y="188" width="1" height="1" fill="#fff"/><rect x="71" y="189" width="1" height="4" fill="#fff"/><rect x="74" y="189" width="2" height="1" fill="#fff"/><rect x="73" y="187" width="4" height="1" fill="#fff"/><rect x="77" y="193" width="1" height="1" fill="#fff"/><rect x="74" y="192" width="2" height="1" fill="#fff"/><rect x="73" y="190" width="1" height="2" fill="#fff"/><rect x="73" y="194" width="4" height="1" fill="#fff"/><rect x="78" y="189" width="1" height="4" fill="#fff"/><polygon points="82 189 81 189 81 190 82 190 82 195 83 195 83 188 82 188 82 189" fill="#fff"/><rect x="87" y="188" width="3" height="1" fill="#fff"/><rect x="92" y="192" width="1" height="2" fill="#fff"/><rect x="92" y="189" width="1" height="2" fill="#fff"/><rect x="89" y="193" width="1" height="1" fill="#fff"/><rect x="96" y="189" width="1" height="2" fill="#fff"/><rect x="86" y="189" width="1" height="2" fill="#fff"/><rect x="93" y="188" width="3" height="1" fill="#fff"/><polygon points="102 188 101 188 101 189 100 189 100 190 101 190 101 192 99 192 99 191 98 191 98 192 98 193 101 193 101 195 102 195 102 193 103 193 103 192 102 192 102 188" fill="#fff"/><rect x="99" y="190" width="1" height="1" fill="#fff"/><rect x="87" y="194" width="2" height="1" fill="#fff"/><rect x="96" y="192" width="1" height="2" fill="#fff"/><polygon points="90 191 87 191 87 192 90 192 90 193 91 193 91 189 90 189 90 191" fill="#fff"/><rect x="93" y="194" width="3" height="1" fill="#fff"/><rect x="93" y="191" width="3" height="1" fill="#fff"/><polygon points="112 190 111 190 111 192 110 192 110 190 109 190 109 192 108 192 108 193 108 195 109 195 109 193 112 193 112 195 113 195 113 193 113 192 112 192 112 190" fill="#fff"/><rect x="110" y="188" width="1" height="2" fill="#fff"/><polygon points="124 188 124 189 125 189 125 195 126 195 126 188 125 188 124 188" fill="#fff"/><polygon points="115 191 117 191 117 190 114 190 114 191 114 197 115 197 115 195 117 195 117 194 115 194 115 191" fill="#fff"/><rect x="117" y="191" width="1" height="3" fill="#fff"/><polygon points="130 192 128 192 128 191 127 191 127 194 128 194 128 193 131 193 131 192 131 191 130 191 130 192" fill="#fff"/><rect x="128" y="190" width="2" height="1" fill="#fff"/><rect x="139" y="193" width="1" height="1" fill="#fff"/><rect x="135" y="189" width="1" height="5" fill="#fff"/><rect x="136" y="194" width="3" height="1" fill="#fff"/><rect x="139" y="189" width="1" height="1" fill="#fff"/><rect x="136" y="188" width="3" height="1" fill="#fff"/><rect x="128" y="194" width="2" height="1" fill="#fff"/><polygon points="120 191 122 191 122 190 119 190 119 191 119 197 120 197 120 195 122 195 122 194 120 194 120 191" fill="#fff"/><rect x="122" y="191" width="1" height="3" fill="#fff"/><polygon points="155 191 157 191 157 190 154 190 154 191 154 197 155 197 155 195 157 195 157 194 155 194 155 191" fill="#fff"/><rect x="157" y="191" width="1" height="3" fill="#fff"/><polygon points="171 192 169 192 169 191 168 191 168 194 169 194 169 193 172 193 172 192 172 191 171 191 171 192" fill="#fff"/><rect x="169" y="190" width="2" height="1" fill="#fff"/><rect x="169" y="194" width="2" height="1" fill="#fff"/><polygon points="174 190 173 190 173 195 174 195 174 192 175 192 175 191 174 191 174 190" fill="#fff"/><rect x="175" y="190" width="2" height="1" fill="#fff"/><rect x="142" y="190" width="2" height="1" fill="#fff"/><rect x="141" y="191" width="1" height="3" fill="#fff"/><rect x="142" y="194" width="2" height="1" fill="#fff"/><rect x="144" y="191" width="1" height="3" fill="#fff"/><rect x="150" y="190" width="2" height="1" fill="#fff"/><polygon points="147 190 146 190 146 195 147 195 147 191 149 191 149 190 147 190" fill="#fff"/><rect x="149" y="191" width="1" height="4" fill="#fff"/><polygon points="162 194 160 194 160 195 163 195 163 194 163 190 162 190 162 194" fill="#fff"/><rect x="159" y="190" width="1" height="4" fill="#fff"/><rect x="152" y="191" width="1" height="4" fill="#fff"/><polygon points="166 188 165 188 165 190 164 190 164 191 165 191 165 194 166 194 166 191 167 191 167 190 166 190 166 188" fill="#fff"/><rect x="166" y="194" width="1" height="1" fill="#fff"/><polygon points="253 192 251 192 251 191 250 191 250 194 251 194 251 193 254 193 254 192 254 191 253 191 253 192" fill="#fff"/><rect x="251" y="190" width="2" height="1" fill="#fff"/><rect x="251" y="194" width="2" height="1" fill="#fff"/><polygon points="236 190 235 190 235 195 236 195 236 192 237 192 237 191 236 191 236 190" fill="#fff"/><rect x="237" y="190" width="2" height="1" fill="#fff"/><polygon points="313 192 311 192 311 191 310 191 310 194 311 194 311 193 314 193 314 192 314 191 313 191 313 192" fill="#fff"/><rect x="311" y="190" width="2" height="1" fill="#fff"/><rect x="311" y="194" width="2" height="1" fill="#fff"/><polygon points="270 190 269 190 269 195 270 195 270 192 271 192 271 191 270 191 270 190" fill="#fff"/><rect x="271" y="190" width="2" height="1" fill="#fff"/><polygon points="324 192 322 192 322 191 321 191 321 194 322 194 322 193 325 193 325 192 325 191 324 191 324 192" fill="#fff"/><rect x="322" y="190" width="2" height="1" fill="#fff"/><rect x="322" y="194" width="2" height="1" fill="#fff"/><polygon points="341 191 343 191 343 190 340 190 340 191 340 197 341 197 341 195 343 195 343 194 341 194 341 191" fill="#fff"/><rect x="343" y="191" width="1" height="3" fill="#fff"/><polygon points="243 194 241 194 241 195 244 195 244 194 244 190 243 190 243 194" fill="#fff"/><rect x="240" y="190" width="1" height="4" fill="#fff"/><polygon points="308 188 307 188 307 190 306 190 306 191 307 191 307 194 308 194 308 191 309 191 309 190 308 190 308 188" fill="#fff"/><rect x="308" y="194" width="1" height="1" fill="#fff"/><polygon points="346 191 348 191 348 190 345 190 345 191 345 197 346 197 346 195 348 195 348 194 346 194 346 191" fill="#fff"/><rect x="348" y="191" width="1" height="3" fill="#fff"/><rect x="333" y="193" width="1" height="1" fill="#fff"/><rect x="329" y="189" width="1" height="5" fill="#fff"/><rect x="330" y="194" width="3" height="1" fill="#fff"/><rect x="333" y="189" width="1" height="1" fill="#fff"/><rect x="330" y="188" width="3" height="1" fill="#fff"/><rect x="353" y="193" width="1" height="1" fill="#fff"/><rect x="351" y="192" width="2" height="1" fill="#fff"/><rect x="350" y="191" width="1" height="1" fill="#fff"/><rect x="350" y="194" width="3" height="1" fill="#fff"/><rect x="351" y="190" width="3" height="1" fill="#fff"/><polygon points="230 189 233 189 233 188 230 188 229 188 229 195 230 195 233 195 233 194 230 194 230 192 233 192 233 191 230 191 230 189" fill="#fff"/><rect x="233" y="192" width="1" height="2" fill="#fff"/><rect x="233" y="189" width="1" height="2" fill="#fff"/><rect x="246" y="194" width="2" height="1" fill="#fff"/><rect x="245" y="191" width="1" height="3" fill="#fff"/><rect x="248" y="191" width="1" height="1" fill="#fff"/><rect x="248" y="193" width="1" height="1" fill="#fff"/><rect x="246" y="190" width="2" height="1" fill="#fff"/><rect x="265" y="190" width="2" height="1" fill="#fff"/><rect x="264" y="191" width="1" height="3" fill="#fff"/><rect x="265" y="194" width="2" height="1" fill="#fff"/><rect x="267" y="191" width="1" height="3" fill="#fff"/><polygon points="262 191 259 191 259 188 258 188 258 195 259 195 259 192 262 192 262 195 263 195 263 188 262 188 262 191" fill="#fff"/><rect x="277" y="191" width="1" height="4" fill="#fff"/><polygon points="275 190 274 190 274 195 275 195 275 191 277 191 277 190 275 190" fill="#fff"/><rect x="282" y="193" width="1" height="1" fill="#fff"/><polygon points="285 192 283 192 283 193 285 193 285 194 283 194 283 195 285 195 286 195 286 191 285 191 285 192" fill="#fff"/><rect x="283" y="190" width="2" height="1" fill="#fff"/><polygon points="288 190 287 190 287 195 288 195 288 191 290 191 290 190 288 190" fill="#fff"/><rect x="290" y="191" width="1" height="4" fill="#fff"/><rect x="292" y="191" width="1" height="3" fill="#fff"/><polygon points="295 190 293 190 293 191 295 191 295 194 293 194 293 195 295 195 296 195 296 188 295 188 295 190" fill="#fff"/><rect x="301" y="194" width="3" height="1" fill="#fff"/><rect x="304" y="192" width="1" height="2" fill="#fff"/><rect x="300" y="193" width="1" height="1" fill="#fff"/><rect x="304" y="189" width="1" height="1" fill="#fff"/><rect x="300" y="189" width="1" height="2" fill="#fff"/><rect x="301" y="188" width="3" height="1" fill="#fff"/><rect x="301" y="191" width="3" height="1" fill="#fff"/><rect x="316" y="191" width="1" height="2" fill="#fff"/><rect x="315" y="190" width="1" height="1" fill="#fff"/><rect x="317" y="193" width="1" height="2" fill="#fff"/><rect x="318" y="191" width="1" height="2" fill="#fff"/><rect x="319" y="190" width="1" height="1" fill="#fff"/><rect x="335" y="193" width="1" height="1" fill="#fff"/><rect x="336" y="190" width="2" height="1" fill="#fff"/><polygon points="338 192 336 192 336 193 338 193 338 194 336 194 336 195 338 195 339 195 339 191 338 191 338 192" fill="#fff"/></svg>