<?xml version="1.0" encoding="UTF-8"?><svg id="b" xmlns="http://www.w3.org/2000/svg" viewBox="0 0 32 25"><polygon points="29 23 21 23 21 22 1 22 1 24 21 24 31 24 31 23 31 22 29 22 29 23" fill="#fff"/><rect x="20" y="16" width="11" height="2" fill="#fff"/><rect x="18" y="19" width="13" height="2" fill="#fff"/><rect x="4" y="20" width="4" height="1" fill="#fff"/><polygon points="17 20 17 19 15 19 15 20 10 20 10 21 17 21 17 20" fill="#fff"/><polygon points="16 18 18 18 18 17 19 17 19 15 18 15 18 14 16 14 16 15 15 15 15 17 16 17 16 18" fill="#fff"/><polygon points="19 12 19 11 20 11 20 10 21 10 21 9 22 9 22 8 23 8 23 7 24 7 24 6 25 6 25 5 26 5 26 4 27 4 27 3 28 3 28 2 28 1 27 1 27 2 26 2 26 3 25 3 25 4 24 4 24 5 23 5 23 6 22 6 22 7 21 7 21 8 20 8 20 9 19 9 19 10 18 10 18 11 17 11 17 12 16 12 16 13 18 13 18 12 19 12" fill="#fff"/><polygon points="20 13 21 13 21 12 22 12 22 11 23 11 23 10 24 10 24 9 25 9 25 8 26 8 26 7 27 7 27 6 28 6 28 5 29 5 29 4 30 4 30 3 28 3 28 4 27 4 27 5 26 5 26 6 25 6 25 7 24 7 24 8 23 8 23 9 22 9 22 10 21 10 21 11 20 11 20 12 19 12 19 13 18 13 18 14 20 14 20 13" fill="#fff"/><rect x="27" width="1" height="1"/><rect x="22" y="8" width="1" height="1"/><rect x="23" y="7" width="1" height="1"/><rect x="24" y="6" width="1" height="1"/><rect x="25" y="5" width="1" height="1"/><rect x="26" y="4" width="1" height="1"/><rect x="27" y="3" width="1" height="1"/><polygon points="28 3 29 3 30 3 30 2 29 2 29 1 28 1 28 2 28 3"/><rect x="26" y="1" width="1" height="1"/><rect x="29" y="4" width="1" height="1"/><rect x="23" y="10" width="1" height="1"/><rect x="24" y="9" width="1" height="1"/><rect x="22" y="11" width="1" height="1"/><rect x="26" y="7" width="1" height="1"/><rect x="27" y="6" width="1" height="1"/><rect x="28" y="5" width="1" height="1"/><rect x="30" y="3" width="1" height="1"/><rect x="10" y="19" width="5" height="1"/><rect x="18" y="12" width="1" height="1"/><rect x="19" y="8" width="1" height="1"/><rect x="20" y="7" width="1" height="1"/><rect x="21" y="6" width="1" height="1"/><rect x="22" y="5" width="1" height="1"/><rect x="23" y="4" width="1" height="1"/><rect x="24" y="3" width="1" height="1"/><rect x="25" y="2" width="1" height="1"/><rect x="25" y="8" width="1" height="1"/><rect x="19" y="11" width="1" height="1"/><rect x="20" y="10" width="1" height="1"/><rect x="21" y="9" width="1" height="1"/><rect x="16" y="11" width="1" height="1"/><rect x="17" y="10" width="1" height="1"/><rect x="18" y="9" width="1" height="1"/><rect x="21" y="12" width="1" height="1"/><path d="M31,16v2h-11v-2h11v-1h-11v-1h-2v1h1v2h-1v1h-2v-1h-1v-2h-1v3h1v1h2v2h-7v-1h-2v1h-4v-1h-1v1H1v1h20v1h8v-1h2v2H1v-2H0v3h32v-9h-1ZM18,21v-2h13v2h-13Z"/><polygon points="16 14 18 14 18 13 16 13 16 12 15 12 15 15 16 15 16 14"/><rect x="20" y="13" width="1" height="1"/><rect x="4" y="19" width="4" height="1"/></svg>