<?xml version="1.0" encoding="UTF-8"?><svg id="b" xmlns="http://www.w3.org/2000/svg" viewBox="0 0 32 32"><polygon points="29 30 21 30 21 29 1 29 1 31 21 31 31 31 31 30 31 29 29 29 29 30" fill="#fff"/><rect x="20" y="23" width="11" height="2" fill="#fff"/><rect x="18" y="26" width="13" height="2" fill="#fff"/><rect x="4" y="27" width="4" height="1" fill="#fff"/><polygon points="17 27 17 26 15 26 15 27 10 27 10 28 17 28 17 27" fill="#fff"/><polygon points="16 25 18 25 18 24 19 24 19 22 18 22 18 21 16 21 16 22 15 22 15 24 16 24 16 25" fill="#fff"/><polygon points="19 19 19 18 20 18 20 17 21 17 21 16 22 16 22 15 23 15 23 14 24 14 24 13 25 13 25 12 26 12 26 11 27 11 27 10 28 10 28 9 28 8 27 8 27 9 26 9 26 10 25 10 25 11 24 11 24 12 23 12 23 13 22 13 22 14 21 14 21 15 20 15 20 16 19 16 19 17 18 17 18 18 17 18 17 19 16 19 16 20 18 20 18 19 19 19" fill="#fff"/><polygon points="20 20 21 20 21 19 22 19 22 18 23 18 23 17 24 17 24 16 25 16 25 15 26 15 26 14 27 14 27 13 28 13 28 12 29 12 29 11 30 11 30 10 28 10 28 11 27 11 27 12 26 12 26 13 25 13 25 14 24 14 24 15 23 15 23 16 22 16 22 17 21 17 21 18 20 18 20 19 19 19 19 20 18 20 18 21 20 21 20 20" fill="#fff"/><rect x="27" y="7" width="1" height="1"/><rect x="22" y="15" width="1" height="1"/><rect x="23" y="14" width="1" height="1"/><rect x="24" y="13" width="1" height="1"/><rect x="25" y="12" width="1" height="1"/><rect x="26" y="11" width="1" height="1"/><rect x="27" y="10" width="1" height="1"/><polygon points="28 10 29 10 30 10 30 9 29 9 29 8 28 8 28 9 28 10"/><rect x="26" y="8" width="1" height="1"/><rect x="29" y="11" width="1" height="1"/><rect x="23" y="17" width="1" height="1"/><rect x="24" y="16" width="1" height="1"/><rect x="22" y="18" width="1" height="1"/><rect x="26" y="14" width="1" height="1"/><rect x="27" y="13" width="1" height="1"/><rect x="28" y="12" width="1" height="1"/><rect x="30" y="10" width="1" height="1"/><rect x="10" y="26" width="5" height="1"/><rect x="18" y="19" width="1" height="1"/><rect x="19" y="15" width="1" height="1"/><rect x="20" y="14" width="1" height="1"/><rect x="21" y="13" width="1" height="1"/><rect x="22" y="12" width="1" height="1"/><rect x="23" y="11" width="1" height="1"/><rect x="24" y="10" width="1" height="1"/><rect x="25" y="9" width="1" height="1"/><rect x="25" y="15" width="1" height="1"/><rect x="19" y="18" width="1" height="1"/><rect x="20" y="17" width="1" height="1"/><rect x="21" y="16" width="1" height="1"/><rect x="16" y="18" width="1" height="1"/><rect x="17" y="17" width="1" height="1"/><rect x="18" y="16" width="1" height="1"/><rect x="21" y="19" width="1" height="1"/><path d="M31,23v2h-11v-2h11v-1h-11v-1h-2v1h1v2h-1v1h-2v-1h-1v-2h-1v3h1v1h2v2h-7v-1h-2v1h-4v-1h-1v1H1v1h20v1h8v-1h2v2H1v-2H0v3h32v-9h-1ZM18,28v-2h13v2h-13Z"/><polygon points="16 21 18 21 18 20 16 20 16 19 15 19 15 22 16 22 16 21"/><rect x="20" y="20" width="1" height="1"/><rect x="4" y="26" width="4" height="1"/></svg>