<?xml version="1.0" encoding="UTF-8"?><svg id="b" xmlns="http://www.w3.org/2000/svg" viewBox="0 0 26 20"><rect x="20" width="1" height="1"/><rect x="12" y="8" width="1" height="1"/><rect x="13" y="7" width="1" height="1"/><rect x="14" y="6" width="1" height="1"/><rect x="15" y="5" width="1" height="1"/><rect x="16" y="4" width="1" height="1"/><rect x="17" y="3" width="1" height="1"/><rect x="18" y="2" width="1" height="1"/><rect x="19" y="1" width="1" height="1"/><rect x="22" y="2" width="1" height="1"/><rect x="16" y="8" width="1" height="1"/><rect x="17" y="7" width="1" height="1"/><rect x="18" y="6" width="1" height="1"/><rect x="19" y="5" width="1" height="1"/><rect x="20" y="4" width="1" height="1"/><rect x="21" y="3" width="1" height="1"/><rect x="10" y="11" width="1" height="2"/><polygon points="14 11 14 12 14 13 15 13 15 12 25 12 25 11 15 11 15 10 12 10 12 9 11 9 11 11 12 11 14 11"/><rect x="15" y="9" width="1" height="1"/><rect x="21" y="1" width="1" height="1"/><rect x="3" y="14" width="3" height="1"/><path d="M25,12v2h-11v-1h-3v1h-3v1h6v1h-6v-1h-2v1h-3v-1h-1v1h-1v1h16v1h7v-1h1v2H1v-2H0v3h26v-8h-1ZM25,16h-10v-1h10v1Z"/><rect x="3" y="15" width="3" height="1" fill="#fff"/><rect x="15" y="15" width="10" height="1" fill="#fff"/><polygon points="24 18 17 18 17 17 1 17 1 19 17 19 24 19 25 19 25 17 24 17 24 18" fill="#fff"/><rect x="8" y="15" width="6" height="1" fill="#fff"/><rect x="11" y="11" width="3" height="2" fill="#fff"/><polygon points="15 9 16 9 16 8 17 8 17 7 18 7 18 6 19 6 19 5 20 5 20 4 21 4 21 3 22 3 22 2 21 2 21 1 20 1 20 2 19 2 19 3 18 3 18 4 17 4 17 5 16 5 16 6 15 6 15 7 14 7 14 8 13 8 13 9 12 9 12 10 15 10 15 9" fill="#fff"/><polygon points="15 12 15 13 14 13 14 14 15 14 25 14 25 12 15 12" fill="#fff"/></svg>