<?xml version="1.0" encoding="UTF-8"?>
<svg id="Layer_1" xmlns="http://www.w3.org/2000/svg" version="1.1" viewBox="0 0 32 32">
  <!-- Generator: Adobe Illustrator 29.4.0, SVG Export Plug-In . SVG Version: 2.1.0 Build 152)  -->
  <defs>
    <style>
      .st0 {
        fill: #fff;
      }
    </style>
  </defs>
  <g id="Layer_11" data-name="Layer_1">
    <rect x="31" y="2" width="1" height="29"/>
    <rect x="1" width="30" height="1"/>
    <rect width="1" height="31"/>
    <rect x="30" y="1" width="1" height="30"/>
    <rect x="1" y="30" width="29" height="1"/>
    <rect x="2" y="31" width="30" height="1"/>
  </g>
  <rect class="st0" x="1" y="1" width="29" height="29"/>
  <path d="M5,10.9c.4-6,5.3-6.6,10.3-6.7,5,0,11.3-.2,11.6,6.2.3,6.4,0,4.4,0,6.3-.4,5-4.8,5.6-8.9,5.7s-4.1,0-6.2-.5c.1,3.8,4.2,3.3,6.8,2.9s1-.3,1.4-.3.3,0,.3.1v1.7c-1,.7-2.3,1.1-3.5,1.2s-1,.1-1.5.2h-.8l-2.1-.3c-2.8-.5-5.6-2.3-6.4-5.1s-.8-5.4-.8-7.8,0-.3,0-.4v-3.2h-.2ZM23,18.5v-7.1c0-.2-.3-1-.3-1.2-1-2.5-4.5-2.8-6.1-.6s-.5,1-.7.9c-.6-1-1.1-1.9-2.3-2.2-1.7-.5-3.6.2-4.3,1.8s-.4,1.1-.4,1.3v7.1h2.4v-6.6s.2-.5.2-.6c.5-1,2-1,2.7-.2s.5.9.5,1.2v3.9h2.4v-3.9c0-.2.3-1,.5-1.2.7-.8,2.2-.7,2.7.2s.2.5.2.6v6.6h2.5Z"/>
</svg>