<?xml version="1.0" encoding="UTF-8"?>
<svg id="Layer_5" xmlns="http://www.w3.org/2000/svg" version="1.1" viewBox="0 0 32 32">
  <!-- Generator: Adobe Illustrator 29.4.0, SVG Export Plug-In . SVG Version: 2.1.0 Build 152)  -->
  <defs>
    <style>
      .st0 {
        fill: #fff;
      }
    </style>
  </defs>
  <path d="M31,11v-2h-1v-3h-1v-1h-1v-1h-1v-1h-1v-1h-3v-1h-3V0h-9v1h-3v1h-2v1h-1v1h-1v1h-1v1h-1v3h-1v2H0v10h1v3h1v2h1v1h1v1h1v1h1v1h2v1h3v1h9v-1h3v-1h3v-1h1v-1h1v-1h1v-1h1v-2h1v-3h1v-10h-1ZM29,20v2h-1v2h-1v2h-1v1h-2v1h-2v1h-2v1h-8v-1h-2v-1h-2v-1h-2v-1h-1v-2h-1v-2h-1v-2h-1v-8h1v-2h1v-2h1v-2h1v-1h2v-1h2v-1h2v-1h8v1h2v1h2v1h2v1h1v2h1v2h1v2h1v8h-1Z"/>
  <polygon class="st0" points="29 12 29 10 28 10 28 8 27 8 27 6 26 6 26 5 24 5 24 4 22 4 22 3 20 3 20 2 12 2 12 3 10 3 10 4 8 4 8 5 6 5 6 6 5 6 5 8 4 8 4 10 3 10 3 12 2 12 2 20 3 20 3 22 4 22 4 24 5 24 5 26 6 26 6 27 8 27 8 28 10 28 10 29 12 29 12 30 20 30 20 29 22 29 22 28 24 28 24 27 26 27 26 26 27 26 27 24 28 24 28 22 29 22 29 20 30 20 30 12 29 12"/>
  <g>
    <rect x="15.5" y="3" width="1" height="3"/>
    <rect x="15.5" y="26" width="1" height="3"/>
    <rect x="3" y="15.5" width="3" height="1"/>
    <rect x="26" y="15.5" width="3" height="1"/>
    <rect x="9.5" y="5.5" width="1" height="1"/>
    <rect x="21.5" y="5.5" width="1" height="1"/>
    <rect x="5.3" y="9.5" width="1" height="1"/>
    <rect x="5.1" y="21.8" width="1" height="1"/>
    <rect x="9.4" y="25.7" width="1" height="1"/>
    <rect x="25.7" y="21.8" width="1" height="1"/>
    <rect x="21.5" y="25.7" width="1" height="1"/>
  </g>
  <polygon points="23.5 7.5 23.5 8.5 22.5 8.5 22.5 9.5 21.5 9.5 21.5 10.5 20.5 10.5 20.5 11.5 19.5 11.5 19.5 12.5 18.5 12.5 18.5 13.5 17.5 13.5 17.5 14.5 16.5 14.5 16.5 15.5 15.5 15.5 15.5 14.5 14.5 14.5 14.5 13.5 13.5 13.5 13.5 12.5 12.5 12.5 12.5 11.5 11.5 11.5 11.5 10.5 9.5 10.5 9.5 11.5 9.5 12.5 10.5 12.5 10.5 13.5 11.5 13.5 11.5 14.5 12.5 14.5 12.5 15.5 13.5 15.5 13.5 16.5 14.5 16.5 14.5 17.5 15.5 17.5 15.5 18.5 16.5 18.5 16.5 17.5 17.5 17.5 17.5 15.5 18.5 15.5 18.5 14.5 19.5 14.5 19.5 13.5 20.5 13.5 20.5 12.5 21.5 12.5 21.5 11.5 22.5 11.5 22.5 10.5 23.5 10.5 23.5 9.5 24.5 9.5 24.5 8.5 25.5 8.5 25.5 7.5 23.5 7.5"/>
</svg>