<?xml version="1.0" encoding="UTF-8"?>
<svg id="Layer_1" xmlns="http://www.w3.org/2000/svg" width="22" height="20" version="1.1" viewBox="0 0 22 20">
  <!-- Generator: Adobe Illustrator 29.4.0, SVG Export Plug-In . SVG Version: 2.1.0 Build 152)  -->
  <defs>
    <style>
      .st0 {
        fill: #fff;
      }
    </style>
  </defs>
  <rect class="st0" width="22" height="20"/>
  <g>
    <rect x="8" y="2" width="3" height="1"/>
    <rect x="11" y="15" width="1" height="1"/>
    <rect x="9" y="5" width="1" height="1"/>
    <rect x="14" y="12" width="1" height="1"/>
    <rect x="13" y="13" width="1" height="1"/>
    <rect x="12" y="14" width="1" height="1"/>
    <rect x="10" y="16" width="1" height="1"/>
    <polygon points="4.9 11 4.9 10 3.9 10 3.9 11 3 11 3 13 4 13 4 11 4.9 11"/>
    <rect x="6" y="8" width="1" height="1"/>
    <rect x="5" y="9" width="1" height="1"/>
    <rect x="10" y="9" width="1" height="1"/>
    <rect x="11" y="10" width="1" height="1"/>
    <rect x="6" y="15" width="1" height="1"/>
    <rect x="5" y="14" width="1" height="1"/>
    <rect x="4" y="13" width="1" height="1"/>
    <rect x="8" y="17" width="2" height="1"/>
    <rect x="12" y="9" width="1" height="1"/>
    <rect x="7" y="16" width="1" height="1"/>
    <polygon points="8 3 7 3 7 8 8 8 8 7 9 7 9 6 8 6 8 3"/>
    <polygon points="12 5 12 3 11 3 11 4 10 4 10 5 11 5 11 9 12 9 12 6 13 6 13 5 12 5"/>
    <polygon points="18 9 18 8 17 8 17 7 16 7 15 7 15 6 14 6 13 6 13 7 14 7 14 8 15 8 15 9 16 9 16 11 15 11 15 12 16 12 16 18 17 18 17 17 18 17 18 16 19 16 19 9 18 9"/>
  </g>
</svg>