<?xml version="1.0" encoding="UTF-8"?>
<svg id="Layer_1" xmlns="http://www.w3.org/2000/svg" width="22" height="20" version="1.1" viewBox="0 0 22 20">
  <!-- Generator: Adobe Illustrator 29.4.0, SVG Export Plug-In . SVG Version: 2.1.0 Build 152)  -->
  <defs>
    <style>
      .st0 {
        fill: #fff;
      }
    </style>
  </defs>
  <rect class="st0" width="22" height="20"/>
  <g>
    <path d="M15.5,9h-2V2h-3v7h-3v7h1v-4h7v4h-1v1h-1v-1h-1v1h-1v-1h-1v1h-1v-1h-1v1h-1v-1h-1v1h-1v1h10v-1h1v-8h-1ZM11.5,3h1v1h-1v-1ZM15.5,11h-7v-1h7v1Z"/>
    <rect x="11.5" y="15" width="1" height="1"/>
    <rect x="13.5" y="15" width="1" height="1"/>
    <rect x="9.5" y="15" width="1" height="1"/>
  </g>
</svg>