<?xml version="1.0" encoding="UTF-8"?>
<svg id="Layer_1" xmlns="http://www.w3.org/2000/svg" width="4" height="9" version="1.1" viewBox="0 0 4 9">
  <!-- Generator: Adobe Illustrator 29.4.0, SVG Export Plug-In . SVG Version: 2.1.0 Build 152)  -->
  <defs>
    <style>
      .st0 {
        fill: #fff;
      }
    </style>
  </defs>
  <rect x="0" y="1" width="1" height="1"/>
  <rect x="0" y="7" width="1" height="1"/>
  <rect x="0" y="5" width="1" height="1"/>
  <rect x="0" y="3" width="1" height="1"/>
  <rect x="2" y="1" width="1" height="1"/>
  <rect x="2" y="7" width="1" height="1"/>
  <rect x="2" y="5" width="1" height="1"/>
  <rect x="2" y="3" width="1" height="1"/>
  <path class="st0" d="M0,0v1h1v1H0v1h1v1H0v1h1v1H0v1h1v1H0v1h4V0H0ZM3,8h-1v-1h1v1ZM3,6h-1v-1h1v1ZM3,4h-1v-1h1v1ZM3,2h-1v-1h1v1Z"/>
</svg>