<?xml version="1.0" encoding="UTF-8"?>
<svg id="Layer_5" xmlns="http://www.w3.org/2000/svg" version="1.1" viewBox="0 0 32 32">
  <!-- Generator: Adobe Illustrator 29.4.0, SVG Export Plug-In . SVG Version: 2.1.0 Build 152)  -->
  <defs>
    <style>
      .st0 {
        fill: #fff;
      }
    </style>
  </defs>
  <polygon class="st0" points="25 7 25 1 8 1 8 7 8 7 8 31 31 31 31 7 25 7"/>
  <polygon class="st0" points="30 5 29 5 29 4 26 4 26 5 26 5 26 6 30 6 30 5"/>
  <polygon class="st0" points="28 3 27 3 27 2 26 2 26 3 26 4 28 4 28 3"/>
  <path d="M31,6.1h0c0-.1,0-.1,0-.1v-1h-1v1h-4.1V2h1v-1h-1V0H7v32h25v-.9h0V6.1h-1ZM8,31V1h17v6h6v24H8Z"/>
  <rect x="29.1" y="4" width="1" height="1"/>
  <rect x="28" y="3" width="1" height="1"/>
  <rect x="27" y="2" width="1" height="1"/>
  <rect y="4" width="15" height="8"/>
  <g>
    <rect x="12" y="15" width="1" height="1"/>
    <rect x="14" y="15" width="1" height="1"/>
    <rect x="16" y="15" width="1" height="1"/>
    <rect x="18" y="15" width="1" height="1"/>
    <rect x="20" y="15" width="1" height="1"/>
    <rect x="22" y="15" width="1" height="1"/>
    <rect x="24" y="15" width="1" height="1"/>
    <rect x="26" y="15" width="1" height="1"/>
  </g>
  <g>
    <rect x="12" y="18" width="1" height="1"/>
    <rect x="14" y="18" width="1" height="1"/>
    <rect x="16" y="18" width="1" height="1"/>
    <rect x="18" y="18" width="1" height="1"/>
    <rect x="20" y="18" width="1" height="1"/>
    <rect x="22" y="18" width="1" height="1"/>
    <rect x="24" y="18" width="1" height="1"/>
    <rect x="26" y="18" width="1" height="1"/>
  </g>
  <g>
    <rect x="12" y="21.1" width="1" height="1"/>
    <rect x="14" y="21.1" width="1" height="1"/>
    <rect x="16" y="21.1" width="1" height="1"/>
    <rect x="18" y="21.1" width="1" height="1"/>
    <rect x="20" y="21.1" width="1" height="1"/>
    <rect x="22" y="21.1" width="1" height="1"/>
    <rect x="24" y="21.1" width="1" height="1"/>
    <rect x="26" y="21.1" width="1" height="1"/>
  </g>
  <g>
    <rect x="12" y="24.1" width="1" height="1"/>
    <rect x="14" y="24.1" width="1" height="1"/>
    <rect x="16" y="24.1" width="1" height="1"/>
    <rect x="18" y="24.1" width="1" height="1"/>
    <rect x="20" y="24.1" width="1" height="1"/>
    <rect x="22" y="24.1" width="1" height="1"/>
    <rect x="24" y="24.1" width="1" height="1"/>
    <rect x="26" y="24.1" width="1" height="1"/>
  </g>
  <g>
    <path class="st0" d="M5.6,6.1v1.6h-.5v.5h-1.6v2.2h-1.1v-4.9h2.7v.5h.5ZM4.5,7.7v-1.6h-1.1v1.6h1.1Z"/>
    <path class="st0" d="M9.7,6.1v3.8h-.5v.5h-2.7v-4.9h2.7v.5h.5ZM8.6,9.9v-3.8h-1.1v3.8h1.1Z"/>
    <path class="st0" d="M13.2,5.6v.5h-1.6v1.6h1.1v.5h-1.1v2.2h-1.1v-4.9h2.7Z"/>
  </g>
</svg>