<?xml version="1.0" encoding="UTF-8"?><svg id="a" xmlns="http://www.w3.org/2000/svg" width="64" height="64" viewBox="0 0 64 64"><polygon points="53 16 53 9 19 9 19 63 53 63 60 63 60 16 53 16" fill="#fff"/><polygon points="57 12 56 12 56 11 55 11 55 10 54 10 54 11 54 12 54 13 57 13 57 12" fill="#fff"/><polygon points="59 14 58 14 58 13 54 13 54 14 54 14 54 15 59 15 59 14" fill="#fff"/><rect x="19" y="63" width="41" height="1"/><rect x="18" y="8" width="1" height="56"/><rect x="19" y="8" width="35" height="1"/><rect x="60" y="15" width="1" height="49"/><rect x="59" y="14" width="1" height="1"/><rect x="58" y="13" width="1" height="1"/><rect x="57" y="12" width="1" height="1"/><rect x="56" y="11" width="1" height="1"/><rect x="55" y="10" width="1" height="1"/><rect x="54" y="9" width="1" height="1"/><rect x="53" y="9" width="1" height="6"/><rect x="53" y="15" width="7" height="1"/><rect x="53" y="28" width="1" height="1"/><rect x="55" y="28" width="1" height="1"/><rect x="53" y="30" width="1" height="1"/><rect x="55" y="30" width="1" height="1"/><rect x="53" y="34" width="1" height="1"/><rect x="55" y="34" width="1" height="1"/><rect x="53" y="36" width="1" height="1"/><rect x="55" y="36" width="1" height="1"/><rect x="53" y="40" width="1" height="1"/><rect x="55" y="40" width="1" height="1"/><rect x="53" y="42" width="1" height="1"/><rect x="55" y="42" width="1" height="1"/><rect x="53" y="44" width="1" height="1"/><rect x="55" y="44" width="1" height="1"/><polygon points="40 12 40 5 6 5 6 59 40 59 47 59 47 12 40 12" fill="#fff"/><polygon points="44 8 43 8 43 7 42 7 42 6 41 6 41 7 41 8 41 9 44 9 44 8" fill="#fff"/><polygon points="46 10 45 10 45 9 41 9 41 10 41 10 41 11 46 11 46 10" fill="#fff"/><rect x="6" y="59" width="41" height="1"/><rect x="5" y="4" width="1" height="56"/><rect x="6" y="4" width="35" height="1"/><rect x="47" y="11" width="1" height="49"/><rect x="46" y="10" width="1" height="1"/><rect x="45" y="9" width="1" height="1"/><rect x="44" y="8" width="1" height="1"/><rect x="43" y="7" width="1" height="1"/><rect x="42" y="6" width="1" height="1"/><rect x="41" y="5" width="1" height="1"/><rect x="40" y="5" width="1" height="6"/><rect x="40" y="11" width="7" height="1"/><polygon points="44 8 44 1 10 1 10 55 44 55 51 55 51 8 44 8" fill="#fff"/><polygon points="48 4 47 4 47 3 46 3 46 2 45 2 45 3 45 4 45 5 48 5 48 4" fill="#fff"/><polygon points="50 6 49 6 49 5 45 5 45 6 45 6 45 7 50 7 50 6" fill="#fff"/><rect x="10" y="55" width="41" height="1"/><rect x="9" width="1" height="56"/><rect x="10" width="35" height="1"/><rect x="51" y="7" width="1" height="49"/><rect x="50" y="6" width="1" height="1"/><rect x="49" y="5" width="1" height="1"/><rect x="48" y="4" width="1" height="1"/><rect x="47" y="3" width="1" height="1"/><rect x="46" y="2" width="1" height="1"/><rect x="45" y="1" width="1" height="1"/><rect x="44" y="1" width="1" height="6"/><rect x="44" y="7" width="7" height="1"/><rect x="2" y="6" width="18" height="10"/><path d="M8.2,8.7v2h-.7v.7h-2.1v2.7h-1.4v-6h3.5v.7h.7v-.1ZM6.8,10.7v-2h-1.4v2h1.4Z" fill="#fff"/><path d="M13.5,8.7v4.7h-.7v.7h-3.5v-6h3.5v.7h.7v-.1ZM12.1,13.3v-4.7h-1.4v4.7h1.4Z" fill="#fff"/><path d="M18,8v.7h-2.1v2h1.4v.7h-1.4v2.7h-1.4v-6h3.5v-.1Z" fill="#fff"/><rect x="23" y="7" width="1" height="1"/><rect x="25" y="7" width="1" height="1"/><rect x="27" y="7" width="1" height="1"/><rect x="29" y="7" width="1" height="1"/><rect x="31" y="7" width="1" height="1"/><rect x="33" y="7" width="1" height="1"/><rect x="35" y="7" width="1" height="1"/><rect x="37" y="7" width="1" height="1"/><rect x="23" y="9" width="1" height="1"/><rect x="25" y="9" width="1" height="1"/><rect x="27" y="9" width="1" height="1"/><rect x="29" y="9" width="1" height="1"/><rect x="31" y="9" width="1" height="1"/><rect x="33" y="9" width="1" height="1"/><rect x="35" y="9" width="1" height="1"/><rect x="37" y="9" width="1" height="1"/><rect x="14" y="47" width="1" height="1"/><rect x="16" y="47" width="1" height="1"/><rect x="18" y="47" width="1" height="1"/><rect x="20" y="47" width="1" height="1"/><rect x="22" y="47" width="1" height="1"/><rect x="24" y="47" width="1" height="1"/><rect x="26" y="47" width="1" height="1"/><rect x="23" y="13" width="1" height="1"/><rect x="25" y="13" width="1" height="1"/><rect x="27" y="13" width="1" height="1"/><rect x="29" y="13" width="1" height="1"/><rect x="31" y="13" width="1" height="1"/><rect x="33" y="13" width="1" height="1"/><rect x="35" y="13" width="1" height="1"/><rect x="37" y="13" width="1" height="1"/><rect x="23" y="15" width="1" height="1"/><rect x="25" y="15" width="1" height="1"/><rect x="27" y="15" width="1" height="1"/><rect x="29" y="15" width="1" height="1"/><rect x="31" y="15" width="1" height="1"/><rect x="33" y="15" width="1" height="1"/><rect x="35" y="15" width="1" height="1"/><rect x="37" y="15" width="1" height="1"/><rect x="14" y="20" width="1" height="1"/><rect x="16" y="20" width="1" height="1"/><rect x="18" y="20" width="1" height="1"/><rect x="20" y="20" width="1" height="1"/><rect x="22" y="20" width="1" height="1"/><rect x="14" y="22" width="1" height="1"/><rect x="16" y="22" width="1" height="1"/><rect x="18" y="22" width="1" height="1"/><rect x="20" y="22" width="1" height="1"/><rect x="22" y="22" width="1" height="1"/><rect x="26" y="20" width="1" height="1"/><rect x="28" y="20" width="1" height="1"/><rect x="30" y="20" width="1" height="1"/><rect x="32" y="20" width="1" height="1"/><rect x="34" y="20" width="1" height="1"/><rect x="26" y="22" width="1" height="1"/><rect x="28" y="22" width="1" height="1"/><rect x="30" y="22" width="1" height="1"/><rect x="32" y="22" width="1" height="1"/><rect x="34" y="22" width="1" height="1"/><rect x="38" y="20" width="1" height="1"/><rect x="40" y="20" width="1" height="1"/><rect x="42" y="20" width="1" height="1"/><rect x="44" y="20" width="1" height="1"/><rect x="46" y="20" width="1" height="1"/><rect x="38" y="22" width="1" height="1"/><rect x="40" y="22" width="1" height="1"/><rect x="42" y="22" width="1" height="1"/><rect x="44" y="22" width="1" height="1"/><rect x="46" y="22" width="1" height="1"/><rect x="14" y="26" width="1" height="1"/><rect x="16" y="26" width="1" height="1"/><rect x="18" y="26" width="1" height="1"/><rect x="20" y="26" width="1" height="1"/><rect x="22" y="26" width="1" height="1"/><rect x="14" y="28" width="1" height="1"/><rect x="16" y="28" width="1" height="1"/><rect x="18" y="28" width="1" height="1"/><rect x="20" y="28" width="1" height="1"/><rect x="22" y="28" width="1" height="1"/><rect x="26" y="26" width="1" height="1"/><rect x="28" y="26" width="1" height="1"/><rect x="30" y="26" width="1" height="1"/><rect x="32" y="26" width="1" height="1"/><rect x="34" y="26" width="1" height="1"/><rect x="26" y="28" width="1" height="1"/><rect x="28" y="28" width="1" height="1"/><rect x="30" y="28" width="1" height="1"/><rect x="32" y="28" width="1" height="1"/><rect x="34" y="28" width="1" height="1"/><rect x="38" y="26" width="1" height="1"/><rect x="40" y="26" width="1" height="1"/><rect x="42" y="26" width="1" height="1"/><rect x="44" y="26" width="1" height="1"/><rect x="46" y="26" width="1" height="1"/><rect x="38" y="28" width="1" height="1"/><rect x="40" y="28" width="1" height="1"/><rect x="42" y="28" width="1" height="1"/><rect x="44" y="28" width="1" height="1"/><rect x="46" y="28" width="1" height="1"/><rect x="14" y="32" width="1" height="1"/><rect x="16" y="32" width="1" height="1"/><rect x="18" y="32" width="1" height="1"/><rect x="20" y="32" width="1" height="1"/><rect x="22" y="32" width="1" height="1"/><rect x="24" y="32" width="1" height="1"/><rect x="26" y="32" width="1" height="1"/><rect x="28" y="32" width="1" height="1"/><rect x="30" y="32" width="1" height="1"/><rect x="32" y="32" width="1" height="1"/><rect x="34" y="32" width="1" height="1"/><rect x="36" y="32" width="1" height="1"/><rect x="38" y="32" width="1" height="1"/><rect x="40" y="32" width="1" height="1"/><rect x="42" y="32" width="1" height="1"/><rect x="44" y="32" width="1" height="1"/><rect x="46" y="32" width="1" height="1"/><rect x="14" y="34" width="1" height="1"/><rect x="16" y="34" width="1" height="1"/><rect x="18" y="34" width="1" height="1"/><rect x="20" y="34" width="1" height="1"/><rect x="22" y="34" width="1" height="1"/><rect x="24" y="34" width="1" height="1"/><rect x="26" y="34" width="1" height="1"/><rect x="28" y="34" width="1" height="1"/><rect x="30" y="34" width="1" height="1"/><rect x="32" y="34" width="1" height="1"/><rect x="34" y="34" width="1" height="1"/><rect x="36" y="34" width="1" height="1"/><rect x="38" y="34" width="1" height="1"/><rect x="40" y="34" width="1" height="1"/><rect x="42" y="34" width="1" height="1"/><rect x="44" y="34" width="1" height="1"/><rect x="46" y="34" width="1" height="1"/><rect x="14" y="36" width="1" height="1"/><rect x="16" y="36" width="1" height="1"/><rect x="18" y="36" width="1" height="1"/><rect x="20" y="36" width="1" height="1"/><rect x="22" y="36" width="1" height="1"/><rect x="24" y="36" width="1" height="1"/><rect x="26" y="36" width="1" height="1"/><rect x="28" y="36" width="1" height="1"/><rect x="30" y="36" width="1" height="1"/><rect x="32" y="36" width="1" height="1"/><rect x="34" y="36" width="1" height="1"/><rect x="36" y="36" width="1" height="1"/><rect x="38" y="36" width="1" height="1"/><rect x="40" y="36" width="1" height="1"/><rect x="42" y="36" width="1" height="1"/><rect x="44" y="36" width="1" height="1"/><rect x="46" y="36" width="1" height="1"/><rect x="14" y="40" width="1" height="1"/><rect x="16" y="40" width="1" height="1"/><rect x="18" y="40" width="1" height="1"/><rect x="20" y="40" width="1" height="1"/><rect x="22" y="40" width="1" height="1"/><rect x="24" y="40" width="1" height="1"/><rect x="26" y="40" width="1" height="1"/><rect x="28" y="40" width="1" height="1"/><rect x="14" y="42" width="1" height="1"/><rect x="16" y="42" width="1" height="1"/><rect x="18" y="42" width="1" height="1"/><rect x="20" y="42" width="1" height="1"/><rect x="22" y="42" width="1" height="1"/><rect x="24" y="42" width="1" height="1"/><rect x="26" y="42" width="1" height="1"/><rect x="28" y="42" width="1" height="1"/></svg>