<?xml version="1.0" encoding="UTF-8"?>
<svg id="Layer_3" xmlns="http://www.w3.org/2000/svg" version="1.1" viewBox="0 0 59 64">
  <!-- Generator: Adobe Illustrator 29.4.0, SVG Export Plug-In . SVG Version: 2.1.0 Build 152)  -->
  <defs>
    <style>
      .st0 {
        fill: #fff;
      }
    </style>
  </defs>
  <g>
    <g>
      <polygon class="st0" points="50.8 15.8 50.8 8.8 16.8 8.8 16.8 62.8 50.8 62.8 57.8 62.8 57.8 15.8 50.8 15.8"/>
      <polygon class="st0" points="54.8 11.8 53.8 11.8 53.8 10.8 52.8 10.8 52.8 9.8 51.8 9.8 51.8 10.8 51.8 11.8 51.8 12.8 54.8 12.8 54.8 11.8"/>
      <polygon class="st0" points="56.8 13.8 55.8 13.8 55.8 12.8 51.8 12.8 51.8 13.8 51.8 13.8 51.8 14.8 56.8 14.8 56.8 13.8"/>
    </g>
    <g>
      <rect x="16.8" y="62.8" width="41" height="1"/>
      <rect x="15.8" y="7.8" width="1" height="56"/>
      <g>
        <rect x="16.8" y="7.8" width="35" height="1"/>
        <rect x="57.8" y="14.8" width="1" height="49"/>
        <rect x="56.8" y="13.8" width="1" height="1"/>
        <rect x="55.8" y="12.8" width="1" height="1"/>
        <rect x="54.8" y="11.8" width="1" height="1"/>
        <rect x="53.8" y="10.8" width="1" height="1"/>
        <rect x="52.8" y="9.8" width="1" height="1"/>
        <rect x="51.8" y="8.8" width="1" height="1"/>
        <rect x="50.8" y="8.8" width="1" height="6"/>
        <rect x="50.8" y="14.8" width="7" height="1"/>
      </g>
      <rect x="8.8" y="13.8" width="18" height="10"/>
      <g>
        <path class="st0" d="M15,16.4v2h-.7v.7h-2.1v2.7h-1.4v-6h3.5v.7h.7ZM13.6,18.4v-2h-1.4v2h1.4Z"/>
        <path class="st0" d="M20.2,16.4v4.7h-.7v.7h-3.5v-6h3.5v.7h.7ZM18.8,21.1v-4.7h-1.4v4.7h1.4Z"/>
        <path class="st0" d="M24.8,15.8v.7h-2.1v2h1.4v.7h-1.4v2.7h-1.4v-6h3.5Z"/>
      </g>
      <g>
        <rect x="29.8" y="14.8" width="1" height="1"/>
        <rect x="31.8" y="14.8" width="1" height="1"/>
        <rect x="33.8" y="14.8" width="1" height="1"/>
        <rect x="35.8" y="14.8" width="1" height="1"/>
        <rect x="37.8" y="14.8" width="1" height="1"/>
        <rect x="39.8" y="14.8" width="1" height="1"/>
        <rect x="41.8" y="14.8" width="1" height="1"/>
        <rect x="43.8" y="14.8" width="1" height="1"/>
        <rect x="29.8" y="16.8" width="1" height="1"/>
        <rect x="31.8" y="16.8" width="1" height="1"/>
        <rect x="33.8" y="16.8" width="1" height="1"/>
        <rect x="35.8" y="16.8" width="1" height="1"/>
        <rect x="37.8" y="16.8" width="1" height="1"/>
        <rect x="39.8" y="16.8" width="1" height="1"/>
        <rect x="41.8" y="16.8" width="1" height="1"/>
        <rect x="43.8" y="16.8" width="1" height="1"/>
      </g>
      <rect x="20.8" y="54.8" width="1" height="1"/>
      <rect x="22.8" y="54.8" width="1" height="1"/>
      <rect x="24.8" y="54.8" width="1" height="1"/>
      <rect x="26.8" y="54.8" width="1" height="1"/>
      <rect x="28.8" y="54.8" width="1" height="1"/>
      <rect x="30.8" y="54.8" width="1" height="1"/>
      <rect x="32.8" y="54.8" width="1" height="1"/>
      <g>
        <rect x="29.8" y="20.8" width="1" height="1"/>
        <rect x="31.8" y="20.8" width="1" height="1"/>
        <rect x="33.8" y="20.8" width="1" height="1"/>
        <rect x="35.8" y="20.8" width="1" height="1"/>
        <rect x="37.8" y="20.8" width="1" height="1"/>
        <rect x="39.8" y="20.8" width="1" height="1"/>
        <rect x="41.8" y="20.8" width="1" height="1"/>
        <rect x="43.8" y="20.8" width="1" height="1"/>
        <rect x="29.8" y="22.8" width="1" height="1"/>
        <rect x="31.8" y="22.8" width="1" height="1"/>
        <rect x="33.8" y="22.8" width="1" height="1"/>
        <rect x="35.8" y="22.8" width="1" height="1"/>
        <rect x="37.8" y="22.8" width="1" height="1"/>
        <rect x="39.8" y="22.8" width="1" height="1"/>
        <rect x="41.8" y="22.8" width="1" height="1"/>
        <rect x="43.8" y="22.8" width="1" height="1"/>
      </g>
      <g>
        <rect x="20.8" y="27.8" width="1" height="1"/>
        <rect x="22.8" y="27.8" width="1" height="1"/>
        <rect x="24.8" y="27.8" width="1" height="1"/>
        <rect x="26.8" y="27.8" width="1" height="1"/>
        <rect x="28.8" y="27.8" width="1" height="1"/>
        <rect x="20.8" y="29.8" width="1" height="1"/>
        <rect x="22.8" y="29.8" width="1" height="1"/>
        <rect x="24.8" y="29.8" width="1" height="1"/>
        <rect x="26.8" y="29.8" width="1" height="1"/>
        <rect x="28.8" y="29.8" width="1" height="1"/>
      </g>
      <g>
        <rect x="32.8" y="27.8" width="1" height="1"/>
        <rect x="34.8" y="27.8" width="1" height="1"/>
        <rect x="36.8" y="27.8" width="1" height="1"/>
        <rect x="38.8" y="27.8" width="1" height="1"/>
        <rect x="40.8" y="27.8" width="1" height="1"/>
        <rect x="32.8" y="29.8" width="1" height="1"/>
        <rect x="34.8" y="29.8" width="1" height="1"/>
        <rect x="36.8" y="29.8" width="1" height="1"/>
        <rect x="38.8" y="29.8" width="1" height="1"/>
        <rect x="40.8" y="29.8" width="1" height="1"/>
      </g>
      <g>
        <rect x="44.8" y="27.8" width="1" height="1"/>
        <rect x="46.8" y="27.8" width="1" height="1"/>
        <rect x="48.8" y="27.8" width="1" height="1"/>
        <rect x="50.8" y="27.8" width="1" height="1"/>
        <rect x="52.8" y="27.8" width="1" height="1"/>
        <rect x="44.8" y="29.8" width="1" height="1"/>
        <rect x="46.8" y="29.8" width="1" height="1"/>
        <rect x="48.8" y="29.8" width="1" height="1"/>
        <rect x="50.8" y="29.8" width="1" height="1"/>
        <rect x="52.8" y="29.8" width="1" height="1"/>
      </g>
      <g>
        <rect x="20.8" y="33.8" width="1" height="1"/>
        <rect x="22.8" y="33.8" width="1" height="1"/>
        <rect x="24.8" y="33.8" width="1" height="1"/>
        <rect x="26.8" y="33.8" width="1" height="1"/>
        <rect x="28.8" y="33.8" width="1" height="1"/>
        <rect x="20.8" y="35.8" width="1" height="1"/>
        <rect x="22.8" y="35.8" width="1" height="1"/>
        <rect x="24.8" y="35.8" width="1" height="1"/>
        <rect x="26.8" y="35.8" width="1" height="1"/>
        <rect x="28.8" y="35.8" width="1" height="1"/>
      </g>
      <g>
        <rect x="32.8" y="33.8" width="1" height="1"/>
        <rect x="34.8" y="33.8" width="1" height="1"/>
        <rect x="36.8" y="33.8" width="1" height="1"/>
        <rect x="38.8" y="33.8" width="1" height="1"/>
        <rect x="40.8" y="33.8" width="1" height="1"/>
        <rect x="32.8" y="35.8" width="1" height="1"/>
        <rect x="34.8" y="35.8" width="1" height="1"/>
        <rect x="36.8" y="35.8" width="1" height="1"/>
        <rect x="38.8" y="35.8" width="1" height="1"/>
        <rect x="40.8" y="35.8" width="1" height="1"/>
      </g>
      <g>
        <rect x="44.8" y="33.8" width="1" height="1"/>
        <rect x="46.8" y="33.8" width="1" height="1"/>
        <rect x="48.8" y="33.8" width="1" height="1"/>
        <rect x="50.8" y="33.8" width="1" height="1"/>
        <rect x="52.8" y="33.8" width="1" height="1"/>
        <rect x="44.8" y="35.8" width="1" height="1"/>
        <rect x="46.8" y="35.8" width="1" height="1"/>
        <rect x="48.8" y="35.8" width="1" height="1"/>
        <rect x="50.8" y="35.8" width="1" height="1"/>
        <rect x="52.8" y="35.8" width="1" height="1"/>
      </g>
      <rect x="20.8" y="39.8" width="1" height="1"/>
      <rect x="22.8" y="39.8" width="1" height="1"/>
      <rect x="24.8" y="39.8" width="1" height="1"/>
      <rect x="26.8" y="39.8" width="1" height="1"/>
      <rect x="28.8" y="39.8" width="1" height="1"/>
      <rect x="30.8" y="39.8" width="1" height="1"/>
      <rect x="32.8" y="39.8" width="1" height="1"/>
      <rect x="34.8" y="39.8" width="1" height="1"/>
      <rect x="36.8" y="39.8" width="1" height="1"/>
      <rect x="38.8" y="39.8" width="1" height="1"/>
      <rect x="40.8" y="39.8" width="1" height="1"/>
      <rect x="42.8" y="39.8" width="1" height="1"/>
      <rect x="44.8" y="39.8" width="1" height="1"/>
      <rect x="46.8" y="39.8" width="1" height="1"/>
      <rect x="48.8" y="39.8" width="1" height="1"/>
      <rect x="50.8" y="39.8" width="1" height="1"/>
      <rect x="52.8" y="39.8" width="1" height="1"/>
      <g>
        <rect x="20.8" y="41.8" width="1" height="1"/>
        <rect x="22.8" y="41.8" width="1" height="1"/>
        <rect x="24.8" y="41.8" width="1" height="1"/>
        <rect x="26.8" y="41.8" width="1" height="1"/>
        <rect x="28.8" y="41.8" width="1" height="1"/>
        <rect x="30.8" y="41.8" width="1" height="1"/>
        <rect x="32.8" y="41.8" width="1" height="1"/>
        <rect x="34.8" y="41.8" width="1" height="1"/>
        <rect x="36.8" y="41.8" width="1" height="1"/>
        <rect x="38.8" y="41.8" width="1" height="1"/>
        <rect x="40.8" y="41.8" width="1" height="1"/>
        <rect x="42.8" y="41.8" width="1" height="1"/>
        <rect x="44.8" y="41.8" width="1" height="1"/>
        <rect x="46.8" y="41.8" width="1" height="1"/>
        <rect x="48.8" y="41.8" width="1" height="1"/>
        <rect x="50.8" y="41.8" width="1" height="1"/>
        <rect x="52.8" y="41.8" width="1" height="1"/>
      </g>
      <g>
        <rect x="20.8" y="43.8" width="1" height="1"/>
        <rect x="22.8" y="43.8" width="1" height="1"/>
        <rect x="24.8" y="43.8" width="1" height="1"/>
        <rect x="26.8" y="43.8" width="1" height="1"/>
        <rect x="28.8" y="43.8" width="1" height="1"/>
        <rect x="30.8" y="43.8" width="1" height="1"/>
        <rect x="32.8" y="43.8" width="1" height="1"/>
        <rect x="34.8" y="43.8" width="1" height="1"/>
        <rect x="36.8" y="43.8" width="1" height="1"/>
        <rect x="38.8" y="43.8" width="1" height="1"/>
        <rect x="40.8" y="43.8" width="1" height="1"/>
        <rect x="42.8" y="43.8" width="1" height="1"/>
        <rect x="44.8" y="43.8" width="1" height="1"/>
        <rect x="46.8" y="43.8" width="1" height="1"/>
        <rect x="48.8" y="43.8" width="1" height="1"/>
        <rect x="50.8" y="43.8" width="1" height="1"/>
        <rect x="52.8" y="43.8" width="1" height="1"/>
      </g>
      <g>
        <rect x="20.8" y="47.8" width="1" height="1"/>
        <rect x="22.8" y="47.8" width="1" height="1"/>
        <rect x="24.8" y="47.8" width="1" height="1"/>
        <rect x="26.8" y="47.8" width="1" height="1"/>
        <rect x="28.8" y="47.8" width="1" height="1"/>
        <rect x="30.8" y="47.8" width="1" height="1"/>
        <rect x="32.8" y="47.8" width="1" height="1"/>
        <rect x="34.8" y="47.8" width="1" height="1"/>
        <rect x="20.8" y="49.8" width="1" height="1"/>
        <rect x="22.8" y="49.8" width="1" height="1"/>
        <rect x="24.8" y="49.8" width="1" height="1"/>
        <rect x="26.8" y="49.8" width="1" height="1"/>
        <rect x="28.8" y="49.8" width="1" height="1"/>
        <rect x="30.8" y="49.8" width="1" height="1"/>
        <rect x="32.8" y="49.8" width="1" height="1"/>
        <rect x="34.8" y="49.8" width="1" height="1"/>
      </g>
    </g>
  </g>
  <g>
    <g>
      <polygon class="st0" points="37.8 11.8 37.8 4.8 3.8 4.8 3.8 58.8 37.8 58.8 44.8 58.8 44.8 11.8 37.8 11.8"/>
      <polygon class="st0" points="41.8 7.8 40.8 7.8 40.8 6.8 39.8 6.8 39.8 5.8 38.8 5.8 38.8 6.8 38.8 7.8 38.8 8.8 41.8 8.8 41.8 7.8"/>
      <polygon class="st0" points="43.8 9.8 42.8 9.8 42.8 8.8 38.8 8.8 38.8 9.8 38.8 9.8 38.8 10.8 43.8 10.8 43.8 9.8"/>
    </g>
    <rect x="3.8" y="58.8" width="41" height="1"/>
    <rect x="2.8" y="3.8" width="1" height="56"/>
    <rect x="3.8" y="3.8" width="35" height="1"/>
    <rect x="44.8" y="10.8" width="1" height="49"/>
    <rect x="43.8" y="9.8" width="1" height="1"/>
    <rect x="42.8" y="8.8" width="1" height="1"/>
    <rect x="41.8" y="7.8" width="1" height="1"/>
    <rect x="40.8" y="6.8" width="1" height="1"/>
    <rect x="39.8" y="5.8" width="1" height="1"/>
    <rect x="38.8" y="4.8" width="1" height="1"/>
    <rect x="37.8" y="4.8" width="1" height="6"/>
    <rect x="37.8" y="10.8" width="7" height="1"/>
    <path class="st0" d="M11.8,11.8v.7h-2.1v2h1.4v.7h-1.4v2.7h-1.4v-6h3.5Z"/>
    <rect x="16.8" y="10.8" width="1" height="1"/>
    <rect x="18.8" y="10.8" width="1" height="1"/>
    <rect x="20.8" y="10.8" width="1" height="1"/>
    <rect x="22.8" y="10.8" width="1" height="1"/>
    <rect x="24.8" y="10.8" width="1" height="1"/>
    <rect x="26.8" y="10.8" width="1" height="1"/>
    <rect x="28.8" y="10.8" width="1" height="1"/>
    <rect x="30.8" y="10.8" width="1" height="1"/>
    <rect x="16.8" y="12.8" width="1" height="1"/>
    <rect x="18.8" y="12.8" width="1" height="1"/>
    <rect x="20.8" y="12.8" width="1" height="1"/>
    <rect x="22.8" y="12.8" width="1" height="1"/>
    <rect x="24.8" y="12.8" width="1" height="1"/>
    <rect x="26.8" y="12.8" width="1" height="1"/>
    <rect x="28.8" y="12.8" width="1" height="1"/>
    <rect x="30.8" y="12.8" width="1" height="1"/>
    <rect x="7.8" y="50.8" width="1" height="1"/>
    <rect x="9.8" y="50.8" width="1" height="1"/>
    <rect x="11.8" y="50.8" width="1" height="1"/>
    <rect x="13.8" y="50.8" width="1" height="1"/>
    <rect x="15.8" y="50.8" width="1" height="1"/>
    <rect x="17.8" y="50.8" width="1" height="1"/>
    <rect x="19.8" y="50.8" width="1" height="1"/>
    <rect x="16.8" y="16.8" width="1" height="1"/>
    <rect x="18.8" y="16.8" width="1" height="1"/>
    <rect x="20.8" y="16.8" width="1" height="1"/>
    <rect x="22.8" y="16.8" width="1" height="1"/>
    <rect x="24.8" y="16.8" width="1" height="1"/>
    <rect x="26.8" y="16.8" width="1" height="1"/>
    <rect x="28.8" y="16.8" width="1" height="1"/>
    <rect x="30.8" y="16.8" width="1" height="1"/>
    <rect x="16.8" y="18.8" width="1" height="1"/>
    <rect x="18.8" y="18.8" width="1" height="1"/>
    <rect x="20.8" y="18.8" width="1" height="1"/>
    <rect x="22.8" y="18.8" width="1" height="1"/>
    <rect x="24.8" y="18.8" width="1" height="1"/>
    <rect x="26.8" y="18.8" width="1" height="1"/>
    <rect x="28.8" y="18.8" width="1" height="1"/>
    <rect x="30.8" y="18.8" width="1" height="1"/>
    <rect x="7.8" y="23.8" width="1" height="1"/>
    <rect x="9.8" y="23.8" width="1" height="1"/>
    <rect x="11.8" y="23.8" width="1" height="1"/>
    <rect x="13.8" y="23.8" width="1" height="1"/>
    <rect x="15.8" y="23.8" width="1" height="1"/>
    <rect x="7.8" y="25.8" width="1" height="1"/>
    <rect x="9.8" y="25.8" width="1" height="1"/>
    <rect x="11.8" y="25.8" width="1" height="1"/>
    <rect x="13.8" y="25.8" width="1" height="1"/>
    <rect x="15.8" y="25.8" width="1" height="1"/>
    <rect x="19.8" y="23.8" width="1" height="1"/>
    <rect x="21.8" y="23.8" width="1" height="1"/>
    <rect x="23.8" y="23.8" width="1" height="1"/>
    <rect x="25.8" y="23.8" width="1" height="1"/>
    <rect x="27.8" y="23.8" width="1" height="1"/>
    <rect x="19.8" y="25.8" width="1" height="1"/>
    <rect x="21.8" y="25.8" width="1" height="1"/>
    <rect x="23.8" y="25.8" width="1" height="1"/>
    <rect x="25.8" y="25.8" width="1" height="1"/>
    <rect x="27.8" y="25.8" width="1" height="1"/>
    <rect x="31.8" y="23.8" width="1" height="1"/>
    <rect x="33.8" y="23.8" width="1" height="1"/>
    <rect x="35.8" y="23.8" width="1" height="1"/>
    <rect x="37.8" y="23.8" width="1" height="1"/>
    <rect x="39.8" y="23.8" width="1" height="1"/>
    <rect x="31.8" y="25.8" width="1" height="1"/>
    <rect x="33.8" y="25.8" width="1" height="1"/>
    <rect x="35.8" y="25.8" width="1" height="1"/>
    <rect x="37.8" y="25.8" width="1" height="1"/>
    <rect x="39.8" y="25.8" width="1" height="1"/>
    <rect x="7.8" y="29.8" width="1" height="1"/>
    <rect x="9.8" y="29.8" width="1" height="1"/>
    <rect x="11.8" y="29.8" width="1" height="1"/>
    <rect x="13.8" y="29.8" width="1" height="1"/>
    <rect x="15.8" y="29.8" width="1" height="1"/>
    <rect x="7.8" y="31.8" width="1" height="1"/>
    <rect x="9.8" y="31.8" width="1" height="1"/>
    <rect x="11.8" y="31.8" width="1" height="1"/>
    <rect x="13.8" y="31.8" width="1" height="1"/>
    <rect x="15.8" y="31.8" width="1" height="1"/>
    <rect x="19.8" y="29.8" width="1" height="1"/>
    <rect x="21.8" y="29.8" width="1" height="1"/>
    <rect x="23.8" y="29.8" width="1" height="1"/>
    <rect x="25.8" y="29.8" width="1" height="1"/>
    <rect x="27.8" y="29.8" width="1" height="1"/>
    <rect x="19.8" y="31.8" width="1" height="1"/>
    <rect x="21.8" y="31.8" width="1" height="1"/>
    <rect x="23.8" y="31.8" width="1" height="1"/>
    <rect x="25.8" y="31.8" width="1" height="1"/>
    <rect x="27.8" y="31.8" width="1" height="1"/>
    <rect x="31.8" y="29.8" width="1" height="1"/>
    <rect x="33.8" y="29.8" width="1" height="1"/>
    <rect x="35.8" y="29.8" width="1" height="1"/>
    <rect x="37.8" y="29.8" width="1" height="1"/>
    <rect x="39.8" y="29.8" width="1" height="1"/>
    <rect x="31.8" y="31.8" width="1" height="1"/>
    <rect x="33.8" y="31.8" width="1" height="1"/>
    <rect x="35.8" y="31.8" width="1" height="1"/>
    <rect x="37.8" y="31.8" width="1" height="1"/>
    <rect x="39.8" y="31.8" width="1" height="1"/>
    <rect x="7.8" y="35.8" width="1" height="1"/>
    <rect x="9.8" y="35.8" width="1" height="1"/>
    <rect x="11.8" y="35.8" width="1" height="1"/>
    <rect x="13.8" y="35.8" width="1" height="1"/>
    <rect x="15.8" y="35.8" width="1" height="1"/>
    <rect x="17.8" y="35.8" width="1" height="1"/>
    <rect x="19.8" y="35.8" width="1" height="1"/>
    <rect x="21.8" y="35.8" width="1" height="1"/>
    <rect x="23.8" y="35.8" width="1" height="1"/>
    <rect x="25.8" y="35.8" width="1" height="1"/>
    <rect x="27.8" y="35.8" width="1" height="1"/>
    <rect x="29.8" y="35.8" width="1" height="1"/>
    <rect x="31.8" y="35.8" width="1" height="1"/>
    <rect x="33.8" y="35.8" width="1" height="1"/>
    <rect x="35.8" y="35.8" width="1" height="1"/>
    <rect x="37.8" y="35.8" width="1" height="1"/>
    <rect x="39.8" y="35.8" width="1" height="1"/>
    <rect x="7.8" y="37.8" width="1" height="1"/>
    <rect x="9.8" y="37.8" width="1" height="1"/>
    <rect x="11.8" y="37.8" width="1" height="1"/>
    <rect x="13.8" y="37.8" width="1" height="1"/>
    <rect x="15.8" y="37.8" width="1" height="1"/>
    <rect x="17.8" y="37.8" width="1" height="1"/>
    <rect x="19.8" y="37.8" width="1" height="1"/>
    <rect x="21.8" y="37.8" width="1" height="1"/>
    <rect x="23.8" y="37.8" width="1" height="1"/>
    <rect x="25.8" y="37.8" width="1" height="1"/>
    <rect x="27.8" y="37.8" width="1" height="1"/>
    <rect x="29.8" y="37.8" width="1" height="1"/>
    <rect x="31.8" y="37.8" width="1" height="1"/>
    <rect x="33.8" y="37.8" width="1" height="1"/>
    <rect x="35.8" y="37.8" width="1" height="1"/>
    <rect x="37.8" y="37.8" width="1" height="1"/>
    <rect x="39.8" y="37.8" width="1" height="1"/>
    <rect x="7.8" y="39.8" width="1" height="1"/>
    <rect x="9.8" y="39.8" width="1" height="1"/>
    <rect x="11.8" y="39.8" width="1" height="1"/>
    <rect x="13.8" y="39.8" width="1" height="1"/>
    <rect x="15.8" y="39.8" width="1" height="1"/>
    <rect x="17.8" y="39.8" width="1" height="1"/>
    <rect x="19.8" y="39.8" width="1" height="1"/>
    <rect x="21.8" y="39.8" width="1" height="1"/>
    <rect x="23.8" y="39.8" width="1" height="1"/>
    <rect x="25.8" y="39.8" width="1" height="1"/>
    <rect x="27.8" y="39.8" width="1" height="1"/>
    <rect x="29.8" y="39.8" width="1" height="1"/>
    <rect x="31.8" y="39.8" width="1" height="1"/>
    <rect x="33.8" y="39.8" width="1" height="1"/>
    <rect x="35.8" y="39.8" width="1" height="1"/>
    <rect x="37.8" y="39.8" width="1" height="1"/>
    <rect x="39.8" y="39.8" width="1" height="1"/>
    <rect x="7.8" y="43.8" width="1" height="1"/>
    <rect x="9.8" y="43.8" width="1" height="1"/>
    <rect x="11.8" y="43.8" width="1" height="1"/>
    <rect x="13.8" y="43.8" width="1" height="1"/>
    <rect x="15.8" y="43.8" width="1" height="1"/>
    <rect x="17.8" y="43.8" width="1" height="1"/>
    <rect x="19.8" y="43.8" width="1" height="1"/>
    <rect x="21.8" y="43.8" width="1" height="1"/>
    <rect x="7.8" y="45.8" width="1" height="1"/>
    <rect x="9.8" y="45.8" width="1" height="1"/>
    <rect x="11.8" y="45.8" width="1" height="1"/>
    <rect x="13.8" y="45.8" width="1" height="1"/>
    <rect x="15.8" y="45.8" width="1" height="1"/>
    <rect x="17.8" y="45.8" width="1" height="1"/>
    <rect x="19.8" y="45.8" width="1" height="1"/>
    <rect x="21.8" y="45.8" width="1" height="1"/>
  </g>
  <g>
    <g>
      <polygon class="st0" points="42 8 42 1 8 1 8 55 42 55 49 55 49 8 42 8"/>
      <polygon class="st0" points="46 4 45 4 45 3 44 3 44 2 43 2 43 3 43 4 43 5 46 5 46 4"/>
      <polygon class="st0" points="48 6 47 6 47 5 43 5 43 6 43 6 43 7 48 7 48 6"/>
    </g>
    <g>
      <rect x="8" y="55" width="41" height="1"/>
      <rect x="7" width="1" height="56"/>
      <g>
        <rect x="8" width="35" height="1"/>
        <rect x="49" y="7" width="1" height="49"/>
        <rect x="48" y="6" width="1" height="1"/>
        <rect x="47" y="5" width="1" height="1"/>
        <rect x="46" y="4" width="1" height="1"/>
        <rect x="45" y="3" width="1" height="1"/>
        <rect x="44" y="2" width="1" height="1"/>
        <rect x="43" y="1" width="1" height="1"/>
        <rect x="42" y="1" width="1" height="6"/>
        <rect x="42" y="7" width="7" height="1"/>
      </g>
      <rect y="6" width="18" height="10"/>
      <g>
        <path class="st0" d="M6.2,8.7v2h-.7v.7h-2.1v2.7h-1.4v-6h3.5v.7h.7ZM4.8,10.7v-2h-1.4v2h1.4Z"/>
        <path class="st0" d="M11.5,8.7v4.7h-.7v.7h-3.5v-6h3.5v.7h.7ZM10.1,13.3v-4.7h-1.4v4.7h1.4Z"/>
        <path class="st0" d="M16,8v.7h-2.1v2h1.4v.7h-1.4v2.7h-1.4v-6h3.5Z"/>
      </g>
      <g>
        <rect x="21" y="7" width="1" height="1"/>
        <rect x="23" y="7" width="1" height="1"/>
        <rect x="25" y="7" width="1" height="1"/>
        <rect x="27" y="7" width="1" height="1"/>
        <rect x="29" y="7" width="1" height="1"/>
        <rect x="31" y="7" width="1" height="1"/>
        <rect x="33" y="7" width="1" height="1"/>
        <rect x="35" y="7" width="1" height="1"/>
        <rect x="21" y="9" width="1" height="1"/>
        <rect x="23" y="9" width="1" height="1"/>
        <rect x="25" y="9" width="1" height="1"/>
        <rect x="27" y="9" width="1" height="1"/>
        <rect x="29" y="9" width="1" height="1"/>
        <rect x="31" y="9" width="1" height="1"/>
        <rect x="33" y="9" width="1" height="1"/>
        <rect x="35" y="9" width="1" height="1"/>
      </g>
      <rect x="12" y="47" width="1" height="1"/>
      <rect x="14" y="47" width="1" height="1"/>
      <rect x="16" y="47" width="1" height="1"/>
      <rect x="18" y="47" width="1" height="1"/>
      <rect x="20" y="47" width="1" height="1"/>
      <rect x="22" y="47" width="1" height="1"/>
      <rect x="24" y="47" width="1" height="1"/>
      <g>
        <rect x="21" y="13" width="1" height="1"/>
        <rect x="23" y="13" width="1" height="1"/>
        <rect x="25" y="13" width="1" height="1"/>
        <rect x="27" y="13" width="1" height="1"/>
        <rect x="29" y="13" width="1" height="1"/>
        <rect x="31" y="13" width="1" height="1"/>
        <rect x="33" y="13" width="1" height="1"/>
        <rect x="35" y="13" width="1" height="1"/>
        <rect x="21" y="15" width="1" height="1"/>
        <rect x="23" y="15" width="1" height="1"/>
        <rect x="25" y="15" width="1" height="1"/>
        <rect x="27" y="15" width="1" height="1"/>
        <rect x="29" y="15" width="1" height="1"/>
        <rect x="31" y="15" width="1" height="1"/>
        <rect x="33" y="15" width="1" height="1"/>
        <rect x="35" y="15" width="1" height="1"/>
      </g>
      <g>
        <rect x="12" y="20" width="1" height="1"/>
        <rect x="14" y="20" width="1" height="1"/>
        <rect x="16" y="20" width="1" height="1"/>
        <rect x="18" y="20" width="1" height="1"/>
        <rect x="20" y="20" width="1" height="1"/>
        <rect x="12" y="22" width="1" height="1"/>
        <rect x="14" y="22" width="1" height="1"/>
        <rect x="16" y="22" width="1" height="1"/>
        <rect x="18" y="22" width="1" height="1"/>
        <rect x="20" y="22" width="1" height="1"/>
      </g>
      <g>
        <rect x="24" y="20" width="1" height="1"/>
        <rect x="26" y="20" width="1" height="1"/>
        <rect x="28" y="20" width="1" height="1"/>
        <rect x="30" y="20" width="1" height="1"/>
        <rect x="32" y="20" width="1" height="1"/>
        <rect x="24" y="22" width="1" height="1"/>
        <rect x="26" y="22" width="1" height="1"/>
        <rect x="28" y="22" width="1" height="1"/>
        <rect x="30" y="22" width="1" height="1"/>
        <rect x="32" y="22" width="1" height="1"/>
      </g>
      <g>
        <rect x="36" y="20" width="1" height="1"/>
        <rect x="38" y="20" width="1" height="1"/>
        <rect x="40" y="20" width="1" height="1"/>
        <rect x="42" y="20" width="1" height="1"/>
        <rect x="44" y="20" width="1" height="1"/>
        <rect x="36" y="22" width="1" height="1"/>
        <rect x="38" y="22" width="1" height="1"/>
        <rect x="40" y="22" width="1" height="1"/>
        <rect x="42" y="22" width="1" height="1"/>
        <rect x="44" y="22" width="1" height="1"/>
      </g>
      <g>
        <rect x="12" y="26" width="1" height="1"/>
        <rect x="14" y="26" width="1" height="1"/>
        <rect x="16" y="26" width="1" height="1"/>
        <rect x="18" y="26" width="1" height="1"/>
        <rect x="20" y="26" width="1" height="1"/>
        <rect x="12" y="28" width="1" height="1"/>
        <rect x="14" y="28" width="1" height="1"/>
        <rect x="16" y="28" width="1" height="1"/>
        <rect x="18" y="28" width="1" height="1"/>
        <rect x="20" y="28" width="1" height="1"/>
      </g>
      <g>
        <rect x="24" y="26" width="1" height="1"/>
        <rect x="26" y="26" width="1" height="1"/>
        <rect x="28" y="26" width="1" height="1"/>
        <rect x="30" y="26" width="1" height="1"/>
        <rect x="32" y="26" width="1" height="1"/>
        <rect x="24" y="28" width="1" height="1"/>
        <rect x="26" y="28" width="1" height="1"/>
        <rect x="28" y="28" width="1" height="1"/>
        <rect x="30" y="28" width="1" height="1"/>
        <rect x="32" y="28" width="1" height="1"/>
      </g>
      <g>
        <rect x="36" y="26" width="1" height="1"/>
        <rect x="38" y="26" width="1" height="1"/>
        <rect x="40" y="26" width="1" height="1"/>
        <rect x="42" y="26" width="1" height="1"/>
        <rect x="44" y="26" width="1" height="1"/>
        <rect x="36" y="28" width="1" height="1"/>
        <rect x="38" y="28" width="1" height="1"/>
        <rect x="40" y="28" width="1" height="1"/>
        <rect x="42" y="28" width="1" height="1"/>
        <rect x="44" y="28" width="1" height="1"/>
      </g>
      <rect x="12" y="32" width="1" height="1"/>
      <rect x="14" y="32" width="1" height="1"/>
      <rect x="16" y="32" width="1" height="1"/>
      <rect x="18" y="32" width="1" height="1"/>
      <rect x="20" y="32" width="1" height="1"/>
      <rect x="22" y="32" width="1" height="1"/>
      <rect x="24" y="32" width="1" height="1"/>
      <rect x="26" y="32" width="1" height="1"/>
      <rect x="28" y="32" width="1" height="1"/>
      <rect x="30" y="32" width="1" height="1"/>
      <rect x="32" y="32" width="1" height="1"/>
      <rect x="34" y="32" width="1" height="1"/>
      <rect x="36" y="32" width="1" height="1"/>
      <rect x="38" y="32" width="1" height="1"/>
      <rect x="40" y="32" width="1" height="1"/>
      <rect x="42" y="32" width="1" height="1"/>
      <rect x="44" y="32" width="1" height="1"/>
      <g>
        <rect x="12" y="34" width="1" height="1"/>
        <rect x="14" y="34" width="1" height="1"/>
        <rect x="16" y="34" width="1" height="1"/>
        <rect x="18" y="34" width="1" height="1"/>
        <rect x="20" y="34" width="1" height="1"/>
        <rect x="22" y="34" width="1" height="1"/>
        <rect x="24" y="34" width="1" height="1"/>
        <rect x="26" y="34" width="1" height="1"/>
        <rect x="28" y="34" width="1" height="1"/>
        <rect x="30" y="34" width="1" height="1"/>
        <rect x="32" y="34" width="1" height="1"/>
        <rect x="34" y="34" width="1" height="1"/>
        <rect x="36" y="34" width="1" height="1"/>
        <rect x="38" y="34" width="1" height="1"/>
        <rect x="40" y="34" width="1" height="1"/>
        <rect x="42" y="34" width="1" height="1"/>
        <rect x="44" y="34" width="1" height="1"/>
      </g>
      <g>
        <rect x="12" y="36" width="1" height="1"/>
        <rect x="14" y="36" width="1" height="1"/>
        <rect x="16" y="36" width="1" height="1"/>
        <rect x="18" y="36" width="1" height="1"/>
        <rect x="20" y="36" width="1" height="1"/>
        <rect x="22" y="36" width="1" height="1"/>
        <rect x="24" y="36" width="1" height="1"/>
        <rect x="26" y="36" width="1" height="1"/>
        <rect x="28" y="36" width="1" height="1"/>
        <rect x="30" y="36" width="1" height="1"/>
        <rect x="32" y="36" width="1" height="1"/>
        <rect x="34" y="36" width="1" height="1"/>
        <rect x="36" y="36" width="1" height="1"/>
        <rect x="38" y="36" width="1" height="1"/>
        <rect x="40" y="36" width="1" height="1"/>
        <rect x="42" y="36" width="1" height="1"/>
        <rect x="44" y="36" width="1" height="1"/>
      </g>
      <g>
        <rect x="12" y="40" width="1" height="1"/>
        <rect x="14" y="40" width="1" height="1"/>
        <rect x="16" y="40" width="1" height="1"/>
        <rect x="18" y="40" width="1" height="1"/>
        <rect x="20" y="40" width="1" height="1"/>
        <rect x="22" y="40" width="1" height="1"/>
        <rect x="24" y="40" width="1" height="1"/>
        <rect x="26" y="40" width="1" height="1"/>
        <rect x="12" y="42" width="1" height="1"/>
        <rect x="14" y="42" width="1" height="1"/>
        <rect x="16" y="42" width="1" height="1"/>
        <rect x="18" y="42" width="1" height="1"/>
        <rect x="20" y="42" width="1" height="1"/>
        <rect x="22" y="42" width="1" height="1"/>
        <rect x="24" y="42" width="1" height="1"/>
        <rect x="26" y="42" width="1" height="1"/>
      </g>
    </g>
  </g>
</svg>