<?xml version="1.0" encoding="UTF-8"?>
<svg id="Layer_1" xmlns="http://www.w3.org/2000/svg" width="22" height="20" version="1.1" viewBox="0 0 22 20">
  <!-- Generator: Adobe Illustrator 29.4.0, SVG Export Plug-In . SVG Version: 2.1.0 Build 152)  -->
  <defs>
    <style>
      .st0 {
        fill: #fff;
      }
    </style>
  </defs>
  <rect class="st0" width="22" height="20"/>
  <g>
    <polygon points="15 3 15 5 14.1 5 14.1 6 12 6 12 7 13 7 13 9 14 9 14 7 15 7 15 6 15.1 6 15.1 5 16 5 16 3 15 3"/>
    <rect x="9" y="6" width="1" height="2"/>
    <polygon points="12 3 15 3 15 2 11 2 11 3 11 4 12 4 12 3"/>
    <polygon points="12 5 11 5 11 4 10 4 10 5 10 6 12 6 12 5"/>
    <rect x="8" y="8" width="1" height="2"/>
    <rect x="10" y="13" width="1" height="1"/>
    <rect x="12" y="9" width="1" height="2"/>
    <rect x="11" y="11" width="1" height="2"/>
    <rect x="7" y="10" width="1" height="2"/>
    <polygon points="7 12 6 12 6 18 7 18 7 17 8 17 8 16 9 16 9 15 10 15 10 14 7 14 7 12"/>
  </g>
</svg>