<?xml version="1.0" encoding="UTF-8"?>
<svg id="Layer_1" xmlns="http://www.w3.org/2000/svg" width="22" height="20" version="1.1" viewBox="0 0 22 20">
  <!-- Generator: Adobe Illustrator 29.4.0, SVG Export Plug-In . SVG Version: 2.1.0 Build 152)  -->
  <defs>
    <style>
      .st0 {
        fill: #fff;
      }
    </style>
  </defs>
  <rect class="st0" width="22" height="20"/>
  <path d="M16.5,4.5H7.5v1h-1v1h-1v1h-1v1h-1v7h14v-2h-1v-1h-1v-1h-1v-2h1v-1h1v-1h1v-1h1v-2h-2ZM15.5,6.5v1h-1v1h-1v1h-1v2h1v1h1v1h1v1H4.5v-5h1v-1h1v-1h1v-1h1v-1h8v1h-1Z"/>
</svg>