<?xml version="1.0" encoding="UTF-8"?>
<svg id="Layer_5" xmlns="http://www.w3.org/2000/svg" version="1.1" viewBox="0 0 32 32">
  <!-- Generator: Adobe Illustrator 29.4.0, SVG Export Plug-In . SVG Version: 2.1.0 Build 152)  -->
  <defs>
    <style>
      .st0 {
        fill: #150011;
      }

      .st1 {
        fill: #fff;
      }
    </style>
  </defs>
  <polygon points="23 2 23 3 31 3 32 3 32 2 23 2"/>
  <rect x="31" y="3" width="1" height="25"/>
  <polygon points="27 28 27 29 32 29 32 28 31 28 27 28"/>
  <polygon class="st1" points="27 5 27 6 27 28 31 28 31 3 23 3 23 5 27 5"/>
  <polygon points="26 6 27 6 27 5 23 5 23 6 26 6"/>
  <rect x="26" y="29" width="1" height="2"/>
  <rect x="26" y="28" width="1" height="1"/>
  <rect x="26" y="6" width="1" height="22"/>
  <polygon points="5 31 4 31 4 32 27 32 27 31 26 31 5 31"/>
  <rect x="4" y="27" width="1" height="4"/>
  <polygon class="st1" points="9 28 9 27 5 27 5 31 26 31 26 29 9 29 9 28"/>
  <polygon class="st1" points="9 28 9 29 26 29 26 28 10 28 9 28"/>
  <rect class="st1" x="9" y="27" width="1" height="1"/>
  <polygon class="st1" points="23 6 23 26 23 27 10 27 10 28 26 28 26 6 23 6"/>
  <polygon points="22 1 23 1 23 0 0 0 0 1 1 1 22 1"/>
  <rect x="22" y="1" width="1" height="1"/>
  <rect x="22" y="2" width="1" height="1"/>
  <rect x="22" y="3" width="1" height="2"/>
  <rect x="22" y="5" width="1" height="1"/>
  <rect x="22" y="6" width="1" height="20"/>
  <polygon points="1 26 0 26 0 27 4 27 4 26 1 26"/>
  <rect x="4" y="26" width="1" height="1"/>
  <rect x="5" y="26" width="4" height="1"/>
  <rect x="9" y="26" width="1" height="1"/>
  <polygon points="10 26 10 27 23 27 23 26 22 26 10 26"/>
  <rect y="1" width="1" height="25"/>
  <polygon class="st1" points="3 21 3 20 3 5 3 4 9 4 9 3 9 2 22 2 22 1 1 1 1 26 4 26 4 21 3 21"/>
  <polygon class="st1" points="9 3 10 3 22 3 22 2 9 2 9 3"/>
  <rect class="st1" x="9" y="3" width="1" height="1"/>
  <polygon class="st1" points="10 4 20 4 20 5 22 5 22 3 10 3 10 4"/>
  <polygon class="st1" points="9 6 9 5 4 5 4 6 5 6 9 6"/>
  <rect class="st1" x="9" y="5" width="1" height="1"/>
  <polygon class="st1" points="15 6 17 6 19 6 19 5 10 5 10 6 15 6"/>
  <rect class="st1" x="20" y="5" width="2" height="1"/>
  <rect class="st1" x="4" y="21" width="1" height="5"/>
  <polygon class="st1" points="5 17 5 6 4 6 4 18 5 18 5 17"/>
  <rect class="st1" x="5" y="21" width="4" height="5"/>
  <polygon class="st1" points="6 16 7 16 7 15 8 15 8 14 9 14 9 14 9 13 9 12 9 6 5 6 5 17 6 17 6 16"/>
  <rect class="st1" x="9" y="6" width="1" height="6"/>
  <rect class="st1" x="9" y="14" width="1" height="0"/>
  <rect class="st1" x="9" y="21" width="1" height="5"/>
  <polygon class="st1" points="20 21 10 21 10 26 22 26 22 6 20 6 20 20 20 21"/>
  <polygon class="st1" points="17 7 18 7 18 9 17 9 17 10 15 10 15 9 14 9 14 7 15 7 15 6 10 6 10 12 11 12 11 13 12 13 12 14 10 14 10 14 13 14 13 15 14 15 14 16 15 16 15 17 16 17 16 18 18 18 18 17 19 17 19 6 17 6 17 7"/>
  <polygon class="st0" points="9 5 9 4 3 4 3 5 4 5 9 5"/>
  <rect class="st0" x="9" y="4" width="1" height="1"/>
  <polygon class="st0" points="19 5 20 5 20 4 10 4 10 5 19 5"/>
  <rect class="st0" x="3" y="20" width="1" height="1"/>
  <rect class="st0" x="4" y="20" width="1" height="1"/>
  <rect class="st0" x="5" y="20" width="4" height="1"/>
  <rect class="st0" x="9" y="20" width="1" height="1"/>
  <polygon class="st0" points="20 20 19 20 10 20 10 21 20 21 20 20"/>
  <polygon class="st0" points="4 18 4 6 4 5 3 5 3 20 4 20 4 18"/>
  <rect class="st0" x="19" y="5" width="1" height="1"/>
  <polygon class="st0" points="19 17 19 18 19 20 20 20 20 6 19 6 19 17"/>
  <rect class="st0" x="15" y="6" width="2" height="1"/>
  <polygon class="st0" points="14 7 14 9 15 9 17 9 18 9 18 7 17 7 15 7 14 7"/>
  <rect class="st0" x="15" y="9" width="2" height="1"/>
  <rect class="st0" x="4" y="18" width="1" height="2"/>
  <rect class="st0" x="5" y="18" width="4" height="2"/>
  <rect class="st0" x="9" y="18" width="1" height="2"/>
  <polygon class="st0" points="19 18 18 18 16 18 10 18 10 20 19 20 19 18"/>
  <polygon class="st0" points="6 17 5 17 5 18 9 18 9 17 6 17"/>
  <rect class="st0" x="9" y="17" width="1" height="1"/>
  <polygon class="st0" points="15 17 10 17 10 18 16 18 16 17 15 17"/>
  <polygon class="st0" points="7 16 6 16 6 17 9 17 9 16 7 16"/>
  <rect class="st0" x="9" y="16" width="1" height="1"/>
  <polygon class="st0" points="10 17 15 17 15 16 14 16 10 16 10 17"/>
  <polygon class="st0" points="9 15 8 15 8 15 7 15 7 16 9 16 9 15"/>
  <rect class="st0" x="9" y="15" width="1" height="1"/>
  <polygon class="st0" points="10 15 10 16 14 16 14 15 13 15 13 15 10 15"/>
  <rect class="st0" x="8" y="14" width="1" height="1"/>
  <rect class="st0" x="9" y="14" width="1" height="1"/>
  <rect class="st0" x="10" y="14" width="3" height="1"/>
  <rect class="st0" x="8" y="15" width="1" height="0"/>
  <rect class="st0" x="9" y="15" width="1" height="0"/>
  <rect class="st0" x="10" y="15" width="3" height="0"/>
  <rect class="st0" x="9" y="13" width="1" height="1"/>
  <polygon class="st0" points="10 14 12 14 12 13 11 13 10 13 10 14"/>
  <rect class="st0" x="9" y="12" width="1" height="1"/>
  <rect class="st0" x="10" y="12" width="1" height="1"/>
  <rect class="st0" x="18" y="17" width="1" height="1"/>
</svg>