<?xml version="1.0" encoding="UTF-8"?>
<svg id="Layer_4" xmlns="http://www.w3.org/2000/svg" width="32" height="32" version="1.1" viewBox="0 0 32 32">
  <!-- Generator: Adobe Illustrator 29.4.0, SVG Export Plug-In . SVG Version: 2.1.0 Build 152)  -->
  <defs>
    <style>
      .st0 {
        fill: #fff;
      }
    </style>
  </defs>
  <rect class="st0" y="2" width="31" height="27"/>
  <rect class="st0" x="2" y="1" width="27" height="1"/>
  <rect class="st0" x="3" y="29" width="28" height="2"/>
  <rect x="1" width="29" height="1"/>
  <rect x="1" y="9" width="1" height="1"/>
  <rect x="4" y="9" width="1" height="1"/>
  <rect x="3" y="8" width="2" height="1"/>
  <rect x="2" y="6" width="2" height="1"/>
  <rect x="1" y="7" width="1" height="1"/>
  <rect y="6" width="1" height="3"/>
  <rect x="4" y="5" width="1" height="1"/>
  <rect x="3" y="4" width="2" height="1"/>
  <rect x="1" y="5" width="1" height="1"/>
  <rect y="2" width="1" height="3"/>
  <rect x="1" y="1" width="1" height="2"/>
  <rect x="2" y="31" width="29" height="1"/>
  <rect x="1" y="29" width="24" height="1"/>
  <rect y="14" width="1" height="3"/>
  <rect x="1" y="13" width="1" height="1"/>
  <rect x="4" y="13" width="1" height="1"/>
  <rect x="3" y="12" width="2" height="1"/>
  <rect x="1" y="11" width="1" height="1"/>
  <rect y="10" width="1" height="3"/>
  <rect x="2" y="10" width="2" height="1"/>
  <rect x="1" y="27" width="1" height="2"/>
  <rect x="1" y="25" width="1" height="1"/>
  <rect x="1" y="17" width="1" height="1"/>
  <rect x="2" y="14" width="2" height="1"/>
  <rect x="1" y="15" width="1" height="1"/>
  <rect y="18" width="1" height="3"/>
  <rect y="26" width="1" height="3"/>
  <rect x="4" y="24" width="1" height="2"/>
  <rect x="2" y="26" width="2" height="1"/>
  <g>
    <rect x="1" y="19" width="1" height="1"/>
    <rect x="4" y="16" width="1" height="2"/>
    <rect x="2" y="18" width="2" height="1"/>
    <rect x="3" y="16" width="1" height="1"/>
  </g>
  <rect x="3" y="24" width="1" height="1"/>
  <rect x="28" y="25" width="1" height="1"/>
  <rect x="27" y="26" width="1" height="1"/>
  <rect x="26" y="27" width="1" height="1"/>
  <rect x="25" y="28" width="1" height="1"/>
  <rect x="31" y="2" width="1" height="30"/>
  <rect x="30" y="2" width="1" height="1"/>
  <rect x="29" y="1" width="1" height="24"/>
  <rect x="12" y="9" width="10" height="1"/>
  <rect x="9" y="12" width="6" height="1"/>
  <rect x="12" y="4" width="10" height="1"/>
  <rect x="9" y="20" width="6" height="1"/>
  <rect x="18" y="15" width="9" height="1"/>
  <rect x="22" y="7" width="5" height="1"/>
  <rect x="26" y="8" width="1" height="7"/>
  <rect x="14" y="13" width="1" height="7"/>
  <rect x="2" y="30" width="1" height="1"/>
  <rect x="21" y="5" width="1" height="4"/>
  <rect x="12" y="5" width="1" height="4"/>
  <rect x="18" y="10" width="1" height="5"/>
  <rect x="24" y="25" width="1" height="4"/>
  <rect x="24" y="24" width="5" height="1"/>
  <rect x="9" y="13" width="1" height="7"/>
  <rect x="1" y="21" width="1" height="1"/>
  <rect y="22" width="1" height="3"/>
  <g>
    <rect x="1" y="23" width="1" height="1"/>
    <rect x="4" y="20" width="1" height="2"/>
    <rect x="2" y="22" width="2" height="1"/>
    <rect x="3" y="20" width="1" height="1"/>
  </g>
  <g>
    <rect x="15.5" y="22" width="1" height="3"/>
    <rect x="21.5" y="22" width="1" height="3"/>
    <rect x="17.5" y="20" width="3" height="1"/>
    <rect x="17.5" y="26" width="3" height="1"/>
    <rect x="20.5" y="21" width="1" height="1"/>
    <rect x="16.5" y="21" width="1" height="1"/>
    <rect x="16.5" y="25" width="1" height="1"/>
    <rect x="20.5" y="25" width="1" height="1"/>
  </g>
</svg>