<?xml version="1.0" encoding="UTF-8"?><svg id="a" xmlns="http://www.w3.org/2000/svg" width="16" height="16" viewBox="0 0 16 16"><rect x="1" y="1" width="14" height="14" fill="#fff"/><rect x="8" y="12" width="1" height="1"/><rect x="7" y="13" width="1" height="1"/><rect x="3" y="7" width="1" height="1"/><path d="M0,0v16h16V0H0ZM10,1v1h-4v-1h4ZM15,8v2h-4v-3h1v1h3ZM12,12h-1v-1h1v1ZM14,11h1v1h-1v-1ZM6,6h4v4h-4v-4ZM5,1v4H1V1h4ZM2,8v1h-1v-3h4v4h-2v-2h-1ZM1,15v-4h4v4H1ZM9,15v-1h-1v1h-1v-1h-1v-1h1v-1h-1v-1h1v1h1v-1h1v1h1v1h-1v1h1v1h-1ZM11,15v-2h4v2h-4ZM15,5h-4V1h4v4Z"/></svg>