<?xml version="1.0" encoding="UTF-8"?>
<svg id="Layer_2" xmlns="http://www.w3.org/2000/svg" version="1.1" viewBox="0 0 32 32">
  <!-- Generator: Adobe Illustrator 29.4.0, SVG Export Plug-In . SVG Version: 2.1.0 Build 152)  -->
  <defs>
    <style>
      .st0 {
        fill: #fff;
      }
    </style>
  </defs>
  <polygon class="st0" points="30 2 30 1 9 1 9 2 8 2 8 27 31 27 31 2 30 2"/>
  <rect x="15" y="7" width="1" height="2"/>
  <rect x="7" y="2" width="1" height="25"/>
  <rect x="9" width="21" height="1"/>
  <rect x="22" y="22" width="6" height="1"/>
  <rect x="8" y="1" width="1" height="1"/>
  <rect x="30" y="1" width="1" height="1"/>
  <rect x="31" y="2" width="1" height="25"/>
  <path d="M8,27v5h23v-5H8ZM30,31H9v-3h21v3Z"/>
  <rect x="10" y="23" width="2" height="1"/>
  <rect x="23" y="7" width="1" height="2"/>
  <rect x="22" y="13" width="1" height="1"/>
  <rect x="17" y="13" width="1" height="1"/>
  <rect x="18" y="14" width="4" height="1"/>
  <rect x="11" y="3" width="17" height="1"/>
  <rect x="10" y="4" width="1" height="13"/>
  <rect x="28" y="4" width="1" height="13"/>
  <rect x="11" y="17" width="17" height="1"/>
  <polygon points="19.5 7 19.5 11 18.5 11 18.5 12 19.5 12 20.5 12 20.5 7 19.5 7"/>
  <rect class="st0" x="9" y="28" width="21" height="3"/>
</svg>