<?xml version="1.0" encoding="UTF-8"?><svg id="a" xmlns="http://www.w3.org/2000/svg" width="14" height="2" viewBox="0 0 14 2"><rect x="1" width="1" height="1"/><rect x="3" y="1" width="1" height="1"/><rect x="5" width="1" height="1"/><rect x="7" y="1" width="1" height="1"/><rect x="9" width="1" height="1"/><rect x="11" y="1" width="1" height="1"/><rect x="13" width="1" height="1"/><polygon points="13 1 13 0 10 0 10 1 9 1 9 0 6 0 6 1 5 1 5 0 2 0 2 1 1 1 1 0 0 0 0 1 0 2 3 2 3 1 4 1 4 2 7 2 7 1 8 1 8 2 11 2 11 1 12 1 12 2 14 2 14 1 13 1" fill="#fff"/></svg>