<?xml version="1.0" encoding="UTF-8"?>
<svg id="Layer_1" xmlns="http://www.w3.org/2000/svg" width="22" height="20" version="1.1" viewBox="0 0 22 20">
  <!-- Generator: Adobe Illustrator 29.4.0, SVG Export Plug-In . SVG Version: 2.1.0 Build 152)  -->
  <defs>
    <style>
      .st0 {
        fill: #fff;
      }
    </style>
  </defs>
  <rect class="st0" width="22" height="20"/>
  <g>
    <polygon points="3 4.5 3 6.5 4 6.5 4 4.5 7 4.5 7 3.5 3 3.5 3 4.5"/>
    <rect x="9" y="3.5" width="5" height="1"/>
    <polygon points="16 3.5 16 4.5 18 4.5 18 6.5 19 6.5 19 4.5 19 3.5 16 3.5"/>
    <rect x="18" y="8.5" width="1" height="3"/>
    <rect x="3" y="8.5" width="1" height="3"/>
    <rect x="8" y="15.5" width="5" height="1"/>
    <polygon points="18 15.5 15 15.5 15 16.5 19 16.5 19 15.5 19 13.5 18 13.5 18 15.5"/>
    <polygon points="4 13.5 3 13.5 3 15.5 3 16.5 6 16.5 6 15.5 4 15.5 4 13.5"/>
  </g>
</svg>