<?xml version="1.0" encoding="UTF-8"?>
<svg id="Layer_4" xmlns="http://www.w3.org/2000/svg" version="1.1" viewBox="0 0 32 32">
  <!-- Generator: Adobe Illustrator 29.4.0, SVG Export Plug-In . SVG Version: 2.1.0 Build 152)  -->
  <defs>
    <style>
      .st0 {
        fill: #fff;
      }
    </style>
  </defs>
  <g>
    <polygon class="st0" points="21.5 7 21.5 1 4.5 1 4.5 7 4.5 7 4.5 31 27.5 31 27.5 7 21.5 7"/>
    <polygon class="st0" points="26.5 5 25.5 5 25.5 4 22.5 4 22.5 5 22.5 5 22.5 6 26.5 6 26.5 5"/>
    <polygon class="st0" points="24.5 3 23.5 3 23.5 2 22.5 2 22.5 3 22.5 4 24.5 4 24.5 3"/>
  </g>
  <g>
    <path d="M27.5,6.1h0c0-.1,0-.1,0-.1v-1h-1v1h-4.1V2h1v-1h-1V0H3.5v32h25v-.9h0V6.1h-1ZM4.5,31V1h17v6h6v24H4.5Z"/>
    <rect x="9.5" y="24" width="1" height="3"/>
    <path d="M19.5,8h0v-1h-7v1h0v7h3v2h7v-7h-3v-2ZM21.5,11v5h-5v-5h5ZM15.5,10v4h-2v-6h5v2h-3Z"/>
    <rect x="15.5" y="24" width="1" height="3"/>
    <rect x="11.5" y="22" width="3" height="1"/>
    <rect x="11.5" y="28" width="3" height="1"/>
    <rect x="6.5" y="4" width="1" height="1"/>
    <rect x="12.5" y="16" width="1" height="1"/>
    <rect x="24.5" y="22" width="1" height="1"/>
    <rect x="24.5" y="16" width="1" height="1"/>
    <rect x="24.5" y="10" width="1" height="1"/>
    <rect x="18.5" y="4" width="1" height="1"/>
    <rect x="12.5" y="4" width="1" height="1"/>
    <rect x="6.5" y="10" width="1" height="1"/>
    <rect x="14.5" y="23" width="1" height="1"/>
    <rect x="10.5" y="23" width="1" height="1"/>
    <rect x="6.5" y="28" width="1" height="1"/>
    <rect x="6.5" y="22" width="1" height="1"/>
    <rect x="6.5" y="16" width="1" height="1"/>
    <rect x="18.5" y="22" width="1" height="1"/>
    <rect x="18.5" y="28" width="1" height="1"/>
    <rect x="10.5" y="27" width="1" height="1"/>
    <rect x="14.5" y="27" width="1" height="1"/>
    <rect x="24.5" y="28" width="1" height="1"/>
    <rect x="25.6" y="4" width="1" height="1"/>
    <rect x="24.5" y="3" width="1" height="1"/>
    <rect x="23.5" y="2" width="1" height="1"/>
  </g>
</svg>