<?xml version="1.0" encoding="UTF-8"?>
<svg xmlns="http://www.w3.org/2000/svg" version="1.1" viewBox="0 0 64 42">
  <!-- Generator: Adobe Illustrator 29.4.0, SVG Export Plug-In . SVG Version: 2.1.0 Build 152)  -->
  <defs>
    <style>
      .st0 {
        fill-opacity: .9;
      }

      .st1 {
        fill: #fff;
      }

      .st2 {
        fill-opacity: 0;
      }
    </style>
  </defs>
  <g id="Layer_3">
    <g>
      <g>
        <polygon class="st1" points="284.8 95.8 284.8 88.8 250.8 88.8 250.8 142.8 284.8 142.8 291.8 142.8 291.8 95.8 284.8 95.8"/>
        <polygon class="st1" points="288.8 91.8 287.8 91.8 287.8 90.8 286.8 90.8 286.8 89.8 285.8 89.8 285.8 90.8 285.8 91.8 285.8 92.8 288.8 92.8 288.8 91.8"/>
        <polygon class="st1" points="290.8 93.8 289.8 93.8 289.8 92.8 285.8 92.8 285.8 93.8 285.8 93.8 285.8 94.8 290.8 94.8 290.8 93.8"/>
      </g>
      <g>
        <rect x="250.8" y="142.8" width="41" height="1"/>
        <rect x="249.8" y="87.8" width="1" height="56"/>
        <g>
          <rect x="250.8" y="87.8" width="35" height="1"/>
          <rect x="291.8" y="94.8" width="1" height="49"/>
          <rect x="290.8" y="93.8" width="1" height="1"/>
          <rect x="289.8" y="92.8" width="1" height="1"/>
          <rect x="288.8" y="91.8" width="1" height="1"/>
          <rect x="287.8" y="90.8" width="1" height="1"/>
          <rect x="286.8" y="89.8" width="1" height="1"/>
          <rect x="285.8" y="88.8" width="1" height="1"/>
          <rect x="284.8" y="88.8" width="1" height="6"/>
          <rect x="284.8" y="94.8" width="7" height="1"/>
        </g>
        <rect x="242.8" y="93.8" width="18" height="10"/>
        <g>
          <path class="st1" d="M249,96.4v2h-.7v.7h-2.1v2.7h-1.4v-6h3.5v.7h.7ZM247.6,98.4v-2h-1.4v2h1.4Z"/>
          <path class="st1" d="M254.2,96.4v4.7h-.7v.7h-3.5v-6h3.5v.7h.7ZM252.8,101.1v-4.7h-1.4v4.7h1.4Z"/>
          <path class="st1" d="M258.8,95.8v.7h-2.1v2h1.4v.7h-1.4v2.7h-1.4v-6h3.5Z"/>
        </g>
        <g>
          <rect x="263.8" y="94.8" width="1" height="1"/>
          <rect x="265.8" y="94.8" width="1" height="1"/>
          <rect x="267.8" y="94.8" width="1" height="1"/>
          <rect x="269.8" y="94.8" width="1" height="1"/>
          <rect x="271.8" y="94.8" width="1" height="1"/>
          <rect x="273.8" y="94.8" width="1" height="1"/>
          <rect x="275.8" y="94.8" width="1" height="1"/>
          <rect x="277.8" y="94.8" width="1" height="1"/>
          <rect x="263.8" y="96.8" width="1" height="1"/>
          <rect x="265.8" y="96.8" width="1" height="1"/>
          <rect x="267.8" y="96.8" width="1" height="1"/>
          <rect x="269.8" y="96.8" width="1" height="1"/>
          <rect x="271.8" y="96.8" width="1" height="1"/>
          <rect x="273.8" y="96.8" width="1" height="1"/>
          <rect x="275.8" y="96.8" width="1" height="1"/>
          <rect x="277.8" y="96.8" width="1" height="1"/>
        </g>
        <rect x="254.8" y="134.8" width="1" height="1"/>
        <rect x="256.8" y="134.8" width="1" height="1"/>
        <rect x="258.8" y="134.8" width="1" height="1"/>
        <rect x="260.8" y="134.8" width="1" height="1"/>
        <rect x="262.8" y="134.8" width="1" height="1"/>
        <rect x="264.8" y="134.8" width="1" height="1"/>
        <rect x="266.8" y="134.8" width="1" height="1"/>
        <g>
          <rect x="263.8" y="100.8" width="1" height="1"/>
          <rect x="265.8" y="100.8" width="1" height="1"/>
          <rect x="267.8" y="100.8" width="1" height="1"/>
          <rect x="269.8" y="100.8" width="1" height="1"/>
          <rect x="271.8" y="100.8" width="1" height="1"/>
          <rect x="273.8" y="100.8" width="1" height="1"/>
          <rect x="275.8" y="100.8" width="1" height="1"/>
          <rect x="277.8" y="100.8" width="1" height="1"/>
          <rect x="263.8" y="102.8" width="1" height="1"/>
          <rect x="265.8" y="102.8" width="1" height="1"/>
          <rect x="267.8" y="102.8" width="1" height="1"/>
          <rect x="269.8" y="102.8" width="1" height="1"/>
          <rect x="271.8" y="102.8" width="1" height="1"/>
          <rect x="273.8" y="102.8" width="1" height="1"/>
          <rect x="275.8" y="102.8" width="1" height="1"/>
          <rect x="277.8" y="102.8" width="1" height="1"/>
        </g>
        <g>
          <rect x="254.8" y="107.8" width="1" height="1"/>
          <rect x="256.8" y="107.8" width="1" height="1"/>
          <rect x="258.8" y="107.8" width="1" height="1"/>
          <rect x="260.8" y="107.8" width="1" height="1"/>
          <rect x="262.8" y="107.8" width="1" height="1"/>
          <rect x="254.8" y="109.8" width="1" height="1"/>
          <rect x="256.8" y="109.8" width="1" height="1"/>
          <rect x="258.8" y="109.8" width="1" height="1"/>
          <rect x="260.8" y="109.8" width="1" height="1"/>
          <rect x="262.8" y="109.8" width="1" height="1"/>
        </g>
        <g>
          <rect x="266.8" y="107.8" width="1" height="1"/>
          <rect x="268.8" y="107.8" width="1" height="1"/>
          <rect x="270.8" y="107.8" width="1" height="1"/>
          <rect x="272.8" y="107.8" width="1" height="1"/>
          <rect x="274.8" y="107.8" width="1" height="1"/>
          <rect x="266.8" y="109.8" width="1" height="1"/>
          <rect x="268.8" y="109.8" width="1" height="1"/>
          <rect x="270.8" y="109.8" width="1" height="1"/>
          <rect x="272.8" y="109.8" width="1" height="1"/>
          <rect x="274.8" y="109.8" width="1" height="1"/>
        </g>
        <g>
          <rect x="278.8" y="107.8" width="1" height="1"/>
          <rect x="280.8" y="107.8" width="1" height="1"/>
          <rect x="282.8" y="107.8" width="1" height="1"/>
          <rect x="284.8" y="107.8" width="1" height="1"/>
          <rect x="286.8" y="107.8" width="1" height="1"/>
          <rect x="278.8" y="109.8" width="1" height="1"/>
          <rect x="280.8" y="109.8" width="1" height="1"/>
          <rect x="282.8" y="109.8" width="1" height="1"/>
          <rect x="284.8" y="109.8" width="1" height="1"/>
          <rect x="286.8" y="109.8" width="1" height="1"/>
        </g>
        <g>
          <rect x="254.8" y="113.8" width="1" height="1"/>
          <rect x="256.8" y="113.8" width="1" height="1"/>
          <rect x="258.8" y="113.8" width="1" height="1"/>
          <rect x="260.8" y="113.8" width="1" height="1"/>
          <rect x="262.8" y="113.8" width="1" height="1"/>
          <rect x="254.8" y="115.8" width="1" height="1"/>
          <rect x="256.8" y="115.8" width="1" height="1"/>
          <rect x="258.8" y="115.8" width="1" height="1"/>
          <rect x="260.8" y="115.8" width="1" height="1"/>
          <rect x="262.8" y="115.8" width="1" height="1"/>
        </g>
        <g>
          <rect x="266.8" y="113.8" width="1" height="1"/>
          <rect x="268.8" y="113.8" width="1" height="1"/>
          <rect x="270.8" y="113.8" width="1" height="1"/>
          <rect x="272.8" y="113.8" width="1" height="1"/>
          <rect x="274.8" y="113.8" width="1" height="1"/>
          <rect x="266.8" y="115.8" width="1" height="1"/>
          <rect x="268.8" y="115.8" width="1" height="1"/>
          <rect x="270.8" y="115.8" width="1" height="1"/>
          <rect x="272.8" y="115.8" width="1" height="1"/>
          <rect x="274.8" y="115.8" width="1" height="1"/>
        </g>
        <g>
          <rect x="278.8" y="113.8" width="1" height="1"/>
          <rect x="280.8" y="113.8" width="1" height="1"/>
          <rect x="282.8" y="113.8" width="1" height="1"/>
          <rect x="284.8" y="113.8" width="1" height="1"/>
          <rect x="286.8" y="113.8" width="1" height="1"/>
          <rect x="278.8" y="115.8" width="1" height="1"/>
          <rect x="280.8" y="115.8" width="1" height="1"/>
          <rect x="282.8" y="115.8" width="1" height="1"/>
          <rect x="284.8" y="115.8" width="1" height="1"/>
          <rect x="286.8" y="115.8" width="1" height="1"/>
        </g>
        <rect x="254.8" y="119.8" width="1" height="1"/>
        <rect x="256.8" y="119.8" width="1" height="1"/>
        <rect x="258.8" y="119.8" width="1" height="1"/>
        <rect x="260.8" y="119.8" width="1" height="1"/>
        <rect x="262.8" y="119.8" width="1" height="1"/>
        <rect x="264.8" y="119.8" width="1" height="1"/>
        <rect x="266.8" y="119.8" width="1" height="1"/>
        <rect x="268.8" y="119.8" width="1" height="1"/>
        <rect x="270.8" y="119.8" width="1" height="1"/>
        <rect x="272.8" y="119.8" width="1" height="1"/>
        <rect x="274.8" y="119.8" width="1" height="1"/>
        <rect x="276.8" y="119.8" width="1" height="1"/>
        <rect x="278.8" y="119.8" width="1" height="1"/>
        <rect x="280.8" y="119.8" width="1" height="1"/>
        <rect x="282.8" y="119.8" width="1" height="1"/>
        <rect x="284.8" y="119.8" width="1" height="1"/>
        <rect x="286.8" y="119.8" width="1" height="1"/>
        <g>
          <rect x="254.8" y="121.8" width="1" height="1"/>
          <rect x="256.8" y="121.8" width="1" height="1"/>
          <rect x="258.8" y="121.8" width="1" height="1"/>
          <rect x="260.8" y="121.8" width="1" height="1"/>
          <rect x="262.8" y="121.8" width="1" height="1"/>
          <rect x="264.8" y="121.8" width="1" height="1"/>
          <rect x="266.8" y="121.8" width="1" height="1"/>
          <rect x="268.8" y="121.8" width="1" height="1"/>
          <rect x="270.8" y="121.8" width="1" height="1"/>
          <rect x="272.8" y="121.8" width="1" height="1"/>
          <rect x="274.8" y="121.8" width="1" height="1"/>
          <rect x="276.8" y="121.8" width="1" height="1"/>
          <rect x="278.8" y="121.8" width="1" height="1"/>
          <rect x="280.8" y="121.8" width="1" height="1"/>
          <rect x="282.8" y="121.8" width="1" height="1"/>
          <rect x="284.8" y="121.8" width="1" height="1"/>
          <rect x="286.8" y="121.8" width="1" height="1"/>
        </g>
        <g>
          <rect x="254.8" y="123.8" width="1" height="1"/>
          <rect x="256.8" y="123.8" width="1" height="1"/>
          <rect x="258.8" y="123.8" width="1" height="1"/>
          <rect x="260.8" y="123.8" width="1" height="1"/>
          <rect x="262.8" y="123.8" width="1" height="1"/>
          <rect x="264.8" y="123.8" width="1" height="1"/>
          <rect x="266.8" y="123.8" width="1" height="1"/>
          <rect x="268.8" y="123.8" width="1" height="1"/>
          <rect x="270.8" y="123.8" width="1" height="1"/>
          <rect x="272.8" y="123.8" width="1" height="1"/>
          <rect x="274.8" y="123.8" width="1" height="1"/>
          <rect x="276.8" y="123.8" width="1" height="1"/>
          <rect x="278.8" y="123.8" width="1" height="1"/>
          <rect x="280.8" y="123.8" width="1" height="1"/>
          <rect x="282.8" y="123.8" width="1" height="1"/>
          <rect x="284.8" y="123.8" width="1" height="1"/>
          <rect x="286.8" y="123.8" width="1" height="1"/>
        </g>
        <g>
          <rect x="254.8" y="127.8" width="1" height="1"/>
          <rect x="256.8" y="127.8" width="1" height="1"/>
          <rect x="258.8" y="127.8" width="1" height="1"/>
          <rect x="260.8" y="127.8" width="1" height="1"/>
          <rect x="262.8" y="127.8" width="1" height="1"/>
          <rect x="264.8" y="127.8" width="1" height="1"/>
          <rect x="266.8" y="127.8" width="1" height="1"/>
          <rect x="268.8" y="127.8" width="1" height="1"/>
          <rect x="254.8" y="129.8" width="1" height="1"/>
          <rect x="256.8" y="129.8" width="1" height="1"/>
          <rect x="258.8" y="129.8" width="1" height="1"/>
          <rect x="260.8" y="129.8" width="1" height="1"/>
          <rect x="262.8" y="129.8" width="1" height="1"/>
          <rect x="264.8" y="129.8" width="1" height="1"/>
          <rect x="266.8" y="129.8" width="1" height="1"/>
          <rect x="268.8" y="129.8" width="1" height="1"/>
        </g>
      </g>
    </g>
    <g>
      <g>
        <polygon class="st1" points="-149.7 -83.7 -156.7 -83.7 -156.7 -49.7 -102.7 -49.7 -102.7 -83.7 -102.7 -90.7 -149.7 -90.7 -149.7 -83.7"/>
        <polygon class="st1" points="-153.7 -87.7 -153.7 -86.7 -154.7 -86.7 -154.7 -85.7 -155.7 -85.7 -155.7 -84.7 -154.7 -84.7 -153.7 -84.7 -152.7 -84.7 -152.7 -87.7 -153.7 -87.7"/>
        <polygon class="st1" points="-151.7 -89.7 -151.7 -88.7 -152.7 -88.7 -152.7 -84.7 -151.7 -84.7 -151.7 -84.7 -150.7 -84.7 -150.7 -89.7 -151.7 -89.7"/>
      </g>
      <rect x="-122.7" y="-70.7" width="41" height="1" transform="translate(-32 -172.5) rotate(-90)"/>
      <rect x="-130.2" y="-77.2" width="1" height="56" transform="translate(-80.5 -179) rotate(-90)"/>
      <rect x="-174.7" y="-67.7" width="35" height="1" transform="translate(-90 -224.5) rotate(-90)"/>
      <rect x="-126.7" y="-115.7" width="1" height="49" transform="translate(-35 -217.5) rotate(-90)"/>
      <rect x="-151.7" y="-90.7" width="1" height="1" transform="translate(-61 -241.5) rotate(-90)"/>
      <rect x="-152.7" y="-89.7" width="1" height="1" transform="translate(-63 -241.5) rotate(-90)"/>
      <rect x="-153.7" y="-88.7" width="1" height="1" transform="translate(-65 -241.5) rotate(-90)"/>
      <rect x="-154.7" y="-87.7" width="1" height="1" transform="translate(-67 -241.5) rotate(-90)"/>
      <rect x="-155.7" y="-86.7" width="1" height="1" transform="translate(-69 -241.5) rotate(-90)"/>
      <rect x="-156.7" y="-85.7" width="1" height="1" transform="translate(-71 -241.5) rotate(-90)"/>
      <rect x="-154.2" y="-87.2" width="1" height="6" transform="translate(-69.5 -238) rotate(-90)"/>
      <rect x="-153.7" y="-87.7" width="7" height="1" transform="translate(-63 -237.5) rotate(-90)"/>
      <path class="st1" d="M-149.7-57.7h.7v2.1s2,0,2,0v-1.4h.7v1.4s2.7,0,2.7,0v1.4h-6v-3.5Z"/>
      <rect x="-150.7" y="-63.7" width="1" height="1" transform="translate(-87 -213.5) rotate(-90)"/>
      <rect x="-150.7" y="-65.7" width="1" height="1" transform="translate(-85 -215.5) rotate(-90)"/>
      <rect x="-150.7" y="-67.7" width="1" height="1" transform="translate(-83 -217.5) rotate(-90)"/>
      <rect x="-150.7" y="-69.7" width="1" height="1" transform="translate(-81 -219.5) rotate(-90)"/>
      <rect x="-150.7" y="-71.7" width="1" height="1" transform="translate(-79 -221.5) rotate(-90)"/>
      <rect x="-150.7" y="-73.7" width="1" height="1" transform="translate(-77 -223.5) rotate(-90)"/>
      <rect x="-150.7" y="-75.7" width="1" height="1" transform="translate(-75 -225.5) rotate(-90)"/>
      <rect x="-150.7" y="-77.7" width="1" height="1" transform="translate(-73 -227.5) rotate(-90)"/>
      <rect x="-148.7" y="-63.7" width="1" height="1" transform="translate(-85 -211.5) rotate(-90)"/>
      <rect x="-148.7" y="-65.7" width="1" height="1" transform="translate(-83 -213.5) rotate(-90)"/>
      <rect x="-148.7" y="-67.7" width="1" height="1" transform="translate(-81 -215.5) rotate(-90)"/>
      <rect x="-148.7" y="-69.7" width="1" height="1" transform="translate(-79 -217.5) rotate(-90)"/>
      <rect x="-148.7" y="-71.7" width="1" height="1" transform="translate(-77 -219.5) rotate(-90)"/>
      <rect x="-148.7" y="-73.7" width="1" height="1" transform="translate(-75 -221.5) rotate(-90)"/>
      <rect x="-148.7" y="-75.7" width="1" height="1" transform="translate(-73 -223.5) rotate(-90)"/>
      <rect x="-148.7" y="-77.7" width="1" height="1" transform="translate(-71 -225.5) rotate(-90)"/>
      <rect x="-110.7" y="-54.7" width="1" height="1" transform="translate(-56 -164.5) rotate(-90)"/>
      <rect x="-110.7" y="-56.7" width="1" height="1" transform="translate(-54 -166.5) rotate(-90)"/>
      <rect x="-110.7" y="-58.7" width="1" height="1" transform="translate(-52 -168.5) rotate(-90)"/>
      <rect x="-110.7" y="-60.7" width="1" height="1" transform="translate(-50 -170.5) rotate(-90)"/>
      <rect x="-110.7" y="-62.7" width="1" height="1" transform="translate(-48 -172.5) rotate(-90)"/>
      <rect x="-110.7" y="-64.7" width="1" height="1" transform="translate(-46 -174.5) rotate(-90)"/>
      <rect x="-110.7" y="-66.7" width="1" height="1" transform="translate(-44 -176.5) rotate(-90)"/>
      <rect x="-144.7" y="-63.7" width="1" height="1" transform="translate(-81 -207.5) rotate(-90)"/>
      <rect x="-144.7" y="-65.7" width="1" height="1" transform="translate(-79 -209.5) rotate(-90)"/>
      <rect x="-144.7" y="-67.7" width="1" height="1" transform="translate(-77 -211.5) rotate(-90)"/>
      <rect x="-144.7" y="-69.7" width="1" height="1" transform="translate(-75 -213.5) rotate(-90)"/>
      <rect x="-144.7" y="-71.7" width="1" height="1" transform="translate(-73 -215.5) rotate(-90)"/>
      <rect x="-144.7" y="-73.7" width="1" height="1" transform="translate(-71 -217.5) rotate(-90)"/>
      <rect x="-144.7" y="-75.7" width="1" height="1" transform="translate(-69 -219.5) rotate(-90)"/>
      <rect x="-144.7" y="-77.7" width="1" height="1" transform="translate(-67 -221.5) rotate(-90)"/>
      <rect x="-142.7" y="-63.7" width="1" height="1" transform="translate(-79 -205.5) rotate(-90)"/>
      <rect x="-142.7" y="-65.7" width="1" height="1" transform="translate(-77 -207.5) rotate(-90)"/>
      <rect x="-142.7" y="-67.7" width="1" height="1" transform="translate(-75 -209.5) rotate(-90)"/>
      <rect x="-142.7" y="-69.7" width="1" height="1" transform="translate(-73 -211.5) rotate(-90)"/>
      <rect x="-142.7" y="-71.7" width="1" height="1" transform="translate(-71 -213.5) rotate(-90)"/>
      <rect x="-142.7" y="-73.7" width="1" height="1" transform="translate(-69 -215.5) rotate(-90)"/>
      <rect x="-142.7" y="-75.7" width="1" height="1" transform="translate(-67 -217.5) rotate(-90)"/>
      <rect x="-142.7" y="-77.7" width="1" height="1" transform="translate(-65 -219.5) rotate(-90)"/>
      <rect x="-137.7" y="-54.7" width="1" height="1" transform="translate(-83 -191.5) rotate(-90)"/>
      <rect x="-137.7" y="-56.7" width="1" height="1" transform="translate(-81 -193.5) rotate(-90)"/>
      <rect x="-137.7" y="-58.7" width="1" height="1" transform="translate(-79 -195.5) rotate(-90)"/>
      <rect x="-137.7" y="-60.7" width="1" height="1" transform="translate(-77 -197.5) rotate(-90)"/>
      <rect x="-137.7" y="-62.7" width="1" height="1" transform="translate(-75 -199.5) rotate(-90)"/>
      <rect x="-135.7" y="-54.7" width="1" height="1" transform="translate(-81 -189.5) rotate(-90)"/>
      <rect x="-135.7" y="-56.7" width="1" height="1" transform="translate(-79 -191.5) rotate(-90)"/>
      <rect x="-135.7" y="-58.7" width="1" height="1" transform="translate(-77 -193.5) rotate(-90)"/>
      <rect x="-135.7" y="-60.7" width="1" height="1" transform="translate(-75 -195.5) rotate(-90)"/>
      <rect x="-135.7" y="-62.7" width="1" height="1" transform="translate(-73 -197.5) rotate(-90)"/>
      <rect x="-137.7" y="-66.7" width="1" height="1" transform="translate(-71 -203.5) rotate(-90)"/>
      <rect x="-137.7" y="-68.7" width="1" height="1" transform="translate(-69 -205.5) rotate(-90)"/>
      <rect x="-137.7" y="-70.7" width="1" height="1" transform="translate(-67 -207.5) rotate(-90)"/>
      <rect x="-137.7" y="-72.7" width="1" height="1" transform="translate(-65 -209.5) rotate(-90)"/>
      <rect x="-137.7" y="-74.7" width="1" height="1" transform="translate(-63 -211.5) rotate(-90)"/>
      <rect x="-135.7" y="-66.7" width="1" height="1" transform="translate(-69 -201.5) rotate(-90)"/>
      <rect x="-135.7" y="-68.7" width="1" height="1" transform="translate(-67 -203.5) rotate(-90)"/>
      <rect x="-135.7" y="-70.7" width="1" height="1" transform="translate(-65 -205.5) rotate(-90)"/>
      <rect x="-135.7" y="-72.7" width="1" height="1" transform="translate(-63 -207.5) rotate(-90)"/>
      <rect x="-135.7" y="-74.7" width="1" height="1" transform="translate(-61 -209.5) rotate(-90)"/>
      <rect x="-137.7" y="-78.7" width="1" height="1" transform="translate(-59 -215.5) rotate(-90)"/>
      <rect x="-137.7" y="-80.7" width="1" height="1" transform="translate(-57 -217.5) rotate(-90)"/>
      <rect x="-137.7" y="-82.7" width="1" height="1" transform="translate(-55 -219.5) rotate(-90)"/>
      <rect x="-137.7" y="-84.7" width="1" height="1" transform="translate(-53 -221.5) rotate(-90)"/>
      <rect x="-137.7" y="-86.7" width="1" height="1" transform="translate(-51 -223.5) rotate(-90)"/>
      <rect x="-135.7" y="-78.7" width="1" height="1" transform="translate(-57 -213.5) rotate(-90)"/>
      <rect x="-135.7" y="-80.7" width="1" height="1" transform="translate(-55 -215.5) rotate(-90)"/>
      <rect x="-135.7" y="-82.7" width="1" height="1" transform="translate(-53 -217.5) rotate(-90)"/>
      <rect x="-135.7" y="-84.7" width="1" height="1" transform="translate(-51 -219.5) rotate(-90)"/>
      <rect x="-135.7" y="-86.7" width="1" height="1" transform="translate(-49 -221.5) rotate(-90)"/>
      <rect x="-131.7" y="-54.7" width="1" height="1" transform="translate(-77 -185.5) rotate(-90)"/>
      <rect x="-131.7" y="-56.7" width="1" height="1" transform="translate(-75 -187.5) rotate(-90)"/>
      <rect x="-131.7" y="-58.7" width="1" height="1" transform="translate(-73 -189.5) rotate(-90)"/>
      <rect x="-131.7" y="-60.7" width="1" height="1" transform="translate(-71 -191.5) rotate(-90)"/>
      <rect x="-131.7" y="-62.7" width="1" height="1" transform="translate(-69 -193.5) rotate(-90)"/>
      <rect x="-129.7" y="-54.7" width="1" height="1" transform="translate(-75 -183.5) rotate(-90)"/>
      <rect x="-129.7" y="-56.7" width="1" height="1" transform="translate(-73 -185.5) rotate(-90)"/>
      <rect x="-129.7" y="-58.7" width="1" height="1" transform="translate(-71 -187.5) rotate(-90)"/>
      <rect x="-129.7" y="-60.7" width="1" height="1" transform="translate(-69 -189.5) rotate(-90)"/>
      <rect x="-129.7" y="-62.7" width="1" height="1" transform="translate(-67 -191.5) rotate(-90)"/>
      <rect x="-131.7" y="-66.7" width="1" height="1" transform="translate(-65 -197.5) rotate(-90)"/>
      <rect x="-131.7" y="-68.7" width="1" height="1" transform="translate(-63 -199.5) rotate(-90)"/>
      <rect x="-131.7" y="-70.7" width="1" height="1" transform="translate(-61 -201.5) rotate(-90)"/>
      <rect x="-131.7" y="-72.7" width="1" height="1" transform="translate(-59 -203.5) rotate(-90)"/>
      <rect x="-131.7" y="-74.7" width="1" height="1" transform="translate(-57 -205.5) rotate(-90)"/>
      <rect x="-129.7" y="-66.7" width="1" height="1" transform="translate(-63 -195.5) rotate(-90)"/>
      <rect x="-129.7" y="-68.7" width="1" height="1" transform="translate(-61 -197.5) rotate(-90)"/>
      <rect x="-129.7" y="-70.7" width="1" height="1" transform="translate(-59 -199.5) rotate(-90)"/>
      <rect x="-129.7" y="-72.7" width="1" height="1" transform="translate(-57 -201.5) rotate(-90)"/>
      <rect x="-129.7" y="-74.7" width="1" height="1" transform="translate(-55 -203.5) rotate(-90)"/>
      <rect x="-131.7" y="-78.7" width="1" height="1" transform="translate(-53 -209.5) rotate(-90)"/>
      <rect x="-131.7" y="-80.7" width="1" height="1" transform="translate(-51 -211.5) rotate(-90)"/>
      <rect x="-131.7" y="-82.7" width="1" height="1" transform="translate(-49 -213.5) rotate(-90)"/>
      <rect x="-131.7" y="-84.7" width="1" height="1" transform="translate(-47 -215.5) rotate(-90)"/>
      <rect x="-131.7" y="-86.7" width="1" height="1" transform="translate(-45 -217.5) rotate(-90)"/>
      <rect x="-129.7" y="-78.7" width="1" height="1" transform="translate(-51 -207.5) rotate(-90)"/>
      <rect x="-129.7" y="-80.7" width="1" height="1" transform="translate(-49 -209.5) rotate(-90)"/>
      <rect x="-129.7" y="-82.7" width="1" height="1" transform="translate(-47 -211.5) rotate(-90)"/>
      <rect x="-129.7" y="-84.7" width="1" height="1" transform="translate(-45 -213.5) rotate(-90)"/>
      <rect x="-129.7" y="-86.7" width="1" height="1" transform="translate(-43 -215.5) rotate(-90)"/>
      <rect x="-125.7" y="-54.7" width="1" height="1" transform="translate(-71 -179.5) rotate(-90)"/>
      <rect x="-125.7" y="-56.7" width="1" height="1" transform="translate(-69 -181.5) rotate(-90)"/>
      <rect x="-125.7" y="-58.7" width="1" height="1" transform="translate(-67 -183.5) rotate(-90)"/>
      <rect x="-125.7" y="-60.7" width="1" height="1" transform="translate(-65 -185.5) rotate(-90)"/>
      <rect x="-125.7" y="-62.7" width="1" height="1" transform="translate(-63 -187.5) rotate(-90)"/>
      <rect x="-125.7" y="-64.7" width="1" height="1" transform="translate(-61 -189.5) rotate(-90)"/>
      <rect x="-125.7" y="-66.7" width="1" height="1" transform="translate(-59 -191.5) rotate(-90)"/>
      <rect x="-125.7" y="-68.7" width="1" height="1" transform="translate(-57 -193.5) rotate(-90)"/>
      <rect x="-125.7" y="-70.7" width="1" height="1" transform="translate(-55 -195.5) rotate(-90)"/>
      <rect x="-125.7" y="-72.7" width="1" height="1" transform="translate(-53 -197.5) rotate(-90)"/>
      <rect x="-125.7" y="-74.7" width="1" height="1" transform="translate(-51 -199.5) rotate(-90)"/>
      <rect x="-125.7" y="-76.7" width="1" height="1" transform="translate(-49 -201.5) rotate(-90)"/>
      <rect x="-125.7" y="-78.7" width="1" height="1" transform="translate(-47 -203.5) rotate(-90)"/>
      <rect x="-125.7" y="-80.7" width="1" height="1" transform="translate(-45 -205.5) rotate(-90)"/>
      <rect x="-125.7" y="-82.7" width="1" height="1" transform="translate(-43 -207.5) rotate(-90)"/>
      <rect x="-125.7" y="-84.7" width="1" height="1" transform="translate(-41 -209.5) rotate(-90)"/>
      <rect x="-125.7" y="-86.7" width="1" height="1" transform="translate(-39 -211.5) rotate(-90)"/>
      <rect x="-123.7" y="-54.7" width="1" height="1" transform="translate(-69 -177.5) rotate(-90)"/>
      <rect x="-123.7" y="-56.7" width="1" height="1" transform="translate(-67 -179.5) rotate(-90)"/>
      <rect x="-123.7" y="-58.7" width="1" height="1" transform="translate(-65 -181.5) rotate(-90)"/>
      <rect x="-123.7" y="-60.7" width="1" height="1" transform="translate(-63 -183.5) rotate(-90)"/>
      <rect x="-123.7" y="-62.7" width="1" height="1" transform="translate(-61 -185.5) rotate(-90)"/>
      <rect x="-123.7" y="-64.7" width="1" height="1" transform="translate(-59 -187.5) rotate(-90)"/>
      <rect x="-123.7" y="-66.7" width="1" height="1" transform="translate(-57 -189.5) rotate(-90)"/>
      <rect x="-123.7" y="-68.7" width="1" height="1" transform="translate(-55 -191.5) rotate(-90)"/>
      <rect x="-123.7" y="-70.7" width="1" height="1" transform="translate(-53 -193.5) rotate(-90)"/>
      <rect x="-123.7" y="-72.7" width="1" height="1" transform="translate(-51 -195.5) rotate(-90)"/>
      <rect x="-123.7" y="-74.7" width="1" height="1" transform="translate(-49 -197.5) rotate(-90)"/>
      <rect x="-123.7" y="-76.7" width="1" height="1" transform="translate(-47 -199.5) rotate(-90)"/>
      <rect x="-123.7" y="-78.7" width="1" height="1" transform="translate(-45 -201.5) rotate(-90)"/>
      <rect x="-123.7" y="-80.7" width="1" height="1" transform="translate(-43 -203.5) rotate(-90)"/>
      <rect x="-123.7" y="-82.7" width="1" height="1" transform="translate(-41 -205.5) rotate(-90)"/>
      <rect x="-123.7" y="-84.7" width="1" height="1" transform="translate(-39 -207.5) rotate(-90)"/>
      <rect x="-123.7" y="-86.7" width="1" height="1" transform="translate(-37 -209.5) rotate(-90)"/>
      <rect x="-121.7" y="-54.7" width="1" height="1" transform="translate(-67 -175.5) rotate(-90)"/>
      <rect x="-121.7" y="-56.7" width="1" height="1" transform="translate(-65 -177.5) rotate(-90)"/>
      <rect x="-121.7" y="-58.7" width="1" height="1" transform="translate(-63 -179.5) rotate(-90)"/>
      <rect x="-121.7" y="-60.7" width="1" height="1" transform="translate(-61 -181.5) rotate(-90)"/>
      <rect x="-121.7" y="-62.7" width="1" height="1" transform="translate(-59 -183.5) rotate(-90)"/>
      <rect x="-121.7" y="-64.7" width="1" height="1" transform="translate(-57 -185.5) rotate(-90)"/>
      <rect x="-121.7" y="-66.7" width="1" height="1" transform="translate(-55 -187.5) rotate(-90)"/>
      <rect x="-121.7" y="-68.7" width="1" height="1" transform="translate(-53 -189.5) rotate(-90)"/>
      <rect x="-121.7" y="-70.7" width="1" height="1" transform="translate(-51 -191.5) rotate(-90)"/>
      <rect x="-121.7" y="-72.7" width="1" height="1" transform="translate(-49 -193.5) rotate(-90)"/>
      <rect x="-121.7" y="-74.7" width="1" height="1" transform="translate(-47 -195.5) rotate(-90)"/>
      <rect x="-121.7" y="-76.7" width="1" height="1" transform="translate(-45 -197.5) rotate(-90)"/>
      <rect x="-121.7" y="-78.7" width="1" height="1" transform="translate(-43 -199.5) rotate(-90)"/>
      <rect x="-121.7" y="-80.7" width="1" height="1" transform="translate(-41 -201.5) rotate(-90)"/>
      <rect x="-121.7" y="-82.7" width="1" height="1" transform="translate(-39 -203.5) rotate(-90)"/>
      <rect x="-121.7" y="-84.7" width="1" height="1" transform="translate(-37 -205.5) rotate(-90)"/>
      <rect x="-121.7" y="-86.7" width="1" height="1" transform="translate(-35 -207.5) rotate(-90)"/>
      <rect x="-117.7" y="-54.7" width="1" height="1" transform="translate(-63 -171.5) rotate(-90)"/>
      <rect x="-117.7" y="-56.7" width="1" height="1" transform="translate(-61 -173.5) rotate(-90)"/>
      <rect x="-117.7" y="-58.7" width="1" height="1" transform="translate(-59 -175.5) rotate(-90)"/>
      <rect x="-117.7" y="-60.7" width="1" height="1" transform="translate(-57 -177.5) rotate(-90)"/>
      <rect x="-117.7" y="-62.7" width="1" height="1" transform="translate(-55 -179.5) rotate(-90)"/>
      <rect x="-117.7" y="-64.7" width="1" height="1" transform="translate(-53 -181.5) rotate(-90)"/>
      <rect x="-117.7" y="-66.7" width="1" height="1" transform="translate(-51 -183.5) rotate(-90)"/>
      <rect x="-117.7" y="-68.7" width="1" height="1" transform="translate(-49 -185.5) rotate(-90)"/>
      <rect x="-115.7" y="-54.7" width="1" height="1" transform="translate(-61 -169.5) rotate(-90)"/>
      <rect x="-115.7" y="-56.7" width="1" height="1" transform="translate(-59 -171.5) rotate(-90)"/>
      <rect x="-115.7" y="-58.7" width="1" height="1" transform="translate(-57 -173.5) rotate(-90)"/>
      <rect x="-115.7" y="-60.7" width="1" height="1" transform="translate(-55 -175.5) rotate(-90)"/>
      <rect x="-115.7" y="-62.7" width="1" height="1" transform="translate(-53 -177.5) rotate(-90)"/>
      <rect x="-115.7" y="-64.7" width="1" height="1" transform="translate(-51 -179.5) rotate(-90)"/>
      <rect x="-115.7" y="-66.7" width="1" height="1" transform="translate(-49 -181.5) rotate(-90)"/>
      <rect x="-115.7" y="-68.7" width="1" height="1" transform="translate(-47 -183.5) rotate(-90)"/>
    </g>
    <g>
      <g>
        <polygon class="st1" points="304 6 304 -1 270 -1 270 53 304 53 311 53 311 6 304 6"/>
        <polygon class="st1" points="308 2 307 2 307 1 306 1 306 0 305 0 305 1 305 2 305 3 308 3 308 2"/>
        <polygon class="st1" points="310 4 309 4 309 3 305 3 305 4 305 4 305 5 310 5 310 4"/>
      </g>
      <g>
        <rect x="270" y="53" width="41" height="1"/>
        <rect x="269" y="-2" width="1" height="56"/>
        <g>
          <rect x="270" y="-2" width="35" height="1"/>
          <rect x="311" y="5" width="1" height="49"/>
          <rect x="310" y="4" width="1" height="1"/>
          <rect x="309" y="3" width="1" height="1"/>
          <rect x="308" y="2" width="1" height="1"/>
          <rect x="307" y="1" width="1" height="1"/>
          <rect x="306" width="1" height="1"/>
          <rect x="305" y="-1" width="1" height="1"/>
          <rect x="304" y="-1" width="1" height="6"/>
          <rect x="304" y="5" width="7" height="1"/>
        </g>
        <rect x="262" y="4" width="18" height="10"/>
        <g>
          <path class="st1" d="M268.2,6.7v2h-.7v.7h-2.1v2.7h-1.4v-6h3.5v.7h.7ZM266.8,8.7v-2h-1.4v2h1.4Z"/>
          <path class="st1" d="M273.5,6.7v4.7h-.7v.7h-3.5v-6h3.5v.7h.7ZM272.1,11.3v-4.7h-1.4v4.7h1.4Z"/>
          <path class="st1" d="M278,6v.7h-2.1v2h1.4v.7h-1.4v2.7h-1.4v-6h3.5Z"/>
        </g>
        <g>
          <rect x="283" y="5" width="1" height="1"/>
          <rect x="285" y="5" width="1" height="1"/>
          <rect x="287" y="5" width="1" height="1"/>
          <rect x="289" y="5" width="1" height="1"/>
          <rect x="291" y="5" width="1" height="1"/>
          <rect x="293" y="5" width="1" height="1"/>
          <rect x="295" y="5" width="1" height="1"/>
          <rect x="297" y="5" width="1" height="1"/>
          <rect x="283" y="7" width="1" height="1"/>
          <rect x="285" y="7" width="1" height="1"/>
          <rect x="287" y="7" width="1" height="1"/>
          <rect x="289" y="7" width="1" height="1"/>
          <rect x="291" y="7" width="1" height="1"/>
          <rect x="293" y="7" width="1" height="1"/>
          <rect x="295" y="7" width="1" height="1"/>
          <rect x="297" y="7" width="1" height="1"/>
        </g>
        <rect x="274" y="45" width="1" height="1"/>
        <rect x="276" y="45" width="1" height="1"/>
        <rect x="278" y="45" width="1" height="1"/>
        <rect x="280" y="45" width="1" height="1"/>
        <rect x="282" y="45" width="1" height="1"/>
        <rect x="284" y="45" width="1" height="1"/>
        <rect x="286" y="45" width="1" height="1"/>
        <g>
          <rect x="283" y="11" width="1" height="1"/>
          <rect x="285" y="11" width="1" height="1"/>
          <rect x="287" y="11" width="1" height="1"/>
          <rect x="289" y="11" width="1" height="1"/>
          <rect x="291" y="11" width="1" height="1"/>
          <rect x="293" y="11" width="1" height="1"/>
          <rect x="295" y="11" width="1" height="1"/>
          <rect x="297" y="11" width="1" height="1"/>
          <rect x="283" y="13" width="1" height="1"/>
          <rect x="285" y="13" width="1" height="1"/>
          <rect x="287" y="13" width="1" height="1"/>
          <rect x="289" y="13" width="1" height="1"/>
          <rect x="291" y="13" width="1" height="1"/>
          <rect x="293" y="13" width="1" height="1"/>
          <rect x="295" y="13" width="1" height="1"/>
          <rect x="297" y="13" width="1" height="1"/>
        </g>
        <g>
          <rect x="274" y="18" width="1" height="1"/>
          <rect x="276" y="18" width="1" height="1"/>
          <rect x="278" y="18" width="1" height="1"/>
          <rect x="280" y="18" width="1" height="1"/>
          <rect x="282" y="18" width="1" height="1"/>
          <rect x="274" y="20" width="1" height="1"/>
          <rect x="276" y="20" width="1" height="1"/>
          <rect x="278" y="20" width="1" height="1"/>
          <rect x="280" y="20" width="1" height="1"/>
          <rect x="282" y="20" width="1" height="1"/>
        </g>
        <g>
          <rect x="286" y="18" width="1" height="1"/>
          <rect x="288" y="18" width="1" height="1"/>
          <rect x="290" y="18" width="1" height="1"/>
          <rect x="292" y="18" width="1" height="1"/>
          <rect x="294" y="18" width="1" height="1"/>
          <rect x="286" y="20" width="1" height="1"/>
          <rect x="288" y="20" width="1" height="1"/>
          <rect x="290" y="20" width="1" height="1"/>
          <rect x="292" y="20" width="1" height="1"/>
          <rect x="294" y="20" width="1" height="1"/>
        </g>
        <g>
          <rect x="298" y="18" width="1" height="1"/>
          <rect x="300" y="18" width="1" height="1"/>
          <rect x="302" y="18" width="1" height="1"/>
          <rect x="304" y="18" width="1" height="1"/>
          <rect x="306" y="18" width="1" height="1"/>
          <rect x="298" y="20" width="1" height="1"/>
          <rect x="300" y="20" width="1" height="1"/>
          <rect x="302" y="20" width="1" height="1"/>
          <rect x="304" y="20" width="1" height="1"/>
          <rect x="306" y="20" width="1" height="1"/>
        </g>
        <g>
          <rect x="274" y="24" width="1" height="1"/>
          <rect x="276" y="24" width="1" height="1"/>
          <rect x="278" y="24" width="1" height="1"/>
          <rect x="280" y="24" width="1" height="1"/>
          <rect x="282" y="24" width="1" height="1"/>
          <rect x="274" y="26" width="1" height="1"/>
          <rect x="276" y="26" width="1" height="1"/>
          <rect x="278" y="26" width="1" height="1"/>
          <rect x="280" y="26" width="1" height="1"/>
          <rect x="282" y="26" width="1" height="1"/>
        </g>
        <g>
          <rect x="286" y="24" width="1" height="1"/>
          <rect x="288" y="24" width="1" height="1"/>
          <rect x="290" y="24" width="1" height="1"/>
          <rect x="292" y="24" width="1" height="1"/>
          <rect x="294" y="24" width="1" height="1"/>
          <rect x="286" y="26" width="1" height="1"/>
          <rect x="288" y="26" width="1" height="1"/>
          <rect x="290" y="26" width="1" height="1"/>
          <rect x="292" y="26" width="1" height="1"/>
          <rect x="294" y="26" width="1" height="1"/>
        </g>
        <g>
          <rect x="298" y="24" width="1" height="1"/>
          <rect x="300" y="24" width="1" height="1"/>
          <rect x="302" y="24" width="1" height="1"/>
          <rect x="304" y="24" width="1" height="1"/>
          <rect x="306" y="24" width="1" height="1"/>
          <rect x="298" y="26" width="1" height="1"/>
          <rect x="300" y="26" width="1" height="1"/>
          <rect x="302" y="26" width="1" height="1"/>
          <rect x="304" y="26" width="1" height="1"/>
          <rect x="306" y="26" width="1" height="1"/>
        </g>
        <rect x="274" y="30" width="1" height="1"/>
        <rect x="276" y="30" width="1" height="1"/>
        <rect x="278" y="30" width="1" height="1"/>
        <rect x="280" y="30" width="1" height="1"/>
        <rect x="282" y="30" width="1" height="1"/>
        <rect x="284" y="30" width="1" height="1"/>
        <rect x="286" y="30" width="1" height="1"/>
        <rect x="288" y="30" width="1" height="1"/>
        <rect x="290" y="30" width="1" height="1"/>
        <rect x="292" y="30" width="1" height="1"/>
        <rect x="294" y="30" width="1" height="1"/>
        <rect x="296" y="30" width="1" height="1"/>
        <rect x="298" y="30" width="1" height="1"/>
        <rect x="300" y="30" width="1" height="1"/>
        <rect x="302" y="30" width="1" height="1"/>
        <rect x="304" y="30" width="1" height="1"/>
        <rect x="306" y="30" width="1" height="1"/>
        <g>
          <rect x="274" y="32" width="1" height="1"/>
          <rect x="276" y="32" width="1" height="1"/>
          <rect x="278" y="32" width="1" height="1"/>
          <rect x="280" y="32" width="1" height="1"/>
          <rect x="282" y="32" width="1" height="1"/>
          <rect x="284" y="32" width="1" height="1"/>
          <rect x="286" y="32" width="1" height="1"/>
          <rect x="288" y="32" width="1" height="1"/>
          <rect x="290" y="32" width="1" height="1"/>
          <rect x="292" y="32" width="1" height="1"/>
          <rect x="294" y="32" width="1" height="1"/>
          <rect x="296" y="32" width="1" height="1"/>
          <rect x="298" y="32" width="1" height="1"/>
          <rect x="300" y="32" width="1" height="1"/>
          <rect x="302" y="32" width="1" height="1"/>
          <rect x="304" y="32" width="1" height="1"/>
          <rect x="306" y="32" width="1" height="1"/>
        </g>
        <g>
          <rect x="274" y="34" width="1" height="1"/>
          <rect x="276" y="34" width="1" height="1"/>
          <rect x="278" y="34" width="1" height="1"/>
          <rect x="280" y="34" width="1" height="1"/>
          <rect x="282" y="34" width="1" height="1"/>
          <rect x="284" y="34" width="1" height="1"/>
          <rect x="286" y="34" width="1" height="1"/>
          <rect x="288" y="34" width="1" height="1"/>
          <rect x="290" y="34" width="1" height="1"/>
          <rect x="292" y="34" width="1" height="1"/>
          <rect x="294" y="34" width="1" height="1"/>
          <rect x="296" y="34" width="1" height="1"/>
          <rect x="298" y="34" width="1" height="1"/>
          <rect x="300" y="34" width="1" height="1"/>
          <rect x="302" y="34" width="1" height="1"/>
          <rect x="304" y="34" width="1" height="1"/>
          <rect x="306" y="34" width="1" height="1"/>
        </g>
        <g>
          <rect x="274" y="38" width="1" height="1"/>
          <rect x="276" y="38" width="1" height="1"/>
          <rect x="278" y="38" width="1" height="1"/>
          <rect x="280" y="38" width="1" height="1"/>
          <rect x="282" y="38" width="1" height="1"/>
          <rect x="284" y="38" width="1" height="1"/>
          <rect x="286" y="38" width="1" height="1"/>
          <rect x="288" y="38" width="1" height="1"/>
          <rect x="274" y="40" width="1" height="1"/>
          <rect x="276" y="40" width="1" height="1"/>
          <rect x="278" y="40" width="1" height="1"/>
          <rect x="280" y="40" width="1" height="1"/>
          <rect x="282" y="40" width="1" height="1"/>
          <rect x="284" y="40" width="1" height="1"/>
          <rect x="286" y="40" width="1" height="1"/>
          <rect x="288" y="40" width="1" height="1"/>
        </g>
      </g>
    </g>
  </g>
  <g id="phone">
    <g>
      <g>
        <rect class="st2" width="64" height="42"/>
        <path id="new_desktop" class="st1" d="M4.1,3.9h39.1c1,0,1.8.8,1.8,1.8v20.8H2.3V5.7c0-1,.8-1.8,1.8-1.8Z"/>
        <path id="imac" class="st0" d="M46.2,5.1v12.2h-1.2V5.2c0-.8-.5-1.3-1.3-1.3H3.6c-.8,0-1.3.5-1.3,1.3v20.1c0,.8.4,1.1,1.1,1.1h23.4v11.2h-1.6c-1.2,0-2.2,1-2.2,2.2s0,.4,0,.6h-5.7c-.4,0-.6-.2-.6-.6s.2-.6.6-.6h.5v-5.3H3.5c-1.5,0-2.4-1-2.4-2.4V5.1c0-1.4.9-2.4,2.4-2.4h40.2c1.5,0,2.4,1,2.4,2.4Z"/>
        <path id="new_laptop_screen" class="st1" d="M31.4,20h24.4c1,0,1.8.8,1.8,1.8v17.4h-28v-17.4c0-1,.8-1.8,1.8-1.8Z"/>
        <path id="laptop" class="st0" d="M24.6,39.8c0,.3.2.6.6.6h36.6c.3,0,.6-.3.6-.6s-.2-.6-.6-.6h-3.1v-16.5c0-2.6-1.3-3.8-3.8-3.8h-22.6c-2.5,0-3.8,1.3-3.8,3.8v16.5h-3.2c-.4,0-.6.2-.6.6ZM29.6,39.2v-16.4c0-1.9.9-2.8,2.8-2.8h22.4c1.8,0,2.8.9,2.8,2.8v16.4h-28Z"/>
      </g>
      <g>
        <rect id="screen" class="st1" x="5.8" y="20.8" width="12.5" height="21.1" rx="1.2" ry="1.2"/>
        <g>
          <rect id="screen1" data-name="screen" class="st1" x="7.1" y="22.2" width="9.9" height="18.6" rx="1.2" ry="1.2"/>
          <g>
            <rect class="st2" x="6.5" y="21.6" width="11.5" height="19.7"/>
            <path class="st0" d="M8.9,41.3h6.3c1.6,0,2.4-.8,2.4-2.4v-14.9c0-1.6-.8-2.4-2.4-2.4h-6.3c-1.6,0-2.4.8-2.4,2.4v14.9c0,1.6.8,2.4,2.4,2.4ZM9,40.7c-1.3,0-1.8-.6-1.8-1.9v-14.9c0-1.3.6-1.8,1.8-1.8h6.2c1.3,0,1.8.6,1.8,1.8v14.9c0,1.3-.6,1.9-1.8,1.9h-6.2ZM10.1,40.1h4c.1,0,.3-.1.3-.3s-.1-.3-.3-.3h-4c-.2,0-.3.1-.3.3s.1.3.3.3ZM11,23.5h2.2c.2,0,.4-.2.4-.4s-.2-.4-.4-.4h-2.2c-.2,0-.4.2-.4.4s.2.4.4.4Z"/>
          </g>
        </g>
      </g>
    </g>
  </g>
</svg>