<?xml version="1.0" encoding="UTF-8"?>
<svg id="Icon_Layer" xmlns="http://www.w3.org/2000/svg" version="1.1" viewBox="0 0 32 32">
  <!-- Generator: Adobe Illustrator 29.4.0, SVG Export Plug-In . SVG Version: 2.1.0 Build 152)  -->
  <defs>
    <style>
      .st0 {
        fill: #fff;
      }
    </style>
  </defs>
  <rect y="0" width="32" height="32"/>
  <g>
    <path class="st0" d="M10,15.5v-1h-1v-1h-1v-1h-2v1h-1v1h-1v1h-1v2h2v1h1v-1h2v1h1v-1h2v-2h-1ZM5,16.5v-1h1v1h-1ZM8,16.5v-1h1v1h-1Z"/>
    <rect class="st0" x="6" y="18.5" width="2" height="1"/>
    <rect class="st0" x="9" y="18.5" width="1" height="1"/>
    <rect class="st0" x="4" y="18.5" width="1" height="1"/>
    <rect class="st0" x="3" y="19.5" width="1" height="1"/>
    <rect class="st0" x="10" y="19.5" width="1" height="1"/>
    <rect class="st0" x="5" y="19.5" width="1" height="1"/>
    <rect class="st0" x="8" y="19.5" width="1" height="1"/>
  </g>
  <g>
    <path class="st0" d="M29,14.5v-1h-3v-1h-4v1h-3v1h-1v3h3v1h-1v1h2v-1h1v-1h2.2v1h.8v1h2v-1h-.8v-1h2.8v-3h-1ZM21,16.5v-1h2v1h-2ZM27,16.5h-2v-1h2v1Z"/>
    <rect class="st0" x="28" y="19.5" width="2" height="1"/>
    <rect class="st0" x="18" y="19.5" width="2" height="1"/>
    <rect class="st0" x="23" y="19.5" width="2" height="1"/>
  </g>
  <g>
    <rect class="st0" x="4" y="21.5" width="1" height="1"/>
    <rect class="st0" x="8" y="28.5" width="2" height="1"/>
    <rect class="st0" x="5" y="28.5" width="2" height="1"/>
    <rect class="st0" x="10" y="21.5" width="1" height="1"/>
    <path class="st0" d="M12,25.5v-1h-1v-1h-1v-1h-1v1h-3v-1h-1v1h-1v1h-1v1h-1v3h1v-2h1v2h1v-1h5v1h1v-2h1v2h1v-3h-1ZM10,24.5v1h-1v-1h1ZM5,24.5h1v1h-1v-1Z"/>
  </g>
  <g>
    <rect class="st0" x="24" y="22.5" width="1" height="2"/>
    <rect class="st0" x="26" y="25.5" width="2" height="1"/>
    <rect class="st0" x="21" y="25.5" width="2" height="1"/>
    <rect class="st0" x="22" y="23.5" width="1" height="1"/>
    <rect class="st0" x="27" y="22.5" width="1" height="1"/>
    <rect class="st0" x="26" y="23.5" width="1" height="1"/>
    <rect class="st0" x="22" y="27.5" width="1" height="1"/>
    <rect class="st0" x="21" y="28.5" width="1" height="1"/>
    <rect class="st0" x="21" y="22.5" width="1" height="1"/>
    <rect class="st0" x="24" y="27.5" width="1" height="2"/>
    <rect class="st0" x="27" y="28.5" width="1" height="1"/>
    <rect class="st0" x="26" y="27.5" width="1" height="1"/>
  </g>
  <path class="st0" d="M22,6v-1h-1v-1h-1v-1h-2v-1h-6v1h-2v1h-1v1h-1v1h-1v1h2v1h1v1h1v-1h1v-1h2v1h2v-1h3v1h1.2v1h1v-1h.8v-1h1v-1h-1ZM20,6h-1v-1h1v1ZM10,5h1v1h-1v-1ZM13,6v-1h1v1h-1ZM16,6v-1h1v1h-1Z"/>
  <g>
    <rect class="st0" x="14" y="12.6" width="1" height="1"/>
    <rect class="st0" x="15" y="11.6" width="1" height="1"/>
    <rect class="st0" x="15" y="9.6" width="1" height="1"/>
    <rect class="st0" x="14" y="10.6" width="1" height="1"/>
    <rect class="st0" x="14" y="16.6" width="1" height="1"/>
    <rect class="st0" x="15" y="15.6" width="1" height="1"/>
    <rect class="st0" x="15" y="13.6" width="1" height="1"/>
    <rect class="st0" x="14" y="14.6" width="1" height="1"/>
  </g>
</svg>