<?xml version="1.0" encoding="UTF-8"?>
<svg xmlns="http://www.w3.org/2000/svg" version="1.1" viewBox="0 0 32 32">
  <!-- Generator: Adobe Illustrator 29.4.0, SVG Export Plug-In . SVG Version: 2.1.0 Build 152)  -->
  <defs>
    <style>
      .st0 {
        fill: #fff;
      }
    </style>
  </defs>
  <g id="Layer_2">
    <rect class="st0" width="32" height="32"/>
  </g>
  <g id="Layer_4">
    <g>
      <rect y="4" width="1" height="1"/>
      <rect x="4" width="5" height="1"/>
      <rect x="7" y="10" width="6" height="1"/>
      <rect x="5" y="1" width="5" height="1"/>
      <rect x="7" y="3" width="3" height="3"/>
      <rect x="6" y="6" width="4" height="1"/>
      <rect y="5" width="2" height="1"/>
      <rect y="6" width="3" height="1"/>
      <rect x="6" y="2" width="4" height="1"/>
      <rect y="7" width="10" height="1"/>
      <rect x="1" y="8" width="10" height="1"/>
      <rect x="8" y="11" width="6" height="1"/>
      <rect x="9" y="12" width="6" height="1"/>
      <rect x="10" y="13" width="6" height="1"/>
      <rect x="11" y="14" width="6" height="1"/>
      <rect x="12" y="15" width="6" height="1"/>
      <rect x="13" y="16" width="6" height="1"/>
      <rect x="14" y="17" width="6" height="1"/>
      <rect x="15" y="18" width="6" height="1"/>
      <rect x="2" y="9" width="10" height="1"/>
      <rect x="16" y="19" width="6" height="1"/>
      <rect x="17" y="20" width="6" height="1"/>
      <rect x="18" y="21" width="6" height="1"/>
      <rect x="19" y="22" width="6" height="1"/>
      <rect x="20" y="23" width="6" height="1"/>
      <rect x="21" y="24" width="6" height="1"/>
      <rect x="22" y="25" width="6" height="1"/>
      <rect x="23" y="26" width="6" height="1"/>
      <rect class="st0" x="26" y="27" width="2" height="2"/>
      <rect x="28" y="28" width="2" height="1"/>
      <rect x="25" y="29" width="4" height="1"/>
      <rect x="26" y="30" width="2" height="1"/>
      <rect x="24" y="28" width="2" height="1"/>
      <rect x="28" y="27" width="2" height="1"/>
      <rect x="24" y="27" width="2" height="1"/>
    </g>
    <rect x="1" y="30" width="3" height="1"/>
    <rect y="29" width="5" height="1"/>
    <rect x="2" y="27" width="5" height="1"/>
    <rect x="1" y="28" width="5" height="1"/>
    <rect x="3" y="26" width="5" height="1"/>
    <rect x="5" y="24" width="5" height="1"/>
    <rect x="4" y="25" width="5" height="1"/>
    <rect x="6" y="23" width="5" height="1"/>
    <rect x="8" y="21" width="5" height="1"/>
    <rect x="7" y="22" width="5" height="1"/>
    <rect x="9" y="20" width="5" height="1"/>
    <rect x="17" y="13" width="3" height="1"/>
    <rect x="2" y="31" width="1" height="1"/>
    <rect x="12" y="17" width="1" height="1"/>
    <rect x="18" y="14" width="1" height="1"/>
    <rect x="14" y="16" width="5" height="1"/>
    <rect x="16" y="12" width="5" height="1"/>
    <rect x="17" y="11" width="5" height="1"/>
    <rect x="19" y="9" width="5" height="1"/>
    <rect x="18" y="10" width="5" height="1"/>
    <rect x="18" y="1" width="6" height="1"/>
    <rect x="16" y="2" width="9" height="1"/>
    <rect x="16" y="3" width="10" height="1"/>
    <rect x="21" y="4" width="6" height="1"/>
    <rect x="22" y="5" width="6" height="1"/>
    <rect x="22" y="6" width="7" height="1"/>
    <rect x="21" y="7" width="10" height="1"/>
    <rect x="20" y="8" width="12" height="1"/>
    <rect x="25" y="9" width="7" height="1"/>
    <rect x="26" y="10" width="5" height="1"/>
    <rect x="27" y="11" width="3" height="1"/>
    <rect x="28" y="12" width="1" height="1"/>
    <rect x="11" y="18" width="3" height="1"/>
    <rect x="10" y="19" width="5" height="1"/>
  </g>
</svg>