<?xml version="1.0" encoding="UTF-8"?><svg id="a" xmlns="http://www.w3.org/2000/svg" viewBox="0 0 25 32"><polygon points="18 7 18 1 1 1 1 31 18 31 24 31 24 7 18 7" fill="#fff"/><polygon points="21 6 22 6 23 6 23 5 22 5 22 4 21 4 21 3 20 3 20 2 19 2 19 6 20 6 21 6" fill="#fff"/><polygon points="22 4 22 3 21 3 21 4 22 4 22 5 23 5 23 4 22 4"/><rect x="20" y="2" width="1" height="1"/><path d="M24,6v-1h-1v1h-4V2h1v-1h-1V0H0v32h25V6h-1ZM1,31V1h17v6h1s5,0,5,0v24H1Z"/><rect x="17" y="8" width="1" height="1"/><rect x="18" y="9" width="1" height="1"/><rect x="5" y="9" width="1" height="1"/><rect x="6" y="8" width="1" height="1"/><path d="M20,12v-2h-1v1h-3v-2h-1v-1h2v-1h-2v-1h-6v1h-2v1h2v1h-1v2h-3v-1h-1v2h-1v7h1v2h1v-1h3v2h1v1h-2v1h2v1h5v-1h-4v-3h-1v-1h5v-1h-5v-3h6v2h1v-2h4v2h-1v3h1v-2h1v-7h-1ZM9,10h1v-2h1v-1h2v1h1v2h1v1h-6v-1ZM4,13h1v-1h3v3h-4v-2ZM8,19h-3v-1h-1v-2h4v3ZM20,15h-4v-2.99h-1v2.99h-6v-3h10v1h1v2Z"/><rect x="6" y="22" width="1" height="1"/><rect x="5" y="21" width="1" height="1"/><polygon points="21 29 21 28 20 28 20 27 20 26 21.74 26 21.74 25 21 25 21 24 20 24 20 23 19 23 19 22 18 22 18 21 17 21 17 20 16 20 16 19 15 19 15 29 16 29 16 28 17 28 17 27 18 27 18 28 19 28 19 29 20 29 20 30 22 30 22 29 21 29"/></svg>