<?xml version="1.0" encoding="UTF-8"?><svg id="a" xmlns="http://www.w3.org/2000/svg" viewBox="0 0 32 32"><polygon points="22 7 22 1 5 1 5 31 22 31 28 31 28 7 22 7" fill="#fff"/><polygon points="25 6 26 6 27 6 27 5 26 5 26 4 25 4 25 3 24 3 24 2 23 2 23 6 24 6 25 6" fill="#fff"/><polygon points="26 4 26 3 25 3 25 4 26 4 26 5 27 5 27 4 26 4"/><rect x="24" y="2" width="1" height="1"/><path d="M28,6v-1h-1v1h-4V2h1v-1h-1V0H4v32h25V6h-1ZM5,31V1h17v6h1s5,0,5,0v24H5Z"/><rect x="21" y="8" width="1" height="1"/><rect x="22" y="9" width="1" height="1"/><rect x="9" y="9" width="1" height="1"/><rect x="10" y="8" width="1" height="1"/><path d="M24,12v-2h-1v1h-3v-2h-1v-1h2v-1h-2v-1h-6v1h-2v1h2v1h-1v2h-3v-1h-1v2h-1v7h1v2h1v-1h3v2h1v1h-2v1h2v1h5v-1h-4v-3h-1v-1h5v-1h-5v-3h6v2h1v-2h4v2h-1v3h1v-2h1v-7h-1ZM13,10h1v-2h1v-1h2v1h1v2h1v1h-6v-1ZM8,13h1v-1h3v3h-4v-2ZM12,19h-3v-1h-1v-2h4v3ZM24,15h-4v-2.99h-1v2.99h-6v-3h10v1h1v2Z"/><rect x="10" y="22" width="1" height="1"/><rect x="9" y="21" width="1" height="1"/><polygon points="26 29 26 28 25 28 25 27 24 27 24 26 25.74 26 25.74 25 25 25 25 24 24 24 24 23 23 23 23 22 22 22 22 21 21 21 21 20 20 20 20 19 19 19 19 29 20 29 20 28 21 28 21 27 23 27 23 28 24 28 24 29 25 29 25 30 27 30 27 29 26 29"/></svg>